G04 #@! TF.FileFunction,Legend,Top*
%FSLAX46Y46*%
G04 Gerber Fmt 4.6, Leading zero omitted, Abs format (unit mm)*
G04 Created by KiCad (PCBNEW (2015-08-16 BZR 6097, Git b384c94)-product) date 08/12/2015 20:08:44*
%MOMM*%
G01*
G04 APERTURE LIST*
%ADD10C,0.100000*%
%ADD11C,0.070000*%
%ADD12C,0.200000*%
%ADD13C,0.150000*%
G04 APERTURE END LIST*
D10*
D11*
X98225000Y-66414523D02*
X98205952Y-66452618D01*
X98205952Y-66509761D01*
X98225000Y-66566904D01*
X98263095Y-66604999D01*
X98301190Y-66624047D01*
X98377381Y-66643095D01*
X98434524Y-66643095D01*
X98510714Y-66624047D01*
X98548810Y-66604999D01*
X98586905Y-66566904D01*
X98605952Y-66509761D01*
X98605952Y-66471666D01*
X98586905Y-66414523D01*
X98567857Y-66395475D01*
X98434524Y-66395475D01*
X98434524Y-66471666D01*
X98605952Y-66224047D02*
X98205952Y-66224047D01*
X98605952Y-65995475D01*
X98205952Y-65995475D01*
X98605952Y-65804999D02*
X98205952Y-65804999D01*
X98205952Y-65709761D01*
X98225000Y-65652618D01*
X98263095Y-65614523D01*
X98301190Y-65595475D01*
X98377381Y-65576427D01*
X98434524Y-65576427D01*
X98510714Y-65595475D01*
X98548810Y-65614523D01*
X98586905Y-65652618D01*
X98605952Y-65709761D01*
X98605952Y-65804999D01*
X98491667Y-65424047D02*
X98491667Y-65233570D01*
X98605952Y-65462142D02*
X98205952Y-65328808D01*
X98605952Y-65195475D01*
X98205952Y-64795475D02*
X98605952Y-64528808D01*
X98205952Y-64528808D02*
X98605952Y-64795475D01*
X98205952Y-64185952D02*
X98205952Y-64376428D01*
X98396429Y-64395476D01*
X98377381Y-64376428D01*
X98358333Y-64338333D01*
X98358333Y-64243095D01*
X98377381Y-64204999D01*
X98396429Y-64185952D01*
X98434524Y-64166904D01*
X98529762Y-64166904D01*
X98567857Y-64185952D01*
X98586905Y-64204999D01*
X98605952Y-64243095D01*
X98605952Y-64338333D01*
X98586905Y-64376428D01*
X98567857Y-64395476D01*
X96339047Y-69776952D02*
X96148571Y-69776952D01*
X96148571Y-69376952D01*
X96472381Y-69776952D02*
X96472381Y-69376952D01*
X96662857Y-69776952D02*
X96662857Y-69376952D01*
X96891429Y-69776952D01*
X96891429Y-69376952D01*
X93799048Y-69776952D02*
X93665714Y-69586476D01*
X93570476Y-69776952D02*
X93570476Y-69376952D01*
X93722857Y-69376952D01*
X93760952Y-69396000D01*
X93780000Y-69415048D01*
X93799048Y-69453143D01*
X93799048Y-69510286D01*
X93780000Y-69548381D01*
X93760952Y-69567429D01*
X93722857Y-69586476D01*
X93570476Y-69586476D01*
X93970476Y-69776952D02*
X93970476Y-69376952D01*
X94160952Y-69776952D02*
X94160952Y-69376952D01*
X94389524Y-69776952D01*
X94389524Y-69376952D01*
X90773333Y-69662667D02*
X90963810Y-69662667D01*
X90735238Y-69776952D02*
X90868572Y-69376952D01*
X91001905Y-69776952D01*
X91078095Y-69376952D02*
X91211429Y-69776952D01*
X91344762Y-69376952D01*
X91478095Y-69776952D02*
X91478095Y-69376952D01*
X91573333Y-69376952D01*
X91630476Y-69396000D01*
X91668571Y-69434095D01*
X91687619Y-69472190D01*
X91706667Y-69548381D01*
X91706667Y-69605524D01*
X91687619Y-69681714D01*
X91668571Y-69719810D01*
X91630476Y-69757905D01*
X91573333Y-69776952D01*
X91478095Y-69776952D01*
X91878095Y-69776952D02*
X91878095Y-69376952D01*
X91973333Y-69376952D01*
X92030476Y-69396000D01*
X92068571Y-69434095D01*
X92087619Y-69472190D01*
X92106667Y-69548381D01*
X92106667Y-69605524D01*
X92087619Y-69681714D01*
X92068571Y-69719810D01*
X92030476Y-69757905D01*
X91973333Y-69776952D01*
X91878095Y-69776952D01*
X88452380Y-69776952D02*
X88261904Y-69776952D01*
X88261904Y-69376952D01*
X88661905Y-69376952D02*
X88738095Y-69376952D01*
X88776190Y-69396000D01*
X88814286Y-69434095D01*
X88833333Y-69510286D01*
X88833333Y-69643619D01*
X88814286Y-69719810D01*
X88776190Y-69757905D01*
X88738095Y-69776952D01*
X88661905Y-69776952D01*
X88623809Y-69757905D01*
X88585714Y-69719810D01*
X88566666Y-69643619D01*
X88566666Y-69510286D01*
X88585714Y-69434095D01*
X88623809Y-69396000D01*
X88661905Y-69376952D01*
X89004762Y-69376952D02*
X89004762Y-69700762D01*
X89023810Y-69738857D01*
X89042857Y-69757905D01*
X89080953Y-69776952D01*
X89157143Y-69776952D01*
X89195238Y-69757905D01*
X89214286Y-69738857D01*
X89233334Y-69700762D01*
X89233334Y-69376952D01*
X89366667Y-69376952D02*
X89595239Y-69376952D01*
X89480953Y-69776952D02*
X89480953Y-69376952D01*
X85912381Y-69776952D02*
X85779047Y-69586476D01*
X85683809Y-69776952D02*
X85683809Y-69376952D01*
X85836190Y-69376952D01*
X85874285Y-69396000D01*
X85893333Y-69415048D01*
X85912381Y-69453143D01*
X85912381Y-69510286D01*
X85893333Y-69548381D01*
X85874285Y-69567429D01*
X85836190Y-69586476D01*
X85683809Y-69586476D01*
X86160000Y-69376952D02*
X86236190Y-69376952D01*
X86274285Y-69396000D01*
X86312381Y-69434095D01*
X86331428Y-69510286D01*
X86331428Y-69643619D01*
X86312381Y-69719810D01*
X86274285Y-69757905D01*
X86236190Y-69776952D01*
X86160000Y-69776952D01*
X86121904Y-69757905D01*
X86083809Y-69719810D01*
X86064761Y-69643619D01*
X86064761Y-69510286D01*
X86083809Y-69434095D01*
X86121904Y-69396000D01*
X86160000Y-69376952D01*
X86502857Y-69376952D02*
X86502857Y-69700762D01*
X86521905Y-69738857D01*
X86540952Y-69757905D01*
X86579048Y-69776952D01*
X86655238Y-69776952D01*
X86693333Y-69757905D01*
X86712381Y-69738857D01*
X86731429Y-69700762D01*
X86731429Y-69376952D01*
X86864762Y-69376952D02*
X87093334Y-69376952D01*
X86979048Y-69776952D02*
X86979048Y-69376952D01*
X86868000Y-73279000D02*
X86868000Y-73406000D01*
X86741000Y-73279000D02*
X86868000Y-73279000D01*
X86868000Y-73279000D02*
X86741000Y-73279000D01*
X86614000Y-73533000D02*
X86868000Y-73279000D01*
X86614000Y-73914000D02*
X86614000Y-73533000D01*
X94234000Y-75057000D02*
X94361000Y-75184000D01*
X94234000Y-75057000D02*
X94107000Y-75184000D01*
X94234000Y-75565000D02*
X94234000Y-75057000D01*
X99876000Y-74771190D02*
X99856952Y-74809285D01*
X99856952Y-74866428D01*
X99876000Y-74923571D01*
X99914095Y-74961666D01*
X99952190Y-74980714D01*
X100028381Y-74999762D01*
X100085524Y-74999762D01*
X100161714Y-74980714D01*
X100199810Y-74961666D01*
X100237905Y-74923571D01*
X100256952Y-74866428D01*
X100256952Y-74828333D01*
X100237905Y-74771190D01*
X100218857Y-74752142D01*
X100085524Y-74752142D01*
X100085524Y-74828333D01*
X100256952Y-74580714D02*
X99856952Y-74580714D01*
X100256952Y-74352142D01*
X99856952Y-74352142D01*
X100256952Y-74161666D02*
X99856952Y-74161666D01*
X99856952Y-74066428D01*
X99876000Y-74009285D01*
X99914095Y-73971190D01*
X99952190Y-73952142D01*
X100028381Y-73933094D01*
X100085524Y-73933094D01*
X100161714Y-73952142D01*
X100199810Y-73971190D01*
X100237905Y-74009285D01*
X100256952Y-74066428D01*
X100256952Y-74161666D01*
X100142667Y-73780714D02*
X100142667Y-73590237D01*
X100256952Y-73818809D02*
X99856952Y-73685475D01*
X100256952Y-73552142D01*
X100650667Y-77501667D02*
X100650667Y-77311190D01*
X100764952Y-77539762D02*
X100364952Y-77406428D01*
X100764952Y-77273095D01*
X100364952Y-77196905D02*
X100764952Y-77063571D01*
X100364952Y-76930238D01*
X100764952Y-76796905D02*
X100364952Y-76796905D01*
X100364952Y-76701667D01*
X100384000Y-76644524D01*
X100422095Y-76606429D01*
X100460190Y-76587381D01*
X100536381Y-76568333D01*
X100593524Y-76568333D01*
X100669714Y-76587381D01*
X100707810Y-76606429D01*
X100745905Y-76644524D01*
X100764952Y-76701667D01*
X100764952Y-76796905D01*
X100764952Y-76396905D02*
X100364952Y-76396905D01*
X100364952Y-76301667D01*
X100384000Y-76244524D01*
X100422095Y-76206429D01*
X100460190Y-76187381D01*
X100536381Y-76168333D01*
X100593524Y-76168333D01*
X100669714Y-76187381D01*
X100707810Y-76206429D01*
X100745905Y-76244524D01*
X100764952Y-76301667D01*
X100764952Y-76396905D01*
X100745905Y-79860714D02*
X100764952Y-79803571D01*
X100764952Y-79708333D01*
X100745905Y-79670237D01*
X100726857Y-79651190D01*
X100688762Y-79632142D01*
X100650667Y-79632142D01*
X100612571Y-79651190D01*
X100593524Y-79670237D01*
X100574476Y-79708333D01*
X100555429Y-79784523D01*
X100536381Y-79822618D01*
X100517333Y-79841666D01*
X100479238Y-79860714D01*
X100441143Y-79860714D01*
X100403048Y-79841666D01*
X100384000Y-79822618D01*
X100364952Y-79784523D01*
X100364952Y-79689285D01*
X100384000Y-79632142D01*
X100764952Y-79460714D02*
X100364952Y-79460714D01*
X100364952Y-79365476D01*
X100384000Y-79308333D01*
X100422095Y-79270238D01*
X100460190Y-79251190D01*
X100536381Y-79232142D01*
X100593524Y-79232142D01*
X100669714Y-79251190D01*
X100707810Y-79270238D01*
X100745905Y-79308333D01*
X100764952Y-79365476D01*
X100764952Y-79460714D01*
X100650667Y-79079762D02*
X100650667Y-78889285D01*
X100764952Y-79117857D02*
X100364952Y-78984523D01*
X100764952Y-78851190D01*
X100237905Y-82645191D02*
X100256952Y-82588048D01*
X100256952Y-82492810D01*
X100237905Y-82454714D01*
X100218857Y-82435667D01*
X100180762Y-82416619D01*
X100142667Y-82416619D01*
X100104571Y-82435667D01*
X100085524Y-82454714D01*
X100066476Y-82492810D01*
X100047429Y-82569000D01*
X100028381Y-82607095D01*
X100009333Y-82626143D01*
X99971238Y-82645191D01*
X99933143Y-82645191D01*
X99895048Y-82626143D01*
X99876000Y-82607095D01*
X99856952Y-82569000D01*
X99856952Y-82473762D01*
X99876000Y-82416619D01*
X100218857Y-82016619D02*
X100237905Y-82035667D01*
X100256952Y-82092810D01*
X100256952Y-82130905D01*
X100237905Y-82188048D01*
X100199810Y-82226143D01*
X100161714Y-82245191D01*
X100085524Y-82264239D01*
X100028381Y-82264239D01*
X99952190Y-82245191D01*
X99914095Y-82226143D01*
X99876000Y-82188048D01*
X99856952Y-82130905D01*
X99856952Y-82092810D01*
X99876000Y-82035667D01*
X99895048Y-82016619D01*
X100256952Y-81654715D02*
X100256952Y-81845191D01*
X99856952Y-81845191D01*
X100256952Y-84969286D02*
X99856952Y-84969286D01*
X99856952Y-84816905D01*
X99876000Y-84778810D01*
X99895048Y-84759762D01*
X99933143Y-84740714D01*
X99990286Y-84740714D01*
X100028381Y-84759762D01*
X100047429Y-84778810D01*
X100066476Y-84816905D01*
X100066476Y-84969286D01*
X100256952Y-84569286D02*
X99856952Y-84569286D01*
X99856952Y-84474048D01*
X99876000Y-84416905D01*
X99914095Y-84378810D01*
X99952190Y-84359762D01*
X100028381Y-84340714D01*
X100085524Y-84340714D01*
X100161714Y-84359762D01*
X100199810Y-84378810D01*
X100237905Y-84416905D01*
X100256952Y-84474048D01*
X100256952Y-84569286D01*
X100256952Y-84169286D02*
X99856952Y-84169286D01*
X100256952Y-83940714D01*
X99856952Y-83940714D01*
X99876000Y-87299762D02*
X99856952Y-87337857D01*
X99856952Y-87395000D01*
X99876000Y-87452143D01*
X99914095Y-87490238D01*
X99952190Y-87509286D01*
X100028381Y-87528334D01*
X100085524Y-87528334D01*
X100161714Y-87509286D01*
X100199810Y-87490238D01*
X100237905Y-87452143D01*
X100256952Y-87395000D01*
X100256952Y-87356905D01*
X100237905Y-87299762D01*
X100218857Y-87280714D01*
X100085524Y-87280714D01*
X100085524Y-87356905D01*
X100256952Y-87109286D02*
X99856952Y-87109286D01*
X100256952Y-86880714D01*
X99856952Y-86880714D01*
X100256952Y-86690238D02*
X99856952Y-86690238D01*
X99856952Y-86595000D01*
X99876000Y-86537857D01*
X99914095Y-86499762D01*
X99952190Y-86480714D01*
X100028381Y-86461666D01*
X100085524Y-86461666D01*
X100161714Y-86480714D01*
X100199810Y-86499762D01*
X100237905Y-86537857D01*
X100256952Y-86595000D01*
X100256952Y-86690238D01*
X82896048Y-86461667D02*
X82496048Y-86595001D01*
X82896048Y-86728334D01*
X82496048Y-86861667D02*
X82896048Y-86861667D01*
X82896048Y-86956905D01*
X82877000Y-87014048D01*
X82838905Y-87052143D01*
X82800810Y-87071191D01*
X82724619Y-87090239D01*
X82667476Y-87090239D01*
X82591286Y-87071191D01*
X82553190Y-87052143D01*
X82515095Y-87014048D01*
X82496048Y-86956905D01*
X82496048Y-86861667D01*
X82496048Y-87261667D02*
X82896048Y-87261667D01*
X82896048Y-87356905D01*
X82877000Y-87414048D01*
X82838905Y-87452143D01*
X82800810Y-87471191D01*
X82724619Y-87490239D01*
X82667476Y-87490239D01*
X82591286Y-87471191D01*
X82553190Y-87452143D01*
X82515095Y-87414048D01*
X82496048Y-87356905D01*
X82496048Y-87261667D01*
X82496048Y-83826429D02*
X82896048Y-83826429D01*
X82610333Y-83959762D01*
X82896048Y-84093096D01*
X82496048Y-84093096D01*
X82534143Y-84512144D02*
X82515095Y-84493096D01*
X82496048Y-84435953D01*
X82496048Y-84397858D01*
X82515095Y-84340715D01*
X82553190Y-84302620D01*
X82591286Y-84283572D01*
X82667476Y-84264524D01*
X82724619Y-84264524D01*
X82800810Y-84283572D01*
X82838905Y-84302620D01*
X82877000Y-84340715D01*
X82896048Y-84397858D01*
X82896048Y-84435953D01*
X82877000Y-84493096D01*
X82857952Y-84512144D01*
X82496048Y-84683572D02*
X82896048Y-84683572D01*
X82496048Y-84912144D02*
X82724619Y-84740715D01*
X82896048Y-84912144D02*
X82667476Y-84683572D01*
X82496048Y-85083572D02*
X82896048Y-85083572D01*
X82515095Y-81353095D02*
X82496048Y-81410238D01*
X82496048Y-81505476D01*
X82515095Y-81543572D01*
X82534143Y-81562619D01*
X82572238Y-81581667D01*
X82610333Y-81581667D01*
X82648429Y-81562619D01*
X82667476Y-81543572D01*
X82686524Y-81505476D01*
X82705571Y-81429286D01*
X82724619Y-81391191D01*
X82743667Y-81372143D01*
X82781762Y-81353095D01*
X82819857Y-81353095D01*
X82857952Y-81372143D01*
X82877000Y-81391191D01*
X82896048Y-81429286D01*
X82896048Y-81524524D01*
X82877000Y-81581667D01*
X82496048Y-81753095D02*
X82896048Y-81753095D01*
X82896048Y-81848333D01*
X82877000Y-81905476D01*
X82838905Y-81943571D01*
X82800810Y-81962619D01*
X82724619Y-81981667D01*
X82667476Y-81981667D01*
X82591286Y-81962619D01*
X82553190Y-81943571D01*
X82515095Y-81905476D01*
X82496048Y-81848333D01*
X82496048Y-81753095D01*
X82896048Y-82095952D02*
X82896048Y-82324524D01*
X82496048Y-82210238D02*
X82896048Y-82210238D01*
X82496048Y-82457857D02*
X82896048Y-82457857D01*
X82705571Y-78908333D02*
X82686524Y-78965476D01*
X82667476Y-78984524D01*
X82629381Y-79003572D01*
X82572238Y-79003572D01*
X82534143Y-78984524D01*
X82515095Y-78965476D01*
X82496048Y-78927381D01*
X82496048Y-78775000D01*
X82896048Y-78775000D01*
X82896048Y-78908333D01*
X82877000Y-78946429D01*
X82857952Y-78965476D01*
X82819857Y-78984524D01*
X82781762Y-78984524D01*
X82743667Y-78965476D01*
X82724619Y-78946429D01*
X82705571Y-78908333D01*
X82705571Y-78775000D01*
X82496048Y-79175000D02*
X82896048Y-79175000D01*
X82534143Y-79594048D02*
X82515095Y-79575000D01*
X82496048Y-79517857D01*
X82496048Y-79479762D01*
X82515095Y-79422619D01*
X82553190Y-79384524D01*
X82591286Y-79365476D01*
X82667476Y-79346428D01*
X82724619Y-79346428D01*
X82800810Y-79365476D01*
X82838905Y-79384524D01*
X82877000Y-79422619D01*
X82896048Y-79479762D01*
X82896048Y-79517857D01*
X82877000Y-79575000D01*
X82857952Y-79594048D01*
X82496048Y-79765476D02*
X82896048Y-79765476D01*
X82496048Y-79994048D02*
X82724619Y-79822619D01*
X82896048Y-79994048D02*
X82667476Y-79765476D01*
X82515095Y-76158809D02*
X82496048Y-76215952D01*
X82496048Y-76311190D01*
X82515095Y-76349286D01*
X82534143Y-76368333D01*
X82572238Y-76387381D01*
X82610333Y-76387381D01*
X82648429Y-76368333D01*
X82667476Y-76349286D01*
X82686524Y-76311190D01*
X82705571Y-76235000D01*
X82724619Y-76196905D01*
X82743667Y-76177857D01*
X82781762Y-76158809D01*
X82819857Y-76158809D01*
X82857952Y-76177857D01*
X82877000Y-76196905D01*
X82896048Y-76235000D01*
X82896048Y-76330238D01*
X82877000Y-76387381D01*
X82496048Y-76558809D02*
X82896048Y-76558809D01*
X82896048Y-76654047D01*
X82877000Y-76711190D01*
X82838905Y-76749285D01*
X82800810Y-76768333D01*
X82724619Y-76787381D01*
X82667476Y-76787381D01*
X82591286Y-76768333D01*
X82553190Y-76749285D01*
X82515095Y-76711190D01*
X82496048Y-76654047D01*
X82496048Y-76558809D01*
X82896048Y-76901666D02*
X82896048Y-77130238D01*
X82496048Y-77015952D02*
X82896048Y-77015952D01*
X82896048Y-77339762D02*
X82896048Y-77415952D01*
X82877000Y-77454047D01*
X82838905Y-77492143D01*
X82762714Y-77511190D01*
X82629381Y-77511190D01*
X82553190Y-77492143D01*
X82515095Y-77454047D01*
X82496048Y-77415952D01*
X82496048Y-77339762D01*
X82515095Y-77301666D01*
X82553190Y-77263571D01*
X82629381Y-77244523D01*
X82762714Y-77244523D01*
X82838905Y-77263571D01*
X82877000Y-77301666D01*
X82896048Y-77339762D01*
X82496048Y-73818809D02*
X82496048Y-73628333D01*
X82896048Y-73628333D01*
X82496048Y-74180715D02*
X82686524Y-74047381D01*
X82496048Y-73952143D02*
X82896048Y-73952143D01*
X82896048Y-74104524D01*
X82877000Y-74142619D01*
X82857952Y-74161667D01*
X82819857Y-74180715D01*
X82762714Y-74180715D01*
X82724619Y-74161667D01*
X82705571Y-74142619D01*
X82686524Y-74104524D01*
X82686524Y-73952143D01*
X82534143Y-74580715D02*
X82515095Y-74561667D01*
X82496048Y-74504524D01*
X82496048Y-74466429D01*
X82515095Y-74409286D01*
X82553190Y-74371191D01*
X82591286Y-74352143D01*
X82667476Y-74333095D01*
X82724619Y-74333095D01*
X82800810Y-74352143D01*
X82838905Y-74371191D01*
X82877000Y-74409286D01*
X82896048Y-74466429D01*
X82896048Y-74504524D01*
X82877000Y-74561667D01*
X82857952Y-74580715D01*
X82496048Y-74752143D02*
X82896048Y-74752143D01*
X82496048Y-74980715D02*
X82724619Y-74809286D01*
X82896048Y-74980715D02*
X82667476Y-74752143D01*
D12*
X95859600Y-81127600D02*
X96113600Y-81381600D01*
X95808800Y-81178400D02*
X95859600Y-81127600D01*
X95605600Y-81381600D02*
X95808800Y-81178400D01*
X95859600Y-81686400D02*
X95859600Y-81330800D01*
D13*
X85344000Y-86106000D02*
X86106000Y-86106000D01*
X85725000Y-86487000D02*
X85725000Y-85725000D01*
X85471000Y-83820000D02*
X89281000Y-83820000D01*
X84709000Y-87630000D02*
X84709000Y-84582000D01*
X85471000Y-83820000D02*
X84709000Y-84582000D01*
X85471000Y-88392000D02*
X89281000Y-88392000D01*
X85471000Y-88392000D02*
X84709000Y-87630000D01*
X89027000Y-85979000D02*
X89027000Y-86233000D01*
X88900000Y-86741000D02*
X88900000Y-85471000D01*
X88773000Y-85217000D02*
X88773000Y-86995000D01*
X88646000Y-84963000D02*
X88646000Y-87249000D01*
X88519000Y-87376000D02*
X88519000Y-84836000D01*
X88392000Y-84709000D02*
X88392000Y-87503000D01*
X88265000Y-87630000D02*
X88265000Y-84582000D01*
X88138000Y-87757000D02*
X88138000Y-84455000D01*
X89281000Y-88392000D02*
X89281000Y-83820000D01*
X89027000Y-86106000D02*
G75*
G03X89027000Y-86106000I-2032000J0D01*
G01*
X97790000Y-80010000D02*
X97790000Y-79248000D01*
X98171000Y-79629000D02*
X97409000Y-79629000D01*
X95504000Y-79883000D02*
X95504000Y-76073000D01*
X99314000Y-80645000D02*
X96266000Y-80645000D01*
X95504000Y-79883000D02*
X96266000Y-80645000D01*
X100076000Y-79883000D02*
X100076000Y-76073000D01*
X100076000Y-79883000D02*
X99314000Y-80645000D01*
X97663000Y-76327000D02*
X97917000Y-76327000D01*
X98425000Y-76454000D02*
X97155000Y-76454000D01*
X96901000Y-76581000D02*
X98679000Y-76581000D01*
X96647000Y-76708000D02*
X98933000Y-76708000D01*
X99060000Y-76835000D02*
X96520000Y-76835000D01*
X96393000Y-76962000D02*
X99187000Y-76962000D01*
X99314000Y-77089000D02*
X96266000Y-77089000D01*
X99441000Y-77216000D02*
X96139000Y-77216000D01*
X100076000Y-76073000D02*
X95504000Y-76073000D01*
X99822000Y-78359000D02*
G75*
G03X99822000Y-78359000I-2032000J0D01*
G01*
X93154500Y-87503000D02*
X96456500Y-87503000D01*
X96456500Y-87503000D02*
X96456500Y-84963000D01*
X96456500Y-84963000D02*
X95694500Y-84201000D01*
X95694500Y-84201000D02*
X93916500Y-84201000D01*
X93916500Y-84201000D02*
X93154500Y-84963000D01*
X93154500Y-84963000D02*
X93154500Y-87503000D01*
X94297500Y-87249000D02*
X95313500Y-87249000D01*
X94043500Y-87122000D02*
X95567500Y-87122000D01*
X93789500Y-86995000D02*
X95821500Y-86995000D01*
X93662500Y-86868000D02*
X95948500Y-86868000D01*
X94805500Y-84709000D02*
X94805500Y-85471000D01*
X94424500Y-85090000D02*
X95186500Y-85090000D01*
X96329500Y-85852000D02*
G75*
G03X96329500Y-85852000I-1524000J0D01*
G01*
X100965000Y-70802500D02*
X100965000Y-70040500D01*
X101346000Y-70421500D02*
X100584000Y-70421500D01*
X98679000Y-70675500D02*
X98679000Y-66865500D01*
X102489000Y-71437500D02*
X99441000Y-71437500D01*
X98679000Y-70675500D02*
X99441000Y-71437500D01*
X103251000Y-70675500D02*
X103251000Y-66865500D01*
X103251000Y-70675500D02*
X102489000Y-71437500D01*
X100838000Y-67119500D02*
X101092000Y-67119500D01*
X101600000Y-67246500D02*
X100330000Y-67246500D01*
X100076000Y-67373500D02*
X101854000Y-67373500D01*
X99822000Y-67500500D02*
X102108000Y-67500500D01*
X102235000Y-67627500D02*
X99695000Y-67627500D01*
X99568000Y-67754500D02*
X102362000Y-67754500D01*
X102489000Y-67881500D02*
X99441000Y-67881500D01*
X102616000Y-68008500D02*
X99314000Y-68008500D01*
X103251000Y-66865500D02*
X98679000Y-66865500D01*
X102997000Y-69151500D02*
G75*
G03X102997000Y-69151500I-2032000J0D01*
G01*
X93294200Y-72339200D02*
X94056200Y-72339200D01*
X93675200Y-72720200D02*
X93675200Y-71958200D01*
X93421200Y-70053200D02*
X97231200Y-70053200D01*
X92659200Y-73863200D02*
X92659200Y-70815200D01*
X93421200Y-70053200D02*
X92659200Y-70815200D01*
X93421200Y-74625200D02*
X97231200Y-74625200D01*
X93421200Y-74625200D02*
X92659200Y-73863200D01*
X96977200Y-72212200D02*
X96977200Y-72466200D01*
X96850200Y-72974200D02*
X96850200Y-71704200D01*
X96723200Y-71450200D02*
X96723200Y-73228200D01*
X96596200Y-71196200D02*
X96596200Y-73482200D01*
X96469200Y-73609200D02*
X96469200Y-71069200D01*
X96342200Y-70942200D02*
X96342200Y-73736200D01*
X96215200Y-73863200D02*
X96215200Y-70815200D01*
X96088200Y-73990200D02*
X96088200Y-70688200D01*
X97231200Y-74625200D02*
X97231200Y-70053200D01*
X96977200Y-72339200D02*
G75*
G03X96977200Y-72339200I-2032000J0D01*
G01*
X87122000Y-70104000D02*
X87122000Y-73406000D01*
X87122000Y-73406000D02*
X89662000Y-73406000D01*
X89662000Y-73406000D02*
X90424000Y-72644000D01*
X90424000Y-72644000D02*
X90424000Y-70866000D01*
X90424000Y-70866000D02*
X89662000Y-70104000D01*
X89662000Y-70104000D02*
X87122000Y-70104000D01*
X87376000Y-71247000D02*
X87376000Y-72263000D01*
X87503000Y-70993000D02*
X87503000Y-72517000D01*
X87630000Y-70739000D02*
X87630000Y-72771000D01*
X87757000Y-70612000D02*
X87757000Y-72898000D01*
X89916000Y-71755000D02*
X89154000Y-71755000D01*
X89535000Y-71374000D02*
X89535000Y-72136000D01*
X90297000Y-71755000D02*
G75*
G03X90297000Y-71755000I-1524000J0D01*
G01*
X83185000Y-67183000D02*
X79883000Y-67183000D01*
X79883000Y-67183000D02*
X79883000Y-69723000D01*
X79883000Y-69723000D02*
X80645000Y-70485000D01*
X80645000Y-70485000D02*
X82423000Y-70485000D01*
X82423000Y-70485000D02*
X83185000Y-69723000D01*
X83185000Y-69723000D02*
X83185000Y-67183000D01*
X82042000Y-67437000D02*
X81026000Y-67437000D01*
X82296000Y-67564000D02*
X80772000Y-67564000D01*
X82550000Y-67691000D02*
X80518000Y-67691000D01*
X82677000Y-67818000D02*
X80391000Y-67818000D01*
X81534000Y-69977000D02*
X81534000Y-69215000D01*
X81915000Y-69596000D02*
X81153000Y-69596000D01*
X83058000Y-68834000D02*
G75*
G03X83058000Y-68834000I-1524000J0D01*
G01*
X81915000Y-75565000D02*
X81915000Y-88265000D01*
X81915000Y-88265000D02*
X79375000Y-88265000D01*
X79375000Y-88265000D02*
X79375000Y-75565000D01*
X82195000Y-72745000D02*
X82195000Y-74295000D01*
X81915000Y-75565000D02*
X79375000Y-75565000D01*
X79095000Y-74295000D02*
X79095000Y-72745000D01*
X79095000Y-72745000D02*
X82195000Y-72745000D01*
X100965000Y-85725000D02*
X100965000Y-73025000D01*
X100965000Y-73025000D02*
X103505000Y-73025000D01*
X103505000Y-73025000D02*
X103505000Y-85725000D01*
X100685000Y-88545000D02*
X100685000Y-86995000D01*
X100965000Y-85725000D02*
X103505000Y-85725000D01*
X103785000Y-86995000D02*
X103785000Y-88545000D01*
X103785000Y-88545000D02*
X100685000Y-88545000D01*
X90674000Y-73947000D02*
X90174000Y-73947000D01*
X90174000Y-74897000D02*
X90674000Y-74897000D01*
X91748800Y-76141600D02*
X92248800Y-76141600D01*
X92248800Y-75191600D02*
X91748800Y-75191600D01*
X91817000Y-83980000D02*
X91317000Y-83980000D01*
X91317000Y-84930000D02*
X91817000Y-84930000D01*
X97201500Y-82998500D02*
X97201500Y-83498500D01*
X98251500Y-83498500D02*
X98251500Y-82998500D01*
X98535000Y-82490500D02*
X98535000Y-82990500D01*
X99585000Y-82990500D02*
X99585000Y-82490500D01*
X83422000Y-64647000D02*
X83422000Y-65147000D01*
X84472000Y-65147000D02*
X84472000Y-64647000D01*
X84586000Y-71010000D02*
X85086000Y-71010000D01*
X85086000Y-69960000D02*
X84586000Y-69960000D01*
X82025000Y-64647000D02*
X82025000Y-65147000D01*
X83075000Y-65147000D02*
X83075000Y-64647000D01*
X85086000Y-71357000D02*
X84586000Y-71357000D01*
X84586000Y-72407000D02*
X85086000Y-72407000D01*
X94065000Y-77258000D02*
X94065000Y-78008000D01*
X88815000Y-82508000D02*
X88815000Y-81758000D01*
X94065000Y-82508000D02*
X94065000Y-81758000D01*
X88815000Y-77258000D02*
X89565000Y-77258000D01*
X88815000Y-82508000D02*
X89565000Y-82508000D01*
X94065000Y-82508000D02*
X93315000Y-82508000D01*
X94065000Y-77258000D02*
X93315000Y-77258000D01*
X85090000Y-64135000D02*
X85090000Y-69215000D01*
X85090000Y-64135000D02*
X97790000Y-64135000D01*
X97790000Y-64135000D02*
X97790000Y-69215000D01*
X87630000Y-66675000D02*
X87630000Y-69215000D01*
X86840633Y-83196471D02*
X86800157Y-83236948D01*
X86678728Y-83277424D01*
X86597776Y-83277424D01*
X86476348Y-83236948D01*
X86395395Y-83155995D01*
X86354919Y-83075043D01*
X86314443Y-82913138D01*
X86314443Y-82791710D01*
X86354919Y-82629805D01*
X86395395Y-82548852D01*
X86476348Y-82467900D01*
X86597776Y-82427424D01*
X86678728Y-82427424D01*
X86800157Y-82467900D01*
X86840633Y-82508376D01*
X87569205Y-82710757D02*
X87569205Y-83277424D01*
X87366824Y-82386948D02*
X87164443Y-82994090D01*
X87690633Y-82994090D01*
X95692533Y-82675771D02*
X95652057Y-82716248D01*
X95530628Y-82756724D01*
X95449676Y-82756724D01*
X95328248Y-82716248D01*
X95247295Y-82635295D01*
X95206819Y-82554343D01*
X95166343Y-82392438D01*
X95166343Y-82271010D01*
X95206819Y-82109105D01*
X95247295Y-82028152D01*
X95328248Y-81947200D01*
X95449676Y-81906724D01*
X95530628Y-81906724D01*
X95652057Y-81947200D01*
X95692533Y-81987676D01*
X96461581Y-81906724D02*
X96056819Y-81906724D01*
X96016343Y-82311486D01*
X96056819Y-82271010D01*
X96137771Y-82230533D01*
X96340152Y-82230533D01*
X96421105Y-82271010D01*
X96461581Y-82311486D01*
X96502057Y-82392438D01*
X96502057Y-82594819D01*
X96461581Y-82675771D01*
X96421105Y-82716248D01*
X96340152Y-82756724D01*
X96137771Y-82756724D01*
X96056819Y-82716248D01*
X96016343Y-82675771D01*
X97763371Y-87009667D02*
X97803848Y-87050143D01*
X97844324Y-87171572D01*
X97844324Y-87252524D01*
X97803848Y-87373952D01*
X97722895Y-87454905D01*
X97641943Y-87495381D01*
X97480038Y-87535857D01*
X97358610Y-87535857D01*
X97196705Y-87495381D01*
X97115752Y-87454905D01*
X97034800Y-87373952D01*
X96994324Y-87252524D01*
X96994324Y-87171572D01*
X97034800Y-87050143D01*
X97075276Y-87009667D01*
X96994324Y-86281095D02*
X96994324Y-86443000D01*
X97034800Y-86523952D01*
X97075276Y-86564429D01*
X97196705Y-86645381D01*
X97358610Y-86685857D01*
X97682419Y-86685857D01*
X97763371Y-86645381D01*
X97803848Y-86604905D01*
X97844324Y-86523952D01*
X97844324Y-86362048D01*
X97803848Y-86281095D01*
X97763371Y-86240619D01*
X97682419Y-86200143D01*
X97480038Y-86200143D01*
X97399086Y-86240619D01*
X97358610Y-86281095D01*
X97318133Y-86362048D01*
X97318133Y-86523952D01*
X97358610Y-86604905D01*
X97399086Y-86645381D01*
X97480038Y-86685857D01*
X100848733Y-65479971D02*
X100808257Y-65520448D01*
X100686828Y-65560924D01*
X100605876Y-65560924D01*
X100484448Y-65520448D01*
X100403495Y-65439495D01*
X100363019Y-65358543D01*
X100322543Y-65196638D01*
X100322543Y-65075210D01*
X100363019Y-64913305D01*
X100403495Y-64832352D01*
X100484448Y-64751400D01*
X100605876Y-64710924D01*
X100686828Y-64710924D01*
X100808257Y-64751400D01*
X100848733Y-64791876D01*
X101132067Y-64710924D02*
X101698733Y-64710924D01*
X101334448Y-65560924D01*
X94092333Y-76376571D02*
X94051857Y-76417048D01*
X93930428Y-76457524D01*
X93849476Y-76457524D01*
X93728048Y-76417048D01*
X93647095Y-76336095D01*
X93606619Y-76255143D01*
X93566143Y-76093238D01*
X93566143Y-75971810D01*
X93606619Y-75809905D01*
X93647095Y-75728952D01*
X93728048Y-75648000D01*
X93849476Y-75607524D01*
X93930428Y-75607524D01*
X94051857Y-75648000D01*
X94092333Y-75688476D01*
X94578048Y-75971810D02*
X94497095Y-75931333D01*
X94456619Y-75890857D01*
X94416143Y-75809905D01*
X94416143Y-75769429D01*
X94456619Y-75688476D01*
X94497095Y-75648000D01*
X94578048Y-75607524D01*
X94739952Y-75607524D01*
X94820905Y-75648000D01*
X94861381Y-75688476D01*
X94901857Y-75769429D01*
X94901857Y-75809905D01*
X94861381Y-75890857D01*
X94820905Y-75931333D01*
X94739952Y-75971810D01*
X94578048Y-75971810D01*
X94497095Y-76012286D01*
X94456619Y-76052762D01*
X94416143Y-76133714D01*
X94416143Y-76295619D01*
X94456619Y-76376571D01*
X94497095Y-76417048D01*
X94578048Y-76457524D01*
X94739952Y-76457524D01*
X94820905Y-76417048D01*
X94861381Y-76376571D01*
X94901857Y-76295619D01*
X94901857Y-76133714D01*
X94861381Y-76052762D01*
X94820905Y-76012286D01*
X94739952Y-75971810D01*
X86472333Y-74725571D02*
X86431857Y-74766048D01*
X86310428Y-74806524D01*
X86229476Y-74806524D01*
X86108048Y-74766048D01*
X86027095Y-74685095D01*
X85986619Y-74604143D01*
X85946143Y-74442238D01*
X85946143Y-74320810D01*
X85986619Y-74158905D01*
X86027095Y-74077952D01*
X86108048Y-73997000D01*
X86229476Y-73956524D01*
X86310428Y-73956524D01*
X86431857Y-73997000D01*
X86472333Y-74037476D01*
X86877095Y-74806524D02*
X87039000Y-74806524D01*
X87119952Y-74766048D01*
X87160428Y-74725571D01*
X87241381Y-74604143D01*
X87281857Y-74442238D01*
X87281857Y-74118429D01*
X87241381Y-74037476D01*
X87200905Y-73997000D01*
X87119952Y-73956524D01*
X86958048Y-73956524D01*
X86877095Y-73997000D01*
X86836619Y-74037476D01*
X86796143Y-74118429D01*
X86796143Y-74320810D01*
X86836619Y-74401762D01*
X86877095Y-74442238D01*
X86958048Y-74482714D01*
X87119952Y-74482714D01*
X87200905Y-74442238D01*
X87241381Y-74401762D01*
X87281857Y-74320810D01*
X84428371Y-69024829D02*
X84468848Y-69065305D01*
X84509324Y-69186734D01*
X84509324Y-69267686D01*
X84468848Y-69389114D01*
X84387895Y-69470067D01*
X84306943Y-69510543D01*
X84145038Y-69551019D01*
X84023610Y-69551019D01*
X83861705Y-69510543D01*
X83780752Y-69470067D01*
X83699800Y-69389114D01*
X83659324Y-69267686D01*
X83659324Y-69186734D01*
X83699800Y-69065305D01*
X83740276Y-69024829D01*
X84509324Y-68215305D02*
X84509324Y-68701019D01*
X84509324Y-68458162D02*
X83659324Y-68458162D01*
X83780752Y-68539114D01*
X83861705Y-68620067D01*
X83902181Y-68701019D01*
X83659324Y-67689114D02*
X83659324Y-67608162D01*
X83699800Y-67527210D01*
X83740276Y-67486733D01*
X83821229Y-67446257D01*
X83983133Y-67405781D01*
X84185514Y-67405781D01*
X84347419Y-67446257D01*
X84428371Y-67486733D01*
X84468848Y-67527210D01*
X84509324Y-67608162D01*
X84509324Y-67689114D01*
X84468848Y-67770067D01*
X84428371Y-67810543D01*
X84347419Y-67851019D01*
X84185514Y-67891495D01*
X83983133Y-67891495D01*
X83821229Y-67851019D01*
X83740276Y-67810543D01*
X83699800Y-67770067D01*
X83659324Y-67689114D01*
X88250333Y-74725571D02*
X88209857Y-74766048D01*
X88088428Y-74806524D01*
X88007476Y-74806524D01*
X87886048Y-74766048D01*
X87805095Y-74685095D01*
X87764619Y-74604143D01*
X87724143Y-74442238D01*
X87724143Y-74320810D01*
X87764619Y-74158905D01*
X87805095Y-74077952D01*
X87886048Y-73997000D01*
X88007476Y-73956524D01*
X88088428Y-73956524D01*
X88209857Y-73997000D01*
X88250333Y-74037476D01*
X88533667Y-73956524D02*
X89059857Y-73956524D01*
X88776524Y-74280333D01*
X88897952Y-74280333D01*
X88978905Y-74320810D01*
X89019381Y-74361286D01*
X89059857Y-74442238D01*
X89059857Y-74644619D01*
X89019381Y-74725571D01*
X88978905Y-74766048D01*
X88897952Y-74806524D01*
X88655095Y-74806524D01*
X88574143Y-74766048D01*
X88533667Y-74725571D01*
X89825133Y-75995571D02*
X89784657Y-76036048D01*
X89663228Y-76076524D01*
X89582276Y-76076524D01*
X89460848Y-76036048D01*
X89379895Y-75955095D01*
X89339419Y-75874143D01*
X89298943Y-75712238D01*
X89298943Y-75590810D01*
X89339419Y-75428905D01*
X89379895Y-75347952D01*
X89460848Y-75267000D01*
X89582276Y-75226524D01*
X89663228Y-75226524D01*
X89784657Y-75267000D01*
X89825133Y-75307476D01*
X90148943Y-75307476D02*
X90189419Y-75267000D01*
X90270371Y-75226524D01*
X90472752Y-75226524D01*
X90553705Y-75267000D01*
X90594181Y-75307476D01*
X90634657Y-75388429D01*
X90634657Y-75469381D01*
X90594181Y-75590810D01*
X90108467Y-76076524D01*
X90634657Y-76076524D01*
X91438033Y-85965071D02*
X91397557Y-86005548D01*
X91276128Y-86046024D01*
X91195176Y-86046024D01*
X91073748Y-86005548D01*
X90992795Y-85924595D01*
X90952319Y-85843643D01*
X90911843Y-85681738D01*
X90911843Y-85560310D01*
X90952319Y-85398405D01*
X90992795Y-85317452D01*
X91073748Y-85236500D01*
X91195176Y-85196024D01*
X91276128Y-85196024D01*
X91397557Y-85236500D01*
X91438033Y-85276976D01*
X92247557Y-86046024D02*
X91761843Y-86046024D01*
X92004700Y-86046024D02*
X92004700Y-85196024D01*
X91923748Y-85317452D01*
X91842795Y-85398405D01*
X91761843Y-85438881D01*
X98085624Y-85206267D02*
X97680862Y-85489600D01*
X98085624Y-85691981D02*
X97235624Y-85691981D01*
X97235624Y-85368172D01*
X97276100Y-85287219D01*
X97316576Y-85246743D01*
X97397529Y-85206267D01*
X97518957Y-85206267D01*
X97599910Y-85246743D01*
X97640386Y-85287219D01*
X97680862Y-85368172D01*
X97680862Y-85691981D01*
X97235624Y-84477695D02*
X97235624Y-84639600D01*
X97276100Y-84720552D01*
X97316576Y-84761029D01*
X97438005Y-84841981D01*
X97599910Y-84882457D01*
X97923719Y-84882457D01*
X98004671Y-84841981D01*
X98045148Y-84801505D01*
X98085624Y-84720552D01*
X98085624Y-84558648D01*
X98045148Y-84477695D01*
X98004671Y-84437219D01*
X97923719Y-84396743D01*
X97721338Y-84396743D01*
X97640386Y-84437219D01*
X97599910Y-84477695D01*
X97559433Y-84558648D01*
X97559433Y-84720552D01*
X97599910Y-84801505D01*
X97640386Y-84841981D01*
X97721338Y-84882457D01*
X99444524Y-84774467D02*
X99039762Y-85057800D01*
X99444524Y-85260181D02*
X98594524Y-85260181D01*
X98594524Y-84936372D01*
X98635000Y-84855419D01*
X98675476Y-84814943D01*
X98756429Y-84774467D01*
X98877857Y-84774467D01*
X98958810Y-84814943D01*
X98999286Y-84855419D01*
X99039762Y-84936372D01*
X99039762Y-85260181D01*
X98594524Y-84005419D02*
X98594524Y-84410181D01*
X98999286Y-84450657D01*
X98958810Y-84410181D01*
X98918333Y-84329229D01*
X98918333Y-84126848D01*
X98958810Y-84045895D01*
X98999286Y-84005419D01*
X99080238Y-83964943D01*
X99282619Y-83964943D01*
X99363571Y-84005419D01*
X99404048Y-84045895D01*
X99444524Y-84126848D01*
X99444524Y-84329229D01*
X99404048Y-84410181D01*
X99363571Y-84450657D01*
X81512124Y-65013267D02*
X81107362Y-65296600D01*
X81512124Y-65498981D02*
X80662124Y-65498981D01*
X80662124Y-65175172D01*
X80702600Y-65094219D01*
X80743076Y-65053743D01*
X80824029Y-65013267D01*
X80945457Y-65013267D01*
X81026410Y-65053743D01*
X81066886Y-65094219D01*
X81107362Y-65175172D01*
X81107362Y-65498981D01*
X80945457Y-64284695D02*
X81512124Y-64284695D01*
X80621648Y-64487076D02*
X81228790Y-64689457D01*
X81228790Y-64163267D01*
X84694333Y-74730324D02*
X84411000Y-74325562D01*
X84208619Y-74730324D02*
X84208619Y-73880324D01*
X84532428Y-73880324D01*
X84613381Y-73920800D01*
X84653857Y-73961276D01*
X84694333Y-74042229D01*
X84694333Y-74163657D01*
X84653857Y-74244610D01*
X84613381Y-74285086D01*
X84532428Y-74325562D01*
X84208619Y-74325562D01*
X84977667Y-73880324D02*
X85503857Y-73880324D01*
X85220524Y-74204133D01*
X85341952Y-74204133D01*
X85422905Y-74244610D01*
X85463381Y-74285086D01*
X85503857Y-74366038D01*
X85503857Y-74568419D01*
X85463381Y-74649371D01*
X85422905Y-74689848D01*
X85341952Y-74730324D01*
X85099095Y-74730324D01*
X85018143Y-74689848D01*
X84977667Y-74649371D01*
X80191324Y-65013267D02*
X79786562Y-65296600D01*
X80191324Y-65498981D02*
X79341324Y-65498981D01*
X79341324Y-65175172D01*
X79381800Y-65094219D01*
X79422276Y-65053743D01*
X79503229Y-65013267D01*
X79624657Y-65013267D01*
X79705610Y-65053743D01*
X79746086Y-65094219D01*
X79786562Y-65175172D01*
X79786562Y-65498981D01*
X79422276Y-64689457D02*
X79381800Y-64648981D01*
X79341324Y-64568029D01*
X79341324Y-64365648D01*
X79381800Y-64284695D01*
X79422276Y-64244219D01*
X79503229Y-64203743D01*
X79584181Y-64203743D01*
X79705610Y-64244219D01*
X80191324Y-64729933D01*
X80191324Y-64203743D01*
X84694333Y-73587324D02*
X84411000Y-73182562D01*
X84208619Y-73587324D02*
X84208619Y-72737324D01*
X84532428Y-72737324D01*
X84613381Y-72777800D01*
X84653857Y-72818276D01*
X84694333Y-72899229D01*
X84694333Y-73020657D01*
X84653857Y-73101610D01*
X84613381Y-73142086D01*
X84532428Y-73182562D01*
X84208619Y-73182562D01*
X85503857Y-73587324D02*
X85018143Y-73587324D01*
X85261000Y-73587324D02*
X85261000Y-72737324D01*
X85180048Y-72858752D01*
X85099095Y-72939705D01*
X85018143Y-72980181D01*
X87177224Y-78244619D02*
X87865319Y-78244619D01*
X87946271Y-78204143D01*
X87986748Y-78163667D01*
X88027224Y-78082714D01*
X88027224Y-77920810D01*
X87986748Y-77839857D01*
X87946271Y-77799381D01*
X87865319Y-77758905D01*
X87177224Y-77758905D01*
X88027224Y-76908905D02*
X88027224Y-77394619D01*
X88027224Y-77151762D02*
X87177224Y-77151762D01*
X87298652Y-77232714D01*
X87379605Y-77313667D01*
X87420081Y-77394619D01*
M02*
