G04 #@! TF.FileFunction,Copper,L1,Top,Signal*
%FSLAX46Y46*%
G04 Gerber Fmt 4.6, Leading zero omitted, Abs format (unit mm)*
G04 Created by KiCad (PCBNEW (2015-08-16 BZR 6097, Git b384c94)-product) date 08/12/2015 20:08:44*
%MOMM*%
G01*
G04 APERTURE LIST*
%ADD10C,0.100000*%
%ADD11R,2.600960X1.600200*%
%ADD12R,1.600200X2.600960*%
%ADD13R,1.600200X2.199640*%
%ADD14R,2.199640X1.600200*%
%ADD15R,2.032000X1.727200*%
%ADD16O,2.032000X1.727200*%
%ADD17R,0.600000X0.500000*%
%ADD18R,0.600000X0.400000*%
%ADD19R,0.400000X0.600000*%
%ADD20O,0.850000X0.300000*%
%ADD21O,0.300000X0.850000*%
%ADD22R,1.675000X1.675000*%
%ADD23R,1.727200X1.727200*%
%ADD24O,1.727200X1.727200*%
%ADD25C,0.584200*%
%ADD26C,0.508000*%
%ADD27C,0.304800*%
%ADD28C,0.152400*%
G04 APERTURE END LIST*
D10*
D11*
X85194140Y-86106000D03*
X88795860Y-86106000D03*
D12*
X97790000Y-80159860D03*
X97790000Y-76558140D03*
D13*
X94805500Y-84350860D03*
X94805500Y-87353140D03*
D12*
X100965000Y-70952360D03*
X100965000Y-67350640D03*
D11*
X93144340Y-72339200D03*
X96746060Y-72339200D03*
D14*
X90274140Y-71755000D03*
X87271860Y-71755000D03*
D13*
X81534000Y-70335140D03*
X81534000Y-67332860D03*
D15*
X80645000Y-74295000D03*
D16*
X80645000Y-76835000D03*
X80645000Y-79375000D03*
X80645000Y-81915000D03*
X80645000Y-84455000D03*
X80645000Y-86995000D03*
D15*
X102235000Y-86995000D03*
D16*
X102235000Y-84455000D03*
X102235000Y-81915000D03*
X102235000Y-79375000D03*
X102235000Y-76835000D03*
X102235000Y-74295000D03*
D17*
X89874000Y-74422000D03*
X90974000Y-74422000D03*
X92548800Y-75666600D03*
X91448800Y-75666600D03*
X91017000Y-84455000D03*
X92117000Y-84455000D03*
D18*
X97726500Y-83698500D03*
X97726500Y-82798500D03*
X99060000Y-83190500D03*
X99060000Y-82290500D03*
X83947000Y-65347000D03*
X83947000Y-64447000D03*
D19*
X85286000Y-70485000D03*
X84386000Y-70485000D03*
D18*
X82550000Y-65347000D03*
X82550000Y-64447000D03*
D19*
X84386000Y-71882000D03*
X85286000Y-71882000D03*
D20*
X88990000Y-78383000D03*
X88990000Y-78883000D03*
X88990000Y-79383000D03*
X88990000Y-79883000D03*
X88990000Y-80383000D03*
X88990000Y-80883000D03*
X88990000Y-81383000D03*
D21*
X89940000Y-82333000D03*
X90440000Y-82333000D03*
X90940000Y-82333000D03*
X91440000Y-82333000D03*
X91940000Y-82333000D03*
X92440000Y-82333000D03*
X92940000Y-82333000D03*
D20*
X93890000Y-81383000D03*
X93890000Y-80883000D03*
X93890000Y-80383000D03*
X93890000Y-79883000D03*
X93890000Y-79383000D03*
X93890000Y-78883000D03*
X93890000Y-78383000D03*
D21*
X92940000Y-77433000D03*
X92440000Y-77433000D03*
X91940000Y-77433000D03*
X91440000Y-77433000D03*
X90940000Y-77433000D03*
X90440000Y-77433000D03*
X89940000Y-77433000D03*
D22*
X92277500Y-80720500D03*
X92277500Y-79045500D03*
X90602500Y-80720500D03*
X90602500Y-79045500D03*
D23*
X86360000Y-67945000D03*
D24*
X86360000Y-65405000D03*
X88900000Y-67945000D03*
X88900000Y-65405000D03*
X91440000Y-67945000D03*
X91440000Y-65405000D03*
X93980000Y-67945000D03*
X93980000Y-65405000D03*
X96520000Y-67945000D03*
X96520000Y-65405000D03*
D25*
X91017000Y-84455000D03*
X97726500Y-83756500D03*
X95186500Y-77343000D03*
X92277500Y-79045500D03*
X92277500Y-80720500D03*
X90602500Y-80720500D03*
X90602500Y-79045500D03*
X97790000Y-80159860D03*
X92583000Y-75692000D03*
X83947000Y-64447000D03*
X84391500Y-70421500D03*
X90974000Y-74422000D03*
X97790000Y-76558140D03*
D26*
X96456500Y-79121000D03*
X95186500Y-79121000D03*
D27*
X80645000Y-86995000D02*
X84305140Y-86995000D01*
X84305140Y-86995000D02*
X85194140Y-86106000D01*
X90635998Y-84836002D02*
X91017000Y-84455000D01*
X84305140Y-86995000D02*
X86464138Y-84836002D01*
X86464138Y-84836002D02*
X90635998Y-84836002D01*
X97726500Y-83698500D02*
X97726500Y-83756500D01*
X91940000Y-82333000D02*
X91940000Y-83532000D01*
X91940000Y-83532000D02*
X91017000Y-84455000D01*
X99060000Y-83190500D02*
X98552000Y-83698500D01*
X98552000Y-83698500D02*
X97726500Y-83698500D01*
X85194140Y-86106000D02*
X85725002Y-86106000D01*
X93890000Y-78383000D02*
X94210000Y-78383000D01*
X94210000Y-78383000D02*
X95250000Y-77343000D01*
X92440000Y-82333000D02*
X92440000Y-84132000D01*
X92440000Y-84132000D02*
X92117000Y-84455000D01*
X88795860Y-86106000D02*
X90478700Y-86093300D01*
X90478700Y-86093300D02*
X92117000Y-84455000D01*
X92117000Y-84455000D02*
X92117000Y-84664640D01*
X92117000Y-84664640D02*
X94805500Y-87353140D01*
X88990000Y-79883000D02*
X91440000Y-79883000D01*
X91440000Y-79883000D02*
X92277500Y-80720500D01*
X88990000Y-78383000D02*
X89940000Y-78383000D01*
X89940000Y-78383000D02*
X90602500Y-79045500D01*
X88990000Y-78883000D02*
X90440000Y-78883000D01*
X90440000Y-78883000D02*
X90602500Y-79045500D01*
X88990000Y-79383000D02*
X90265000Y-79383000D01*
X90265000Y-79383000D02*
X90602500Y-79045500D01*
X88990000Y-80383000D02*
X90265000Y-80383000D01*
X90265000Y-80383000D02*
X90602500Y-80720500D01*
X90602500Y-80720500D02*
X90602500Y-79045500D01*
X101981000Y-86741000D02*
X102235000Y-86995000D01*
X92440000Y-78883000D02*
X92277500Y-79045500D01*
X93890000Y-78883000D02*
X92440000Y-78883000D01*
X92440000Y-82333000D02*
X92440000Y-80883000D01*
X92440000Y-80883000D02*
X92277500Y-80720500D01*
X88990000Y-80883000D02*
X90440000Y-80883000D01*
X90440000Y-80883000D02*
X90602500Y-80720500D01*
X90602500Y-80720500D02*
X92277500Y-79045500D01*
X92277500Y-79045500D02*
X92277500Y-80720500D01*
X92277500Y-80720500D02*
X90602500Y-80720500D01*
X101114860Y-76835000D02*
X97790000Y-80159860D01*
X102235000Y-76835000D02*
X101114860Y-76835000D01*
X92557600Y-75666600D02*
X92548800Y-75666600D01*
X92583000Y-75692000D02*
X92557600Y-75666600D01*
X91940000Y-77433000D02*
X91940000Y-76275400D01*
X91940000Y-76275400D02*
X92548800Y-75666600D01*
X84391500Y-70421500D02*
X84386000Y-70427000D01*
X84386000Y-70427000D02*
X84386000Y-70485000D01*
X91448800Y-75666600D02*
X90974000Y-75191800D01*
X90974000Y-74422000D02*
X90974000Y-75191800D01*
X100053140Y-74295000D02*
X97790000Y-76558140D01*
X102235000Y-74295000D02*
X100053140Y-74295000D01*
X91440000Y-77433000D02*
X91440000Y-75675400D01*
X91440000Y-75675400D02*
X91448800Y-75666600D01*
X90940000Y-77433000D02*
X90940000Y-76685182D01*
X89874000Y-75619182D02*
X89874000Y-74422000D01*
X90940000Y-76685182D02*
X89874000Y-75619182D01*
X92940000Y-82333000D02*
X92940000Y-82780000D01*
X92940000Y-82780000D02*
X94510860Y-84350860D01*
X94510860Y-84350860D02*
X94805500Y-84350860D01*
D28*
X92940000Y-77433000D02*
X92940000Y-76986000D01*
X92940000Y-76986000D02*
X96266000Y-73660000D01*
X96266000Y-73660000D02*
X98933000Y-73660000D01*
X98933000Y-73660000D02*
X100965000Y-71628000D01*
X100965000Y-71628000D02*
X100965000Y-70952360D01*
X96520000Y-67945000D02*
X100370640Y-67945000D01*
X100370640Y-67945000D02*
X100965000Y-67350640D01*
X92440000Y-77433000D02*
X92440000Y-76978000D01*
X93144340Y-76273660D02*
X93144340Y-72339200D01*
X92440000Y-76978000D02*
X93144340Y-76273660D01*
X93980000Y-67945000D02*
X93980000Y-69573140D01*
X93980000Y-69573140D02*
X96746060Y-72339200D01*
X90440000Y-77433000D02*
X90440000Y-76724000D01*
X89281000Y-75565000D02*
X89281000Y-72517000D01*
X90440000Y-76724000D02*
X89281000Y-75565000D01*
X89281000Y-72517000D02*
X90043000Y-71755000D01*
X90043000Y-71755000D02*
X90274140Y-71755000D01*
X87271860Y-71755000D02*
X85413000Y-71755000D01*
X85413000Y-71755000D02*
X85286000Y-71882000D01*
X89940000Y-77433000D02*
X89940000Y-76732000D01*
X84223860Y-73025000D02*
X81534000Y-70335140D01*
X86233000Y-73025000D02*
X84223860Y-73025000D01*
X89940000Y-76732000D02*
X86233000Y-73025000D01*
X81534000Y-67332860D02*
X81534000Y-64770000D01*
X81857000Y-64447000D02*
X82550000Y-64447000D01*
X81534000Y-64770000D02*
X81857000Y-64447000D01*
X93890000Y-79883000D02*
X95758000Y-79883000D01*
X95758000Y-79883000D02*
X96520000Y-79121000D01*
X93890000Y-79383000D02*
X94988000Y-79383000D01*
X94988000Y-79383000D02*
X95250000Y-79121000D01*
X88990000Y-81383000D02*
X87733000Y-81383000D01*
X87733000Y-81383000D02*
X80645000Y-74295000D01*
X89940000Y-82333000D02*
X89940000Y-83262594D01*
X87350594Y-83540594D02*
X80645000Y-76835000D01*
X89662000Y-83540594D02*
X87350594Y-83540594D01*
X89940000Y-83262594D02*
X89662000Y-83540594D01*
X90440000Y-82333000D02*
X90440000Y-83194396D01*
X85115396Y-83845396D02*
X80645000Y-79375000D01*
X89789000Y-83845396D02*
X85115396Y-83845396D01*
X90440000Y-83194396D02*
X89789000Y-83845396D01*
X90940000Y-82333000D02*
X90940000Y-83126198D01*
X82880198Y-84150198D02*
X80645000Y-81915000D01*
X89916000Y-84150198D02*
X82880198Y-84150198D01*
X90940000Y-83126198D02*
X89916000Y-84150198D01*
X91440000Y-82333000D02*
X91440000Y-83058000D01*
X90043000Y-84455000D02*
X80645000Y-84455000D01*
X91440000Y-83058000D02*
X90043000Y-84455000D01*
X96202500Y-83248500D02*
X97409000Y-84455000D01*
X94337000Y-81383000D02*
X96202500Y-83248500D01*
X96202500Y-83248500D02*
X96202500Y-83248500D01*
X93890000Y-81383000D02*
X94337000Y-81383000D01*
X97409000Y-84455000D02*
X102235000Y-84455000D01*
X93890000Y-81383000D02*
X94235400Y-81383000D01*
X97726500Y-82798500D02*
X97784500Y-82740500D01*
X97784500Y-82740500D02*
X97155000Y-82740500D01*
X95377000Y-81661000D02*
X96456500Y-82740500D01*
X94599000Y-80883000D02*
X95377000Y-81661000D01*
X93890000Y-80883000D02*
X94599000Y-80883000D01*
X96456500Y-82740500D02*
X97155000Y-82740500D01*
X97155000Y-82740500D02*
X98044000Y-82740500D01*
X98044000Y-82740500D02*
X101409500Y-82740500D01*
X101409500Y-82740500D02*
X102235000Y-81915000D01*
X99060000Y-82290500D02*
X99118000Y-82232500D01*
X99118000Y-82232500D02*
X99377500Y-82232500D01*
X96710500Y-82232500D02*
X99377500Y-82232500D01*
X99377500Y-82232500D02*
X102235000Y-79375000D01*
X93890000Y-80383000D02*
X94861000Y-80383000D01*
X94861000Y-80383000D02*
X96710500Y-82232500D01*
X83947000Y-65347000D02*
X83947000Y-65532000D01*
X83947000Y-65532000D02*
X86360000Y-67945000D01*
X82550000Y-65347000D02*
X83947000Y-65347000D01*
X85286000Y-70485000D02*
X86360000Y-70485000D01*
X86360000Y-70485000D02*
X88900000Y-67945000D01*
X84386000Y-71882000D02*
X84386000Y-71385000D01*
X84386000Y-71385000D02*
X85286000Y-70485000D01*
G36*
X83431181Y-63924004D02*
X83324004Y-64031180D01*
X83266000Y-64171214D01*
X83266000Y-64251750D01*
X83361250Y-64347000D01*
X83832700Y-64347000D01*
X83832700Y-64312700D01*
X84061300Y-64312700D01*
X84061300Y-64347000D01*
X84532750Y-64347000D01*
X84628000Y-64251750D01*
X84628000Y-64171214D01*
X84569996Y-64031180D01*
X84462819Y-63924004D01*
X84417422Y-63905200D01*
X103734800Y-63905200D01*
X103734800Y-78028800D01*
X102413774Y-78028800D01*
X102870621Y-77937927D01*
X103257918Y-77679144D01*
X103516701Y-77291847D01*
X103607574Y-76835000D01*
X103516701Y-76378153D01*
X103257918Y-75990856D01*
X102870621Y-75732073D01*
X102413774Y-75641200D01*
X102056226Y-75641200D01*
X101599379Y-75732073D01*
X101212082Y-75990856D01*
X100953299Y-76378153D01*
X100951977Y-76384800D01*
X100930177Y-76389136D01*
X100773610Y-76493750D01*
X98718622Y-78548738D01*
X98590100Y-78522711D01*
X96989900Y-78522711D01*
X96977200Y-78525101D01*
X96977200Y-78239620D01*
X97580450Y-78239620D01*
X97675700Y-78144370D01*
X97675700Y-76672440D01*
X97904300Y-76672440D01*
X97904300Y-78144370D01*
X97999550Y-78239620D01*
X98665885Y-78239620D01*
X98805919Y-78181616D01*
X98913096Y-78074440D01*
X98971100Y-77934406D01*
X98971100Y-76767690D01*
X98875850Y-76672440D01*
X97904300Y-76672440D01*
X97675700Y-76672440D01*
X96967156Y-76672440D01*
X96954132Y-76653379D01*
X96928695Y-76637011D01*
X96901000Y-76631800D01*
X94107000Y-76631800D01*
X94077354Y-76637803D01*
X94052379Y-76654868D01*
X94036011Y-76680305D01*
X94030800Y-76708000D01*
X94030800Y-77774800D01*
X93409856Y-77774800D01*
X93420200Y-77722795D01*
X93420200Y-77143205D01*
X93409803Y-77090933D01*
X95318862Y-75181874D01*
X96608900Y-75181874D01*
X96608900Y-76348590D01*
X96704150Y-76443840D01*
X97675700Y-76443840D01*
X97675700Y-74971910D01*
X97904300Y-74971910D01*
X97904300Y-76443840D01*
X98875850Y-76443840D01*
X98971100Y-76348590D01*
X98971100Y-75181874D01*
X98913096Y-75041840D01*
X98805919Y-74934664D01*
X98665885Y-74876660D01*
X97999550Y-74876660D01*
X97904300Y-74971910D01*
X97675700Y-74971910D01*
X97580450Y-74876660D01*
X96914115Y-74876660D01*
X96774081Y-74934664D01*
X96666904Y-75041840D01*
X96608900Y-75181874D01*
X95318862Y-75181874D01*
X95898968Y-74601768D01*
X100876399Y-74601768D01*
X100879585Y-74623002D01*
X101096680Y-75058408D01*
X101463872Y-75377592D01*
X101925260Y-75531961D01*
X102120700Y-75446095D01*
X102120700Y-74409300D01*
X102349300Y-74409300D01*
X102349300Y-75446095D01*
X102544740Y-75531961D01*
X103006128Y-75377592D01*
X103373320Y-75058408D01*
X103590415Y-74623002D01*
X103593601Y-74601768D01*
X103531052Y-74409300D01*
X102349300Y-74409300D01*
X102120700Y-74409300D01*
X100938948Y-74409300D01*
X100876399Y-74601768D01*
X95898968Y-74601768D01*
X96434336Y-74066400D01*
X98933000Y-74066400D01*
X99088523Y-74035465D01*
X99159211Y-73988232D01*
X100876399Y-73988232D01*
X100938948Y-74180700D01*
X102120700Y-74180700D01*
X102120700Y-73143905D01*
X102349300Y-73143905D01*
X102349300Y-74180700D01*
X103531052Y-74180700D01*
X103593601Y-73988232D01*
X103590415Y-73966998D01*
X103373320Y-73531592D01*
X103006128Y-73212408D01*
X102544740Y-73058039D01*
X102349300Y-73143905D01*
X102120700Y-73143905D01*
X101925260Y-73058039D01*
X101463872Y-73212408D01*
X101096680Y-73531592D01*
X100879585Y-73966998D01*
X100876399Y-73988232D01*
X99159211Y-73988232D01*
X99220368Y-73947368D01*
X100578227Y-72589509D01*
X101765100Y-72589509D01*
X101887465Y-72566484D01*
X101999849Y-72494167D01*
X102075244Y-72383823D01*
X102101769Y-72252840D01*
X102101769Y-69651880D01*
X102078744Y-69529515D01*
X102006427Y-69417131D01*
X101896083Y-69341736D01*
X101765100Y-69315211D01*
X100164900Y-69315211D01*
X100042535Y-69338236D01*
X99930151Y-69410553D01*
X99854756Y-69520897D01*
X99828231Y-69651880D01*
X99828231Y-72190033D01*
X98764664Y-73253600D01*
X98360062Y-73253600D01*
X98383209Y-73139300D01*
X98383209Y-71539100D01*
X98360184Y-71416735D01*
X98287867Y-71304351D01*
X98177523Y-71228956D01*
X98046540Y-71202431D01*
X96184028Y-71202431D01*
X94386400Y-69404804D01*
X94386400Y-69081350D01*
X94436847Y-69071315D01*
X94824144Y-68812532D01*
X95082927Y-68425235D01*
X95173800Y-67968388D01*
X95173800Y-67921612D01*
X95326200Y-67921612D01*
X95326200Y-67968388D01*
X95417073Y-68425235D01*
X95675856Y-68812532D01*
X96063153Y-69071315D01*
X96520000Y-69162188D01*
X96976847Y-69071315D01*
X97364144Y-68812532D01*
X97622927Y-68425235D01*
X97637614Y-68351400D01*
X99828231Y-68351400D01*
X99828231Y-68651120D01*
X99851256Y-68773485D01*
X99923573Y-68885869D01*
X100033917Y-68961264D01*
X100164900Y-68987789D01*
X101765100Y-68987789D01*
X101887465Y-68964764D01*
X101999849Y-68892447D01*
X102075244Y-68782103D01*
X102101769Y-68651120D01*
X102101769Y-66050160D01*
X102078744Y-65927795D01*
X102006427Y-65815411D01*
X101896083Y-65740016D01*
X101765100Y-65713491D01*
X100164900Y-65713491D01*
X100042535Y-65736516D01*
X99930151Y-65808833D01*
X99854756Y-65919177D01*
X99828231Y-66050160D01*
X99828231Y-67538600D01*
X97637614Y-67538600D01*
X97622927Y-67464765D01*
X97364144Y-67077468D01*
X96976847Y-66818685D01*
X96520000Y-66727812D01*
X96063153Y-66818685D01*
X95675856Y-67077468D01*
X95417073Y-67464765D01*
X95326200Y-67921612D01*
X95173800Y-67921612D01*
X95082927Y-67464765D01*
X94824144Y-67077468D01*
X94436847Y-66818685D01*
X93980000Y-66727812D01*
X93523153Y-66818685D01*
X93135856Y-67077468D01*
X92877073Y-67464765D01*
X92786200Y-67921612D01*
X92786200Y-67968388D01*
X92877073Y-68425235D01*
X93135856Y-68812532D01*
X93523153Y-69071315D01*
X93573600Y-69081350D01*
X93573600Y-69573140D01*
X93604535Y-69728663D01*
X93692632Y-69860508D01*
X95177978Y-71345855D01*
X95135436Y-71408117D01*
X95108911Y-71539100D01*
X95108911Y-73139300D01*
X95131936Y-73261665D01*
X95204253Y-73374049D01*
X95314597Y-73449444D01*
X95445580Y-73475969D01*
X95875295Y-73475969D01*
X93550740Y-75800524D01*
X93550740Y-73475969D01*
X94444820Y-73475969D01*
X94567185Y-73452944D01*
X94679569Y-73380627D01*
X94754964Y-73270283D01*
X94781489Y-73139300D01*
X94781489Y-71539100D01*
X94758464Y-71416735D01*
X94686147Y-71304351D01*
X94575803Y-71228956D01*
X94444820Y-71202431D01*
X91843860Y-71202431D01*
X91721495Y-71225456D01*
X91710629Y-71232448D01*
X91710629Y-70954900D01*
X91687604Y-70832535D01*
X91615287Y-70720151D01*
X91504943Y-70644756D01*
X91373960Y-70618231D01*
X89174320Y-70618231D01*
X89051955Y-70641256D01*
X88939571Y-70713573D01*
X88864176Y-70823917D01*
X88837651Y-70954900D01*
X88837651Y-72555100D01*
X88860676Y-72677465D01*
X88874600Y-72699104D01*
X88874600Y-75091864D01*
X86674505Y-72891769D01*
X88371680Y-72891769D01*
X88494045Y-72868744D01*
X88606429Y-72796427D01*
X88681824Y-72686083D01*
X88708349Y-72555100D01*
X88708349Y-70954900D01*
X88685324Y-70832535D01*
X88613007Y-70720151D01*
X88502663Y-70644756D01*
X88371680Y-70618231D01*
X86801505Y-70618231D01*
X88386366Y-69033371D01*
X88443153Y-69071315D01*
X88900000Y-69162188D01*
X89356847Y-69071315D01*
X89744144Y-68812532D01*
X90002927Y-68425235D01*
X90093800Y-67968388D01*
X90093800Y-67921612D01*
X90246200Y-67921612D01*
X90246200Y-67968388D01*
X90337073Y-68425235D01*
X90595856Y-68812532D01*
X90983153Y-69071315D01*
X91440000Y-69162188D01*
X91896847Y-69071315D01*
X92284144Y-68812532D01*
X92542927Y-68425235D01*
X92633800Y-67968388D01*
X92633800Y-67921612D01*
X92542927Y-67464765D01*
X92284144Y-67077468D01*
X91896847Y-66818685D01*
X91440000Y-66727812D01*
X90983153Y-66818685D01*
X90595856Y-67077468D01*
X90337073Y-67464765D01*
X90246200Y-67921612D01*
X90093800Y-67921612D01*
X90002927Y-67464765D01*
X89744144Y-67077468D01*
X89356847Y-66818685D01*
X88900000Y-66727812D01*
X88443153Y-66818685D01*
X88055856Y-67077468D01*
X87797073Y-67464765D01*
X87706200Y-67921612D01*
X87706200Y-67968388D01*
X87797073Y-68425235D01*
X87816281Y-68453982D01*
X87560269Y-68709994D01*
X87560269Y-67081400D01*
X87537244Y-66959035D01*
X87464927Y-66846651D01*
X87354583Y-66771256D01*
X87223600Y-66744731D01*
X85734467Y-66744731D01*
X84701506Y-65711770D01*
X85153788Y-65711770D01*
X85363001Y-66150016D01*
X85723998Y-66474840D01*
X86053232Y-66611201D01*
X86245700Y-66548652D01*
X86245700Y-65519300D01*
X86474300Y-65519300D01*
X86474300Y-66548652D01*
X86666768Y-66611201D01*
X86996002Y-66474840D01*
X87356999Y-66150016D01*
X87566212Y-65711770D01*
X87693788Y-65711770D01*
X87903001Y-66150016D01*
X88263998Y-66474840D01*
X88593232Y-66611201D01*
X88785700Y-66548652D01*
X88785700Y-65519300D01*
X89014300Y-65519300D01*
X89014300Y-66548652D01*
X89206768Y-66611201D01*
X89536002Y-66474840D01*
X89896999Y-66150016D01*
X90106212Y-65711770D01*
X90233788Y-65711770D01*
X90443001Y-66150016D01*
X90803998Y-66474840D01*
X91133232Y-66611201D01*
X91325700Y-66548652D01*
X91325700Y-65519300D01*
X91554300Y-65519300D01*
X91554300Y-66548652D01*
X91746768Y-66611201D01*
X92076002Y-66474840D01*
X92436999Y-66150016D01*
X92646212Y-65711770D01*
X92773788Y-65711770D01*
X92983001Y-66150016D01*
X93343998Y-66474840D01*
X93673232Y-66611201D01*
X93865700Y-66548652D01*
X93865700Y-65519300D01*
X94094300Y-65519300D01*
X94094300Y-66548652D01*
X94286768Y-66611201D01*
X94616002Y-66474840D01*
X94976999Y-66150016D01*
X95186212Y-65711770D01*
X95313788Y-65711770D01*
X95523001Y-66150016D01*
X95883998Y-66474840D01*
X96213232Y-66611201D01*
X96405700Y-66548652D01*
X96405700Y-65519300D01*
X96634300Y-65519300D01*
X96634300Y-66548652D01*
X96826768Y-66611201D01*
X97156002Y-66474840D01*
X97516999Y-66150016D01*
X97726212Y-65711770D01*
X97664101Y-65519300D01*
X96634300Y-65519300D01*
X96405700Y-65519300D01*
X95375899Y-65519300D01*
X95313788Y-65711770D01*
X95186212Y-65711770D01*
X95124101Y-65519300D01*
X94094300Y-65519300D01*
X93865700Y-65519300D01*
X92835899Y-65519300D01*
X92773788Y-65711770D01*
X92646212Y-65711770D01*
X92584101Y-65519300D01*
X91554300Y-65519300D01*
X91325700Y-65519300D01*
X90295899Y-65519300D01*
X90233788Y-65711770D01*
X90106212Y-65711770D01*
X90044101Y-65519300D01*
X89014300Y-65519300D01*
X88785700Y-65519300D01*
X87755899Y-65519300D01*
X87693788Y-65711770D01*
X87566212Y-65711770D01*
X87504101Y-65519300D01*
X86474300Y-65519300D01*
X86245700Y-65519300D01*
X85215899Y-65519300D01*
X85153788Y-65711770D01*
X84701506Y-65711770D01*
X84575765Y-65586029D01*
X84583669Y-65547000D01*
X84583669Y-65147000D01*
X84574493Y-65098230D01*
X85153788Y-65098230D01*
X85215899Y-65290700D01*
X86245700Y-65290700D01*
X86245700Y-64261348D01*
X86474300Y-64261348D01*
X86474300Y-65290700D01*
X87504101Y-65290700D01*
X87566212Y-65098230D01*
X87693788Y-65098230D01*
X87755899Y-65290700D01*
X88785700Y-65290700D01*
X88785700Y-64261348D01*
X89014300Y-64261348D01*
X89014300Y-65290700D01*
X90044101Y-65290700D01*
X90106212Y-65098230D01*
X90233788Y-65098230D01*
X90295899Y-65290700D01*
X91325700Y-65290700D01*
X91325700Y-64261348D01*
X91554300Y-64261348D01*
X91554300Y-65290700D01*
X92584101Y-65290700D01*
X92646212Y-65098230D01*
X92773788Y-65098230D01*
X92835899Y-65290700D01*
X93865700Y-65290700D01*
X93865700Y-64261348D01*
X94094300Y-64261348D01*
X94094300Y-65290700D01*
X95124101Y-65290700D01*
X95186212Y-65098230D01*
X95313788Y-65098230D01*
X95375899Y-65290700D01*
X96405700Y-65290700D01*
X96405700Y-64261348D01*
X96634300Y-64261348D01*
X96634300Y-65290700D01*
X97664101Y-65290700D01*
X97726212Y-65098230D01*
X97516999Y-64659984D01*
X97156002Y-64335160D01*
X96826768Y-64198799D01*
X96634300Y-64261348D01*
X96405700Y-64261348D01*
X96213232Y-64198799D01*
X95883998Y-64335160D01*
X95523001Y-64659984D01*
X95313788Y-65098230D01*
X95186212Y-65098230D01*
X94976999Y-64659984D01*
X94616002Y-64335160D01*
X94286768Y-64198799D01*
X94094300Y-64261348D01*
X93865700Y-64261348D01*
X93673232Y-64198799D01*
X93343998Y-64335160D01*
X92983001Y-64659984D01*
X92773788Y-65098230D01*
X92646212Y-65098230D01*
X92436999Y-64659984D01*
X92076002Y-64335160D01*
X91746768Y-64198799D01*
X91554300Y-64261348D01*
X91325700Y-64261348D01*
X91133232Y-64198799D01*
X90803998Y-64335160D01*
X90443001Y-64659984D01*
X90233788Y-65098230D01*
X90106212Y-65098230D01*
X89896999Y-64659984D01*
X89536002Y-64335160D01*
X89206768Y-64198799D01*
X89014300Y-64261348D01*
X88785700Y-64261348D01*
X88593232Y-64198799D01*
X88263998Y-64335160D01*
X87903001Y-64659984D01*
X87693788Y-65098230D01*
X87566212Y-65098230D01*
X87356999Y-64659984D01*
X86996002Y-64335160D01*
X86666768Y-64198799D01*
X86474300Y-64261348D01*
X86245700Y-64261348D01*
X86053232Y-64198799D01*
X85723998Y-64335160D01*
X85363001Y-64659984D01*
X85153788Y-65098230D01*
X84574493Y-65098230D01*
X84560644Y-65024635D01*
X84500949Y-64931866D01*
X84569996Y-64862820D01*
X84628000Y-64722786D01*
X84628000Y-64642250D01*
X84532750Y-64547000D01*
X84061300Y-64547000D01*
X84061300Y-64581300D01*
X83832700Y-64581300D01*
X83832700Y-64547000D01*
X83361250Y-64547000D01*
X83266000Y-64642250D01*
X83266000Y-64722786D01*
X83324004Y-64862820D01*
X83393825Y-64932640D01*
X83388386Y-64940600D01*
X83109569Y-64940600D01*
X83091327Y-64912251D01*
X83070105Y-64897750D01*
X83084749Y-64888327D01*
X83160144Y-64777983D01*
X83186669Y-64647000D01*
X83186669Y-64247000D01*
X83163644Y-64124635D01*
X83091327Y-64012251D01*
X82980983Y-63936856D01*
X82850000Y-63910331D01*
X82250000Y-63910331D01*
X82127635Y-63933356D01*
X82015251Y-64005673D01*
X81991386Y-64040600D01*
X81857000Y-64040600D01*
X81701477Y-64071535D01*
X81569632Y-64159632D01*
X81246632Y-64482632D01*
X81158535Y-64614477D01*
X81127600Y-64770000D01*
X81127600Y-65896371D01*
X80733900Y-65896371D01*
X80611535Y-65919396D01*
X80499151Y-65991713D01*
X80423756Y-66102057D01*
X80397231Y-66233040D01*
X80397231Y-68432680D01*
X80420256Y-68555045D01*
X80492573Y-68667429D01*
X80602917Y-68742824D01*
X80733900Y-68769349D01*
X82334100Y-68769349D01*
X82456465Y-68746324D01*
X82568849Y-68674007D01*
X82644244Y-68563663D01*
X82670769Y-68432680D01*
X82670769Y-66233040D01*
X82647744Y-66110675D01*
X82575427Y-65998291D01*
X82465083Y-65922896D01*
X82334100Y-65896371D01*
X81940400Y-65896371D01*
X81940400Y-65675650D01*
X82008673Y-65781749D01*
X82119017Y-65857144D01*
X82250000Y-65883669D01*
X82850000Y-65883669D01*
X82972365Y-65860644D01*
X83084749Y-65788327D01*
X83108614Y-65753400D01*
X83387431Y-65753400D01*
X83405673Y-65781749D01*
X83516017Y-65857144D01*
X83647000Y-65883669D01*
X83723933Y-65883669D01*
X85159731Y-67319467D01*
X85159731Y-68808600D01*
X85182756Y-68930965D01*
X85255073Y-69043349D01*
X85365417Y-69118744D01*
X85496400Y-69145269D01*
X87124995Y-69145269D01*
X86191664Y-70078600D01*
X85802648Y-70078600D01*
X85799644Y-70062635D01*
X85727327Y-69950251D01*
X85616983Y-69874856D01*
X85486000Y-69848331D01*
X85086000Y-69848331D01*
X84963635Y-69871356D01*
X84870866Y-69931051D01*
X84801820Y-69862004D01*
X84661786Y-69804000D01*
X84581250Y-69804000D01*
X84486000Y-69899250D01*
X84486000Y-70370700D01*
X84520300Y-70370700D01*
X84520300Y-70599300D01*
X84486000Y-70599300D01*
X84486000Y-70619300D01*
X84286000Y-70619300D01*
X84286000Y-70599300D01*
X83900250Y-70599300D01*
X83805000Y-70694550D01*
X83805000Y-70860785D01*
X83863004Y-71000819D01*
X83970180Y-71107996D01*
X84065363Y-71147422D01*
X84010535Y-71229477D01*
X83993872Y-71313247D01*
X83951251Y-71340673D01*
X83875856Y-71451017D01*
X83849331Y-71582000D01*
X83849331Y-72075734D01*
X82670769Y-70897173D01*
X82670769Y-70109215D01*
X83805000Y-70109215D01*
X83805000Y-70275450D01*
X83900250Y-70370700D01*
X84286000Y-70370700D01*
X84286000Y-69899250D01*
X84190750Y-69804000D01*
X84110214Y-69804000D01*
X83970180Y-69862004D01*
X83863004Y-69969181D01*
X83805000Y-70109215D01*
X82670769Y-70109215D01*
X82670769Y-69235320D01*
X82647744Y-69112955D01*
X82575427Y-69000571D01*
X82465083Y-68925176D01*
X82334100Y-68898651D01*
X80733900Y-68898651D01*
X80611535Y-68921676D01*
X80499151Y-68993993D01*
X80423756Y-69104337D01*
X80397231Y-69235320D01*
X80397231Y-71434960D01*
X80420256Y-71557325D01*
X80492573Y-71669709D01*
X80602917Y-71745104D01*
X80733900Y-71771629D01*
X82334100Y-71771629D01*
X82385989Y-71761865D01*
X83936491Y-73312368D01*
X84068337Y-73400465D01*
X84223860Y-73431400D01*
X86064664Y-73431400D01*
X89533600Y-76900336D01*
X89533600Y-76903696D01*
X89496353Y-76959440D01*
X89459800Y-77143205D01*
X89459800Y-77722795D01*
X89470144Y-77774800D01*
X84740564Y-77774800D01*
X82626200Y-75660436D01*
X82626200Y-72263000D01*
X82620197Y-72233354D01*
X82603132Y-72208379D01*
X82577695Y-72192011D01*
X82550000Y-72186800D01*
X79145200Y-72186800D01*
X79145200Y-63905200D01*
X83476578Y-63905200D01*
X83431181Y-63924004D01*
X83431181Y-63924004D01*
G37*
X83431181Y-63924004D02*
X83324004Y-64031180D01*
X83266000Y-64171214D01*
X83266000Y-64251750D01*
X83361250Y-64347000D01*
X83832700Y-64347000D01*
X83832700Y-64312700D01*
X84061300Y-64312700D01*
X84061300Y-64347000D01*
X84532750Y-64347000D01*
X84628000Y-64251750D01*
X84628000Y-64171214D01*
X84569996Y-64031180D01*
X84462819Y-63924004D01*
X84417422Y-63905200D01*
X103734800Y-63905200D01*
X103734800Y-78028800D01*
X102413774Y-78028800D01*
X102870621Y-77937927D01*
X103257918Y-77679144D01*
X103516701Y-77291847D01*
X103607574Y-76835000D01*
X103516701Y-76378153D01*
X103257918Y-75990856D01*
X102870621Y-75732073D01*
X102413774Y-75641200D01*
X102056226Y-75641200D01*
X101599379Y-75732073D01*
X101212082Y-75990856D01*
X100953299Y-76378153D01*
X100951977Y-76384800D01*
X100930177Y-76389136D01*
X100773610Y-76493750D01*
X98718622Y-78548738D01*
X98590100Y-78522711D01*
X96989900Y-78522711D01*
X96977200Y-78525101D01*
X96977200Y-78239620D01*
X97580450Y-78239620D01*
X97675700Y-78144370D01*
X97675700Y-76672440D01*
X97904300Y-76672440D01*
X97904300Y-78144370D01*
X97999550Y-78239620D01*
X98665885Y-78239620D01*
X98805919Y-78181616D01*
X98913096Y-78074440D01*
X98971100Y-77934406D01*
X98971100Y-76767690D01*
X98875850Y-76672440D01*
X97904300Y-76672440D01*
X97675700Y-76672440D01*
X96967156Y-76672440D01*
X96954132Y-76653379D01*
X96928695Y-76637011D01*
X96901000Y-76631800D01*
X94107000Y-76631800D01*
X94077354Y-76637803D01*
X94052379Y-76654868D01*
X94036011Y-76680305D01*
X94030800Y-76708000D01*
X94030800Y-77774800D01*
X93409856Y-77774800D01*
X93420200Y-77722795D01*
X93420200Y-77143205D01*
X93409803Y-77090933D01*
X95318862Y-75181874D01*
X96608900Y-75181874D01*
X96608900Y-76348590D01*
X96704150Y-76443840D01*
X97675700Y-76443840D01*
X97675700Y-74971910D01*
X97904300Y-74971910D01*
X97904300Y-76443840D01*
X98875850Y-76443840D01*
X98971100Y-76348590D01*
X98971100Y-75181874D01*
X98913096Y-75041840D01*
X98805919Y-74934664D01*
X98665885Y-74876660D01*
X97999550Y-74876660D01*
X97904300Y-74971910D01*
X97675700Y-74971910D01*
X97580450Y-74876660D01*
X96914115Y-74876660D01*
X96774081Y-74934664D01*
X96666904Y-75041840D01*
X96608900Y-75181874D01*
X95318862Y-75181874D01*
X95898968Y-74601768D01*
X100876399Y-74601768D01*
X100879585Y-74623002D01*
X101096680Y-75058408D01*
X101463872Y-75377592D01*
X101925260Y-75531961D01*
X102120700Y-75446095D01*
X102120700Y-74409300D01*
X102349300Y-74409300D01*
X102349300Y-75446095D01*
X102544740Y-75531961D01*
X103006128Y-75377592D01*
X103373320Y-75058408D01*
X103590415Y-74623002D01*
X103593601Y-74601768D01*
X103531052Y-74409300D01*
X102349300Y-74409300D01*
X102120700Y-74409300D01*
X100938948Y-74409300D01*
X100876399Y-74601768D01*
X95898968Y-74601768D01*
X96434336Y-74066400D01*
X98933000Y-74066400D01*
X99088523Y-74035465D01*
X99159211Y-73988232D01*
X100876399Y-73988232D01*
X100938948Y-74180700D01*
X102120700Y-74180700D01*
X102120700Y-73143905D01*
X102349300Y-73143905D01*
X102349300Y-74180700D01*
X103531052Y-74180700D01*
X103593601Y-73988232D01*
X103590415Y-73966998D01*
X103373320Y-73531592D01*
X103006128Y-73212408D01*
X102544740Y-73058039D01*
X102349300Y-73143905D01*
X102120700Y-73143905D01*
X101925260Y-73058039D01*
X101463872Y-73212408D01*
X101096680Y-73531592D01*
X100879585Y-73966998D01*
X100876399Y-73988232D01*
X99159211Y-73988232D01*
X99220368Y-73947368D01*
X100578227Y-72589509D01*
X101765100Y-72589509D01*
X101887465Y-72566484D01*
X101999849Y-72494167D01*
X102075244Y-72383823D01*
X102101769Y-72252840D01*
X102101769Y-69651880D01*
X102078744Y-69529515D01*
X102006427Y-69417131D01*
X101896083Y-69341736D01*
X101765100Y-69315211D01*
X100164900Y-69315211D01*
X100042535Y-69338236D01*
X99930151Y-69410553D01*
X99854756Y-69520897D01*
X99828231Y-69651880D01*
X99828231Y-72190033D01*
X98764664Y-73253600D01*
X98360062Y-73253600D01*
X98383209Y-73139300D01*
X98383209Y-71539100D01*
X98360184Y-71416735D01*
X98287867Y-71304351D01*
X98177523Y-71228956D01*
X98046540Y-71202431D01*
X96184028Y-71202431D01*
X94386400Y-69404804D01*
X94386400Y-69081350D01*
X94436847Y-69071315D01*
X94824144Y-68812532D01*
X95082927Y-68425235D01*
X95173800Y-67968388D01*
X95173800Y-67921612D01*
X95326200Y-67921612D01*
X95326200Y-67968388D01*
X95417073Y-68425235D01*
X95675856Y-68812532D01*
X96063153Y-69071315D01*
X96520000Y-69162188D01*
X96976847Y-69071315D01*
X97364144Y-68812532D01*
X97622927Y-68425235D01*
X97637614Y-68351400D01*
X99828231Y-68351400D01*
X99828231Y-68651120D01*
X99851256Y-68773485D01*
X99923573Y-68885869D01*
X100033917Y-68961264D01*
X100164900Y-68987789D01*
X101765100Y-68987789D01*
X101887465Y-68964764D01*
X101999849Y-68892447D01*
X102075244Y-68782103D01*
X102101769Y-68651120D01*
X102101769Y-66050160D01*
X102078744Y-65927795D01*
X102006427Y-65815411D01*
X101896083Y-65740016D01*
X101765100Y-65713491D01*
X100164900Y-65713491D01*
X100042535Y-65736516D01*
X99930151Y-65808833D01*
X99854756Y-65919177D01*
X99828231Y-66050160D01*
X99828231Y-67538600D01*
X97637614Y-67538600D01*
X97622927Y-67464765D01*
X97364144Y-67077468D01*
X96976847Y-66818685D01*
X96520000Y-66727812D01*
X96063153Y-66818685D01*
X95675856Y-67077468D01*
X95417073Y-67464765D01*
X95326200Y-67921612D01*
X95173800Y-67921612D01*
X95082927Y-67464765D01*
X94824144Y-67077468D01*
X94436847Y-66818685D01*
X93980000Y-66727812D01*
X93523153Y-66818685D01*
X93135856Y-67077468D01*
X92877073Y-67464765D01*
X92786200Y-67921612D01*
X92786200Y-67968388D01*
X92877073Y-68425235D01*
X93135856Y-68812532D01*
X93523153Y-69071315D01*
X93573600Y-69081350D01*
X93573600Y-69573140D01*
X93604535Y-69728663D01*
X93692632Y-69860508D01*
X95177978Y-71345855D01*
X95135436Y-71408117D01*
X95108911Y-71539100D01*
X95108911Y-73139300D01*
X95131936Y-73261665D01*
X95204253Y-73374049D01*
X95314597Y-73449444D01*
X95445580Y-73475969D01*
X95875295Y-73475969D01*
X93550740Y-75800524D01*
X93550740Y-73475969D01*
X94444820Y-73475969D01*
X94567185Y-73452944D01*
X94679569Y-73380627D01*
X94754964Y-73270283D01*
X94781489Y-73139300D01*
X94781489Y-71539100D01*
X94758464Y-71416735D01*
X94686147Y-71304351D01*
X94575803Y-71228956D01*
X94444820Y-71202431D01*
X91843860Y-71202431D01*
X91721495Y-71225456D01*
X91710629Y-71232448D01*
X91710629Y-70954900D01*
X91687604Y-70832535D01*
X91615287Y-70720151D01*
X91504943Y-70644756D01*
X91373960Y-70618231D01*
X89174320Y-70618231D01*
X89051955Y-70641256D01*
X88939571Y-70713573D01*
X88864176Y-70823917D01*
X88837651Y-70954900D01*
X88837651Y-72555100D01*
X88860676Y-72677465D01*
X88874600Y-72699104D01*
X88874600Y-75091864D01*
X86674505Y-72891769D01*
X88371680Y-72891769D01*
X88494045Y-72868744D01*
X88606429Y-72796427D01*
X88681824Y-72686083D01*
X88708349Y-72555100D01*
X88708349Y-70954900D01*
X88685324Y-70832535D01*
X88613007Y-70720151D01*
X88502663Y-70644756D01*
X88371680Y-70618231D01*
X86801505Y-70618231D01*
X88386366Y-69033371D01*
X88443153Y-69071315D01*
X88900000Y-69162188D01*
X89356847Y-69071315D01*
X89744144Y-68812532D01*
X90002927Y-68425235D01*
X90093800Y-67968388D01*
X90093800Y-67921612D01*
X90246200Y-67921612D01*
X90246200Y-67968388D01*
X90337073Y-68425235D01*
X90595856Y-68812532D01*
X90983153Y-69071315D01*
X91440000Y-69162188D01*
X91896847Y-69071315D01*
X92284144Y-68812532D01*
X92542927Y-68425235D01*
X92633800Y-67968388D01*
X92633800Y-67921612D01*
X92542927Y-67464765D01*
X92284144Y-67077468D01*
X91896847Y-66818685D01*
X91440000Y-66727812D01*
X90983153Y-66818685D01*
X90595856Y-67077468D01*
X90337073Y-67464765D01*
X90246200Y-67921612D01*
X90093800Y-67921612D01*
X90002927Y-67464765D01*
X89744144Y-67077468D01*
X89356847Y-66818685D01*
X88900000Y-66727812D01*
X88443153Y-66818685D01*
X88055856Y-67077468D01*
X87797073Y-67464765D01*
X87706200Y-67921612D01*
X87706200Y-67968388D01*
X87797073Y-68425235D01*
X87816281Y-68453982D01*
X87560269Y-68709994D01*
X87560269Y-67081400D01*
X87537244Y-66959035D01*
X87464927Y-66846651D01*
X87354583Y-66771256D01*
X87223600Y-66744731D01*
X85734467Y-66744731D01*
X84701506Y-65711770D01*
X85153788Y-65711770D01*
X85363001Y-66150016D01*
X85723998Y-66474840D01*
X86053232Y-66611201D01*
X86245700Y-66548652D01*
X86245700Y-65519300D01*
X86474300Y-65519300D01*
X86474300Y-66548652D01*
X86666768Y-66611201D01*
X86996002Y-66474840D01*
X87356999Y-66150016D01*
X87566212Y-65711770D01*
X87693788Y-65711770D01*
X87903001Y-66150016D01*
X88263998Y-66474840D01*
X88593232Y-66611201D01*
X88785700Y-66548652D01*
X88785700Y-65519300D01*
X89014300Y-65519300D01*
X89014300Y-66548652D01*
X89206768Y-66611201D01*
X89536002Y-66474840D01*
X89896999Y-66150016D01*
X90106212Y-65711770D01*
X90233788Y-65711770D01*
X90443001Y-66150016D01*
X90803998Y-66474840D01*
X91133232Y-66611201D01*
X91325700Y-66548652D01*
X91325700Y-65519300D01*
X91554300Y-65519300D01*
X91554300Y-66548652D01*
X91746768Y-66611201D01*
X92076002Y-66474840D01*
X92436999Y-66150016D01*
X92646212Y-65711770D01*
X92773788Y-65711770D01*
X92983001Y-66150016D01*
X93343998Y-66474840D01*
X93673232Y-66611201D01*
X93865700Y-66548652D01*
X93865700Y-65519300D01*
X94094300Y-65519300D01*
X94094300Y-66548652D01*
X94286768Y-66611201D01*
X94616002Y-66474840D01*
X94976999Y-66150016D01*
X95186212Y-65711770D01*
X95313788Y-65711770D01*
X95523001Y-66150016D01*
X95883998Y-66474840D01*
X96213232Y-66611201D01*
X96405700Y-66548652D01*
X96405700Y-65519300D01*
X96634300Y-65519300D01*
X96634300Y-66548652D01*
X96826768Y-66611201D01*
X97156002Y-66474840D01*
X97516999Y-66150016D01*
X97726212Y-65711770D01*
X97664101Y-65519300D01*
X96634300Y-65519300D01*
X96405700Y-65519300D01*
X95375899Y-65519300D01*
X95313788Y-65711770D01*
X95186212Y-65711770D01*
X95124101Y-65519300D01*
X94094300Y-65519300D01*
X93865700Y-65519300D01*
X92835899Y-65519300D01*
X92773788Y-65711770D01*
X92646212Y-65711770D01*
X92584101Y-65519300D01*
X91554300Y-65519300D01*
X91325700Y-65519300D01*
X90295899Y-65519300D01*
X90233788Y-65711770D01*
X90106212Y-65711770D01*
X90044101Y-65519300D01*
X89014300Y-65519300D01*
X88785700Y-65519300D01*
X87755899Y-65519300D01*
X87693788Y-65711770D01*
X87566212Y-65711770D01*
X87504101Y-65519300D01*
X86474300Y-65519300D01*
X86245700Y-65519300D01*
X85215899Y-65519300D01*
X85153788Y-65711770D01*
X84701506Y-65711770D01*
X84575765Y-65586029D01*
X84583669Y-65547000D01*
X84583669Y-65147000D01*
X84574493Y-65098230D01*
X85153788Y-65098230D01*
X85215899Y-65290700D01*
X86245700Y-65290700D01*
X86245700Y-64261348D01*
X86474300Y-64261348D01*
X86474300Y-65290700D01*
X87504101Y-65290700D01*
X87566212Y-65098230D01*
X87693788Y-65098230D01*
X87755899Y-65290700D01*
X88785700Y-65290700D01*
X88785700Y-64261348D01*
X89014300Y-64261348D01*
X89014300Y-65290700D01*
X90044101Y-65290700D01*
X90106212Y-65098230D01*
X90233788Y-65098230D01*
X90295899Y-65290700D01*
X91325700Y-65290700D01*
X91325700Y-64261348D01*
X91554300Y-64261348D01*
X91554300Y-65290700D01*
X92584101Y-65290700D01*
X92646212Y-65098230D01*
X92773788Y-65098230D01*
X92835899Y-65290700D01*
X93865700Y-65290700D01*
X93865700Y-64261348D01*
X94094300Y-64261348D01*
X94094300Y-65290700D01*
X95124101Y-65290700D01*
X95186212Y-65098230D01*
X95313788Y-65098230D01*
X95375899Y-65290700D01*
X96405700Y-65290700D01*
X96405700Y-64261348D01*
X96634300Y-64261348D01*
X96634300Y-65290700D01*
X97664101Y-65290700D01*
X97726212Y-65098230D01*
X97516999Y-64659984D01*
X97156002Y-64335160D01*
X96826768Y-64198799D01*
X96634300Y-64261348D01*
X96405700Y-64261348D01*
X96213232Y-64198799D01*
X95883998Y-64335160D01*
X95523001Y-64659984D01*
X95313788Y-65098230D01*
X95186212Y-65098230D01*
X94976999Y-64659984D01*
X94616002Y-64335160D01*
X94286768Y-64198799D01*
X94094300Y-64261348D01*
X93865700Y-64261348D01*
X93673232Y-64198799D01*
X93343998Y-64335160D01*
X92983001Y-64659984D01*
X92773788Y-65098230D01*
X92646212Y-65098230D01*
X92436999Y-64659984D01*
X92076002Y-64335160D01*
X91746768Y-64198799D01*
X91554300Y-64261348D01*
X91325700Y-64261348D01*
X91133232Y-64198799D01*
X90803998Y-64335160D01*
X90443001Y-64659984D01*
X90233788Y-65098230D01*
X90106212Y-65098230D01*
X89896999Y-64659984D01*
X89536002Y-64335160D01*
X89206768Y-64198799D01*
X89014300Y-64261348D01*
X88785700Y-64261348D01*
X88593232Y-64198799D01*
X88263998Y-64335160D01*
X87903001Y-64659984D01*
X87693788Y-65098230D01*
X87566212Y-65098230D01*
X87356999Y-64659984D01*
X86996002Y-64335160D01*
X86666768Y-64198799D01*
X86474300Y-64261348D01*
X86245700Y-64261348D01*
X86053232Y-64198799D01*
X85723998Y-64335160D01*
X85363001Y-64659984D01*
X85153788Y-65098230D01*
X84574493Y-65098230D01*
X84560644Y-65024635D01*
X84500949Y-64931866D01*
X84569996Y-64862820D01*
X84628000Y-64722786D01*
X84628000Y-64642250D01*
X84532750Y-64547000D01*
X84061300Y-64547000D01*
X84061300Y-64581300D01*
X83832700Y-64581300D01*
X83832700Y-64547000D01*
X83361250Y-64547000D01*
X83266000Y-64642250D01*
X83266000Y-64722786D01*
X83324004Y-64862820D01*
X83393825Y-64932640D01*
X83388386Y-64940600D01*
X83109569Y-64940600D01*
X83091327Y-64912251D01*
X83070105Y-64897750D01*
X83084749Y-64888327D01*
X83160144Y-64777983D01*
X83186669Y-64647000D01*
X83186669Y-64247000D01*
X83163644Y-64124635D01*
X83091327Y-64012251D01*
X82980983Y-63936856D01*
X82850000Y-63910331D01*
X82250000Y-63910331D01*
X82127635Y-63933356D01*
X82015251Y-64005673D01*
X81991386Y-64040600D01*
X81857000Y-64040600D01*
X81701477Y-64071535D01*
X81569632Y-64159632D01*
X81246632Y-64482632D01*
X81158535Y-64614477D01*
X81127600Y-64770000D01*
X81127600Y-65896371D01*
X80733900Y-65896371D01*
X80611535Y-65919396D01*
X80499151Y-65991713D01*
X80423756Y-66102057D01*
X80397231Y-66233040D01*
X80397231Y-68432680D01*
X80420256Y-68555045D01*
X80492573Y-68667429D01*
X80602917Y-68742824D01*
X80733900Y-68769349D01*
X82334100Y-68769349D01*
X82456465Y-68746324D01*
X82568849Y-68674007D01*
X82644244Y-68563663D01*
X82670769Y-68432680D01*
X82670769Y-66233040D01*
X82647744Y-66110675D01*
X82575427Y-65998291D01*
X82465083Y-65922896D01*
X82334100Y-65896371D01*
X81940400Y-65896371D01*
X81940400Y-65675650D01*
X82008673Y-65781749D01*
X82119017Y-65857144D01*
X82250000Y-65883669D01*
X82850000Y-65883669D01*
X82972365Y-65860644D01*
X83084749Y-65788327D01*
X83108614Y-65753400D01*
X83387431Y-65753400D01*
X83405673Y-65781749D01*
X83516017Y-65857144D01*
X83647000Y-65883669D01*
X83723933Y-65883669D01*
X85159731Y-67319467D01*
X85159731Y-68808600D01*
X85182756Y-68930965D01*
X85255073Y-69043349D01*
X85365417Y-69118744D01*
X85496400Y-69145269D01*
X87124995Y-69145269D01*
X86191664Y-70078600D01*
X85802648Y-70078600D01*
X85799644Y-70062635D01*
X85727327Y-69950251D01*
X85616983Y-69874856D01*
X85486000Y-69848331D01*
X85086000Y-69848331D01*
X84963635Y-69871356D01*
X84870866Y-69931051D01*
X84801820Y-69862004D01*
X84661786Y-69804000D01*
X84581250Y-69804000D01*
X84486000Y-69899250D01*
X84486000Y-70370700D01*
X84520300Y-70370700D01*
X84520300Y-70599300D01*
X84486000Y-70599300D01*
X84486000Y-70619300D01*
X84286000Y-70619300D01*
X84286000Y-70599300D01*
X83900250Y-70599300D01*
X83805000Y-70694550D01*
X83805000Y-70860785D01*
X83863004Y-71000819D01*
X83970180Y-71107996D01*
X84065363Y-71147422D01*
X84010535Y-71229477D01*
X83993872Y-71313247D01*
X83951251Y-71340673D01*
X83875856Y-71451017D01*
X83849331Y-71582000D01*
X83849331Y-72075734D01*
X82670769Y-70897173D01*
X82670769Y-70109215D01*
X83805000Y-70109215D01*
X83805000Y-70275450D01*
X83900250Y-70370700D01*
X84286000Y-70370700D01*
X84286000Y-69899250D01*
X84190750Y-69804000D01*
X84110214Y-69804000D01*
X83970180Y-69862004D01*
X83863004Y-69969181D01*
X83805000Y-70109215D01*
X82670769Y-70109215D01*
X82670769Y-69235320D01*
X82647744Y-69112955D01*
X82575427Y-69000571D01*
X82465083Y-68925176D01*
X82334100Y-68898651D01*
X80733900Y-68898651D01*
X80611535Y-68921676D01*
X80499151Y-68993993D01*
X80423756Y-69104337D01*
X80397231Y-69235320D01*
X80397231Y-71434960D01*
X80420256Y-71557325D01*
X80492573Y-71669709D01*
X80602917Y-71745104D01*
X80733900Y-71771629D01*
X82334100Y-71771629D01*
X82385989Y-71761865D01*
X83936491Y-73312368D01*
X84068337Y-73400465D01*
X84223860Y-73431400D01*
X86064664Y-73431400D01*
X89533600Y-76900336D01*
X89533600Y-76903696D01*
X89496353Y-76959440D01*
X89459800Y-77143205D01*
X89459800Y-77722795D01*
X89470144Y-77774800D01*
X84740564Y-77774800D01*
X82626200Y-75660436D01*
X82626200Y-72263000D01*
X82620197Y-72233354D01*
X82603132Y-72208379D01*
X82577695Y-72192011D01*
X82550000Y-72186800D01*
X79145200Y-72186800D01*
X79145200Y-63905200D01*
X83476578Y-63905200D01*
X83431181Y-63924004D01*
G36*
X91507191Y-73139300D02*
X91530216Y-73261665D01*
X91602533Y-73374049D01*
X91712877Y-73449444D01*
X91843860Y-73475969D01*
X92737940Y-73475969D01*
X92737940Y-75079931D01*
X92731705Y-75079931D01*
X92707326Y-75069808D01*
X92459760Y-75069592D01*
X92434738Y-75079931D01*
X92248800Y-75079931D01*
X92126435Y-75102956D01*
X92033666Y-75162651D01*
X91964620Y-75093604D01*
X91824586Y-75035600D01*
X91658350Y-75035600D01*
X91563100Y-75130850D01*
X91563100Y-75552300D01*
X91583100Y-75552300D01*
X91583100Y-75780900D01*
X91563100Y-75780900D01*
X91563100Y-75987504D01*
X91494136Y-76090717D01*
X91457400Y-76275400D01*
X91457400Y-77433000D01*
X91459800Y-77445066D01*
X91459800Y-77567300D01*
X91420200Y-77567300D01*
X91420200Y-77445066D01*
X91422600Y-77433000D01*
X91422600Y-76685187D01*
X91422601Y-76685182D01*
X91385864Y-76500499D01*
X91348006Y-76443840D01*
X91281250Y-76343932D01*
X91281247Y-76343930D01*
X91234917Y-76297600D01*
X91239250Y-76297600D01*
X91334500Y-76202350D01*
X91334500Y-75780900D01*
X90863050Y-75780900D01*
X90790634Y-75853316D01*
X90356600Y-75419282D01*
X90356600Y-75340815D01*
X90767800Y-75340815D01*
X90767800Y-75457050D01*
X90863050Y-75552300D01*
X91334500Y-75552300D01*
X91334500Y-75130850D01*
X91256650Y-75053000D01*
X91349786Y-75053000D01*
X91489820Y-74994996D01*
X91596996Y-74887819D01*
X91655000Y-74747785D01*
X91655000Y-74631550D01*
X91559750Y-74536300D01*
X91088300Y-74536300D01*
X91088300Y-74957750D01*
X91166150Y-75035600D01*
X91073014Y-75035600D01*
X90932980Y-75093604D01*
X90825804Y-75200781D01*
X90767800Y-75340815D01*
X90356600Y-75340815D01*
X90356600Y-74946884D01*
X90389134Y-74925949D01*
X90458180Y-74994996D01*
X90598214Y-75053000D01*
X90764450Y-75053000D01*
X90859700Y-74957750D01*
X90859700Y-74536300D01*
X90839700Y-74536300D01*
X90839700Y-74307700D01*
X90859700Y-74307700D01*
X90859700Y-73886250D01*
X91088300Y-73886250D01*
X91088300Y-74307700D01*
X91559750Y-74307700D01*
X91655000Y-74212450D01*
X91655000Y-74096215D01*
X91596996Y-73956181D01*
X91489820Y-73849004D01*
X91349786Y-73791000D01*
X91183550Y-73791000D01*
X91088300Y-73886250D01*
X90859700Y-73886250D01*
X90764450Y-73791000D01*
X90598214Y-73791000D01*
X90458180Y-73849004D01*
X90388360Y-73918825D01*
X90304983Y-73861856D01*
X90174000Y-73835331D01*
X89687400Y-73835331D01*
X89687400Y-72891769D01*
X91373960Y-72891769D01*
X91496325Y-72868744D01*
X91507191Y-72861752D01*
X91507191Y-73139300D01*
X91507191Y-73139300D01*
G37*
X91507191Y-73139300D02*
X91530216Y-73261665D01*
X91602533Y-73374049D01*
X91712877Y-73449444D01*
X91843860Y-73475969D01*
X92737940Y-73475969D01*
X92737940Y-75079931D01*
X92731705Y-75079931D01*
X92707326Y-75069808D01*
X92459760Y-75069592D01*
X92434738Y-75079931D01*
X92248800Y-75079931D01*
X92126435Y-75102956D01*
X92033666Y-75162651D01*
X91964620Y-75093604D01*
X91824586Y-75035600D01*
X91658350Y-75035600D01*
X91563100Y-75130850D01*
X91563100Y-75552300D01*
X91583100Y-75552300D01*
X91583100Y-75780900D01*
X91563100Y-75780900D01*
X91563100Y-75987504D01*
X91494136Y-76090717D01*
X91457400Y-76275400D01*
X91457400Y-77433000D01*
X91459800Y-77445066D01*
X91459800Y-77567300D01*
X91420200Y-77567300D01*
X91420200Y-77445066D01*
X91422600Y-77433000D01*
X91422600Y-76685187D01*
X91422601Y-76685182D01*
X91385864Y-76500499D01*
X91348006Y-76443840D01*
X91281250Y-76343932D01*
X91281247Y-76343930D01*
X91234917Y-76297600D01*
X91239250Y-76297600D01*
X91334500Y-76202350D01*
X91334500Y-75780900D01*
X90863050Y-75780900D01*
X90790634Y-75853316D01*
X90356600Y-75419282D01*
X90356600Y-75340815D01*
X90767800Y-75340815D01*
X90767800Y-75457050D01*
X90863050Y-75552300D01*
X91334500Y-75552300D01*
X91334500Y-75130850D01*
X91256650Y-75053000D01*
X91349786Y-75053000D01*
X91489820Y-74994996D01*
X91596996Y-74887819D01*
X91655000Y-74747785D01*
X91655000Y-74631550D01*
X91559750Y-74536300D01*
X91088300Y-74536300D01*
X91088300Y-74957750D01*
X91166150Y-75035600D01*
X91073014Y-75035600D01*
X90932980Y-75093604D01*
X90825804Y-75200781D01*
X90767800Y-75340815D01*
X90356600Y-75340815D01*
X90356600Y-74946884D01*
X90389134Y-74925949D01*
X90458180Y-74994996D01*
X90598214Y-75053000D01*
X90764450Y-75053000D01*
X90859700Y-74957750D01*
X90859700Y-74536300D01*
X90839700Y-74536300D01*
X90839700Y-74307700D01*
X90859700Y-74307700D01*
X90859700Y-73886250D01*
X91088300Y-73886250D01*
X91088300Y-74307700D01*
X91559750Y-74307700D01*
X91655000Y-74212450D01*
X91655000Y-74096215D01*
X91596996Y-73956181D01*
X91489820Y-73849004D01*
X91349786Y-73791000D01*
X91183550Y-73791000D01*
X91088300Y-73886250D01*
X90859700Y-73886250D01*
X90764450Y-73791000D01*
X90598214Y-73791000D01*
X90458180Y-73849004D01*
X90388360Y-73918825D01*
X90304983Y-73861856D01*
X90174000Y-73835331D01*
X89687400Y-73835331D01*
X89687400Y-72891769D01*
X91373960Y-72891769D01*
X91496325Y-72868744D01*
X91507191Y-72861752D01*
X91507191Y-73139300D01*
G36*
X82219800Y-75295064D02*
X81997669Y-75072933D01*
X81997669Y-73431400D01*
X81974644Y-73309035D01*
X81902327Y-73196651D01*
X81791983Y-73121256D01*
X81661000Y-73094731D01*
X79629000Y-73094731D01*
X79506635Y-73117756D01*
X79394251Y-73190073D01*
X79318856Y-73300417D01*
X79292331Y-73431400D01*
X79292331Y-75158600D01*
X79315356Y-75280965D01*
X79387673Y-75393349D01*
X79498017Y-75468744D01*
X79629000Y-75495269D01*
X81270533Y-75495269D01*
X87445632Y-81670368D01*
X87577477Y-81758465D01*
X87733000Y-81789400D01*
X88460696Y-81789400D01*
X88516440Y-81826647D01*
X88700205Y-81863200D01*
X89279795Y-81863200D01*
X89463560Y-81826647D01*
X89482306Y-81814121D01*
X89508879Y-81840694D01*
X89496353Y-81859440D01*
X89459800Y-82043205D01*
X89459800Y-82622795D01*
X89496353Y-82806560D01*
X89533600Y-82862304D01*
X89533600Y-83094258D01*
X89493664Y-83134194D01*
X87518930Y-83134194D01*
X81826518Y-77441782D01*
X81926701Y-77291847D01*
X82017574Y-76835000D01*
X81926701Y-76378153D01*
X81667918Y-75990856D01*
X81280621Y-75732073D01*
X80823774Y-75641200D01*
X80466226Y-75641200D01*
X80009379Y-75732073D01*
X79622082Y-75990856D01*
X79363299Y-76378153D01*
X79272426Y-76835000D01*
X79363299Y-77291847D01*
X79622082Y-77679144D01*
X80009379Y-77937927D01*
X80466226Y-78028800D01*
X80823774Y-78028800D01*
X81191015Y-77955751D01*
X86674260Y-83438996D01*
X85283732Y-83438996D01*
X81826518Y-79981782D01*
X81926701Y-79831847D01*
X82017574Y-79375000D01*
X81926701Y-78918153D01*
X81667918Y-78530856D01*
X81280621Y-78272073D01*
X80823774Y-78181200D01*
X80466226Y-78181200D01*
X80009379Y-78272073D01*
X79622082Y-78530856D01*
X79363299Y-78918153D01*
X79272426Y-79375000D01*
X79363299Y-79831847D01*
X79622082Y-80219144D01*
X80009379Y-80477927D01*
X80466226Y-80568800D01*
X80823774Y-80568800D01*
X81191015Y-80495751D01*
X84439062Y-83743798D01*
X83048534Y-83743798D01*
X81826518Y-82521782D01*
X81926701Y-82371847D01*
X82017574Y-81915000D01*
X81926701Y-81458153D01*
X81667918Y-81070856D01*
X81280621Y-80812073D01*
X80823774Y-80721200D01*
X80466226Y-80721200D01*
X80009379Y-80812073D01*
X79622082Y-81070856D01*
X79363299Y-81458153D01*
X79272426Y-81915000D01*
X79363299Y-82371847D01*
X79622082Y-82759144D01*
X80009379Y-83017927D01*
X80466226Y-83108800D01*
X80823774Y-83108800D01*
X81191015Y-83035751D01*
X82203864Y-84048600D01*
X81936736Y-84048600D01*
X81926701Y-83998153D01*
X81667918Y-83610856D01*
X81280621Y-83352073D01*
X80823774Y-83261200D01*
X80466226Y-83261200D01*
X80009379Y-83352073D01*
X79622082Y-83610856D01*
X79363299Y-83998153D01*
X79272426Y-84455000D01*
X79363299Y-84911847D01*
X79622082Y-85299144D01*
X80009379Y-85557927D01*
X80466226Y-85648800D01*
X80823774Y-85648800D01*
X81280621Y-85557927D01*
X81667918Y-85299144D01*
X81926701Y-84911847D01*
X81936736Y-84861400D01*
X85756240Y-84861400D01*
X85648409Y-84969231D01*
X83893660Y-84969231D01*
X83771295Y-84992256D01*
X83658911Y-85064573D01*
X83583516Y-85174917D01*
X83556991Y-85305900D01*
X83556991Y-86512400D01*
X81909493Y-86512400D01*
X81667918Y-86150856D01*
X81280621Y-85892073D01*
X80823774Y-85801200D01*
X80466226Y-85801200D01*
X80009379Y-85892073D01*
X79622082Y-86150856D01*
X79363299Y-86538153D01*
X79272426Y-86995000D01*
X79363299Y-87451847D01*
X79622082Y-87839144D01*
X80009379Y-88097927D01*
X80466226Y-88188800D01*
X80823774Y-88188800D01*
X81280621Y-88097927D01*
X81667918Y-87839144D01*
X81909493Y-87477600D01*
X84305140Y-87477600D01*
X84489823Y-87440864D01*
X84646390Y-87336250D01*
X84739871Y-87242769D01*
X86494620Y-87242769D01*
X86616985Y-87219744D01*
X86729369Y-87147427D01*
X86804764Y-87037083D01*
X86831289Y-86906100D01*
X86831289Y-86315550D01*
X87114380Y-86315550D01*
X87114380Y-86981885D01*
X87172384Y-87121919D01*
X87279560Y-87229096D01*
X87419594Y-87287100D01*
X88586310Y-87287100D01*
X88681560Y-87191850D01*
X88681560Y-86220300D01*
X88910160Y-86220300D01*
X88910160Y-87191850D01*
X89005410Y-87287100D01*
X90172126Y-87287100D01*
X90312160Y-87229096D01*
X90419336Y-87121919D01*
X90477340Y-86981885D01*
X90477340Y-86315550D01*
X90382090Y-86220300D01*
X88910160Y-86220300D01*
X88681560Y-86220300D01*
X87209630Y-86220300D01*
X87114380Y-86315550D01*
X86831289Y-86315550D01*
X86831289Y-86177534D01*
X93624400Y-86177534D01*
X93624400Y-87143590D01*
X93719650Y-87238840D01*
X94691200Y-87238840D01*
X94691200Y-85967570D01*
X94919800Y-85967570D01*
X94919800Y-87238840D01*
X95891350Y-87238840D01*
X95925640Y-87204550D01*
X100838000Y-87204550D01*
X100838000Y-87934385D01*
X100896004Y-88074419D01*
X101003180Y-88181596D01*
X101143214Y-88239600D01*
X102025450Y-88239600D01*
X102120700Y-88144350D01*
X102120700Y-87109300D01*
X102349300Y-87109300D01*
X102349300Y-88144350D01*
X102444550Y-88239600D01*
X103326786Y-88239600D01*
X103466820Y-88181596D01*
X103573996Y-88074419D01*
X103632000Y-87934385D01*
X103632000Y-87204550D01*
X103536750Y-87109300D01*
X102349300Y-87109300D01*
X102120700Y-87109300D01*
X100933250Y-87109300D01*
X100838000Y-87204550D01*
X95925640Y-87204550D01*
X95986600Y-87143590D01*
X95986600Y-86177534D01*
X95936100Y-86055615D01*
X100838000Y-86055615D01*
X100838000Y-86785450D01*
X100933250Y-86880700D01*
X102120700Y-86880700D01*
X102120700Y-85845650D01*
X102349300Y-85845650D01*
X102349300Y-86880700D01*
X103536750Y-86880700D01*
X103632000Y-86785450D01*
X103632000Y-86055615D01*
X103573996Y-85915581D01*
X103466820Y-85808404D01*
X103326786Y-85750400D01*
X102444550Y-85750400D01*
X102349300Y-85845650D01*
X102120700Y-85845650D01*
X102025450Y-85750400D01*
X101143214Y-85750400D01*
X101003180Y-85808404D01*
X100896004Y-85915581D01*
X100838000Y-86055615D01*
X95936100Y-86055615D01*
X95928596Y-86037500D01*
X95821419Y-85930324D01*
X95681385Y-85872320D01*
X95015050Y-85872320D01*
X94919800Y-85967570D01*
X94691200Y-85967570D01*
X94595950Y-85872320D01*
X93929615Y-85872320D01*
X93789581Y-85930324D01*
X93682404Y-86037500D01*
X93624400Y-86177534D01*
X86831289Y-86177534D01*
X86831289Y-85318602D01*
X87114380Y-85318602D01*
X87114380Y-85896450D01*
X87209630Y-85991700D01*
X88681560Y-85991700D01*
X88681560Y-85971700D01*
X88910160Y-85971700D01*
X88910160Y-85991700D01*
X90382090Y-85991700D01*
X90477340Y-85896450D01*
X90477340Y-85318602D01*
X90635998Y-85318602D01*
X90820681Y-85281866D01*
X90977248Y-85177252D01*
X91077147Y-85077353D01*
X91140240Y-85077408D01*
X91226735Y-85041669D01*
X91317000Y-85041669D01*
X91439365Y-85018644D01*
X91532134Y-84958949D01*
X91601180Y-85027996D01*
X91741214Y-85086000D01*
X91907450Y-85086000D01*
X92002700Y-84990750D01*
X92002700Y-84569300D01*
X92231300Y-84569300D01*
X92231300Y-84990750D01*
X92326550Y-85086000D01*
X92492786Y-85086000D01*
X92632820Y-85027996D01*
X92739996Y-84920819D01*
X92798000Y-84780785D01*
X92798000Y-84664550D01*
X92702750Y-84569300D01*
X92231300Y-84569300D01*
X92002700Y-84569300D01*
X91982700Y-84569300D01*
X91982700Y-84340700D01*
X92002700Y-84340700D01*
X92002700Y-84320700D01*
X92231300Y-84320700D01*
X92231300Y-84340700D01*
X92702750Y-84340700D01*
X92798000Y-84245450D01*
X92798000Y-84129215D01*
X92739996Y-83989181D01*
X92632820Y-83882004D01*
X92492786Y-83824000D01*
X92326550Y-83824000D01*
X92289204Y-83861346D01*
X92385864Y-83716683D01*
X92422600Y-83532000D01*
X92422600Y-82333000D01*
X92420200Y-82320934D01*
X92420200Y-82198700D01*
X92459800Y-82198700D01*
X92459800Y-82320934D01*
X92457400Y-82333000D01*
X92457400Y-82780000D01*
X92494136Y-82964683D01*
X92515000Y-82995908D01*
X92515000Y-83037247D01*
X92592331Y-83111643D01*
X92598750Y-83121250D01*
X93668731Y-84191230D01*
X93668731Y-85450680D01*
X93691756Y-85573045D01*
X93764073Y-85685429D01*
X93874417Y-85760824D01*
X94005400Y-85787349D01*
X95605600Y-85787349D01*
X95727965Y-85764324D01*
X95840349Y-85692007D01*
X95915744Y-85581663D01*
X95942269Y-85450680D01*
X95942269Y-83563005D01*
X97121632Y-84742368D01*
X97253477Y-84830465D01*
X97409000Y-84861400D01*
X100943264Y-84861400D01*
X100953299Y-84911847D01*
X101212082Y-85299144D01*
X101599379Y-85557927D01*
X102056226Y-85648800D01*
X102413774Y-85648800D01*
X102870621Y-85557927D01*
X103257918Y-85299144D01*
X103516701Y-84911847D01*
X103607574Y-84455000D01*
X103516701Y-83998153D01*
X103257918Y-83610856D01*
X102870621Y-83352073D01*
X102413774Y-83261200D01*
X102056226Y-83261200D01*
X101599379Y-83352073D01*
X101212082Y-83610856D01*
X100953299Y-83998153D01*
X100943264Y-84048600D01*
X98880005Y-84048600D01*
X98893250Y-84039750D01*
X99205830Y-83727169D01*
X99360000Y-83727169D01*
X99482365Y-83704144D01*
X99594749Y-83631827D01*
X99670144Y-83521483D01*
X99696669Y-83390500D01*
X99696669Y-83146900D01*
X101409500Y-83146900D01*
X101565023Y-83115965D01*
X101685969Y-83035151D01*
X102056226Y-83108800D01*
X102413774Y-83108800D01*
X102870621Y-83017927D01*
X103257918Y-82759144D01*
X103516701Y-82371847D01*
X103607574Y-81915000D01*
X103516701Y-81458153D01*
X103257918Y-81070856D01*
X102870621Y-80812073D01*
X102413774Y-80721200D01*
X102056226Y-80721200D01*
X101599379Y-80812073D01*
X101212082Y-81070856D01*
X100953299Y-81458153D01*
X100862426Y-81915000D01*
X100945791Y-82334100D01*
X99850636Y-82334100D01*
X101688985Y-80495751D01*
X102056226Y-80568800D01*
X102413774Y-80568800D01*
X102870621Y-80477927D01*
X103257918Y-80219144D01*
X103516701Y-79831847D01*
X103607574Y-79375000D01*
X103516701Y-78918153D01*
X103257918Y-78530856D01*
X103114758Y-78435200D01*
X103734800Y-78435200D01*
X103734800Y-88494800D01*
X95986600Y-88494800D01*
X95986600Y-87562690D01*
X95891350Y-87467440D01*
X94919800Y-87467440D01*
X94919800Y-87487440D01*
X94691200Y-87487440D01*
X94691200Y-87467440D01*
X93719650Y-87467440D01*
X93624400Y-87562690D01*
X93624400Y-88494800D01*
X79145200Y-88494800D01*
X79145200Y-72593200D01*
X82219800Y-72593200D01*
X82219800Y-75295064D01*
X82219800Y-75295064D01*
G37*
X82219800Y-75295064D02*
X81997669Y-75072933D01*
X81997669Y-73431400D01*
X81974644Y-73309035D01*
X81902327Y-73196651D01*
X81791983Y-73121256D01*
X81661000Y-73094731D01*
X79629000Y-73094731D01*
X79506635Y-73117756D01*
X79394251Y-73190073D01*
X79318856Y-73300417D01*
X79292331Y-73431400D01*
X79292331Y-75158600D01*
X79315356Y-75280965D01*
X79387673Y-75393349D01*
X79498017Y-75468744D01*
X79629000Y-75495269D01*
X81270533Y-75495269D01*
X87445632Y-81670368D01*
X87577477Y-81758465D01*
X87733000Y-81789400D01*
X88460696Y-81789400D01*
X88516440Y-81826647D01*
X88700205Y-81863200D01*
X89279795Y-81863200D01*
X89463560Y-81826647D01*
X89482306Y-81814121D01*
X89508879Y-81840694D01*
X89496353Y-81859440D01*
X89459800Y-82043205D01*
X89459800Y-82622795D01*
X89496353Y-82806560D01*
X89533600Y-82862304D01*
X89533600Y-83094258D01*
X89493664Y-83134194D01*
X87518930Y-83134194D01*
X81826518Y-77441782D01*
X81926701Y-77291847D01*
X82017574Y-76835000D01*
X81926701Y-76378153D01*
X81667918Y-75990856D01*
X81280621Y-75732073D01*
X80823774Y-75641200D01*
X80466226Y-75641200D01*
X80009379Y-75732073D01*
X79622082Y-75990856D01*
X79363299Y-76378153D01*
X79272426Y-76835000D01*
X79363299Y-77291847D01*
X79622082Y-77679144D01*
X80009379Y-77937927D01*
X80466226Y-78028800D01*
X80823774Y-78028800D01*
X81191015Y-77955751D01*
X86674260Y-83438996D01*
X85283732Y-83438996D01*
X81826518Y-79981782D01*
X81926701Y-79831847D01*
X82017574Y-79375000D01*
X81926701Y-78918153D01*
X81667918Y-78530856D01*
X81280621Y-78272073D01*
X80823774Y-78181200D01*
X80466226Y-78181200D01*
X80009379Y-78272073D01*
X79622082Y-78530856D01*
X79363299Y-78918153D01*
X79272426Y-79375000D01*
X79363299Y-79831847D01*
X79622082Y-80219144D01*
X80009379Y-80477927D01*
X80466226Y-80568800D01*
X80823774Y-80568800D01*
X81191015Y-80495751D01*
X84439062Y-83743798D01*
X83048534Y-83743798D01*
X81826518Y-82521782D01*
X81926701Y-82371847D01*
X82017574Y-81915000D01*
X81926701Y-81458153D01*
X81667918Y-81070856D01*
X81280621Y-80812073D01*
X80823774Y-80721200D01*
X80466226Y-80721200D01*
X80009379Y-80812073D01*
X79622082Y-81070856D01*
X79363299Y-81458153D01*
X79272426Y-81915000D01*
X79363299Y-82371847D01*
X79622082Y-82759144D01*
X80009379Y-83017927D01*
X80466226Y-83108800D01*
X80823774Y-83108800D01*
X81191015Y-83035751D01*
X82203864Y-84048600D01*
X81936736Y-84048600D01*
X81926701Y-83998153D01*
X81667918Y-83610856D01*
X81280621Y-83352073D01*
X80823774Y-83261200D01*
X80466226Y-83261200D01*
X80009379Y-83352073D01*
X79622082Y-83610856D01*
X79363299Y-83998153D01*
X79272426Y-84455000D01*
X79363299Y-84911847D01*
X79622082Y-85299144D01*
X80009379Y-85557927D01*
X80466226Y-85648800D01*
X80823774Y-85648800D01*
X81280621Y-85557927D01*
X81667918Y-85299144D01*
X81926701Y-84911847D01*
X81936736Y-84861400D01*
X85756240Y-84861400D01*
X85648409Y-84969231D01*
X83893660Y-84969231D01*
X83771295Y-84992256D01*
X83658911Y-85064573D01*
X83583516Y-85174917D01*
X83556991Y-85305900D01*
X83556991Y-86512400D01*
X81909493Y-86512400D01*
X81667918Y-86150856D01*
X81280621Y-85892073D01*
X80823774Y-85801200D01*
X80466226Y-85801200D01*
X80009379Y-85892073D01*
X79622082Y-86150856D01*
X79363299Y-86538153D01*
X79272426Y-86995000D01*
X79363299Y-87451847D01*
X79622082Y-87839144D01*
X80009379Y-88097927D01*
X80466226Y-88188800D01*
X80823774Y-88188800D01*
X81280621Y-88097927D01*
X81667918Y-87839144D01*
X81909493Y-87477600D01*
X84305140Y-87477600D01*
X84489823Y-87440864D01*
X84646390Y-87336250D01*
X84739871Y-87242769D01*
X86494620Y-87242769D01*
X86616985Y-87219744D01*
X86729369Y-87147427D01*
X86804764Y-87037083D01*
X86831289Y-86906100D01*
X86831289Y-86315550D01*
X87114380Y-86315550D01*
X87114380Y-86981885D01*
X87172384Y-87121919D01*
X87279560Y-87229096D01*
X87419594Y-87287100D01*
X88586310Y-87287100D01*
X88681560Y-87191850D01*
X88681560Y-86220300D01*
X88910160Y-86220300D01*
X88910160Y-87191850D01*
X89005410Y-87287100D01*
X90172126Y-87287100D01*
X90312160Y-87229096D01*
X90419336Y-87121919D01*
X90477340Y-86981885D01*
X90477340Y-86315550D01*
X90382090Y-86220300D01*
X88910160Y-86220300D01*
X88681560Y-86220300D01*
X87209630Y-86220300D01*
X87114380Y-86315550D01*
X86831289Y-86315550D01*
X86831289Y-86177534D01*
X93624400Y-86177534D01*
X93624400Y-87143590D01*
X93719650Y-87238840D01*
X94691200Y-87238840D01*
X94691200Y-85967570D01*
X94919800Y-85967570D01*
X94919800Y-87238840D01*
X95891350Y-87238840D01*
X95925640Y-87204550D01*
X100838000Y-87204550D01*
X100838000Y-87934385D01*
X100896004Y-88074419D01*
X101003180Y-88181596D01*
X101143214Y-88239600D01*
X102025450Y-88239600D01*
X102120700Y-88144350D01*
X102120700Y-87109300D01*
X102349300Y-87109300D01*
X102349300Y-88144350D01*
X102444550Y-88239600D01*
X103326786Y-88239600D01*
X103466820Y-88181596D01*
X103573996Y-88074419D01*
X103632000Y-87934385D01*
X103632000Y-87204550D01*
X103536750Y-87109300D01*
X102349300Y-87109300D01*
X102120700Y-87109300D01*
X100933250Y-87109300D01*
X100838000Y-87204550D01*
X95925640Y-87204550D01*
X95986600Y-87143590D01*
X95986600Y-86177534D01*
X95936100Y-86055615D01*
X100838000Y-86055615D01*
X100838000Y-86785450D01*
X100933250Y-86880700D01*
X102120700Y-86880700D01*
X102120700Y-85845650D01*
X102349300Y-85845650D01*
X102349300Y-86880700D01*
X103536750Y-86880700D01*
X103632000Y-86785450D01*
X103632000Y-86055615D01*
X103573996Y-85915581D01*
X103466820Y-85808404D01*
X103326786Y-85750400D01*
X102444550Y-85750400D01*
X102349300Y-85845650D01*
X102120700Y-85845650D01*
X102025450Y-85750400D01*
X101143214Y-85750400D01*
X101003180Y-85808404D01*
X100896004Y-85915581D01*
X100838000Y-86055615D01*
X95936100Y-86055615D01*
X95928596Y-86037500D01*
X95821419Y-85930324D01*
X95681385Y-85872320D01*
X95015050Y-85872320D01*
X94919800Y-85967570D01*
X94691200Y-85967570D01*
X94595950Y-85872320D01*
X93929615Y-85872320D01*
X93789581Y-85930324D01*
X93682404Y-86037500D01*
X93624400Y-86177534D01*
X86831289Y-86177534D01*
X86831289Y-85318602D01*
X87114380Y-85318602D01*
X87114380Y-85896450D01*
X87209630Y-85991700D01*
X88681560Y-85991700D01*
X88681560Y-85971700D01*
X88910160Y-85971700D01*
X88910160Y-85991700D01*
X90382090Y-85991700D01*
X90477340Y-85896450D01*
X90477340Y-85318602D01*
X90635998Y-85318602D01*
X90820681Y-85281866D01*
X90977248Y-85177252D01*
X91077147Y-85077353D01*
X91140240Y-85077408D01*
X91226735Y-85041669D01*
X91317000Y-85041669D01*
X91439365Y-85018644D01*
X91532134Y-84958949D01*
X91601180Y-85027996D01*
X91741214Y-85086000D01*
X91907450Y-85086000D01*
X92002700Y-84990750D01*
X92002700Y-84569300D01*
X92231300Y-84569300D01*
X92231300Y-84990750D01*
X92326550Y-85086000D01*
X92492786Y-85086000D01*
X92632820Y-85027996D01*
X92739996Y-84920819D01*
X92798000Y-84780785D01*
X92798000Y-84664550D01*
X92702750Y-84569300D01*
X92231300Y-84569300D01*
X92002700Y-84569300D01*
X91982700Y-84569300D01*
X91982700Y-84340700D01*
X92002700Y-84340700D01*
X92002700Y-84320700D01*
X92231300Y-84320700D01*
X92231300Y-84340700D01*
X92702750Y-84340700D01*
X92798000Y-84245450D01*
X92798000Y-84129215D01*
X92739996Y-83989181D01*
X92632820Y-83882004D01*
X92492786Y-83824000D01*
X92326550Y-83824000D01*
X92289204Y-83861346D01*
X92385864Y-83716683D01*
X92422600Y-83532000D01*
X92422600Y-82333000D01*
X92420200Y-82320934D01*
X92420200Y-82198700D01*
X92459800Y-82198700D01*
X92459800Y-82320934D01*
X92457400Y-82333000D01*
X92457400Y-82780000D01*
X92494136Y-82964683D01*
X92515000Y-82995908D01*
X92515000Y-83037247D01*
X92592331Y-83111643D01*
X92598750Y-83121250D01*
X93668731Y-84191230D01*
X93668731Y-85450680D01*
X93691756Y-85573045D01*
X93764073Y-85685429D01*
X93874417Y-85760824D01*
X94005400Y-85787349D01*
X95605600Y-85787349D01*
X95727965Y-85764324D01*
X95840349Y-85692007D01*
X95915744Y-85581663D01*
X95942269Y-85450680D01*
X95942269Y-83563005D01*
X97121632Y-84742368D01*
X97253477Y-84830465D01*
X97409000Y-84861400D01*
X100943264Y-84861400D01*
X100953299Y-84911847D01*
X101212082Y-85299144D01*
X101599379Y-85557927D01*
X102056226Y-85648800D01*
X102413774Y-85648800D01*
X102870621Y-85557927D01*
X103257918Y-85299144D01*
X103516701Y-84911847D01*
X103607574Y-84455000D01*
X103516701Y-83998153D01*
X103257918Y-83610856D01*
X102870621Y-83352073D01*
X102413774Y-83261200D01*
X102056226Y-83261200D01*
X101599379Y-83352073D01*
X101212082Y-83610856D01*
X100953299Y-83998153D01*
X100943264Y-84048600D01*
X98880005Y-84048600D01*
X98893250Y-84039750D01*
X99205830Y-83727169D01*
X99360000Y-83727169D01*
X99482365Y-83704144D01*
X99594749Y-83631827D01*
X99670144Y-83521483D01*
X99696669Y-83390500D01*
X99696669Y-83146900D01*
X101409500Y-83146900D01*
X101565023Y-83115965D01*
X101685969Y-83035151D01*
X102056226Y-83108800D01*
X102413774Y-83108800D01*
X102870621Y-83017927D01*
X103257918Y-82759144D01*
X103516701Y-82371847D01*
X103607574Y-81915000D01*
X103516701Y-81458153D01*
X103257918Y-81070856D01*
X102870621Y-80812073D01*
X102413774Y-80721200D01*
X102056226Y-80721200D01*
X101599379Y-80812073D01*
X101212082Y-81070856D01*
X100953299Y-81458153D01*
X100862426Y-81915000D01*
X100945791Y-82334100D01*
X99850636Y-82334100D01*
X101688985Y-80495751D01*
X102056226Y-80568800D01*
X102413774Y-80568800D01*
X102870621Y-80477927D01*
X103257918Y-80219144D01*
X103516701Y-79831847D01*
X103607574Y-79375000D01*
X103516701Y-78918153D01*
X103257918Y-78530856D01*
X103114758Y-78435200D01*
X103734800Y-78435200D01*
X103734800Y-88494800D01*
X95986600Y-88494800D01*
X95986600Y-87562690D01*
X95891350Y-87467440D01*
X94919800Y-87467440D01*
X94919800Y-87487440D01*
X94691200Y-87487440D01*
X94691200Y-87467440D01*
X93719650Y-87467440D01*
X93624400Y-87562690D01*
X93624400Y-88494800D01*
X79145200Y-88494800D01*
X79145200Y-72593200D01*
X82219800Y-72593200D01*
X82219800Y-75295064D01*
G36*
X88207528Y-78226689D02*
X88285753Y-78308000D01*
X88875700Y-78308000D01*
X88875700Y-78248700D01*
X89104300Y-78248700D01*
X89104300Y-78308000D01*
X89124300Y-78308000D01*
X89124300Y-78352000D01*
X89104300Y-78352000D01*
X89104300Y-80517300D01*
X88875700Y-80517300D01*
X88875700Y-78352000D01*
X88600700Y-78352000D01*
X88406196Y-78436161D01*
X88385031Y-78458000D01*
X88285753Y-78458000D01*
X88207528Y-78539311D01*
X88242186Y-78633000D01*
X88207528Y-78726689D01*
X88285753Y-78808000D01*
X88385031Y-78808000D01*
X88406196Y-78829839D01*
X88529056Y-78883000D01*
X88406196Y-78936161D01*
X88385031Y-78958000D01*
X88285753Y-78958000D01*
X88207528Y-79039311D01*
X88242186Y-79133000D01*
X88207528Y-79226689D01*
X88285753Y-79308000D01*
X88385031Y-79308000D01*
X88406196Y-79329839D01*
X88529056Y-79383000D01*
X88406196Y-79436161D01*
X88385031Y-79458000D01*
X88285753Y-79458000D01*
X88207528Y-79539311D01*
X88242186Y-79633000D01*
X88207528Y-79726689D01*
X88285753Y-79808000D01*
X88385031Y-79808000D01*
X88406196Y-79829839D01*
X88529056Y-79883000D01*
X88406196Y-79936161D01*
X88385031Y-79958000D01*
X88285753Y-79958000D01*
X88207528Y-80039311D01*
X88242186Y-80133000D01*
X88207528Y-80226689D01*
X88285753Y-80308000D01*
X88385031Y-80308000D01*
X88406196Y-80329839D01*
X88529056Y-80383000D01*
X88406196Y-80436161D01*
X88385031Y-80458000D01*
X88285753Y-80458000D01*
X88207528Y-80539311D01*
X88242186Y-80633000D01*
X88207528Y-80726689D01*
X88285753Y-80808000D01*
X88385031Y-80808000D01*
X88406196Y-80829839D01*
X88600700Y-80914000D01*
X88643899Y-80914000D01*
X88516440Y-80939353D01*
X88488533Y-80958000D01*
X88285753Y-80958000D01*
X88267859Y-80976600D01*
X87901336Y-80976600D01*
X85105936Y-78181200D01*
X88224356Y-78181200D01*
X88207528Y-78226689D01*
X88207528Y-78226689D01*
G37*
X88207528Y-78226689D02*
X88285753Y-78308000D01*
X88875700Y-78308000D01*
X88875700Y-78248700D01*
X89104300Y-78248700D01*
X89104300Y-78308000D01*
X89124300Y-78308000D01*
X89124300Y-78352000D01*
X89104300Y-78352000D01*
X89104300Y-80517300D01*
X88875700Y-80517300D01*
X88875700Y-78352000D01*
X88600700Y-78352000D01*
X88406196Y-78436161D01*
X88385031Y-78458000D01*
X88285753Y-78458000D01*
X88207528Y-78539311D01*
X88242186Y-78633000D01*
X88207528Y-78726689D01*
X88285753Y-78808000D01*
X88385031Y-78808000D01*
X88406196Y-78829839D01*
X88529056Y-78883000D01*
X88406196Y-78936161D01*
X88385031Y-78958000D01*
X88285753Y-78958000D01*
X88207528Y-79039311D01*
X88242186Y-79133000D01*
X88207528Y-79226689D01*
X88285753Y-79308000D01*
X88385031Y-79308000D01*
X88406196Y-79329839D01*
X88529056Y-79383000D01*
X88406196Y-79436161D01*
X88385031Y-79458000D01*
X88285753Y-79458000D01*
X88207528Y-79539311D01*
X88242186Y-79633000D01*
X88207528Y-79726689D01*
X88285753Y-79808000D01*
X88385031Y-79808000D01*
X88406196Y-79829839D01*
X88529056Y-79883000D01*
X88406196Y-79936161D01*
X88385031Y-79958000D01*
X88285753Y-79958000D01*
X88207528Y-80039311D01*
X88242186Y-80133000D01*
X88207528Y-80226689D01*
X88285753Y-80308000D01*
X88385031Y-80308000D01*
X88406196Y-80329839D01*
X88529056Y-80383000D01*
X88406196Y-80436161D01*
X88385031Y-80458000D01*
X88285753Y-80458000D01*
X88207528Y-80539311D01*
X88242186Y-80633000D01*
X88207528Y-80726689D01*
X88285753Y-80808000D01*
X88385031Y-80808000D01*
X88406196Y-80829839D01*
X88600700Y-80914000D01*
X88643899Y-80914000D01*
X88516440Y-80939353D01*
X88488533Y-80958000D01*
X88285753Y-80958000D01*
X88267859Y-80976600D01*
X87901336Y-80976600D01*
X85105936Y-78181200D01*
X88224356Y-78181200D01*
X88207528Y-78226689D01*
G36*
X93890000Y-78865600D02*
X94024300Y-78865600D01*
X94024300Y-78902800D01*
X93755700Y-78902800D01*
X93755700Y-78863200D01*
X93877934Y-78863200D01*
X93890000Y-78865600D01*
X93890000Y-78865600D01*
G37*
X93890000Y-78865600D02*
X94024300Y-78865600D01*
X94024300Y-78902800D01*
X93755700Y-78902800D01*
X93755700Y-78863200D01*
X93877934Y-78863200D01*
X93890000Y-78865600D01*
M02*
