G04 #@! TF.FileFunction,Legend,Bot*
%FSLAX46Y46*%
G04 Gerber Fmt 4.6, Leading zero omitted, Abs format (unit mm)*
G04 Created by KiCad (PCBNEW (2015-08-16 BZR 6097, Git b384c94)-product) date 08/12/2015 20:08:44*
%MOMM*%
G01*
G04 APERTURE LIST*
%ADD10C,0.100000*%
%ADD11C,0.070000*%
%ADD12C,0.150000*%
%ADD13C,0.010000*%
%ADD14C,0.127000*%
G04 APERTURE END LIST*
D10*
D11*
X99876000Y-73818810D02*
X99856952Y-73780715D01*
X99856952Y-73723572D01*
X99876000Y-73666429D01*
X99914095Y-73628334D01*
X99952190Y-73609286D01*
X100028381Y-73590238D01*
X100085524Y-73590238D01*
X100161714Y-73609286D01*
X100199810Y-73628334D01*
X100237905Y-73666429D01*
X100256952Y-73723572D01*
X100256952Y-73761667D01*
X100237905Y-73818810D01*
X100218857Y-73837858D01*
X100085524Y-73837858D01*
X100085524Y-73761667D01*
X100256952Y-74009286D02*
X99856952Y-74009286D01*
X100256952Y-74237858D01*
X99856952Y-74237858D01*
X100256952Y-74428334D02*
X99856952Y-74428334D01*
X99856952Y-74523572D01*
X99876000Y-74580715D01*
X99914095Y-74618810D01*
X99952190Y-74637858D01*
X100028381Y-74656906D01*
X100085524Y-74656906D01*
X100161714Y-74637858D01*
X100199810Y-74618810D01*
X100237905Y-74580715D01*
X100256952Y-74523572D01*
X100256952Y-74428334D01*
X100142667Y-74809286D02*
X100142667Y-74999763D01*
X100256952Y-74771191D02*
X99856952Y-74904525D01*
X100256952Y-75037858D01*
X100142667Y-76168333D02*
X100142667Y-76358810D01*
X100256952Y-76130238D02*
X99856952Y-76263572D01*
X100256952Y-76396905D01*
X99856952Y-76473095D02*
X100256952Y-76606429D01*
X99856952Y-76739762D01*
X100256952Y-76873095D02*
X99856952Y-76873095D01*
X99856952Y-76968333D01*
X99876000Y-77025476D01*
X99914095Y-77063571D01*
X99952190Y-77082619D01*
X100028381Y-77101667D01*
X100085524Y-77101667D01*
X100161714Y-77082619D01*
X100199810Y-77063571D01*
X100237905Y-77025476D01*
X100256952Y-76968333D01*
X100256952Y-76873095D01*
X100256952Y-77273095D02*
X99856952Y-77273095D01*
X99856952Y-77368333D01*
X99876000Y-77425476D01*
X99914095Y-77463571D01*
X99952190Y-77482619D01*
X100028381Y-77501667D01*
X100085524Y-77501667D01*
X100161714Y-77482619D01*
X100199810Y-77463571D01*
X100237905Y-77425476D01*
X100256952Y-77368333D01*
X100256952Y-77273095D01*
X100237905Y-78889286D02*
X100256952Y-78946429D01*
X100256952Y-79041667D01*
X100237905Y-79079763D01*
X100218857Y-79098810D01*
X100180762Y-79117858D01*
X100142667Y-79117858D01*
X100104571Y-79098810D01*
X100085524Y-79079763D01*
X100066476Y-79041667D01*
X100047429Y-78965477D01*
X100028381Y-78927382D01*
X100009333Y-78908334D01*
X99971238Y-78889286D01*
X99933143Y-78889286D01*
X99895048Y-78908334D01*
X99876000Y-78927382D01*
X99856952Y-78965477D01*
X99856952Y-79060715D01*
X99876000Y-79117858D01*
X100256952Y-79289286D02*
X99856952Y-79289286D01*
X99856952Y-79384524D01*
X99876000Y-79441667D01*
X99914095Y-79479762D01*
X99952190Y-79498810D01*
X100028381Y-79517858D01*
X100085524Y-79517858D01*
X100161714Y-79498810D01*
X100199810Y-79479762D01*
X100237905Y-79441667D01*
X100256952Y-79384524D01*
X100256952Y-79289286D01*
X100142667Y-79670238D02*
X100142667Y-79860715D01*
X100256952Y-79632143D02*
X99856952Y-79765477D01*
X100256952Y-79898810D01*
X100237905Y-81692809D02*
X100256952Y-81749952D01*
X100256952Y-81845190D01*
X100237905Y-81883286D01*
X100218857Y-81902333D01*
X100180762Y-81921381D01*
X100142667Y-81921381D01*
X100104571Y-81902333D01*
X100085524Y-81883286D01*
X100066476Y-81845190D01*
X100047429Y-81769000D01*
X100028381Y-81730905D01*
X100009333Y-81711857D01*
X99971238Y-81692809D01*
X99933143Y-81692809D01*
X99895048Y-81711857D01*
X99876000Y-81730905D01*
X99856952Y-81769000D01*
X99856952Y-81864238D01*
X99876000Y-81921381D01*
X100218857Y-82321381D02*
X100237905Y-82302333D01*
X100256952Y-82245190D01*
X100256952Y-82207095D01*
X100237905Y-82149952D01*
X100199810Y-82111857D01*
X100161714Y-82092809D01*
X100085524Y-82073761D01*
X100028381Y-82073761D01*
X99952190Y-82092809D01*
X99914095Y-82111857D01*
X99876000Y-82149952D01*
X99856952Y-82207095D01*
X99856952Y-82245190D01*
X99876000Y-82302333D01*
X99895048Y-82321381D01*
X100256952Y-82683285D02*
X100256952Y-82492809D01*
X99856952Y-82492809D01*
X100256952Y-83940714D02*
X99856952Y-83940714D01*
X99856952Y-84093095D01*
X99876000Y-84131190D01*
X99895048Y-84150238D01*
X99933143Y-84169286D01*
X99990286Y-84169286D01*
X100028381Y-84150238D01*
X100047429Y-84131190D01*
X100066476Y-84093095D01*
X100066476Y-83940714D01*
X100256952Y-84340714D02*
X99856952Y-84340714D01*
X99856952Y-84435952D01*
X99876000Y-84493095D01*
X99914095Y-84531190D01*
X99952190Y-84550238D01*
X100028381Y-84569286D01*
X100085524Y-84569286D01*
X100161714Y-84550238D01*
X100199810Y-84531190D01*
X100237905Y-84493095D01*
X100256952Y-84435952D01*
X100256952Y-84340714D01*
X100256952Y-84740714D02*
X99856952Y-84740714D01*
X100256952Y-84969286D01*
X99856952Y-84969286D01*
X99876000Y-86690238D02*
X99856952Y-86652143D01*
X99856952Y-86595000D01*
X99876000Y-86537857D01*
X99914095Y-86499762D01*
X99952190Y-86480714D01*
X100028381Y-86461666D01*
X100085524Y-86461666D01*
X100161714Y-86480714D01*
X100199810Y-86499762D01*
X100237905Y-86537857D01*
X100256952Y-86595000D01*
X100256952Y-86633095D01*
X100237905Y-86690238D01*
X100218857Y-86709286D01*
X100085524Y-86709286D01*
X100085524Y-86633095D01*
X100256952Y-86880714D02*
X99856952Y-86880714D01*
X100256952Y-87109286D01*
X99856952Y-87109286D01*
X100256952Y-87299762D02*
X99856952Y-87299762D01*
X99856952Y-87395000D01*
X99876000Y-87452143D01*
X99914095Y-87490238D01*
X99952190Y-87509286D01*
X100028381Y-87528334D01*
X100085524Y-87528334D01*
X100161714Y-87509286D01*
X100199810Y-87490238D01*
X100237905Y-87452143D01*
X100256952Y-87395000D01*
X100256952Y-87299762D01*
X82896048Y-87528333D02*
X82496048Y-87394999D01*
X82896048Y-87261666D01*
X82496048Y-87128333D02*
X82896048Y-87128333D01*
X82896048Y-87033095D01*
X82877000Y-86975952D01*
X82838905Y-86937857D01*
X82800810Y-86918809D01*
X82724619Y-86899761D01*
X82667476Y-86899761D01*
X82591286Y-86918809D01*
X82553190Y-86937857D01*
X82515095Y-86975952D01*
X82496048Y-87033095D01*
X82496048Y-87128333D01*
X82496048Y-86728333D02*
X82896048Y-86728333D01*
X82896048Y-86633095D01*
X82877000Y-86575952D01*
X82838905Y-86537857D01*
X82800810Y-86518809D01*
X82724619Y-86499761D01*
X82667476Y-86499761D01*
X82591286Y-86518809D01*
X82553190Y-86537857D01*
X82515095Y-86575952D01*
X82496048Y-86633095D01*
X82496048Y-86728333D01*
X82496048Y-85083571D02*
X82896048Y-85083571D01*
X82610333Y-84950238D01*
X82896048Y-84816904D01*
X82496048Y-84816904D01*
X82534143Y-84397856D02*
X82515095Y-84416904D01*
X82496048Y-84474047D01*
X82496048Y-84512142D01*
X82515095Y-84569285D01*
X82553190Y-84607380D01*
X82591286Y-84626428D01*
X82667476Y-84645476D01*
X82724619Y-84645476D01*
X82800810Y-84626428D01*
X82838905Y-84607380D01*
X82877000Y-84569285D01*
X82896048Y-84512142D01*
X82896048Y-84474047D01*
X82877000Y-84416904D01*
X82857952Y-84397856D01*
X82496048Y-84226428D02*
X82896048Y-84226428D01*
X82496048Y-83997856D02*
X82724619Y-84169285D01*
X82896048Y-83997856D02*
X82667476Y-84226428D01*
X82496048Y-83826428D02*
X82896048Y-83826428D01*
X82515095Y-82476905D02*
X82496048Y-82419762D01*
X82496048Y-82324524D01*
X82515095Y-82286428D01*
X82534143Y-82267381D01*
X82572238Y-82248333D01*
X82610333Y-82248333D01*
X82648429Y-82267381D01*
X82667476Y-82286428D01*
X82686524Y-82324524D01*
X82705571Y-82400714D01*
X82724619Y-82438809D01*
X82743667Y-82457857D01*
X82781762Y-82476905D01*
X82819857Y-82476905D01*
X82857952Y-82457857D01*
X82877000Y-82438809D01*
X82896048Y-82400714D01*
X82896048Y-82305476D01*
X82877000Y-82248333D01*
X82496048Y-82076905D02*
X82896048Y-82076905D01*
X82896048Y-81981667D01*
X82877000Y-81924524D01*
X82838905Y-81886429D01*
X82800810Y-81867381D01*
X82724619Y-81848333D01*
X82667476Y-81848333D01*
X82591286Y-81867381D01*
X82553190Y-81886429D01*
X82515095Y-81924524D01*
X82496048Y-81981667D01*
X82496048Y-82076905D01*
X82896048Y-81734048D02*
X82896048Y-81505476D01*
X82496048Y-81619762D02*
X82896048Y-81619762D01*
X82496048Y-81372143D02*
X82896048Y-81372143D01*
X82705571Y-79841667D02*
X82686524Y-79784524D01*
X82667476Y-79765476D01*
X82629381Y-79746428D01*
X82572238Y-79746428D01*
X82534143Y-79765476D01*
X82515095Y-79784524D01*
X82496048Y-79822619D01*
X82496048Y-79975000D01*
X82896048Y-79975000D01*
X82896048Y-79841667D01*
X82877000Y-79803571D01*
X82857952Y-79784524D01*
X82819857Y-79765476D01*
X82781762Y-79765476D01*
X82743667Y-79784524D01*
X82724619Y-79803571D01*
X82705571Y-79841667D01*
X82705571Y-79975000D01*
X82496048Y-79575000D02*
X82896048Y-79575000D01*
X82534143Y-79155952D02*
X82515095Y-79175000D01*
X82496048Y-79232143D01*
X82496048Y-79270238D01*
X82515095Y-79327381D01*
X82553190Y-79365476D01*
X82591286Y-79384524D01*
X82667476Y-79403572D01*
X82724619Y-79403572D01*
X82800810Y-79384524D01*
X82838905Y-79365476D01*
X82877000Y-79327381D01*
X82896048Y-79270238D01*
X82896048Y-79232143D01*
X82877000Y-79175000D01*
X82857952Y-79155952D01*
X82496048Y-78984524D02*
X82896048Y-78984524D01*
X82496048Y-78755952D02*
X82724619Y-78927381D01*
X82896048Y-78755952D02*
X82667476Y-78984524D01*
X82515095Y-77511191D02*
X82496048Y-77454048D01*
X82496048Y-77358810D01*
X82515095Y-77320714D01*
X82534143Y-77301667D01*
X82572238Y-77282619D01*
X82610333Y-77282619D01*
X82648429Y-77301667D01*
X82667476Y-77320714D01*
X82686524Y-77358810D01*
X82705571Y-77435000D01*
X82724619Y-77473095D01*
X82743667Y-77492143D01*
X82781762Y-77511191D01*
X82819857Y-77511191D01*
X82857952Y-77492143D01*
X82877000Y-77473095D01*
X82896048Y-77435000D01*
X82896048Y-77339762D01*
X82877000Y-77282619D01*
X82496048Y-77111191D02*
X82896048Y-77111191D01*
X82896048Y-77015953D01*
X82877000Y-76958810D01*
X82838905Y-76920715D01*
X82800810Y-76901667D01*
X82724619Y-76882619D01*
X82667476Y-76882619D01*
X82591286Y-76901667D01*
X82553190Y-76920715D01*
X82515095Y-76958810D01*
X82496048Y-77015953D01*
X82496048Y-77111191D01*
X82896048Y-76768334D02*
X82896048Y-76539762D01*
X82496048Y-76654048D02*
X82896048Y-76654048D01*
X82896048Y-76330238D02*
X82896048Y-76254048D01*
X82877000Y-76215953D01*
X82838905Y-76177857D01*
X82762714Y-76158810D01*
X82629381Y-76158810D01*
X82553190Y-76177857D01*
X82515095Y-76215953D01*
X82496048Y-76254048D01*
X82496048Y-76330238D01*
X82515095Y-76368334D01*
X82553190Y-76406429D01*
X82629381Y-76425477D01*
X82762714Y-76425477D01*
X82838905Y-76406429D01*
X82877000Y-76368334D01*
X82896048Y-76330238D01*
X82496048Y-74771191D02*
X82496048Y-74961667D01*
X82896048Y-74961667D01*
X82496048Y-74409285D02*
X82686524Y-74542619D01*
X82496048Y-74637857D02*
X82896048Y-74637857D01*
X82896048Y-74485476D01*
X82877000Y-74447381D01*
X82857952Y-74428333D01*
X82819857Y-74409285D01*
X82762714Y-74409285D01*
X82724619Y-74428333D01*
X82705571Y-74447381D01*
X82686524Y-74485476D01*
X82686524Y-74637857D01*
X82534143Y-74009285D02*
X82515095Y-74028333D01*
X82496048Y-74085476D01*
X82496048Y-74123571D01*
X82515095Y-74180714D01*
X82553190Y-74218809D01*
X82591286Y-74237857D01*
X82667476Y-74256905D01*
X82724619Y-74256905D01*
X82800810Y-74237857D01*
X82838905Y-74218809D01*
X82877000Y-74180714D01*
X82896048Y-74123571D01*
X82896048Y-74085476D01*
X82877000Y-74028333D01*
X82857952Y-74009285D01*
X82496048Y-73837857D02*
X82896048Y-73837857D01*
X82496048Y-73609285D02*
X82724619Y-73780714D01*
X82896048Y-73609285D02*
X82667476Y-73837857D01*
X96996190Y-66475000D02*
X97034285Y-66455952D01*
X97091428Y-66455952D01*
X97148571Y-66475000D01*
X97186666Y-66513095D01*
X97205714Y-66551190D01*
X97224762Y-66627381D01*
X97224762Y-66684524D01*
X97205714Y-66760714D01*
X97186666Y-66798810D01*
X97148571Y-66836905D01*
X97091428Y-66855952D01*
X97053333Y-66855952D01*
X96996190Y-66836905D01*
X96977142Y-66817857D01*
X96977142Y-66684524D01*
X97053333Y-66684524D01*
X96805714Y-66855952D02*
X96805714Y-66455952D01*
X96577142Y-66855952D01*
X96577142Y-66455952D01*
X96386666Y-66855952D02*
X96386666Y-66455952D01*
X96291428Y-66455952D01*
X96234285Y-66475000D01*
X96196190Y-66513095D01*
X96177142Y-66551190D01*
X96158094Y-66627381D01*
X96158094Y-66684524D01*
X96177142Y-66760714D01*
X96196190Y-66798810D01*
X96234285Y-66836905D01*
X96291428Y-66855952D01*
X96386666Y-66855952D01*
X96005714Y-66741667D02*
X95815237Y-66741667D01*
X96043809Y-66855952D02*
X95910475Y-66455952D01*
X95777142Y-66855952D01*
X94456190Y-66475000D02*
X94494285Y-66455952D01*
X94551428Y-66455952D01*
X94608571Y-66475000D01*
X94646666Y-66513095D01*
X94665714Y-66551190D01*
X94684762Y-66627381D01*
X94684762Y-66684524D01*
X94665714Y-66760714D01*
X94646666Y-66798810D01*
X94608571Y-66836905D01*
X94551428Y-66855952D01*
X94513333Y-66855952D01*
X94456190Y-66836905D01*
X94437142Y-66817857D01*
X94437142Y-66684524D01*
X94513333Y-66684524D01*
X94265714Y-66855952D02*
X94265714Y-66455952D01*
X94037142Y-66855952D01*
X94037142Y-66455952D01*
X93846666Y-66855952D02*
X93846666Y-66455952D01*
X93751428Y-66455952D01*
X93694285Y-66475000D01*
X93656190Y-66513095D01*
X93637142Y-66551190D01*
X93618094Y-66627381D01*
X93618094Y-66684524D01*
X93637142Y-66760714D01*
X93656190Y-66798810D01*
X93694285Y-66836905D01*
X93751428Y-66855952D01*
X93846666Y-66855952D01*
X93465714Y-66741667D02*
X93275237Y-66741667D01*
X93503809Y-66855952D02*
X93370475Y-66455952D01*
X93237142Y-66855952D01*
X91916190Y-66475000D02*
X91954285Y-66455952D01*
X92011428Y-66455952D01*
X92068571Y-66475000D01*
X92106666Y-66513095D01*
X92125714Y-66551190D01*
X92144762Y-66627381D01*
X92144762Y-66684524D01*
X92125714Y-66760714D01*
X92106666Y-66798810D01*
X92068571Y-66836905D01*
X92011428Y-66855952D01*
X91973333Y-66855952D01*
X91916190Y-66836905D01*
X91897142Y-66817857D01*
X91897142Y-66684524D01*
X91973333Y-66684524D01*
X91725714Y-66855952D02*
X91725714Y-66455952D01*
X91497142Y-66855952D01*
X91497142Y-66455952D01*
X91306666Y-66855952D02*
X91306666Y-66455952D01*
X91211428Y-66455952D01*
X91154285Y-66475000D01*
X91116190Y-66513095D01*
X91097142Y-66551190D01*
X91078094Y-66627381D01*
X91078094Y-66684524D01*
X91097142Y-66760714D01*
X91116190Y-66798810D01*
X91154285Y-66836905D01*
X91211428Y-66855952D01*
X91306666Y-66855952D01*
X90925714Y-66741667D02*
X90735237Y-66741667D01*
X90963809Y-66855952D02*
X90830475Y-66455952D01*
X90697142Y-66855952D01*
X89376190Y-66475000D02*
X89414285Y-66455952D01*
X89471428Y-66455952D01*
X89528571Y-66475000D01*
X89566666Y-66513095D01*
X89585714Y-66551190D01*
X89604762Y-66627381D01*
X89604762Y-66684524D01*
X89585714Y-66760714D01*
X89566666Y-66798810D01*
X89528571Y-66836905D01*
X89471428Y-66855952D01*
X89433333Y-66855952D01*
X89376190Y-66836905D01*
X89357142Y-66817857D01*
X89357142Y-66684524D01*
X89433333Y-66684524D01*
X89185714Y-66855952D02*
X89185714Y-66455952D01*
X88957142Y-66855952D01*
X88957142Y-66455952D01*
X88766666Y-66855952D02*
X88766666Y-66455952D01*
X88671428Y-66455952D01*
X88614285Y-66475000D01*
X88576190Y-66513095D01*
X88557142Y-66551190D01*
X88538094Y-66627381D01*
X88538094Y-66684524D01*
X88557142Y-66760714D01*
X88576190Y-66798810D01*
X88614285Y-66836905D01*
X88671428Y-66855952D01*
X88766666Y-66855952D01*
X88385714Y-66741667D02*
X88195237Y-66741667D01*
X88423809Y-66855952D02*
X88290475Y-66455952D01*
X88157142Y-66855952D01*
X86836190Y-66475000D02*
X86874285Y-66455952D01*
X86931428Y-66455952D01*
X86988571Y-66475000D01*
X87026666Y-66513095D01*
X87045714Y-66551190D01*
X87064762Y-66627381D01*
X87064762Y-66684524D01*
X87045714Y-66760714D01*
X87026666Y-66798810D01*
X86988571Y-66836905D01*
X86931428Y-66855952D01*
X86893333Y-66855952D01*
X86836190Y-66836905D01*
X86817142Y-66817857D01*
X86817142Y-66684524D01*
X86893333Y-66684524D01*
X86645714Y-66855952D02*
X86645714Y-66455952D01*
X86417142Y-66855952D01*
X86417142Y-66455952D01*
X86226666Y-66855952D02*
X86226666Y-66455952D01*
X86131428Y-66455952D01*
X86074285Y-66475000D01*
X86036190Y-66513095D01*
X86017142Y-66551190D01*
X85998094Y-66627381D01*
X85998094Y-66684524D01*
X86017142Y-66760714D01*
X86036190Y-66798810D01*
X86074285Y-66836905D01*
X86131428Y-66855952D01*
X86226666Y-66855952D01*
X85845714Y-66741667D02*
X85655237Y-66741667D01*
X85883809Y-66855952D02*
X85750475Y-66455952D01*
X85617142Y-66855952D01*
X96700953Y-69522952D02*
X96891429Y-69522952D01*
X96891429Y-69122952D01*
X96567619Y-69522952D02*
X96567619Y-69122952D01*
X96377143Y-69522952D02*
X96377143Y-69122952D01*
X96148571Y-69522952D01*
X96148571Y-69122952D01*
X94160952Y-69522952D02*
X94294286Y-69332476D01*
X94389524Y-69522952D02*
X94389524Y-69122952D01*
X94237143Y-69122952D01*
X94199048Y-69142000D01*
X94180000Y-69161048D01*
X94160952Y-69199143D01*
X94160952Y-69256286D01*
X94180000Y-69294381D01*
X94199048Y-69313429D01*
X94237143Y-69332476D01*
X94389524Y-69332476D01*
X93989524Y-69522952D02*
X93989524Y-69122952D01*
X93799048Y-69522952D02*
X93799048Y-69122952D01*
X93570476Y-69522952D01*
X93570476Y-69122952D01*
X92106667Y-69408667D02*
X91916190Y-69408667D01*
X92144762Y-69522952D02*
X92011428Y-69122952D01*
X91878095Y-69522952D01*
X91801905Y-69122952D02*
X91668571Y-69522952D01*
X91535238Y-69122952D01*
X91401905Y-69522952D02*
X91401905Y-69122952D01*
X91306667Y-69122952D01*
X91249524Y-69142000D01*
X91211429Y-69180095D01*
X91192381Y-69218190D01*
X91173333Y-69294381D01*
X91173333Y-69351524D01*
X91192381Y-69427714D01*
X91211429Y-69465810D01*
X91249524Y-69503905D01*
X91306667Y-69522952D01*
X91401905Y-69522952D01*
X91001905Y-69522952D02*
X91001905Y-69122952D01*
X90906667Y-69122952D01*
X90849524Y-69142000D01*
X90811429Y-69180095D01*
X90792381Y-69218190D01*
X90773333Y-69294381D01*
X90773333Y-69351524D01*
X90792381Y-69427714D01*
X90811429Y-69465810D01*
X90849524Y-69503905D01*
X90906667Y-69522952D01*
X91001905Y-69522952D01*
X89347620Y-69522952D02*
X89538096Y-69522952D01*
X89538096Y-69122952D01*
X89138095Y-69122952D02*
X89061905Y-69122952D01*
X89023810Y-69142000D01*
X88985714Y-69180095D01*
X88966667Y-69256286D01*
X88966667Y-69389619D01*
X88985714Y-69465810D01*
X89023810Y-69503905D01*
X89061905Y-69522952D01*
X89138095Y-69522952D01*
X89176191Y-69503905D01*
X89214286Y-69465810D01*
X89233334Y-69389619D01*
X89233334Y-69256286D01*
X89214286Y-69180095D01*
X89176191Y-69142000D01*
X89138095Y-69122952D01*
X88795238Y-69122952D02*
X88795238Y-69446762D01*
X88776190Y-69484857D01*
X88757143Y-69503905D01*
X88719047Y-69522952D01*
X88642857Y-69522952D01*
X88604762Y-69503905D01*
X88585714Y-69484857D01*
X88566666Y-69446762D01*
X88566666Y-69122952D01*
X88433333Y-69122952D02*
X88204761Y-69122952D01*
X88319047Y-69522952D02*
X88319047Y-69122952D01*
X86807619Y-69522952D02*
X86940953Y-69332476D01*
X87036191Y-69522952D02*
X87036191Y-69122952D01*
X86883810Y-69122952D01*
X86845715Y-69142000D01*
X86826667Y-69161048D01*
X86807619Y-69199143D01*
X86807619Y-69256286D01*
X86826667Y-69294381D01*
X86845715Y-69313429D01*
X86883810Y-69332476D01*
X87036191Y-69332476D01*
X86560000Y-69122952D02*
X86483810Y-69122952D01*
X86445715Y-69142000D01*
X86407619Y-69180095D01*
X86388572Y-69256286D01*
X86388572Y-69389619D01*
X86407619Y-69465810D01*
X86445715Y-69503905D01*
X86483810Y-69522952D01*
X86560000Y-69522952D01*
X86598096Y-69503905D01*
X86636191Y-69465810D01*
X86655239Y-69389619D01*
X86655239Y-69256286D01*
X86636191Y-69180095D01*
X86598096Y-69142000D01*
X86560000Y-69122952D01*
X86217143Y-69122952D02*
X86217143Y-69446762D01*
X86198095Y-69484857D01*
X86179048Y-69503905D01*
X86140952Y-69522952D01*
X86064762Y-69522952D01*
X86026667Y-69503905D01*
X86007619Y-69484857D01*
X85988571Y-69446762D01*
X85988571Y-69122952D01*
X85855238Y-69122952D02*
X85626666Y-69122952D01*
X85740952Y-69522952D02*
X85740952Y-69122952D01*
D10*
X99292381Y-70839524D02*
X99292381Y-69989524D01*
X99292381Y-70394286D02*
X98806667Y-70394286D01*
X98806667Y-70839524D02*
X98806667Y-69989524D01*
X98401905Y-70839524D02*
X98401905Y-70272857D01*
X98401905Y-69989524D02*
X98442381Y-70030000D01*
X98401905Y-70070476D01*
X98361429Y-70030000D01*
X98401905Y-69989524D01*
X98401905Y-70070476D01*
X97713810Y-70394286D02*
X97997143Y-70394286D01*
X97997143Y-70839524D02*
X97997143Y-69989524D01*
X97592381Y-69989524D01*
X97268572Y-70839524D02*
X97268572Y-70272857D01*
X97268572Y-69989524D02*
X97309048Y-70030000D01*
X97268572Y-70070476D01*
X97228096Y-70030000D01*
X97268572Y-69989524D01*
X97268572Y-70070476D01*
X96256667Y-70596667D02*
X95851905Y-70596667D01*
X96337620Y-70839524D02*
X96054286Y-69989524D01*
X95770953Y-70839524D01*
X95123334Y-70272857D02*
X95123334Y-70839524D01*
X95487620Y-70272857D02*
X95487620Y-70718095D01*
X95447144Y-70799048D01*
X95366191Y-70839524D01*
X95244763Y-70839524D01*
X95163811Y-70799048D01*
X95123334Y-70758571D01*
X94354286Y-70839524D02*
X94354286Y-69989524D01*
X94354286Y-70799048D02*
X94435239Y-70839524D01*
X94597143Y-70839524D01*
X94678096Y-70799048D01*
X94718572Y-70758571D01*
X94759048Y-70677619D01*
X94759048Y-70434762D01*
X94718572Y-70353810D01*
X94678096Y-70313333D01*
X94597143Y-70272857D01*
X94435239Y-70272857D01*
X94354286Y-70313333D01*
X93949524Y-70839524D02*
X93949524Y-70272857D01*
X93949524Y-69989524D02*
X93990000Y-70030000D01*
X93949524Y-70070476D01*
X93909048Y-70030000D01*
X93949524Y-69989524D01*
X93949524Y-70070476D01*
X93423333Y-70839524D02*
X93504286Y-70799048D01*
X93544762Y-70758571D01*
X93585238Y-70677619D01*
X93585238Y-70434762D01*
X93544762Y-70353810D01*
X93504286Y-70313333D01*
X93423333Y-70272857D01*
X93301905Y-70272857D01*
X93220953Y-70313333D01*
X93180476Y-70353810D01*
X93140000Y-70434762D01*
X93140000Y-70677619D01*
X93180476Y-70758571D01*
X93220953Y-70799048D01*
X93301905Y-70839524D01*
X93423333Y-70839524D01*
X91642381Y-70758571D02*
X91682857Y-70799048D01*
X91804286Y-70839524D01*
X91885238Y-70839524D01*
X92006666Y-70799048D01*
X92087619Y-70718095D01*
X92128095Y-70637143D01*
X92168571Y-70475238D01*
X92168571Y-70353810D01*
X92128095Y-70191905D01*
X92087619Y-70110952D01*
X92006666Y-70030000D01*
X91885238Y-69989524D01*
X91804286Y-69989524D01*
X91682857Y-70030000D01*
X91642381Y-70070476D01*
X91156666Y-70839524D02*
X91237619Y-70799048D01*
X91278095Y-70758571D01*
X91318571Y-70677619D01*
X91318571Y-70434762D01*
X91278095Y-70353810D01*
X91237619Y-70313333D01*
X91156666Y-70272857D01*
X91035238Y-70272857D01*
X90954286Y-70313333D01*
X90913809Y-70353810D01*
X90873333Y-70434762D01*
X90873333Y-70677619D01*
X90913809Y-70758571D01*
X90954286Y-70799048D01*
X91035238Y-70839524D01*
X91156666Y-70839524D01*
X90144761Y-70839524D02*
X90144761Y-69989524D01*
X90144761Y-70799048D02*
X90225714Y-70839524D01*
X90387618Y-70839524D01*
X90468571Y-70799048D01*
X90509047Y-70758571D01*
X90549523Y-70677619D01*
X90549523Y-70434762D01*
X90509047Y-70353810D01*
X90468571Y-70313333D01*
X90387618Y-70272857D01*
X90225714Y-70272857D01*
X90144761Y-70313333D01*
X89416190Y-70799048D02*
X89497142Y-70839524D01*
X89659047Y-70839524D01*
X89739999Y-70799048D01*
X89780475Y-70718095D01*
X89780475Y-70394286D01*
X89739999Y-70313333D01*
X89659047Y-70272857D01*
X89497142Y-70272857D01*
X89416190Y-70313333D01*
X89375713Y-70394286D01*
X89375713Y-70475238D01*
X89780475Y-70556190D01*
X88647142Y-70799048D02*
X88728095Y-70839524D01*
X88889999Y-70839524D01*
X88970952Y-70799048D01*
X89011428Y-70758571D01*
X89051904Y-70677619D01*
X89051904Y-70434762D01*
X89011428Y-70353810D01*
X88970952Y-70313333D01*
X88889999Y-70272857D01*
X88728095Y-70272857D01*
X88647142Y-70313333D01*
X87635238Y-70839524D02*
X87635238Y-69989524D01*
X87351905Y-70596667D01*
X87068571Y-69989524D01*
X87068571Y-70839524D01*
X86542380Y-70839524D02*
X86623333Y-70799048D01*
X86663809Y-70758571D01*
X86704285Y-70677619D01*
X86704285Y-70434762D01*
X86663809Y-70353810D01*
X86623333Y-70313333D01*
X86542380Y-70272857D01*
X86420952Y-70272857D01*
X86340000Y-70313333D01*
X86299523Y-70353810D01*
X86259047Y-70434762D01*
X86259047Y-70677619D01*
X86299523Y-70758571D01*
X86340000Y-70799048D01*
X86420952Y-70839524D01*
X86542380Y-70839524D01*
X85530475Y-70839524D02*
X85530475Y-69989524D01*
X85530475Y-70799048D02*
X85611428Y-70839524D01*
X85773332Y-70839524D01*
X85854285Y-70799048D01*
X85894761Y-70758571D01*
X85935237Y-70677619D01*
X85935237Y-70434762D01*
X85894761Y-70353810D01*
X85854285Y-70313333D01*
X85773332Y-70272857D01*
X85611428Y-70272857D01*
X85530475Y-70313333D01*
X84761427Y-70272857D02*
X84761427Y-70839524D01*
X85125713Y-70272857D02*
X85125713Y-70718095D01*
X85085237Y-70799048D01*
X85004284Y-70839524D01*
X84882856Y-70839524D01*
X84801904Y-70799048D01*
X84761427Y-70758571D01*
X84235236Y-70839524D02*
X84316189Y-70799048D01*
X84356665Y-70718095D01*
X84356665Y-69989524D01*
X83587618Y-70799048D02*
X83668570Y-70839524D01*
X83830475Y-70839524D01*
X83911427Y-70799048D01*
X83951903Y-70718095D01*
X83951903Y-70394286D01*
X83911427Y-70313333D01*
X83830475Y-70272857D01*
X83668570Y-70272857D01*
X83587618Y-70313333D01*
X83547141Y-70394286D01*
X83547141Y-70475238D01*
X83951903Y-70556190D01*
X102388810Y-72129524D02*
X102388810Y-71279524D01*
X102024524Y-72129524D02*
X102024524Y-71684286D01*
X102065001Y-71603333D01*
X102145953Y-71562857D01*
X102267381Y-71562857D01*
X102348334Y-71603333D01*
X102388810Y-71643810D01*
X101741191Y-71562857D02*
X101417381Y-71562857D01*
X101619762Y-71279524D02*
X101619762Y-72008095D01*
X101579286Y-72089048D01*
X101498333Y-72129524D01*
X101417381Y-72129524D01*
X101255477Y-71562857D02*
X100931667Y-71562857D01*
X101134048Y-71279524D02*
X101134048Y-72008095D01*
X101093572Y-72089048D01*
X101012619Y-72129524D01*
X100931667Y-72129524D01*
X100648334Y-71562857D02*
X100648334Y-72412857D01*
X100648334Y-71603333D02*
X100567382Y-71562857D01*
X100405477Y-71562857D01*
X100324525Y-71603333D01*
X100284048Y-71643810D01*
X100243572Y-71724762D01*
X100243572Y-71967619D01*
X100284048Y-72048571D01*
X100324525Y-72089048D01*
X100405477Y-72129524D01*
X100567382Y-72129524D01*
X100648334Y-72089048D01*
X99919762Y-72089048D02*
X99838810Y-72129524D01*
X99676905Y-72129524D01*
X99595953Y-72089048D01*
X99555477Y-72008095D01*
X99555477Y-71967619D01*
X99595953Y-71886667D01*
X99676905Y-71846190D01*
X99798334Y-71846190D01*
X99879286Y-71805714D01*
X99919762Y-71724762D01*
X99919762Y-71684286D01*
X99879286Y-71603333D01*
X99798334Y-71562857D01*
X99676905Y-71562857D01*
X99595953Y-71603333D01*
X99191191Y-72048571D02*
X99150715Y-72089048D01*
X99191191Y-72129524D01*
X99231667Y-72089048D01*
X99191191Y-72048571D01*
X99191191Y-72129524D01*
X99191191Y-71603333D02*
X99150715Y-71643810D01*
X99191191Y-71684286D01*
X99231667Y-71643810D01*
X99191191Y-71603333D01*
X99191191Y-71684286D01*
X98179286Y-71239048D02*
X98907858Y-72331905D01*
X97288810Y-71239048D02*
X98017382Y-72331905D01*
X97005477Y-72129524D02*
X97005477Y-71279524D01*
X96641191Y-72129524D02*
X96641191Y-71684286D01*
X96681668Y-71603333D01*
X96762620Y-71562857D01*
X96884048Y-71562857D01*
X96965001Y-71603333D01*
X97005477Y-71643810D01*
X95872143Y-72129524D02*
X95872143Y-71684286D01*
X95912620Y-71603333D01*
X95993572Y-71562857D01*
X96155477Y-71562857D01*
X96236429Y-71603333D01*
X95872143Y-72089048D02*
X95953096Y-72129524D01*
X96155477Y-72129524D01*
X96236429Y-72089048D01*
X96276905Y-72008095D01*
X96276905Y-71927143D01*
X96236429Y-71846190D01*
X96155477Y-71805714D01*
X95953096Y-71805714D01*
X95872143Y-71765238D01*
X95103095Y-72089048D02*
X95184048Y-72129524D01*
X95345952Y-72129524D01*
X95426905Y-72089048D01*
X95467381Y-72048571D01*
X95507857Y-71967619D01*
X95507857Y-71724762D01*
X95467381Y-71643810D01*
X95426905Y-71603333D01*
X95345952Y-71562857D01*
X95184048Y-71562857D01*
X95103095Y-71603333D01*
X94738810Y-72129524D02*
X94738810Y-71279524D01*
X94657858Y-71805714D02*
X94415001Y-72129524D01*
X94415001Y-71562857D02*
X94738810Y-71886667D01*
X93686429Y-72129524D02*
X93686429Y-71684286D01*
X93726906Y-71603333D01*
X93807858Y-71562857D01*
X93969763Y-71562857D01*
X94050715Y-71603333D01*
X93686429Y-72089048D02*
X93767382Y-72129524D01*
X93969763Y-72129524D01*
X94050715Y-72089048D01*
X94091191Y-72008095D01*
X94091191Y-71927143D01*
X94050715Y-71846190D01*
X93969763Y-71805714D01*
X93767382Y-71805714D01*
X93686429Y-71765238D01*
X92917381Y-72129524D02*
X92917381Y-71279524D01*
X92917381Y-72089048D02*
X92998334Y-72129524D01*
X93160238Y-72129524D01*
X93241191Y-72089048D01*
X93281667Y-72048571D01*
X93322143Y-71967619D01*
X93322143Y-71724762D01*
X93281667Y-71643810D01*
X93241191Y-71603333D01*
X93160238Y-71562857D01*
X92998334Y-71562857D01*
X92917381Y-71603333D01*
X92148333Y-72129524D02*
X92148333Y-71684286D01*
X92188810Y-71603333D01*
X92269762Y-71562857D01*
X92431667Y-71562857D01*
X92512619Y-71603333D01*
X92148333Y-72089048D02*
X92229286Y-72129524D01*
X92431667Y-72129524D01*
X92512619Y-72089048D01*
X92553095Y-72008095D01*
X92553095Y-71927143D01*
X92512619Y-71846190D01*
X92431667Y-71805714D01*
X92229286Y-71805714D01*
X92148333Y-71765238D01*
X91824523Y-71562857D02*
X91622142Y-72129524D01*
X91419762Y-71562857D02*
X91622142Y-72129524D01*
X91703095Y-72331905D01*
X91743571Y-72372381D01*
X91824523Y-72412857D01*
X91095952Y-72048571D02*
X91055476Y-72089048D01*
X91095952Y-72129524D01*
X91136428Y-72089048D01*
X91095952Y-72048571D01*
X91095952Y-72129524D01*
X90691190Y-72129524D02*
X90691190Y-71562857D01*
X90691190Y-71279524D02*
X90731666Y-71320000D01*
X90691190Y-71360476D01*
X90650714Y-71320000D01*
X90691190Y-71279524D01*
X90691190Y-71360476D01*
X90164999Y-72129524D02*
X90245952Y-72089048D01*
X90286428Y-72048571D01*
X90326904Y-71967619D01*
X90326904Y-71724762D01*
X90286428Y-71643810D01*
X90245952Y-71603333D01*
X90164999Y-71562857D01*
X90043571Y-71562857D01*
X89962619Y-71603333D01*
X89922142Y-71643810D01*
X89881666Y-71724762D01*
X89881666Y-71967619D01*
X89922142Y-72048571D01*
X89962619Y-72089048D01*
X90043571Y-72129524D01*
X90164999Y-72129524D01*
X88910237Y-71239048D02*
X89638809Y-72331905D01*
X88626904Y-71562857D02*
X88626904Y-72412857D01*
X88626904Y-71603333D02*
X88545952Y-71562857D01*
X88384047Y-71562857D01*
X88303095Y-71603333D01*
X88262618Y-71643810D01*
X88222142Y-71724762D01*
X88222142Y-71967619D01*
X88262618Y-72048571D01*
X88303095Y-72089048D01*
X88384047Y-72129524D01*
X88545952Y-72129524D01*
X88626904Y-72089048D01*
X87857856Y-72129524D02*
X87857856Y-71562857D01*
X87857856Y-71724762D02*
X87817380Y-71643810D01*
X87776904Y-71603333D01*
X87695951Y-71562857D01*
X87614999Y-71562857D01*
X87210237Y-72129524D02*
X87291190Y-72089048D01*
X87331666Y-72048571D01*
X87372142Y-71967619D01*
X87372142Y-71724762D01*
X87331666Y-71643810D01*
X87291190Y-71603333D01*
X87210237Y-71562857D01*
X87088809Y-71562857D01*
X87007857Y-71603333D01*
X86967380Y-71643810D01*
X86926904Y-71724762D01*
X86926904Y-71967619D01*
X86967380Y-72048571D01*
X87007857Y-72089048D01*
X87088809Y-72129524D01*
X87210237Y-72129524D01*
X86562618Y-71562857D02*
X86562618Y-72291429D01*
X86603094Y-72372381D01*
X86684047Y-72412857D01*
X86724523Y-72412857D01*
X86562618Y-71279524D02*
X86603094Y-71320000D01*
X86562618Y-71360476D01*
X86522142Y-71320000D01*
X86562618Y-71279524D01*
X86562618Y-71360476D01*
X85834047Y-72089048D02*
X85914999Y-72129524D01*
X86076904Y-72129524D01*
X86157856Y-72089048D01*
X86198332Y-72008095D01*
X86198332Y-71684286D01*
X86157856Y-71603333D01*
X86076904Y-71562857D01*
X85914999Y-71562857D01*
X85834047Y-71603333D01*
X85793570Y-71684286D01*
X85793570Y-71765238D01*
X86198332Y-71846190D01*
X85064999Y-72089048D02*
X85145952Y-72129524D01*
X85307856Y-72129524D01*
X85388809Y-72089048D01*
X85429285Y-72048571D01*
X85469761Y-71967619D01*
X85469761Y-71724762D01*
X85429285Y-71643810D01*
X85388809Y-71603333D01*
X85307856Y-71562857D01*
X85145952Y-71562857D01*
X85064999Y-71603333D01*
X84822143Y-71562857D02*
X84498333Y-71562857D01*
X84700714Y-71279524D02*
X84700714Y-72008095D01*
X84660238Y-72089048D01*
X84579285Y-72129524D01*
X84498333Y-72129524D01*
X83607857Y-71239048D02*
X84336429Y-72331905D01*
X83203095Y-71643810D02*
X83284048Y-71603333D01*
X83324524Y-71562857D01*
X83365000Y-71481905D01*
X83365000Y-71441429D01*
X83324524Y-71360476D01*
X83284048Y-71320000D01*
X83203095Y-71279524D01*
X83041191Y-71279524D01*
X82960238Y-71320000D01*
X82919762Y-71360476D01*
X82879286Y-71441429D01*
X82879286Y-71481905D01*
X82919762Y-71562857D01*
X82960238Y-71603333D01*
X83041191Y-71643810D01*
X83203095Y-71643810D01*
X83284048Y-71684286D01*
X83324524Y-71724762D01*
X83365000Y-71805714D01*
X83365000Y-71967619D01*
X83324524Y-72048571D01*
X83284048Y-72089048D01*
X83203095Y-72129524D01*
X83041191Y-72129524D01*
X82960238Y-72089048D01*
X82919762Y-72048571D01*
X82879286Y-71967619D01*
X82879286Y-71805714D01*
X82919762Y-71724762D01*
X82960238Y-71684286D01*
X83041191Y-71643810D01*
X82110238Y-71279524D02*
X82515000Y-71279524D01*
X82555476Y-71684286D01*
X82515000Y-71643810D01*
X82434048Y-71603333D01*
X82231667Y-71603333D01*
X82150714Y-71643810D01*
X82110238Y-71684286D01*
X82069762Y-71765238D01*
X82069762Y-71967619D01*
X82110238Y-72048571D01*
X82150714Y-72089048D01*
X82231667Y-72129524D01*
X82434048Y-72129524D01*
X82515000Y-72089048D01*
X82555476Y-72048571D01*
X81341190Y-71279524D02*
X81503095Y-71279524D01*
X81584047Y-71320000D01*
X81624524Y-71360476D01*
X81705476Y-71481905D01*
X81745952Y-71643810D01*
X81745952Y-71967619D01*
X81705476Y-72048571D01*
X81665000Y-72089048D01*
X81584047Y-72129524D01*
X81422143Y-72129524D01*
X81341190Y-72089048D01*
X81300714Y-72048571D01*
X81260238Y-71967619D01*
X81260238Y-71765238D01*
X81300714Y-71684286D01*
X81341190Y-71643810D01*
X81422143Y-71603333D01*
X81584047Y-71603333D01*
X81665000Y-71643810D01*
X81705476Y-71684286D01*
X81745952Y-71765238D01*
X80976904Y-71279524D02*
X80410238Y-71279524D01*
X80774523Y-72129524D01*
X96641190Y-73419524D02*
X96641190Y-72569524D01*
X96641190Y-72893333D02*
X96560238Y-72852857D01*
X96398333Y-72852857D01*
X96317381Y-72893333D01*
X96276904Y-72933810D01*
X96236428Y-73014762D01*
X96236428Y-73257619D01*
X96276904Y-73338571D01*
X96317381Y-73379048D01*
X96398333Y-73419524D01*
X96560238Y-73419524D01*
X96641190Y-73379048D01*
X95953094Y-72852857D02*
X95750713Y-73419524D01*
X95548333Y-72852857D02*
X95750713Y-73419524D01*
X95831666Y-73621905D01*
X95872142Y-73662381D01*
X95953094Y-73702857D01*
X94576904Y-73419524D02*
X94576904Y-72569524D01*
X94293571Y-73176667D01*
X94010237Y-72569524D01*
X94010237Y-73419524D01*
X93605475Y-73419524D02*
X93605475Y-72852857D01*
X93605475Y-72569524D02*
X93645951Y-72610000D01*
X93605475Y-72650476D01*
X93564999Y-72610000D01*
X93605475Y-72569524D01*
X93605475Y-72650476D01*
X92836427Y-73379048D02*
X92917380Y-73419524D01*
X93079284Y-73419524D01*
X93160237Y-73379048D01*
X93200713Y-73338571D01*
X93241189Y-73257619D01*
X93241189Y-73014762D01*
X93200713Y-72933810D01*
X93160237Y-72893333D01*
X93079284Y-72852857D01*
X92917380Y-72852857D01*
X92836427Y-72893333D01*
X92472142Y-73419524D02*
X92472142Y-72569524D01*
X92107856Y-73419524D02*
X92107856Y-72974286D01*
X92148333Y-72893333D01*
X92229285Y-72852857D01*
X92350713Y-72852857D01*
X92431666Y-72893333D01*
X92472142Y-72933810D01*
X91379285Y-73379048D02*
X91460237Y-73419524D01*
X91622142Y-73419524D01*
X91703094Y-73379048D01*
X91743570Y-73298095D01*
X91743570Y-72974286D01*
X91703094Y-72893333D01*
X91622142Y-72852857D01*
X91460237Y-72852857D01*
X91379285Y-72893333D01*
X91338808Y-72974286D01*
X91338808Y-73055238D01*
X91743570Y-73136190D01*
X90853094Y-73419524D02*
X90934047Y-73379048D01*
X90974523Y-73298095D01*
X90974523Y-72569524D01*
X90205476Y-73379048D02*
X90286428Y-73419524D01*
X90448333Y-73419524D01*
X90529285Y-73379048D01*
X90569761Y-73298095D01*
X90569761Y-72974286D01*
X90529285Y-72893333D01*
X90448333Y-72852857D01*
X90286428Y-72852857D01*
X90205476Y-72893333D01*
X90164999Y-72974286D01*
X90164999Y-73055238D01*
X90569761Y-73136190D01*
X89153095Y-73419524D02*
X89153095Y-72569524D01*
X88829286Y-72569524D01*
X88748333Y-72610000D01*
X88707857Y-72650476D01*
X88667381Y-72731429D01*
X88667381Y-72852857D01*
X88707857Y-72933810D01*
X88748333Y-72974286D01*
X88829286Y-73014762D01*
X89153095Y-73014762D01*
X87979286Y-73379048D02*
X88060238Y-73419524D01*
X88222143Y-73419524D01*
X88303095Y-73379048D01*
X88343571Y-73298095D01*
X88343571Y-72974286D01*
X88303095Y-72893333D01*
X88222143Y-72852857D01*
X88060238Y-72852857D01*
X87979286Y-72893333D01*
X87938809Y-72974286D01*
X87938809Y-73055238D01*
X88343571Y-73136190D01*
X87574524Y-73419524D02*
X87574524Y-72852857D01*
X87574524Y-73014762D02*
X87534048Y-72933810D01*
X87493572Y-72893333D01*
X87412619Y-72852857D01*
X87331667Y-72852857D01*
X86926905Y-73419524D02*
X87007858Y-73379048D01*
X87048334Y-73298095D01*
X87048334Y-72569524D01*
X86238810Y-73419524D02*
X86238810Y-72974286D01*
X86279287Y-72893333D01*
X86360239Y-72852857D01*
X86522144Y-72852857D01*
X86603096Y-72893333D01*
X86238810Y-73379048D02*
X86319763Y-73419524D01*
X86522144Y-73419524D01*
X86603096Y-73379048D01*
X86643572Y-73298095D01*
X86643572Y-73217143D01*
X86603096Y-73136190D01*
X86522144Y-73095714D01*
X86319763Y-73095714D01*
X86238810Y-73055238D01*
X92856666Y-73859524D02*
X92694762Y-73859524D01*
X92613809Y-73900000D01*
X92532857Y-73980952D01*
X92492381Y-74142857D01*
X92492381Y-74426190D01*
X92532857Y-74588095D01*
X92613809Y-74669048D01*
X92694762Y-74709524D01*
X92856666Y-74709524D01*
X92937619Y-74669048D01*
X93018571Y-74588095D01*
X93059047Y-74426190D01*
X93059047Y-74142857D01*
X93018571Y-73980952D01*
X92937619Y-73900000D01*
X92856666Y-73859524D01*
X92168571Y-74669048D02*
X92047143Y-74709524D01*
X91844762Y-74709524D01*
X91763809Y-74669048D01*
X91723333Y-74628571D01*
X91682857Y-74547619D01*
X91682857Y-74466667D01*
X91723333Y-74385714D01*
X91763809Y-74345238D01*
X91844762Y-74304762D01*
X92006666Y-74264286D01*
X92087619Y-74223810D01*
X92128095Y-74183333D01*
X92168571Y-74102381D01*
X92168571Y-74021429D01*
X92128095Y-73940476D01*
X92087619Y-73900000D01*
X92006666Y-73859524D01*
X91804286Y-73859524D01*
X91682857Y-73900000D01*
X91318571Y-74709524D02*
X91318571Y-73859524D01*
X91318571Y-74264286D02*
X90832857Y-74264286D01*
X90832857Y-74709524D02*
X90832857Y-73859524D01*
X90509047Y-73859524D02*
X90306666Y-74709524D01*
X90144762Y-74102381D01*
X89982857Y-74709524D01*
X89780476Y-73859524D01*
D12*
X94661500Y-77974000D02*
X94661500Y-77474000D01*
X95711500Y-77474000D02*
X95711500Y-77974000D01*
X95931500Y-77974000D02*
X95931500Y-77474000D01*
X96981500Y-77474000D02*
X96981500Y-77974000D01*
D13*
G36*
X87832971Y-87601300D02*
X87813238Y-87604373D01*
X87752804Y-87621937D01*
X87705873Y-87649407D01*
X87672016Y-87687067D01*
X87662970Y-87703123D01*
X87657034Y-87715732D01*
X87652356Y-87728087D01*
X87648760Y-87742359D01*
X87646066Y-87760718D01*
X87644098Y-87785333D01*
X87642678Y-87818373D01*
X87641627Y-87862010D01*
X87640768Y-87918412D01*
X87639994Y-87983484D01*
X87637288Y-88222667D01*
X87765467Y-88222667D01*
X87765655Y-88195150D01*
X87765843Y-88167634D01*
X87780472Y-88186352D01*
X87809613Y-88210094D01*
X87852566Y-88224846D01*
X87908662Y-88230396D01*
X87919712Y-88230406D01*
X87953531Y-88229163D01*
X87983225Y-88226601D01*
X88002433Y-88223270D01*
X88002588Y-88223223D01*
X88056289Y-88199391D01*
X88097392Y-88164956D01*
X88125052Y-88121016D01*
X88138420Y-88068670D01*
X88139576Y-88045767D01*
X88138695Y-88034124D01*
X88022811Y-88034124D01*
X88018584Y-88060694D01*
X88005043Y-88084031D01*
X87982171Y-88099703D01*
X87947920Y-88108459D01*
X87900240Y-88111052D01*
X87882109Y-88110712D01*
X87844502Y-88108897D01*
X87819645Y-88105716D01*
X87803358Y-88100241D01*
X87791465Y-88091544D01*
X87790197Y-88090302D01*
X87778840Y-88073828D01*
X87771666Y-88049206D01*
X87767571Y-88015291D01*
X87762999Y-87958344D01*
X87864095Y-87961389D01*
X87911254Y-87963372D01*
X87944782Y-87966327D01*
X87967977Y-87970739D01*
X87984134Y-87977094D01*
X87988473Y-87979693D01*
X88013464Y-88004269D01*
X88022811Y-88034124D01*
X88138695Y-88034124D01*
X88136061Y-87999330D01*
X88124172Y-87962534D01*
X88101497Y-87929171D01*
X88088960Y-87915493D01*
X88063880Y-87893861D01*
X88034949Y-87878138D01*
X87999226Y-87867561D01*
X87953764Y-87861367D01*
X87895620Y-87858790D01*
X87869763Y-87858600D01*
X87765467Y-87858600D01*
X87765467Y-87815710D01*
X87768361Y-87777513D01*
X87778413Y-87751565D01*
X87797680Y-87733969D01*
X87812443Y-87726650D01*
X87840881Y-87718953D01*
X87875322Y-87715734D01*
X87911907Y-87716528D01*
X87946775Y-87720871D01*
X87976067Y-87728300D01*
X87995921Y-87738350D01*
X88002533Y-87749498D01*
X88009101Y-87756676D01*
X88011784Y-87757000D01*
X88024132Y-87751924D01*
X88043670Y-87739097D01*
X88065874Y-87722126D01*
X88086224Y-87704614D01*
X88100198Y-87690167D01*
X88103773Y-87683669D01*
X88097285Y-87670903D01*
X88079936Y-87653841D01*
X88055942Y-87635894D01*
X88029520Y-87620474D01*
X88020561Y-87616340D01*
X87983469Y-87605731D01*
X87935873Y-87599459D01*
X87883723Y-87597867D01*
X87832971Y-87601300D01*
X87832971Y-87601300D01*
G37*
X87832971Y-87601300D02*
X87813238Y-87604373D01*
X87752804Y-87621937D01*
X87705873Y-87649407D01*
X87672016Y-87687067D01*
X87662970Y-87703123D01*
X87657034Y-87715732D01*
X87652356Y-87728087D01*
X87648760Y-87742359D01*
X87646066Y-87760718D01*
X87644098Y-87785333D01*
X87642678Y-87818373D01*
X87641627Y-87862010D01*
X87640768Y-87918412D01*
X87639994Y-87983484D01*
X87637288Y-88222667D01*
X87765467Y-88222667D01*
X87765655Y-88195150D01*
X87765843Y-88167634D01*
X87780472Y-88186352D01*
X87809613Y-88210094D01*
X87852566Y-88224846D01*
X87908662Y-88230396D01*
X87919712Y-88230406D01*
X87953531Y-88229163D01*
X87983225Y-88226601D01*
X88002433Y-88223270D01*
X88002588Y-88223223D01*
X88056289Y-88199391D01*
X88097392Y-88164956D01*
X88125052Y-88121016D01*
X88138420Y-88068670D01*
X88139576Y-88045767D01*
X88138695Y-88034124D01*
X88022811Y-88034124D01*
X88018584Y-88060694D01*
X88005043Y-88084031D01*
X87982171Y-88099703D01*
X87947920Y-88108459D01*
X87900240Y-88111052D01*
X87882109Y-88110712D01*
X87844502Y-88108897D01*
X87819645Y-88105716D01*
X87803358Y-88100241D01*
X87791465Y-88091544D01*
X87790197Y-88090302D01*
X87778840Y-88073828D01*
X87771666Y-88049206D01*
X87767571Y-88015291D01*
X87762999Y-87958344D01*
X87864095Y-87961389D01*
X87911254Y-87963372D01*
X87944782Y-87966327D01*
X87967977Y-87970739D01*
X87984134Y-87977094D01*
X87988473Y-87979693D01*
X88013464Y-88004269D01*
X88022811Y-88034124D01*
X88138695Y-88034124D01*
X88136061Y-87999330D01*
X88124172Y-87962534D01*
X88101497Y-87929171D01*
X88088960Y-87915493D01*
X88063880Y-87893861D01*
X88034949Y-87878138D01*
X87999226Y-87867561D01*
X87953764Y-87861367D01*
X87895620Y-87858790D01*
X87869763Y-87858600D01*
X87765467Y-87858600D01*
X87765467Y-87815710D01*
X87768361Y-87777513D01*
X87778413Y-87751565D01*
X87797680Y-87733969D01*
X87812443Y-87726650D01*
X87840881Y-87718953D01*
X87875322Y-87715734D01*
X87911907Y-87716528D01*
X87946775Y-87720871D01*
X87976067Y-87728300D01*
X87995921Y-87738350D01*
X88002533Y-87749498D01*
X88009101Y-87756676D01*
X88011784Y-87757000D01*
X88024132Y-87751924D01*
X88043670Y-87739097D01*
X88065874Y-87722126D01*
X88086224Y-87704614D01*
X88100198Y-87690167D01*
X88103773Y-87683669D01*
X88097285Y-87670903D01*
X88079936Y-87653841D01*
X88055942Y-87635894D01*
X88029520Y-87620474D01*
X88020561Y-87616340D01*
X87983469Y-87605731D01*
X87935873Y-87599459D01*
X87883723Y-87597867D01*
X87832971Y-87601300D01*
G36*
X86580133Y-88222667D02*
X86707133Y-88222667D01*
X86707133Y-88160448D01*
X86726183Y-88178332D01*
X86765353Y-88204847D01*
X86814002Y-88222574D01*
X86866596Y-88230552D01*
X86917599Y-88227819D01*
X86952667Y-88217655D01*
X86991656Y-88193638D01*
X87028301Y-88158269D01*
X87057123Y-88116837D01*
X87057125Y-88116834D01*
X87063554Y-88103800D01*
X87068279Y-88090116D01*
X87071559Y-88073019D01*
X87073655Y-88049748D01*
X87074827Y-88017542D01*
X87075332Y-87973640D01*
X87075433Y-87922100D01*
X87075357Y-87909400D01*
X86952434Y-87909400D01*
X86951294Y-87965746D01*
X86947187Y-88008251D01*
X86939381Y-88039859D01*
X86927145Y-88063514D01*
X86909746Y-88082161D01*
X86909436Y-88082423D01*
X86889147Y-88096148D01*
X86866327Y-88102636D01*
X86837297Y-88104134D01*
X86806117Y-88101853D01*
X86778137Y-88096039D01*
X86767121Y-88091806D01*
X86745374Y-88076264D01*
X86729676Y-88053921D01*
X86719281Y-88022387D01*
X86713441Y-87979272D01*
X86711407Y-87922185D01*
X86711384Y-87913634D01*
X86712294Y-87861492D01*
X86715635Y-87822742D01*
X86722350Y-87793906D01*
X86733385Y-87771507D01*
X86749683Y-87752069D01*
X86757198Y-87744966D01*
X86781718Y-87731937D01*
X86815556Y-87725117D01*
X86852104Y-87724972D01*
X86884751Y-87731963D01*
X86892681Y-87735461D01*
X86917059Y-87753483D01*
X86934462Y-87779916D01*
X86945635Y-87816925D01*
X86951321Y-87866677D01*
X86952434Y-87909400D01*
X87075357Y-87909400D01*
X87075039Y-87856877D01*
X87073518Y-87805921D01*
X87070363Y-87766576D01*
X87065066Y-87736187D01*
X87057119Y-87712098D01*
X87046016Y-87691655D01*
X87031248Y-87672201D01*
X87026656Y-87666875D01*
X86987830Y-87631687D01*
X86943835Y-87610364D01*
X86891110Y-87601385D01*
X86872233Y-87600870D01*
X86830034Y-87603511D01*
X86793860Y-87612894D01*
X86757482Y-87631208D01*
X86726183Y-87652221D01*
X86707133Y-87665932D01*
X86707133Y-87350600D01*
X86580133Y-87350600D01*
X86580133Y-88222667D01*
X86580133Y-88222667D01*
G37*
X86580133Y-88222667D02*
X86707133Y-88222667D01*
X86707133Y-88160448D01*
X86726183Y-88178332D01*
X86765353Y-88204847D01*
X86814002Y-88222574D01*
X86866596Y-88230552D01*
X86917599Y-88227819D01*
X86952667Y-88217655D01*
X86991656Y-88193638D01*
X87028301Y-88158269D01*
X87057123Y-88116837D01*
X87057125Y-88116834D01*
X87063554Y-88103800D01*
X87068279Y-88090116D01*
X87071559Y-88073019D01*
X87073655Y-88049748D01*
X87074827Y-88017542D01*
X87075332Y-87973640D01*
X87075433Y-87922100D01*
X87075357Y-87909400D01*
X86952434Y-87909400D01*
X86951294Y-87965746D01*
X86947187Y-88008251D01*
X86939381Y-88039859D01*
X86927145Y-88063514D01*
X86909746Y-88082161D01*
X86909436Y-88082423D01*
X86889147Y-88096148D01*
X86866327Y-88102636D01*
X86837297Y-88104134D01*
X86806117Y-88101853D01*
X86778137Y-88096039D01*
X86767121Y-88091806D01*
X86745374Y-88076264D01*
X86729676Y-88053921D01*
X86719281Y-88022387D01*
X86713441Y-87979272D01*
X86711407Y-87922185D01*
X86711384Y-87913634D01*
X86712294Y-87861492D01*
X86715635Y-87822742D01*
X86722350Y-87793906D01*
X86733385Y-87771507D01*
X86749683Y-87752069D01*
X86757198Y-87744966D01*
X86781718Y-87731937D01*
X86815556Y-87725117D01*
X86852104Y-87724972D01*
X86884751Y-87731963D01*
X86892681Y-87735461D01*
X86917059Y-87753483D01*
X86934462Y-87779916D01*
X86945635Y-87816925D01*
X86951321Y-87866677D01*
X86952434Y-87909400D01*
X87075357Y-87909400D01*
X87075039Y-87856877D01*
X87073518Y-87805921D01*
X87070363Y-87766576D01*
X87065066Y-87736187D01*
X87057119Y-87712098D01*
X87046016Y-87691655D01*
X87031248Y-87672201D01*
X87026656Y-87666875D01*
X86987830Y-87631687D01*
X86943835Y-87610364D01*
X86891110Y-87601385D01*
X86872233Y-87600870D01*
X86830034Y-87603511D01*
X86793860Y-87612894D01*
X86757482Y-87631208D01*
X86726183Y-87652221D01*
X86707133Y-87665932D01*
X86707133Y-87350600D01*
X86580133Y-87350600D01*
X86580133Y-88222667D01*
G36*
X85316834Y-87601723D02*
X85268315Y-87609619D01*
X85240668Y-87617304D01*
X85200839Y-87638659D01*
X85165904Y-87670780D01*
X85140623Y-87708739D01*
X85132944Y-87728884D01*
X85130261Y-87747280D01*
X85127959Y-87780577D01*
X85126110Y-87826748D01*
X85124781Y-87883765D01*
X85124044Y-87949598D01*
X85123914Y-87991950D01*
X85123867Y-88222667D01*
X85187367Y-88222667D01*
X85219657Y-88222440D01*
X85238583Y-88220911D01*
X85247715Y-88216806D01*
X85250623Y-88208853D01*
X85250867Y-88200024D01*
X85250867Y-88177382D01*
X85270678Y-88195993D01*
X85293307Y-88211661D01*
X85319305Y-88222869D01*
X85351533Y-88228358D01*
X85392716Y-88230313D01*
X85436098Y-88228899D01*
X85474922Y-88224285D01*
X85498034Y-88218447D01*
X85546164Y-88193744D01*
X85582459Y-88158263D01*
X85603626Y-88123212D01*
X85620437Y-88071178D01*
X85620892Y-88050663D01*
X85503679Y-88050663D01*
X85491055Y-88078284D01*
X85463860Y-88097957D01*
X85422413Y-88109437D01*
X85376149Y-88112569D01*
X85341692Y-88111381D01*
X85311515Y-88108223D01*
X85291607Y-88103746D01*
X85290299Y-88103200D01*
X85269112Y-88086643D01*
X85256311Y-88059006D01*
X85251085Y-88018281D01*
X85250867Y-88005477D01*
X85250867Y-87958417D01*
X85350728Y-87961425D01*
X85404929Y-87964287D01*
X85444601Y-87969676D01*
X85472066Y-87978422D01*
X85489644Y-87991355D01*
X85499655Y-88009306D01*
X85501417Y-88015341D01*
X85503679Y-88050663D01*
X85620892Y-88050663D01*
X85621598Y-88018945D01*
X85608009Y-87969428D01*
X85580567Y-87925540D01*
X85540170Y-87890196D01*
X85529891Y-87884000D01*
X85513419Y-87875500D01*
X85497032Y-87869494D01*
X85477211Y-87865445D01*
X85450436Y-87862819D01*
X85413186Y-87861081D01*
X85371517Y-87859923D01*
X85250867Y-87857012D01*
X85250867Y-87807336D01*
X85252238Y-87776131D01*
X85257355Y-87756187D01*
X85267726Y-87741982D01*
X85269039Y-87740730D01*
X85295212Y-87725955D01*
X85331907Y-87717348D01*
X85373863Y-87714942D01*
X85415821Y-87718768D01*
X85452521Y-87728858D01*
X85472054Y-87739508D01*
X85497422Y-87758263D01*
X85543410Y-87723542D01*
X85567669Y-87704411D01*
X85580157Y-87691567D01*
X85583146Y-87681837D01*
X85579562Y-87673070D01*
X85560000Y-87652552D01*
X85529168Y-87631949D01*
X85492425Y-87614369D01*
X85460756Y-87604174D01*
X85419831Y-87598596D01*
X85369598Y-87597914D01*
X85316834Y-87601723D01*
X85316834Y-87601723D01*
G37*
X85316834Y-87601723D02*
X85268315Y-87609619D01*
X85240668Y-87617304D01*
X85200839Y-87638659D01*
X85165904Y-87670780D01*
X85140623Y-87708739D01*
X85132944Y-87728884D01*
X85130261Y-87747280D01*
X85127959Y-87780577D01*
X85126110Y-87826748D01*
X85124781Y-87883765D01*
X85124044Y-87949598D01*
X85123914Y-87991950D01*
X85123867Y-88222667D01*
X85187367Y-88222667D01*
X85219657Y-88222440D01*
X85238583Y-88220911D01*
X85247715Y-88216806D01*
X85250623Y-88208853D01*
X85250867Y-88200024D01*
X85250867Y-88177382D01*
X85270678Y-88195993D01*
X85293307Y-88211661D01*
X85319305Y-88222869D01*
X85351533Y-88228358D01*
X85392716Y-88230313D01*
X85436098Y-88228899D01*
X85474922Y-88224285D01*
X85498034Y-88218447D01*
X85546164Y-88193744D01*
X85582459Y-88158263D01*
X85603626Y-88123212D01*
X85620437Y-88071178D01*
X85620892Y-88050663D01*
X85503679Y-88050663D01*
X85491055Y-88078284D01*
X85463860Y-88097957D01*
X85422413Y-88109437D01*
X85376149Y-88112569D01*
X85341692Y-88111381D01*
X85311515Y-88108223D01*
X85291607Y-88103746D01*
X85290299Y-88103200D01*
X85269112Y-88086643D01*
X85256311Y-88059006D01*
X85251085Y-88018281D01*
X85250867Y-88005477D01*
X85250867Y-87958417D01*
X85350728Y-87961425D01*
X85404929Y-87964287D01*
X85444601Y-87969676D01*
X85472066Y-87978422D01*
X85489644Y-87991355D01*
X85499655Y-88009306D01*
X85501417Y-88015341D01*
X85503679Y-88050663D01*
X85620892Y-88050663D01*
X85621598Y-88018945D01*
X85608009Y-87969428D01*
X85580567Y-87925540D01*
X85540170Y-87890196D01*
X85529891Y-87884000D01*
X85513419Y-87875500D01*
X85497032Y-87869494D01*
X85477211Y-87865445D01*
X85450436Y-87862819D01*
X85413186Y-87861081D01*
X85371517Y-87859923D01*
X85250867Y-87857012D01*
X85250867Y-87807336D01*
X85252238Y-87776131D01*
X85257355Y-87756187D01*
X85267726Y-87741982D01*
X85269039Y-87740730D01*
X85295212Y-87725955D01*
X85331907Y-87717348D01*
X85373863Y-87714942D01*
X85415821Y-87718768D01*
X85452521Y-87728858D01*
X85472054Y-87739508D01*
X85497422Y-87758263D01*
X85543410Y-87723542D01*
X85567669Y-87704411D01*
X85580157Y-87691567D01*
X85583146Y-87681837D01*
X85579562Y-87673070D01*
X85560000Y-87652552D01*
X85529168Y-87631949D01*
X85492425Y-87614369D01*
X85460756Y-87604174D01*
X85419831Y-87598596D01*
X85369598Y-87597914D01*
X85316834Y-87601723D01*
G36*
X84268122Y-87601475D02*
X84239148Y-87605493D01*
X84212792Y-87614024D01*
X84190996Y-87623990D01*
X84140101Y-87655317D01*
X84101605Y-87694104D01*
X84074476Y-87742183D01*
X84057679Y-87801381D01*
X84050188Y-87873417D01*
X84046680Y-87960200D01*
X84439951Y-87960200D01*
X84434136Y-87991950D01*
X84418824Y-88040775D01*
X84392888Y-88076474D01*
X84355804Y-88099512D01*
X84307052Y-88110353D01*
X84300392Y-88110856D01*
X84268242Y-88111618D01*
X84243359Y-88107894D01*
X84217504Y-88097842D01*
X84198053Y-88087983D01*
X84171370Y-88074211D01*
X84154769Y-88067673D01*
X84143360Y-88067685D01*
X84132258Y-88073563D01*
X84126086Y-88077921D01*
X84104010Y-88095967D01*
X84082467Y-88116756D01*
X84061300Y-88139501D01*
X84086700Y-88160395D01*
X84133717Y-88193632D01*
X84181303Y-88214698D01*
X84235221Y-88225697D01*
X84272967Y-88228337D01*
X84334674Y-88227526D01*
X84381164Y-88220452D01*
X84388450Y-88218336D01*
X84429597Y-88198329D01*
X84470329Y-88166852D01*
X84505456Y-88128682D01*
X84529790Y-88088596D01*
X84530064Y-88087965D01*
X84550216Y-88023134D01*
X84559805Y-87950521D01*
X84558889Y-87875453D01*
X84555237Y-87852250D01*
X84438020Y-87852250D01*
X84430050Y-87854426D01*
X84408026Y-87856281D01*
X84374824Y-87857675D01*
X84333323Y-87858469D01*
X84306833Y-87858600D01*
X84257151Y-87858538D01*
X84221919Y-87858106D01*
X84198654Y-87856939D01*
X84184872Y-87854669D01*
X84178091Y-87850931D01*
X84175828Y-87845357D01*
X84175600Y-87839227D01*
X84179400Y-87820241D01*
X84189011Y-87794574D01*
X84194650Y-87782704D01*
X84220877Y-87747321D01*
X84254414Y-87724875D01*
X84292129Y-87714975D01*
X84330889Y-87717226D01*
X84367562Y-87731238D01*
X84399014Y-87756617D01*
X84422114Y-87792971D01*
X84428741Y-87812034D01*
X84434545Y-87834702D01*
X84437781Y-87850013D01*
X84438020Y-87852250D01*
X84555237Y-87852250D01*
X84547524Y-87803258D01*
X84526340Y-87740504D01*
X84499668Y-87692562D01*
X84467337Y-87656483D01*
X84424646Y-87627221D01*
X84416900Y-87623024D01*
X84390950Y-87610961D01*
X84365996Y-87604094D01*
X84335442Y-87601076D01*
X84306833Y-87600531D01*
X84268122Y-87601475D01*
X84268122Y-87601475D01*
G37*
X84268122Y-87601475D02*
X84239148Y-87605493D01*
X84212792Y-87614024D01*
X84190996Y-87623990D01*
X84140101Y-87655317D01*
X84101605Y-87694104D01*
X84074476Y-87742183D01*
X84057679Y-87801381D01*
X84050188Y-87873417D01*
X84046680Y-87960200D01*
X84439951Y-87960200D01*
X84434136Y-87991950D01*
X84418824Y-88040775D01*
X84392888Y-88076474D01*
X84355804Y-88099512D01*
X84307052Y-88110353D01*
X84300392Y-88110856D01*
X84268242Y-88111618D01*
X84243359Y-88107894D01*
X84217504Y-88097842D01*
X84198053Y-88087983D01*
X84171370Y-88074211D01*
X84154769Y-88067673D01*
X84143360Y-88067685D01*
X84132258Y-88073563D01*
X84126086Y-88077921D01*
X84104010Y-88095967D01*
X84082467Y-88116756D01*
X84061300Y-88139501D01*
X84086700Y-88160395D01*
X84133717Y-88193632D01*
X84181303Y-88214698D01*
X84235221Y-88225697D01*
X84272967Y-88228337D01*
X84334674Y-88227526D01*
X84381164Y-88220452D01*
X84388450Y-88218336D01*
X84429597Y-88198329D01*
X84470329Y-88166852D01*
X84505456Y-88128682D01*
X84529790Y-88088596D01*
X84530064Y-88087965D01*
X84550216Y-88023134D01*
X84559805Y-87950521D01*
X84558889Y-87875453D01*
X84555237Y-87852250D01*
X84438020Y-87852250D01*
X84430050Y-87854426D01*
X84408026Y-87856281D01*
X84374824Y-87857675D01*
X84333323Y-87858469D01*
X84306833Y-87858600D01*
X84257151Y-87858538D01*
X84221919Y-87858106D01*
X84198654Y-87856939D01*
X84184872Y-87854669D01*
X84178091Y-87850931D01*
X84175828Y-87845357D01*
X84175600Y-87839227D01*
X84179400Y-87820241D01*
X84189011Y-87794574D01*
X84194650Y-87782704D01*
X84220877Y-87747321D01*
X84254414Y-87724875D01*
X84292129Y-87714975D01*
X84330889Y-87717226D01*
X84367562Y-87731238D01*
X84399014Y-87756617D01*
X84422114Y-87792971D01*
X84428741Y-87812034D01*
X84434545Y-87834702D01*
X84437781Y-87850013D01*
X84438020Y-87852250D01*
X84555237Y-87852250D01*
X84547524Y-87803258D01*
X84526340Y-87740504D01*
X84499668Y-87692562D01*
X84467337Y-87656483D01*
X84424646Y-87627221D01*
X84416900Y-87623024D01*
X84390950Y-87610961D01*
X84365996Y-87604094D01*
X84335442Y-87601076D01*
X84306833Y-87600531D01*
X84268122Y-87601475D01*
G36*
X88382559Y-86620440D02*
X88374028Y-86622614D01*
X88338781Y-86639130D01*
X88303242Y-86666925D01*
X88272477Y-86701213D01*
X88251549Y-86737209D01*
X88250824Y-86739039D01*
X88245048Y-86756626D01*
X88240869Y-86776868D01*
X88238050Y-86802727D01*
X88236353Y-86837162D01*
X88235540Y-86883137D01*
X88235367Y-86931500D01*
X88235809Y-86995418D01*
X88237504Y-87045176D01*
X88241004Y-87083536D01*
X88246860Y-87113258D01*
X88255625Y-87137101D01*
X88267850Y-87157825D01*
X88284088Y-87178191D01*
X88284885Y-87179101D01*
X88327032Y-87215164D01*
X88376620Y-87238189D01*
X88430172Y-87247764D01*
X88484210Y-87243480D01*
X88535255Y-87224925D01*
X88557100Y-87211248D01*
X88576864Y-87197244D01*
X88591821Y-87187282D01*
X88593083Y-87186517D01*
X88596272Y-87187913D01*
X88598790Y-87197272D01*
X88600706Y-87216068D01*
X88602084Y-87245778D01*
X88602993Y-87287876D01*
X88603498Y-87343837D01*
X88603666Y-87415138D01*
X88603667Y-87421495D01*
X88603667Y-87662722D01*
X88561231Y-87634164D01*
X88508140Y-87607753D01*
X88452916Y-87596949D01*
X88398117Y-87601086D01*
X88346300Y-87619501D01*
X88300025Y-87651530D01*
X88261849Y-87696508D01*
X88251150Y-87714667D01*
X88246460Y-87724895D01*
X88242739Y-87737346D01*
X88239847Y-87754089D01*
X88237642Y-87777190D01*
X88235983Y-87808718D01*
X88234728Y-87850739D01*
X88233736Y-87905323D01*
X88232865Y-87974535D01*
X88232767Y-87983484D01*
X88230166Y-88222667D01*
X88358134Y-88222667D01*
X88358134Y-88017218D01*
X88358250Y-87951776D01*
X88358701Y-87900998D01*
X88359635Y-87862616D01*
X88361202Y-87834363D01*
X88363552Y-87813970D01*
X88366835Y-87799169D01*
X88371201Y-87787693D01*
X88373604Y-87782922D01*
X88399089Y-87751988D01*
X88434005Y-87731851D01*
X88473941Y-87723554D01*
X88514487Y-87728138D01*
X88545265Y-87742352D01*
X88562394Y-87754723D01*
X88575810Y-87767707D01*
X88585966Y-87783457D01*
X88593310Y-87804129D01*
X88598293Y-87831877D01*
X88601367Y-87868855D01*
X88602982Y-87917219D01*
X88603587Y-87979123D01*
X88603654Y-88021584D01*
X88603667Y-88222667D01*
X88730667Y-88222667D01*
X88730667Y-86931500D01*
X88599417Y-86931500D01*
X88598398Y-86984786D01*
X88594695Y-87024556D01*
X88587311Y-87054147D01*
X88575246Y-87076893D01*
X88557501Y-87096127D01*
X88547661Y-87104319D01*
X88520058Y-87117109D01*
X88484059Y-87122026D01*
X88446378Y-87118846D01*
X88416314Y-87108739D01*
X88392278Y-87090307D01*
X88375155Y-87062384D01*
X88364294Y-87023040D01*
X88359047Y-86970347D01*
X88358319Y-86936716D01*
X88360533Y-86871699D01*
X88368048Y-86821574D01*
X88381717Y-86784894D01*
X88402391Y-86760212D01*
X88430921Y-86746083D01*
X88468158Y-86741060D01*
X88473504Y-86741000D01*
X88515224Y-86744149D01*
X88547146Y-86754720D01*
X88570383Y-86774396D01*
X88586049Y-86804861D01*
X88595256Y-86847801D01*
X88599119Y-86904898D01*
X88599417Y-86931500D01*
X88730667Y-86931500D01*
X88730667Y-86622467D01*
X88603667Y-86622467D01*
X88603667Y-86684685D01*
X88584617Y-86666802D01*
X88543331Y-86638751D01*
X88492692Y-86621003D01*
X88437501Y-86614563D01*
X88382559Y-86620440D01*
X88382559Y-86620440D01*
G37*
X88382559Y-86620440D02*
X88374028Y-86622614D01*
X88338781Y-86639130D01*
X88303242Y-86666925D01*
X88272477Y-86701213D01*
X88251549Y-86737209D01*
X88250824Y-86739039D01*
X88245048Y-86756626D01*
X88240869Y-86776868D01*
X88238050Y-86802727D01*
X88236353Y-86837162D01*
X88235540Y-86883137D01*
X88235367Y-86931500D01*
X88235809Y-86995418D01*
X88237504Y-87045176D01*
X88241004Y-87083536D01*
X88246860Y-87113258D01*
X88255625Y-87137101D01*
X88267850Y-87157825D01*
X88284088Y-87178191D01*
X88284885Y-87179101D01*
X88327032Y-87215164D01*
X88376620Y-87238189D01*
X88430172Y-87247764D01*
X88484210Y-87243480D01*
X88535255Y-87224925D01*
X88557100Y-87211248D01*
X88576864Y-87197244D01*
X88591821Y-87187282D01*
X88593083Y-87186517D01*
X88596272Y-87187913D01*
X88598790Y-87197272D01*
X88600706Y-87216068D01*
X88602084Y-87245778D01*
X88602993Y-87287876D01*
X88603498Y-87343837D01*
X88603666Y-87415138D01*
X88603667Y-87421495D01*
X88603667Y-87662722D01*
X88561231Y-87634164D01*
X88508140Y-87607753D01*
X88452916Y-87596949D01*
X88398117Y-87601086D01*
X88346300Y-87619501D01*
X88300025Y-87651530D01*
X88261849Y-87696508D01*
X88251150Y-87714667D01*
X88246460Y-87724895D01*
X88242739Y-87737346D01*
X88239847Y-87754089D01*
X88237642Y-87777190D01*
X88235983Y-87808718D01*
X88234728Y-87850739D01*
X88233736Y-87905323D01*
X88232865Y-87974535D01*
X88232767Y-87983484D01*
X88230166Y-88222667D01*
X88358134Y-88222667D01*
X88358134Y-88017218D01*
X88358250Y-87951776D01*
X88358701Y-87900998D01*
X88359635Y-87862616D01*
X88361202Y-87834363D01*
X88363552Y-87813970D01*
X88366835Y-87799169D01*
X88371201Y-87787693D01*
X88373604Y-87782922D01*
X88399089Y-87751988D01*
X88434005Y-87731851D01*
X88473941Y-87723554D01*
X88514487Y-87728138D01*
X88545265Y-87742352D01*
X88562394Y-87754723D01*
X88575810Y-87767707D01*
X88585966Y-87783457D01*
X88593310Y-87804129D01*
X88598293Y-87831877D01*
X88601367Y-87868855D01*
X88602982Y-87917219D01*
X88603587Y-87979123D01*
X88603654Y-88021584D01*
X88603667Y-88222667D01*
X88730667Y-88222667D01*
X88730667Y-86931500D01*
X88599417Y-86931500D01*
X88598398Y-86984786D01*
X88594695Y-87024556D01*
X88587311Y-87054147D01*
X88575246Y-87076893D01*
X88557501Y-87096127D01*
X88547661Y-87104319D01*
X88520058Y-87117109D01*
X88484059Y-87122026D01*
X88446378Y-87118846D01*
X88416314Y-87108739D01*
X88392278Y-87090307D01*
X88375155Y-87062384D01*
X88364294Y-87023040D01*
X88359047Y-86970347D01*
X88358319Y-86936716D01*
X88360533Y-86871699D01*
X88368048Y-86821574D01*
X88381717Y-86784894D01*
X88402391Y-86760212D01*
X88430921Y-86746083D01*
X88468158Y-86741060D01*
X88473504Y-86741000D01*
X88515224Y-86744149D01*
X88547146Y-86754720D01*
X88570383Y-86774396D01*
X88586049Y-86804861D01*
X88595256Y-86847801D01*
X88599119Y-86904898D01*
X88599417Y-86931500D01*
X88730667Y-86931500D01*
X88730667Y-86622467D01*
X88603667Y-86622467D01*
X88603667Y-86684685D01*
X88584617Y-86666802D01*
X88543331Y-86638751D01*
X88492692Y-86621003D01*
X88437501Y-86614563D01*
X88382559Y-86620440D01*
G36*
X87163228Y-87603438D02*
X87118323Y-87621142D01*
X87105427Y-87629729D01*
X87084721Y-87645347D01*
X87126175Y-87694824D01*
X87146167Y-87718756D01*
X87161393Y-87737121D01*
X87169058Y-87746541D01*
X87169428Y-87747041D01*
X87177257Y-87745444D01*
X87194089Y-87737936D01*
X87196993Y-87736458D01*
X87236033Y-87724428D01*
X87276928Y-87725367D01*
X87315175Y-87738014D01*
X87346273Y-87761108D01*
X87361170Y-87782400D01*
X87365903Y-87793737D01*
X87369525Y-87807899D01*
X87372180Y-87827146D01*
X87374010Y-87853741D01*
X87375158Y-87889945D01*
X87375767Y-87938019D01*
X87375979Y-88000226D01*
X87375987Y-88017350D01*
X87376000Y-88222667D01*
X87503000Y-88222667D01*
X87503000Y-87604600D01*
X87376000Y-87604600D01*
X87376000Y-87666819D01*
X87356950Y-87649400D01*
X87315027Y-87621067D01*
X87265892Y-87603738D01*
X87213855Y-87597749D01*
X87163228Y-87603438D01*
X87163228Y-87603438D01*
G37*
X87163228Y-87603438D02*
X87118323Y-87621142D01*
X87105427Y-87629729D01*
X87084721Y-87645347D01*
X87126175Y-87694824D01*
X87146167Y-87718756D01*
X87161393Y-87737121D01*
X87169058Y-87746541D01*
X87169428Y-87747041D01*
X87177257Y-87745444D01*
X87194089Y-87737936D01*
X87196993Y-87736458D01*
X87236033Y-87724428D01*
X87276928Y-87725367D01*
X87315175Y-87738014D01*
X87346273Y-87761108D01*
X87361170Y-87782400D01*
X87365903Y-87793737D01*
X87369525Y-87807899D01*
X87372180Y-87827146D01*
X87374010Y-87853741D01*
X87375158Y-87889945D01*
X87375767Y-87938019D01*
X87375979Y-88000226D01*
X87375987Y-88017350D01*
X87376000Y-88222667D01*
X87503000Y-88222667D01*
X87503000Y-87604600D01*
X87376000Y-87604600D01*
X87376000Y-87666819D01*
X87356950Y-87649400D01*
X87315027Y-87621067D01*
X87265892Y-87603738D01*
X87213855Y-87597749D01*
X87163228Y-87603438D01*
G36*
X86074435Y-87606315D02*
X86027333Y-87608834D01*
X85957226Y-87824734D01*
X85938627Y-87881076D01*
X85921558Y-87931011D01*
X85906725Y-87972608D01*
X85894838Y-88003937D01*
X85886604Y-88023072D01*
X85882730Y-88028080D01*
X85882666Y-88027934D01*
X85879286Y-88016504D01*
X85872145Y-87991118D01*
X85861906Y-87954167D01*
X85849228Y-87908040D01*
X85834771Y-87855128D01*
X85823416Y-87813381D01*
X85808166Y-87757609D01*
X85794239Y-87707434D01*
X85782279Y-87665116D01*
X85772930Y-87632914D01*
X85766837Y-87613089D01*
X85764778Y-87607689D01*
X85755059Y-87606147D01*
X85732932Y-87605609D01*
X85702897Y-87606167D01*
X85698199Y-87606342D01*
X85635458Y-87608834D01*
X85733146Y-87915740D01*
X85830834Y-88222647D01*
X85887471Y-88222657D01*
X85944109Y-88222667D01*
X85965266Y-88152817D01*
X85975219Y-88119676D01*
X85988478Y-88075128D01*
X86003606Y-88024023D01*
X86019166Y-87971208D01*
X86026123Y-87947500D01*
X86039708Y-87901636D01*
X86051981Y-87861116D01*
X86062026Y-87828892D01*
X86068929Y-87807916D01*
X86071401Y-87801504D01*
X86075162Y-87806409D01*
X86082919Y-87825602D01*
X86094001Y-87857094D01*
X86107733Y-87898897D01*
X86123441Y-87949021D01*
X86140224Y-88004704D01*
X86203469Y-88218434D01*
X86260684Y-88220940D01*
X86294707Y-88221274D01*
X86314301Y-88218388D01*
X86321570Y-88212473D01*
X86328769Y-88190535D01*
X86339696Y-88156689D01*
X86353666Y-88113099D01*
X86369995Y-88061929D01*
X86387998Y-88005342D01*
X86406990Y-87945503D01*
X86426288Y-87884575D01*
X86445205Y-87824721D01*
X86463059Y-87768107D01*
X86479163Y-87716895D01*
X86492833Y-87673249D01*
X86503385Y-87639333D01*
X86510134Y-87617311D01*
X86512400Y-87609369D01*
X86504625Y-87607079D01*
X86484011Y-87605930D01*
X86454627Y-87606109D01*
X86446973Y-87606361D01*
X86381545Y-87608834D01*
X86325846Y-87812034D01*
X86310322Y-87868533D01*
X86296118Y-87919972D01*
X86283896Y-87963979D01*
X86274314Y-87998185D01*
X86268033Y-88020219D01*
X86265877Y-88027356D01*
X86262479Y-88022371D01*
X86254713Y-88003594D01*
X86243377Y-87973355D01*
X86229274Y-87933989D01*
X86213201Y-87887826D01*
X86195960Y-87837200D01*
X86178350Y-87784442D01*
X86161170Y-87731885D01*
X86145221Y-87681862D01*
X86131303Y-87636705D01*
X86127286Y-87623248D01*
X86122360Y-87612162D01*
X86113016Y-87606745D01*
X86094622Y-87605512D01*
X86074435Y-87606315D01*
X86074435Y-87606315D01*
G37*
X86074435Y-87606315D02*
X86027333Y-87608834D01*
X85957226Y-87824734D01*
X85938627Y-87881076D01*
X85921558Y-87931011D01*
X85906725Y-87972608D01*
X85894838Y-88003937D01*
X85886604Y-88023072D01*
X85882730Y-88028080D01*
X85882666Y-88027934D01*
X85879286Y-88016504D01*
X85872145Y-87991118D01*
X85861906Y-87954167D01*
X85849228Y-87908040D01*
X85834771Y-87855128D01*
X85823416Y-87813381D01*
X85808166Y-87757609D01*
X85794239Y-87707434D01*
X85782279Y-87665116D01*
X85772930Y-87632914D01*
X85766837Y-87613089D01*
X85764778Y-87607689D01*
X85755059Y-87606147D01*
X85732932Y-87605609D01*
X85702897Y-87606167D01*
X85698199Y-87606342D01*
X85635458Y-87608834D01*
X85733146Y-87915740D01*
X85830834Y-88222647D01*
X85887471Y-88222657D01*
X85944109Y-88222667D01*
X85965266Y-88152817D01*
X85975219Y-88119676D01*
X85988478Y-88075128D01*
X86003606Y-88024023D01*
X86019166Y-87971208D01*
X86026123Y-87947500D01*
X86039708Y-87901636D01*
X86051981Y-87861116D01*
X86062026Y-87828892D01*
X86068929Y-87807916D01*
X86071401Y-87801504D01*
X86075162Y-87806409D01*
X86082919Y-87825602D01*
X86094001Y-87857094D01*
X86107733Y-87898897D01*
X86123441Y-87949021D01*
X86140224Y-88004704D01*
X86203469Y-88218434D01*
X86260684Y-88220940D01*
X86294707Y-88221274D01*
X86314301Y-88218388D01*
X86321570Y-88212473D01*
X86328769Y-88190535D01*
X86339696Y-88156689D01*
X86353666Y-88113099D01*
X86369995Y-88061929D01*
X86387998Y-88005342D01*
X86406990Y-87945503D01*
X86426288Y-87884575D01*
X86445205Y-87824721D01*
X86463059Y-87768107D01*
X86479163Y-87716895D01*
X86492833Y-87673249D01*
X86503385Y-87639333D01*
X86510134Y-87617311D01*
X86512400Y-87609369D01*
X86504625Y-87607079D01*
X86484011Y-87605930D01*
X86454627Y-87606109D01*
X86446973Y-87606361D01*
X86381545Y-87608834D01*
X86325846Y-87812034D01*
X86310322Y-87868533D01*
X86296118Y-87919972D01*
X86283896Y-87963979D01*
X86274314Y-87998185D01*
X86268033Y-88020219D01*
X86265877Y-88027356D01*
X86262479Y-88022371D01*
X86254713Y-88003594D01*
X86243377Y-87973355D01*
X86229274Y-87933989D01*
X86213201Y-87887826D01*
X86195960Y-87837200D01*
X86178350Y-87784442D01*
X86161170Y-87731885D01*
X86145221Y-87681862D01*
X86131303Y-87636705D01*
X86127286Y-87623248D01*
X86122360Y-87612162D01*
X86113016Y-87606745D01*
X86094622Y-87605512D01*
X86074435Y-87606315D01*
G36*
X84650103Y-87603418D02*
X84609035Y-87618071D01*
X84565012Y-87640009D01*
X84581639Y-87662521D01*
X84597423Y-87682792D01*
X84617865Y-87707692D01*
X84626521Y-87717886D01*
X84654777Y-87750738D01*
X84681468Y-87736936D01*
X84722733Y-87724465D01*
X84765174Y-87726900D01*
X84804528Y-87743110D01*
X84836530Y-87771964D01*
X84841890Y-87779481D01*
X84846715Y-87788451D01*
X84850487Y-87800318D01*
X84853371Y-87817249D01*
X84855535Y-87841408D01*
X84857145Y-87874961D01*
X84858367Y-87920076D01*
X84859369Y-87978916D01*
X84859820Y-88012719D01*
X84862473Y-88222667D01*
X84988400Y-88222667D01*
X84988400Y-87604600D01*
X84861400Y-87604600D01*
X84861400Y-87634234D01*
X84859432Y-87656022D01*
X84852447Y-87662461D01*
X84838827Y-87653981D01*
X84827938Y-87643131D01*
X84793451Y-87617900D01*
X84749328Y-87602529D01*
X84700050Y-87597530D01*
X84650103Y-87603418D01*
X84650103Y-87603418D01*
G37*
X84650103Y-87603418D02*
X84609035Y-87618071D01*
X84565012Y-87640009D01*
X84581639Y-87662521D01*
X84597423Y-87682792D01*
X84617865Y-87707692D01*
X84626521Y-87717886D01*
X84654777Y-87750738D01*
X84681468Y-87736936D01*
X84722733Y-87724465D01*
X84765174Y-87726900D01*
X84804528Y-87743110D01*
X84836530Y-87771964D01*
X84841890Y-87779481D01*
X84846715Y-87788451D01*
X84850487Y-87800318D01*
X84853371Y-87817249D01*
X84855535Y-87841408D01*
X84857145Y-87874961D01*
X84858367Y-87920076D01*
X84859369Y-87978916D01*
X84859820Y-88012719D01*
X84862473Y-88222667D01*
X84988400Y-88222667D01*
X84988400Y-87604600D01*
X84861400Y-87604600D01*
X84861400Y-87634234D01*
X84859432Y-87656022D01*
X84852447Y-87662461D01*
X84838827Y-87653981D01*
X84827938Y-87643131D01*
X84793451Y-87617900D01*
X84749328Y-87602529D01*
X84700050Y-87597530D01*
X84650103Y-87603418D01*
G36*
X89030292Y-86619403D02*
X88978306Y-86636694D01*
X88931674Y-86667501D01*
X88911215Y-86686348D01*
X88883401Y-86717980D01*
X88863175Y-86751214D01*
X88849503Y-86789415D01*
X88841353Y-86835945D01*
X88837692Y-86894170D01*
X88837225Y-86927267D01*
X88838688Y-86991939D01*
X88844064Y-87043447D01*
X88854171Y-87085275D01*
X88869830Y-87120909D01*
X88889859Y-87151237D01*
X88933538Y-87196510D01*
X88984682Y-87226929D01*
X89044467Y-87243089D01*
X89076833Y-87245966D01*
X89112621Y-87246053D01*
X89145629Y-87243916D01*
X89168974Y-87240011D01*
X89169753Y-87239782D01*
X89225506Y-87214209D01*
X89274123Y-87174853D01*
X89312681Y-87124330D01*
X89324978Y-87100834D01*
X89332639Y-87082686D01*
X89337996Y-87064781D01*
X89341454Y-87043612D01*
X89343415Y-87015674D01*
X89344283Y-86977459D01*
X89344435Y-86938673D01*
X89219079Y-86938673D01*
X89217577Y-86983197D01*
X89213787Y-87022669D01*
X89207711Y-87052722D01*
X89202223Y-87065627D01*
X89172604Y-87096352D01*
X89133952Y-87115481D01*
X89090437Y-87122024D01*
X89046227Y-87114992D01*
X89027288Y-87107170D01*
X89002684Y-87091662D01*
X88985053Y-87071947D01*
X88973374Y-87045213D01*
X88966627Y-87008648D01*
X88963790Y-86959441D01*
X88963517Y-86931500D01*
X88964040Y-86884558D01*
X88965872Y-86850938D01*
X88969435Y-86827055D01*
X88975151Y-86809320D01*
X88978745Y-86802009D01*
X89004883Y-86770132D01*
X89039804Y-86749714D01*
X89079753Y-86740833D01*
X89120974Y-86743567D01*
X89159711Y-86757993D01*
X89192209Y-86784191D01*
X89202223Y-86797374D01*
X89209868Y-86818446D01*
X89215225Y-86851931D01*
X89218296Y-86893462D01*
X89219079Y-86938673D01*
X89344435Y-86938673D01*
X89344464Y-86931500D01*
X89344232Y-86881047D01*
X89343266Y-86844018D01*
X89341165Y-86816904D01*
X89337526Y-86796200D01*
X89331946Y-86778398D01*
X89325027Y-86762167D01*
X89290569Y-86706000D01*
X89245214Y-86662319D01*
X89190465Y-86632079D01*
X89127828Y-86616235D01*
X89091691Y-86614000D01*
X89030292Y-86619403D01*
X89030292Y-86619403D01*
G37*
X89030292Y-86619403D02*
X88978306Y-86636694D01*
X88931674Y-86667501D01*
X88911215Y-86686348D01*
X88883401Y-86717980D01*
X88863175Y-86751214D01*
X88849503Y-86789415D01*
X88841353Y-86835945D01*
X88837692Y-86894170D01*
X88837225Y-86927267D01*
X88838688Y-86991939D01*
X88844064Y-87043447D01*
X88854171Y-87085275D01*
X88869830Y-87120909D01*
X88889859Y-87151237D01*
X88933538Y-87196510D01*
X88984682Y-87226929D01*
X89044467Y-87243089D01*
X89076833Y-87245966D01*
X89112621Y-87246053D01*
X89145629Y-87243916D01*
X89168974Y-87240011D01*
X89169753Y-87239782D01*
X89225506Y-87214209D01*
X89274123Y-87174853D01*
X89312681Y-87124330D01*
X89324978Y-87100834D01*
X89332639Y-87082686D01*
X89337996Y-87064781D01*
X89341454Y-87043612D01*
X89343415Y-87015674D01*
X89344283Y-86977459D01*
X89344435Y-86938673D01*
X89219079Y-86938673D01*
X89217577Y-86983197D01*
X89213787Y-87022669D01*
X89207711Y-87052722D01*
X89202223Y-87065627D01*
X89172604Y-87096352D01*
X89133952Y-87115481D01*
X89090437Y-87122024D01*
X89046227Y-87114992D01*
X89027288Y-87107170D01*
X89002684Y-87091662D01*
X88985053Y-87071947D01*
X88973374Y-87045213D01*
X88966627Y-87008648D01*
X88963790Y-86959441D01*
X88963517Y-86931500D01*
X88964040Y-86884558D01*
X88965872Y-86850938D01*
X88969435Y-86827055D01*
X88975151Y-86809320D01*
X88978745Y-86802009D01*
X89004883Y-86770132D01*
X89039804Y-86749714D01*
X89079753Y-86740833D01*
X89120974Y-86743567D01*
X89159711Y-86757993D01*
X89192209Y-86784191D01*
X89202223Y-86797374D01*
X89209868Y-86818446D01*
X89215225Y-86851931D01*
X89218296Y-86893462D01*
X89219079Y-86938673D01*
X89344435Y-86938673D01*
X89344464Y-86931500D01*
X89344232Y-86881047D01*
X89343266Y-86844018D01*
X89341165Y-86816904D01*
X89337526Y-86796200D01*
X89331946Y-86778398D01*
X89325027Y-86762167D01*
X89290569Y-86706000D01*
X89245214Y-86662319D01*
X89190465Y-86632079D01*
X89127828Y-86616235D01*
X89091691Y-86614000D01*
X89030292Y-86619403D01*
G36*
X87827713Y-86622190D02*
X87774231Y-86640810D01*
X87726038Y-86670333D01*
X87685755Y-86710355D01*
X87656002Y-86760468D01*
X87650796Y-86773737D01*
X87644066Y-86800011D01*
X87637971Y-86836885D01*
X87633476Y-86878031D01*
X87632271Y-86895517D01*
X87627736Y-86978067D01*
X88021696Y-86978067D01*
X88016968Y-87013317D01*
X88003684Y-87056165D01*
X87978279Y-87090049D01*
X87943492Y-87114123D01*
X87902060Y-87127544D01*
X87856723Y-87129465D01*
X87810220Y-87119043D01*
X87765288Y-87095432D01*
X87760957Y-87092291D01*
X87748899Y-87083201D01*
X87739796Y-87078606D01*
X87730311Y-87079752D01*
X87717106Y-87087885D01*
X87696846Y-87104251D01*
X87671384Y-87125733D01*
X87644600Y-87148271D01*
X87667438Y-87172109D01*
X87711688Y-87206687D01*
X87767147Y-87231146D01*
X87830585Y-87244209D01*
X87854367Y-87245864D01*
X87890216Y-87246131D01*
X87922622Y-87244658D01*
X87945324Y-87241757D01*
X87947500Y-87241220D01*
X88009370Y-87216176D01*
X88060454Y-87178528D01*
X88099775Y-87129051D01*
X88108572Y-87113128D01*
X88130502Y-87054490D01*
X88142439Y-86987971D01*
X88144646Y-86917730D01*
X88138376Y-86857417D01*
X88019281Y-86857417D01*
X88018894Y-86864607D01*
X88015922Y-86869713D01*
X88007896Y-86873092D01*
X87992343Y-86875101D01*
X87966794Y-86876095D01*
X87928777Y-86876431D01*
X87887291Y-86876467D01*
X87755116Y-86876467D01*
X87761068Y-86844717D01*
X87776853Y-86797266D01*
X87803614Y-86762273D01*
X87840517Y-86740468D01*
X87886729Y-86732581D01*
X87889233Y-86732565D01*
X87932575Y-86738491D01*
X87958576Y-86749673D01*
X87982064Y-86771326D01*
X88002599Y-86802699D01*
X88016137Y-86836615D01*
X88019281Y-86857417D01*
X88138376Y-86857417D01*
X88137389Y-86847930D01*
X88120932Y-86782729D01*
X88095540Y-86726289D01*
X88082756Y-86706847D01*
X88042130Y-86664862D01*
X87993693Y-86635810D01*
X87940065Y-86619284D01*
X87883864Y-86614880D01*
X87827713Y-86622190D01*
X87827713Y-86622190D01*
G37*
X87827713Y-86622190D02*
X87774231Y-86640810D01*
X87726038Y-86670333D01*
X87685755Y-86710355D01*
X87656002Y-86760468D01*
X87650796Y-86773737D01*
X87644066Y-86800011D01*
X87637971Y-86836885D01*
X87633476Y-86878031D01*
X87632271Y-86895517D01*
X87627736Y-86978067D01*
X88021696Y-86978067D01*
X88016968Y-87013317D01*
X88003684Y-87056165D01*
X87978279Y-87090049D01*
X87943492Y-87114123D01*
X87902060Y-87127544D01*
X87856723Y-87129465D01*
X87810220Y-87119043D01*
X87765288Y-87095432D01*
X87760957Y-87092291D01*
X87748899Y-87083201D01*
X87739796Y-87078606D01*
X87730311Y-87079752D01*
X87717106Y-87087885D01*
X87696846Y-87104251D01*
X87671384Y-87125733D01*
X87644600Y-87148271D01*
X87667438Y-87172109D01*
X87711688Y-87206687D01*
X87767147Y-87231146D01*
X87830585Y-87244209D01*
X87854367Y-87245864D01*
X87890216Y-87246131D01*
X87922622Y-87244658D01*
X87945324Y-87241757D01*
X87947500Y-87241220D01*
X88009370Y-87216176D01*
X88060454Y-87178528D01*
X88099775Y-87129051D01*
X88108572Y-87113128D01*
X88130502Y-87054490D01*
X88142439Y-86987971D01*
X88144646Y-86917730D01*
X88138376Y-86857417D01*
X88019281Y-86857417D01*
X88018894Y-86864607D01*
X88015922Y-86869713D01*
X88007896Y-86873092D01*
X87992343Y-86875101D01*
X87966794Y-86876095D01*
X87928777Y-86876431D01*
X87887291Y-86876467D01*
X87755116Y-86876467D01*
X87761068Y-86844717D01*
X87776853Y-86797266D01*
X87803614Y-86762273D01*
X87840517Y-86740468D01*
X87886729Y-86732581D01*
X87889233Y-86732565D01*
X87932575Y-86738491D01*
X87958576Y-86749673D01*
X87982064Y-86771326D01*
X88002599Y-86802699D01*
X88016137Y-86836615D01*
X88019281Y-86857417D01*
X88138376Y-86857417D01*
X88137389Y-86847930D01*
X88120932Y-86782729D01*
X88095540Y-86726289D01*
X88082756Y-86706847D01*
X88042130Y-86664862D01*
X87993693Y-86635810D01*
X87940065Y-86619284D01*
X87883864Y-86614880D01*
X87827713Y-86622190D01*
G36*
X86387547Y-86616009D02*
X86347098Y-86618780D01*
X86317021Y-86623216D01*
X86290752Y-86631001D01*
X86261729Y-86643824D01*
X86243293Y-86653082D01*
X86213812Y-86668986D01*
X86190866Y-86682878D01*
X86178136Y-86692471D01*
X86176763Y-86694434D01*
X86180761Y-86704694D01*
X86193498Y-86723165D01*
X86210658Y-86744031D01*
X86246888Y-86785162D01*
X86292861Y-86761759D01*
X86335178Y-86745344D01*
X86381786Y-86735524D01*
X86427404Y-86732777D01*
X86466754Y-86737579D01*
X86485336Y-86744373D01*
X86508121Y-86763644D01*
X86519403Y-86788868D01*
X86518972Y-86815320D01*
X86506617Y-86838277D01*
X86490051Y-86850065D01*
X86471994Y-86855229D01*
X86441939Y-86860684D01*
X86404783Y-86865624D01*
X86381051Y-86868010D01*
X86340099Y-86872700D01*
X86301470Y-86879025D01*
X86270906Y-86885963D01*
X86259778Y-86889603D01*
X86217939Y-86914681D01*
X86186645Y-86950258D01*
X86166398Y-86993202D01*
X86157698Y-87040380D01*
X86161045Y-87088659D01*
X86176941Y-87134905D01*
X86205887Y-87175986D01*
X86212883Y-87182930D01*
X86255754Y-87213657D01*
X86308484Y-87233923D01*
X86373011Y-87244388D01*
X86397993Y-87245831D01*
X86446258Y-87245771D01*
X86487834Y-87242310D01*
X86512400Y-87237404D01*
X86556727Y-87221043D01*
X86603252Y-87198384D01*
X86644446Y-87173303D01*
X86660567Y-87161167D01*
X86685967Y-87140111D01*
X86644439Y-87097684D01*
X86602912Y-87055257D01*
X86565033Y-87081319D01*
X86504529Y-87112928D01*
X86438420Y-87128662D01*
X86405772Y-87130467D01*
X86355592Y-87125613D01*
X86318088Y-87111374D01*
X86293992Y-87088228D01*
X86284035Y-87056659D01*
X86283800Y-87050229D01*
X86286379Y-87030071D01*
X86295622Y-87014989D01*
X86313789Y-87003885D01*
X86343141Y-86995657D01*
X86385936Y-86989207D01*
X86415661Y-86986053D01*
X86487344Y-86975635D01*
X86544100Y-86959203D01*
X86587132Y-86935902D01*
X86617641Y-86904875D01*
X86636830Y-86865264D01*
X86645328Y-86822423D01*
X86643296Y-86766983D01*
X86626012Y-86717488D01*
X86594605Y-86675602D01*
X86550207Y-86642989D01*
X86512322Y-86626674D01*
X86483453Y-86618973D01*
X86452287Y-86615226D01*
X86413109Y-86614943D01*
X86387547Y-86616009D01*
X86387547Y-86616009D01*
G37*
X86387547Y-86616009D02*
X86347098Y-86618780D01*
X86317021Y-86623216D01*
X86290752Y-86631001D01*
X86261729Y-86643824D01*
X86243293Y-86653082D01*
X86213812Y-86668986D01*
X86190866Y-86682878D01*
X86178136Y-86692471D01*
X86176763Y-86694434D01*
X86180761Y-86704694D01*
X86193498Y-86723165D01*
X86210658Y-86744031D01*
X86246888Y-86785162D01*
X86292861Y-86761759D01*
X86335178Y-86745344D01*
X86381786Y-86735524D01*
X86427404Y-86732777D01*
X86466754Y-86737579D01*
X86485336Y-86744373D01*
X86508121Y-86763644D01*
X86519403Y-86788868D01*
X86518972Y-86815320D01*
X86506617Y-86838277D01*
X86490051Y-86850065D01*
X86471994Y-86855229D01*
X86441939Y-86860684D01*
X86404783Y-86865624D01*
X86381051Y-86868010D01*
X86340099Y-86872700D01*
X86301470Y-86879025D01*
X86270906Y-86885963D01*
X86259778Y-86889603D01*
X86217939Y-86914681D01*
X86186645Y-86950258D01*
X86166398Y-86993202D01*
X86157698Y-87040380D01*
X86161045Y-87088659D01*
X86176941Y-87134905D01*
X86205887Y-87175986D01*
X86212883Y-87182930D01*
X86255754Y-87213657D01*
X86308484Y-87233923D01*
X86373011Y-87244388D01*
X86397993Y-87245831D01*
X86446258Y-87245771D01*
X86487834Y-87242310D01*
X86512400Y-87237404D01*
X86556727Y-87221043D01*
X86603252Y-87198384D01*
X86644446Y-87173303D01*
X86660567Y-87161167D01*
X86685967Y-87140111D01*
X86644439Y-87097684D01*
X86602912Y-87055257D01*
X86565033Y-87081319D01*
X86504529Y-87112928D01*
X86438420Y-87128662D01*
X86405772Y-87130467D01*
X86355592Y-87125613D01*
X86318088Y-87111374D01*
X86293992Y-87088228D01*
X86284035Y-87056659D01*
X86283800Y-87050229D01*
X86286379Y-87030071D01*
X86295622Y-87014989D01*
X86313789Y-87003885D01*
X86343141Y-86995657D01*
X86385936Y-86989207D01*
X86415661Y-86986053D01*
X86487344Y-86975635D01*
X86544100Y-86959203D01*
X86587132Y-86935902D01*
X86617641Y-86904875D01*
X86636830Y-86865264D01*
X86645328Y-86822423D01*
X86643296Y-86766983D01*
X86626012Y-86717488D01*
X86594605Y-86675602D01*
X86550207Y-86642989D01*
X86512322Y-86626674D01*
X86483453Y-86618973D01*
X86452287Y-86615226D01*
X86413109Y-86614943D01*
X86387547Y-86616009D01*
G36*
X85807512Y-86615784D02*
X85741818Y-86627428D01*
X85685872Y-86652799D01*
X85640351Y-86691334D01*
X85605934Y-86742473D01*
X85584584Y-86800469D01*
X85576540Y-86846519D01*
X85572861Y-86900955D01*
X85573331Y-86958791D01*
X85577735Y-87015039D01*
X85585857Y-87064711D01*
X85597483Y-87102821D01*
X85597648Y-87103199D01*
X85629224Y-87155202D01*
X85672522Y-87196854D01*
X85725063Y-87227024D01*
X85784368Y-87244585D01*
X85847959Y-87248408D01*
X85899989Y-87240878D01*
X85953483Y-87219661D01*
X86001621Y-87183643D01*
X86042251Y-87134654D01*
X86059160Y-87105706D01*
X86068726Y-87077534D01*
X86076128Y-87036674D01*
X86081019Y-86987273D01*
X86083052Y-86933480D01*
X86083010Y-86931500D01*
X85957781Y-86931500D01*
X85957274Y-86975736D01*
X85955310Y-87007271D01*
X85951311Y-87030316D01*
X85944701Y-87049081D01*
X85940473Y-87057724D01*
X85914493Y-87090351D01*
X85878930Y-87112181D01*
X85838045Y-87122160D01*
X85796103Y-87119235D01*
X85758002Y-87102781D01*
X85734184Y-87083460D01*
X85717542Y-87060466D01*
X85706972Y-87030590D01*
X85701366Y-86990623D01*
X85699620Y-86937354D01*
X85699613Y-86933345D01*
X85700884Y-86880013D01*
X85705353Y-86839980D01*
X85713977Y-86809759D01*
X85727713Y-86785865D01*
X85745349Y-86766784D01*
X85772681Y-86751198D01*
X85809154Y-86742785D01*
X85848377Y-86741973D01*
X85883959Y-86749191D01*
X85899244Y-86756474D01*
X85923089Y-86775881D01*
X85939938Y-86801179D01*
X85950717Y-86835131D01*
X85956349Y-86880499D01*
X85957781Y-86931500D01*
X86083010Y-86931500D01*
X86081880Y-86879442D01*
X86080119Y-86855091D01*
X86068309Y-86788067D01*
X86045577Y-86732654D01*
X86010862Y-86686698D01*
X85986328Y-86664714D01*
X85941175Y-86636046D01*
X85892097Y-86619779D01*
X85834974Y-86614785D01*
X85807512Y-86615784D01*
X85807512Y-86615784D01*
G37*
X85807512Y-86615784D02*
X85741818Y-86627428D01*
X85685872Y-86652799D01*
X85640351Y-86691334D01*
X85605934Y-86742473D01*
X85584584Y-86800469D01*
X85576540Y-86846519D01*
X85572861Y-86900955D01*
X85573331Y-86958791D01*
X85577735Y-87015039D01*
X85585857Y-87064711D01*
X85597483Y-87102821D01*
X85597648Y-87103199D01*
X85629224Y-87155202D01*
X85672522Y-87196854D01*
X85725063Y-87227024D01*
X85784368Y-87244585D01*
X85847959Y-87248408D01*
X85899989Y-87240878D01*
X85953483Y-87219661D01*
X86001621Y-87183643D01*
X86042251Y-87134654D01*
X86059160Y-87105706D01*
X86068726Y-87077534D01*
X86076128Y-87036674D01*
X86081019Y-86987273D01*
X86083052Y-86933480D01*
X86083010Y-86931500D01*
X85957781Y-86931500D01*
X85957274Y-86975736D01*
X85955310Y-87007271D01*
X85951311Y-87030316D01*
X85944701Y-87049081D01*
X85940473Y-87057724D01*
X85914493Y-87090351D01*
X85878930Y-87112181D01*
X85838045Y-87122160D01*
X85796103Y-87119235D01*
X85758002Y-87102781D01*
X85734184Y-87083460D01*
X85717542Y-87060466D01*
X85706972Y-87030590D01*
X85701366Y-86990623D01*
X85699620Y-86937354D01*
X85699613Y-86933345D01*
X85700884Y-86880013D01*
X85705353Y-86839980D01*
X85713977Y-86809759D01*
X85727713Y-86785865D01*
X85745349Y-86766784D01*
X85772681Y-86751198D01*
X85809154Y-86742785D01*
X85848377Y-86741973D01*
X85883959Y-86749191D01*
X85899244Y-86756474D01*
X85923089Y-86775881D01*
X85939938Y-86801179D01*
X85950717Y-86835131D01*
X85956349Y-86880499D01*
X85957781Y-86931500D01*
X86083010Y-86931500D01*
X86081880Y-86879442D01*
X86080119Y-86855091D01*
X86068309Y-86788067D01*
X86045577Y-86732654D01*
X86010862Y-86686698D01*
X85986328Y-86664714D01*
X85941175Y-86636046D01*
X85892097Y-86619779D01*
X85834974Y-86614785D01*
X85807512Y-86615784D01*
G36*
X85335534Y-86830321D02*
X85335359Y-86901109D01*
X85334568Y-86957051D01*
X85332754Y-87000231D01*
X85329514Y-87032734D01*
X85324443Y-87056647D01*
X85317138Y-87074053D01*
X85307194Y-87087038D01*
X85294207Y-87097688D01*
X85282206Y-87105410D01*
X85244179Y-87119573D01*
X85201841Y-87121132D01*
X85161879Y-87110223D01*
X85148402Y-87102634D01*
X85132617Y-87091258D01*
X85120223Y-87079437D01*
X85110782Y-87065035D01*
X85103851Y-87045914D01*
X85098989Y-87019936D01*
X85095756Y-86984965D01*
X85093710Y-86938861D01*
X85092411Y-86879489D01*
X85091696Y-86827784D01*
X85089159Y-86622467D01*
X84963000Y-86622467D01*
X84963000Y-87240534D01*
X85090000Y-87240534D01*
X85090000Y-87210900D01*
X85091158Y-87191302D01*
X85094004Y-87181519D01*
X85094603Y-87181267D01*
X85103236Y-87186468D01*
X85118586Y-87199281D01*
X85121856Y-87202269D01*
X85162194Y-87228834D01*
X85211036Y-87244042D01*
X85263846Y-87247339D01*
X85316089Y-87238173D01*
X85340238Y-87228903D01*
X85381658Y-87202790D01*
X85417818Y-87167350D01*
X85444216Y-87127493D01*
X85452707Y-87106265D01*
X85456217Y-87084976D01*
X85458978Y-87047397D01*
X85460967Y-86994155D01*
X85462159Y-86925880D01*
X85462534Y-86847968D01*
X85462534Y-86622467D01*
X85335534Y-86622467D01*
X85335534Y-86830321D01*
X85335534Y-86830321D01*
G37*
X85335534Y-86830321D02*
X85335359Y-86901109D01*
X85334568Y-86957051D01*
X85332754Y-87000231D01*
X85329514Y-87032734D01*
X85324443Y-87056647D01*
X85317138Y-87074053D01*
X85307194Y-87087038D01*
X85294207Y-87097688D01*
X85282206Y-87105410D01*
X85244179Y-87119573D01*
X85201841Y-87121132D01*
X85161879Y-87110223D01*
X85148402Y-87102634D01*
X85132617Y-87091258D01*
X85120223Y-87079437D01*
X85110782Y-87065035D01*
X85103851Y-87045914D01*
X85098989Y-87019936D01*
X85095756Y-86984965D01*
X85093710Y-86938861D01*
X85092411Y-86879489D01*
X85091696Y-86827784D01*
X85089159Y-86622467D01*
X84963000Y-86622467D01*
X84963000Y-87240534D01*
X85090000Y-87240534D01*
X85090000Y-87210900D01*
X85091158Y-87191302D01*
X85094004Y-87181519D01*
X85094603Y-87181267D01*
X85103236Y-87186468D01*
X85118586Y-87199281D01*
X85121856Y-87202269D01*
X85162194Y-87228834D01*
X85211036Y-87244042D01*
X85263846Y-87247339D01*
X85316089Y-87238173D01*
X85340238Y-87228903D01*
X85381658Y-87202790D01*
X85417818Y-87167350D01*
X85444216Y-87127493D01*
X85452707Y-87106265D01*
X85456217Y-87084976D01*
X85458978Y-87047397D01*
X85460967Y-86994155D01*
X85462159Y-86925880D01*
X85462534Y-86847968D01*
X85462534Y-86622467D01*
X85335534Y-86622467D01*
X85335534Y-86830321D01*
G36*
X84101923Y-86618838D02*
X84073741Y-86621142D01*
X84051899Y-86626178D01*
X84031111Y-86634937D01*
X84018967Y-86641289D01*
X83988476Y-86659655D01*
X83958845Y-86680356D01*
X83947000Y-86689854D01*
X83917367Y-86715447D01*
X83961702Y-86758348D01*
X84006038Y-86801249D01*
X84040889Y-86773241D01*
X84059811Y-86759002D01*
X84076274Y-86750634D01*
X84095869Y-86746588D01*
X84124187Y-86745314D01*
X84141983Y-86745234D01*
X84187541Y-86747655D01*
X84220757Y-86756433D01*
X84245725Y-86773844D01*
X84266537Y-86802159D01*
X84275930Y-86819650D01*
X84286652Y-86844734D01*
X84292795Y-86870706D01*
X84295451Y-86903650D01*
X84295827Y-86930375D01*
X84291317Y-86993963D01*
X84277427Y-87043835D01*
X84253613Y-87080715D01*
X84219336Y-87105332D01*
X84174052Y-87118410D01*
X84154001Y-87120496D01*
X84104107Y-87118458D01*
X84062383Y-87104124D01*
X84025167Y-87077060D01*
X84005968Y-87059501D01*
X83966058Y-87097101D01*
X83944993Y-87116754D01*
X83929164Y-87131162D01*
X83922336Y-87136944D01*
X83923654Y-87144212D01*
X83935762Y-87158048D01*
X83955346Y-87175648D01*
X83979093Y-87194211D01*
X84003688Y-87210932D01*
X84021920Y-87221183D01*
X84076235Y-87239788D01*
X84136949Y-87247503D01*
X84197487Y-87243987D01*
X84242049Y-87232609D01*
X84300811Y-87202868D01*
X84348127Y-87161054D01*
X84385218Y-87106054D01*
X84388962Y-87098673D01*
X84400407Y-87074751D01*
X84408203Y-87055048D01*
X84413051Y-87035383D01*
X84415651Y-87011576D01*
X84416700Y-86979446D01*
X84416900Y-86934812D01*
X84416900Y-86931678D01*
X84416629Y-86885166D01*
X84415435Y-86851518D01*
X84412749Y-86826672D01*
X84408001Y-86806562D01*
X84400623Y-86787125D01*
X84394877Y-86774480D01*
X84361932Y-86717867D01*
X84321697Y-86674788D01*
X84271613Y-86642519D01*
X84270271Y-86641856D01*
X84244844Y-86630368D01*
X84222019Y-86623316D01*
X84196138Y-86619661D01*
X84161538Y-86618365D01*
X84141733Y-86618274D01*
X84101923Y-86618838D01*
X84101923Y-86618838D01*
G37*
X84101923Y-86618838D02*
X84073741Y-86621142D01*
X84051899Y-86626178D01*
X84031111Y-86634937D01*
X84018967Y-86641289D01*
X83988476Y-86659655D01*
X83958845Y-86680356D01*
X83947000Y-86689854D01*
X83917367Y-86715447D01*
X83961702Y-86758348D01*
X84006038Y-86801249D01*
X84040889Y-86773241D01*
X84059811Y-86759002D01*
X84076274Y-86750634D01*
X84095869Y-86746588D01*
X84124187Y-86745314D01*
X84141983Y-86745234D01*
X84187541Y-86747655D01*
X84220757Y-86756433D01*
X84245725Y-86773844D01*
X84266537Y-86802159D01*
X84275930Y-86819650D01*
X84286652Y-86844734D01*
X84292795Y-86870706D01*
X84295451Y-86903650D01*
X84295827Y-86930375D01*
X84291317Y-86993963D01*
X84277427Y-87043835D01*
X84253613Y-87080715D01*
X84219336Y-87105332D01*
X84174052Y-87118410D01*
X84154001Y-87120496D01*
X84104107Y-87118458D01*
X84062383Y-87104124D01*
X84025167Y-87077060D01*
X84005968Y-87059501D01*
X83966058Y-87097101D01*
X83944993Y-87116754D01*
X83929164Y-87131162D01*
X83922336Y-87136944D01*
X83923654Y-87144212D01*
X83935762Y-87158048D01*
X83955346Y-87175648D01*
X83979093Y-87194211D01*
X84003688Y-87210932D01*
X84021920Y-87221183D01*
X84076235Y-87239788D01*
X84136949Y-87247503D01*
X84197487Y-87243987D01*
X84242049Y-87232609D01*
X84300811Y-87202868D01*
X84348127Y-87161054D01*
X84385218Y-87106054D01*
X84388962Y-87098673D01*
X84400407Y-87074751D01*
X84408203Y-87055048D01*
X84413051Y-87035383D01*
X84415651Y-87011576D01*
X84416700Y-86979446D01*
X84416900Y-86934812D01*
X84416900Y-86931678D01*
X84416629Y-86885166D01*
X84415435Y-86851518D01*
X84412749Y-86826672D01*
X84408001Y-86806562D01*
X84400623Y-86787125D01*
X84394877Y-86774480D01*
X84361932Y-86717867D01*
X84321697Y-86674788D01*
X84271613Y-86642519D01*
X84270271Y-86641856D01*
X84244844Y-86630368D01*
X84222019Y-86623316D01*
X84196138Y-86619661D01*
X84161538Y-86618365D01*
X84141733Y-86618274D01*
X84101923Y-86618838D01*
G36*
X83590123Y-86619057D02*
X83561940Y-86621815D01*
X83539243Y-86627730D01*
X83516320Y-86637889D01*
X83510205Y-86641051D01*
X83460094Y-86674086D01*
X83422252Y-86714882D01*
X83395703Y-86765219D01*
X83379472Y-86826876D01*
X83372976Y-86891284D01*
X83369047Y-86978067D01*
X83760733Y-86978067D01*
X83760733Y-86997440D01*
X83755239Y-87023226D01*
X83741149Y-87054318D01*
X83722057Y-87084266D01*
X83701552Y-87106616D01*
X83698729Y-87108805D01*
X83681252Y-87118612D01*
X83659243Y-87124027D01*
X83627494Y-87126101D01*
X83612637Y-87126234D01*
X83578469Y-87125467D01*
X83554869Y-87122049D01*
X83535497Y-87114303D01*
X83514016Y-87100552D01*
X83513089Y-87099900D01*
X83493849Y-87086678D01*
X83479852Y-87080438D01*
X83466858Y-87082103D01*
X83450622Y-87092592D01*
X83426902Y-87112828D01*
X83418190Y-87120498D01*
X83386210Y-87148630D01*
X83410231Y-87173702D01*
X83456192Y-87209610D01*
X83513255Y-87233638D01*
X83579894Y-87245188D01*
X83594717Y-87245964D01*
X83630753Y-87246227D01*
X83663324Y-87244850D01*
X83686244Y-87242124D01*
X83688767Y-87241539D01*
X83748953Y-87218051D01*
X83798092Y-87182089D01*
X83836387Y-87133397D01*
X83864041Y-87071718D01*
X83880639Y-87000893D01*
X83886022Y-86928139D01*
X83881800Y-86876467D01*
X83762618Y-86876467D01*
X83630442Y-86876467D01*
X83580555Y-86876401D01*
X83545130Y-86875965D01*
X83521697Y-86874804D01*
X83507785Y-86872559D01*
X83500923Y-86868876D01*
X83498641Y-86863396D01*
X83498453Y-86857417D01*
X83504944Y-86825859D01*
X83521175Y-86791978D01*
X83543102Y-86762950D01*
X83559158Y-86749673D01*
X83595230Y-86736068D01*
X83637170Y-86732693D01*
X83677629Y-86739575D01*
X83698939Y-86749124D01*
X83729343Y-86776727D01*
X83749572Y-86816766D01*
X83756717Y-86845009D01*
X83762618Y-86876467D01*
X83881800Y-86876467D01*
X83880203Y-86856925D01*
X83863999Y-86790626D01*
X83838227Y-86732618D01*
X83804766Y-86687366D01*
X83770346Y-86655689D01*
X83736750Y-86635020D01*
X83698904Y-86623361D01*
X83651734Y-86618715D01*
X83629500Y-86618372D01*
X83590123Y-86619057D01*
X83590123Y-86619057D01*
G37*
X83590123Y-86619057D02*
X83561940Y-86621815D01*
X83539243Y-86627730D01*
X83516320Y-86637889D01*
X83510205Y-86641051D01*
X83460094Y-86674086D01*
X83422252Y-86714882D01*
X83395703Y-86765219D01*
X83379472Y-86826876D01*
X83372976Y-86891284D01*
X83369047Y-86978067D01*
X83760733Y-86978067D01*
X83760733Y-86997440D01*
X83755239Y-87023226D01*
X83741149Y-87054318D01*
X83722057Y-87084266D01*
X83701552Y-87106616D01*
X83698729Y-87108805D01*
X83681252Y-87118612D01*
X83659243Y-87124027D01*
X83627494Y-87126101D01*
X83612637Y-87126234D01*
X83578469Y-87125467D01*
X83554869Y-87122049D01*
X83535497Y-87114303D01*
X83514016Y-87100552D01*
X83513089Y-87099900D01*
X83493849Y-87086678D01*
X83479852Y-87080438D01*
X83466858Y-87082103D01*
X83450622Y-87092592D01*
X83426902Y-87112828D01*
X83418190Y-87120498D01*
X83386210Y-87148630D01*
X83410231Y-87173702D01*
X83456192Y-87209610D01*
X83513255Y-87233638D01*
X83579894Y-87245188D01*
X83594717Y-87245964D01*
X83630753Y-87246227D01*
X83663324Y-87244850D01*
X83686244Y-87242124D01*
X83688767Y-87241539D01*
X83748953Y-87218051D01*
X83798092Y-87182089D01*
X83836387Y-87133397D01*
X83864041Y-87071718D01*
X83880639Y-87000893D01*
X83886022Y-86928139D01*
X83881800Y-86876467D01*
X83762618Y-86876467D01*
X83630442Y-86876467D01*
X83580555Y-86876401D01*
X83545130Y-86875965D01*
X83521697Y-86874804D01*
X83507785Y-86872559D01*
X83500923Y-86868876D01*
X83498641Y-86863396D01*
X83498453Y-86857417D01*
X83504944Y-86825859D01*
X83521175Y-86791978D01*
X83543102Y-86762950D01*
X83559158Y-86749673D01*
X83595230Y-86736068D01*
X83637170Y-86732693D01*
X83677629Y-86739575D01*
X83698939Y-86749124D01*
X83729343Y-86776727D01*
X83749572Y-86816766D01*
X83756717Y-86845009D01*
X83762618Y-86876467D01*
X83881800Y-86876467D01*
X83880203Y-86856925D01*
X83863999Y-86790626D01*
X83838227Y-86732618D01*
X83804766Y-86687366D01*
X83770346Y-86655689D01*
X83736750Y-86635020D01*
X83698904Y-86623361D01*
X83651734Y-86618715D01*
X83629500Y-86618372D01*
X83590123Y-86619057D01*
G36*
X87199445Y-86616720D02*
X87168567Y-86623329D01*
X87138065Y-86637927D01*
X87105260Y-86663496D01*
X87074628Y-86695490D01*
X87050644Y-86729362D01*
X87039272Y-86754682D01*
X87035478Y-86776013D01*
X87032563Y-86811969D01*
X87030504Y-86863121D01*
X87029280Y-86930039D01*
X87028867Y-87013291D01*
X87028867Y-87240534D01*
X87155867Y-87240534D01*
X87155867Y-87032680D01*
X87156041Y-86961891D01*
X87156833Y-86905950D01*
X87158647Y-86862770D01*
X87161887Y-86830266D01*
X87166957Y-86806354D01*
X87174262Y-86788948D01*
X87184206Y-86775962D01*
X87197193Y-86765312D01*
X87209195Y-86757591D01*
X87245894Y-86744154D01*
X87280456Y-86741032D01*
X87310276Y-86742826D01*
X87331772Y-86750239D01*
X87353345Y-86766232D01*
X87354333Y-86767097D01*
X87375625Y-86791264D01*
X87390673Y-86818265D01*
X87392681Y-86824247D01*
X87395192Y-86841643D01*
X87397419Y-86873057D01*
X87399251Y-86915574D01*
X87400572Y-86966279D01*
X87401272Y-87022258D01*
X87401353Y-87047917D01*
X87401400Y-87240534D01*
X87528400Y-87240534D01*
X87528400Y-86622467D01*
X87401400Y-86622467D01*
X87401400Y-86682595D01*
X87373428Y-86661260D01*
X87319524Y-86630041D01*
X87261356Y-86615162D01*
X87199445Y-86616720D01*
X87199445Y-86616720D01*
G37*
X87199445Y-86616720D02*
X87168567Y-86623329D01*
X87138065Y-86637927D01*
X87105260Y-86663496D01*
X87074628Y-86695490D01*
X87050644Y-86729362D01*
X87039272Y-86754682D01*
X87035478Y-86776013D01*
X87032563Y-86811969D01*
X87030504Y-86863121D01*
X87029280Y-86930039D01*
X87028867Y-87013291D01*
X87028867Y-87240534D01*
X87155867Y-87240534D01*
X87155867Y-87032680D01*
X87156041Y-86961891D01*
X87156833Y-86905950D01*
X87158647Y-86862770D01*
X87161887Y-86830266D01*
X87166957Y-86806354D01*
X87174262Y-86788948D01*
X87184206Y-86775962D01*
X87197193Y-86765312D01*
X87209195Y-86757591D01*
X87245894Y-86744154D01*
X87280456Y-86741032D01*
X87310276Y-86742826D01*
X87331772Y-86750239D01*
X87353345Y-86766232D01*
X87354333Y-86767097D01*
X87375625Y-86791264D01*
X87390673Y-86818265D01*
X87392681Y-86824247D01*
X87395192Y-86841643D01*
X87397419Y-86873057D01*
X87399251Y-86915574D01*
X87400572Y-86966279D01*
X87401272Y-87022258D01*
X87401353Y-87047917D01*
X87401400Y-87240534D01*
X87528400Y-87240534D01*
X87528400Y-86622467D01*
X87401400Y-86622467D01*
X87401400Y-86682595D01*
X87373428Y-86661260D01*
X87319524Y-86630041D01*
X87261356Y-86615162D01*
X87199445Y-86616720D01*
G36*
X84504052Y-86617560D02*
X84470877Y-86626060D01*
X84441459Y-86637791D01*
X84421345Y-86650813D01*
X84417411Y-86655507D01*
X84419849Y-86665863D01*
X84431518Y-86684928D01*
X84450088Y-86709038D01*
X84455473Y-86715352D01*
X84477579Y-86740382D01*
X84492145Y-86754583D01*
X84502706Y-86759938D01*
X84512797Y-86758429D01*
X84523319Y-86753397D01*
X84554188Y-86744010D01*
X84591374Y-86741639D01*
X84626337Y-86746397D01*
X84641013Y-86751832D01*
X84659546Y-86765891D01*
X84678293Y-86786907D01*
X84681229Y-86791059D01*
X84687202Y-86800480D01*
X84691795Y-86810285D01*
X84695191Y-86822713D01*
X84697570Y-86840001D01*
X84699112Y-86864388D01*
X84699999Y-86898112D01*
X84700411Y-86943411D01*
X84700528Y-87002522D01*
X84700533Y-87030119D01*
X84700533Y-87240534D01*
X84827533Y-87240534D01*
X84827533Y-86622467D01*
X84700533Y-86622467D01*
X84700533Y-86683488D01*
X84671132Y-86657672D01*
X84630620Y-86631480D01*
X84581439Y-86617371D01*
X84535433Y-86614233D01*
X84504052Y-86617560D01*
X84504052Y-86617560D01*
G37*
X84504052Y-86617560D02*
X84470877Y-86626060D01*
X84441459Y-86637791D01*
X84421345Y-86650813D01*
X84417411Y-86655507D01*
X84419849Y-86665863D01*
X84431518Y-86684928D01*
X84450088Y-86709038D01*
X84455473Y-86715352D01*
X84477579Y-86740382D01*
X84492145Y-86754583D01*
X84502706Y-86759938D01*
X84512797Y-86758429D01*
X84523319Y-86753397D01*
X84554188Y-86744010D01*
X84591374Y-86741639D01*
X84626337Y-86746397D01*
X84641013Y-86751832D01*
X84659546Y-86765891D01*
X84678293Y-86786907D01*
X84681229Y-86791059D01*
X84687202Y-86800480D01*
X84691795Y-86810285D01*
X84695191Y-86822713D01*
X84697570Y-86840001D01*
X84699112Y-86864388D01*
X84699999Y-86898112D01*
X84700411Y-86943411D01*
X84700528Y-87002522D01*
X84700533Y-87030119D01*
X84700533Y-87240534D01*
X84827533Y-87240534D01*
X84827533Y-86622467D01*
X84700533Y-86622467D01*
X84700533Y-86683488D01*
X84671132Y-86657672D01*
X84630620Y-86631480D01*
X84581439Y-86617371D01*
X84535433Y-86614233D01*
X84504052Y-86617560D01*
G36*
X86271481Y-81957564D02*
X86196009Y-81958244D01*
X86134872Y-81959358D01*
X86088677Y-81960890D01*
X86058032Y-81962823D01*
X86043544Y-81965141D01*
X86042476Y-81965839D01*
X86039753Y-81975880D01*
X86034362Y-82000629D01*
X86026689Y-82038135D01*
X86017121Y-82086450D01*
X86006044Y-82143625D01*
X85993845Y-82207711D01*
X85982443Y-82268522D01*
X85969558Y-82337445D01*
X85957487Y-82401495D01*
X85946616Y-82458664D01*
X85937330Y-82506944D01*
X85930015Y-82544328D01*
X85925057Y-82568808D01*
X85922965Y-82578033D01*
X85911841Y-82593439D01*
X85899949Y-82601169D01*
X85887281Y-82606437D01*
X85861289Y-82617151D01*
X85824323Y-82632344D01*
X85778731Y-82651052D01*
X85726863Y-82672309D01*
X85683196Y-82690188D01*
X85619046Y-82716203D01*
X85568712Y-82736003D01*
X85530497Y-82750164D01*
X85502705Y-82759259D01*
X85483640Y-82763866D01*
X85471604Y-82764559D01*
X85467242Y-82763424D01*
X85456257Y-82756835D01*
X85433117Y-82741797D01*
X85399590Y-82719496D01*
X85357444Y-82691123D01*
X85308446Y-82657865D01*
X85254365Y-82620910D01*
X85214826Y-82593751D01*
X85147173Y-82547184D01*
X85092089Y-82509348D01*
X85048173Y-82479396D01*
X85014030Y-82456483D01*
X84988262Y-82439763D01*
X84969470Y-82428389D01*
X84956257Y-82421516D01*
X84947225Y-82418297D01*
X84940977Y-82417887D01*
X84936115Y-82419440D01*
X84931250Y-82422104D01*
X84921937Y-82429875D01*
X84902213Y-82448241D01*
X84873568Y-82475751D01*
X84837492Y-82510952D01*
X84795473Y-82552395D01*
X84749003Y-82598626D01*
X84711117Y-82636582D01*
X84647331Y-82701162D01*
X84595708Y-82754504D01*
X84555997Y-82796884D01*
X84527943Y-82828578D01*
X84511295Y-82849863D01*
X84505800Y-82861015D01*
X84505800Y-82861017D01*
X84510456Y-82872029D01*
X84523692Y-82895223D01*
X84544415Y-82928882D01*
X84571529Y-82971291D01*
X84603940Y-83020734D01*
X84640553Y-83075495D01*
X84675133Y-83126365D01*
X84714490Y-83184246D01*
X84750608Y-83238176D01*
X84782395Y-83286462D01*
X84808759Y-83327409D01*
X84828609Y-83359325D01*
X84840852Y-83380517D01*
X84844467Y-83388949D01*
X84841156Y-83401665D01*
X84831945Y-83427136D01*
X84817916Y-83462856D01*
X84800153Y-83506323D01*
X84779738Y-83555033D01*
X84757754Y-83606480D01*
X84735283Y-83658162D01*
X84713408Y-83707574D01*
X84693212Y-83752212D01*
X84675778Y-83789573D01*
X84662187Y-83817152D01*
X84653524Y-83832445D01*
X84651836Y-83834448D01*
X84647847Y-83837456D01*
X84642940Y-83840209D01*
X84635498Y-83843048D01*
X84623902Y-83846309D01*
X84606537Y-83850332D01*
X84581783Y-83855456D01*
X84548024Y-83862019D01*
X84503642Y-83870361D01*
X84447020Y-83880819D01*
X84376540Y-83893733D01*
X84315300Y-83904925D01*
X84253196Y-83916416D01*
X84195821Y-83927304D01*
X84145499Y-83937127D01*
X84104552Y-83945423D01*
X84075302Y-83951730D01*
X84060071Y-83955585D01*
X84059183Y-83955905D01*
X84040133Y-83963570D01*
X84040133Y-84276519D01*
X84040346Y-84356955D01*
X84040963Y-84427881D01*
X84041950Y-84487979D01*
X84043274Y-84535936D01*
X84044902Y-84570433D01*
X84046801Y-84590157D01*
X84048142Y-84594417D01*
X84058117Y-84597072D01*
X84082750Y-84602333D01*
X84120035Y-84609808D01*
X84167963Y-84619107D01*
X84224528Y-84629839D01*
X84287722Y-84641612D01*
X84333892Y-84650093D01*
X84400974Y-84662465D01*
X84463242Y-84674178D01*
X84518603Y-84684821D01*
X84564962Y-84693982D01*
X84600227Y-84701251D01*
X84622303Y-84706214D01*
X84628640Y-84708031D01*
X84636316Y-84717670D01*
X84648830Y-84740797D01*
X84665201Y-84774998D01*
X84684452Y-84817857D01*
X84705600Y-84866960D01*
X84727668Y-84919891D01*
X84749674Y-84974237D01*
X84770641Y-85027582D01*
X84789586Y-85077511D01*
X84805532Y-85121611D01*
X84817498Y-85157466D01*
X84824505Y-85182661D01*
X84825810Y-85194000D01*
X84820267Y-85205320D01*
X84806207Y-85228732D01*
X84784798Y-85262440D01*
X84757209Y-85304648D01*
X84724611Y-85353557D01*
X84688171Y-85407373D01*
X84664010Y-85442637D01*
X84625941Y-85498408D01*
X84591164Y-85550241D01*
X84560816Y-85596371D01*
X84536034Y-85635034D01*
X84517955Y-85664467D01*
X84507715Y-85682906D01*
X84505800Y-85688109D01*
X84511645Y-85697847D01*
X84528070Y-85717615D01*
X84553413Y-85745745D01*
X84586013Y-85780571D01*
X84624208Y-85820427D01*
X84666335Y-85863646D01*
X84710733Y-85908562D01*
X84755740Y-85953508D01*
X84799692Y-85996819D01*
X84840930Y-86036827D01*
X84877789Y-86071867D01*
X84908609Y-86100271D01*
X84931728Y-86120374D01*
X84945482Y-86130509D01*
X84947926Y-86131400D01*
X84958234Y-86126750D01*
X84980677Y-86113555D01*
X85013497Y-86092952D01*
X85054935Y-86066074D01*
X85103234Y-86034058D01*
X85156634Y-85998038D01*
X85192237Y-85973708D01*
X85248136Y-85935697D01*
X85300239Y-85900980D01*
X85346754Y-85870699D01*
X85385889Y-85845992D01*
X85415850Y-85828000D01*
X85434846Y-85817860D01*
X85440348Y-85816017D01*
X85454318Y-85819911D01*
X85479757Y-85830589D01*
X85513369Y-85846541D01*
X85551862Y-85866258D01*
X85562808Y-85872108D01*
X85600986Y-85892420D01*
X85634007Y-85909454D01*
X85658944Y-85921740D01*
X85672874Y-85927810D01*
X85674507Y-85928200D01*
X85677095Y-85927776D01*
X85679997Y-85925773D01*
X85683693Y-85921096D01*
X85688660Y-85912651D01*
X85695377Y-85899341D01*
X85704321Y-85880073D01*
X85715970Y-85853750D01*
X85730803Y-85819278D01*
X85749296Y-85775562D01*
X85771930Y-85721506D01*
X85799180Y-85656016D01*
X85831526Y-85577996D01*
X85869445Y-85486352D01*
X85906524Y-85396662D01*
X85948102Y-85295636D01*
X85985408Y-85204102D01*
X86018122Y-85122879D01*
X86045926Y-85052783D01*
X86068500Y-84994632D01*
X86085524Y-84949243D01*
X86096679Y-84917433D01*
X86101646Y-84900020D01*
X86101788Y-84897129D01*
X86092537Y-84886082D01*
X86072490Y-84869493D01*
X86045445Y-84850410D01*
X86036235Y-84844467D01*
X85986208Y-84808588D01*
X85934130Y-84763819D01*
X85884106Y-84714263D01*
X85840242Y-84664023D01*
X85806643Y-84617200D01*
X85803275Y-84611634D01*
X85758149Y-84519297D01*
X85728592Y-84423205D01*
X85714288Y-84325131D01*
X85714923Y-84226847D01*
X85730180Y-84130129D01*
X85759744Y-84036748D01*
X85803300Y-83948479D01*
X85860531Y-83867094D01*
X85931124Y-83794368D01*
X85951749Y-83776998D01*
X86036768Y-83718877D01*
X86128499Y-83675425D01*
X86225014Y-83646861D01*
X86324382Y-83633406D01*
X86424672Y-83635281D01*
X86523954Y-83652706D01*
X86620299Y-83685901D01*
X86645822Y-83697725D01*
X86734157Y-83750058D01*
X86811407Y-83814108D01*
X86876896Y-83888238D01*
X86929944Y-83970806D01*
X86969876Y-84060174D01*
X86996011Y-84154701D01*
X87007674Y-84252747D01*
X87004185Y-84352673D01*
X86984868Y-84452838D01*
X86973385Y-84490184D01*
X86935043Y-84579294D01*
X86882665Y-84661591D01*
X86815500Y-84738021D01*
X86732799Y-84809528D01*
X86702245Y-84832012D01*
X86669942Y-84855501D01*
X86643012Y-84876197D01*
X86624360Y-84891791D01*
X86616956Y-84899776D01*
X86619590Y-84908626D01*
X86628051Y-84931515D01*
X86641685Y-84966837D01*
X86659838Y-85012984D01*
X86681855Y-85068352D01*
X86707082Y-85131335D01*
X86734864Y-85200326D01*
X86764549Y-85273720D01*
X86795480Y-85349912D01*
X86827005Y-85427294D01*
X86858468Y-85504262D01*
X86889216Y-85579210D01*
X86918595Y-85650531D01*
X86945949Y-85716620D01*
X86970626Y-85775871D01*
X86991969Y-85826679D01*
X87009327Y-85867436D01*
X87022043Y-85896539D01*
X87029464Y-85912379D01*
X87029656Y-85912741D01*
X87039652Y-85925361D01*
X87045574Y-85928200D01*
X87055435Y-85924374D01*
X87077221Y-85913873D01*
X87108010Y-85898167D01*
X87144879Y-85878723D01*
X87157193Y-85872108D01*
X87196462Y-85851622D01*
X87231771Y-85834489D01*
X87259819Y-85822219D01*
X87277305Y-85816321D01*
X87279810Y-85816017D01*
X87291135Y-85820677D01*
X87314575Y-85833911D01*
X87348358Y-85854598D01*
X87390715Y-85881614D01*
X87439877Y-85913841D01*
X87494074Y-85950155D01*
X87528666Y-85973708D01*
X87584451Y-86011636D01*
X87636212Y-86046285D01*
X87682197Y-86076525D01*
X87720653Y-86101224D01*
X87749828Y-86119251D01*
X87767967Y-86129475D01*
X87772974Y-86131400D01*
X87781993Y-86125586D01*
X87801459Y-86109037D01*
X87829947Y-86083096D01*
X87866033Y-86049104D01*
X87908292Y-86008403D01*
X87955301Y-85962334D01*
X88005635Y-85912239D01*
X88005667Y-85912206D01*
X88063077Y-85854512D01*
X88109485Y-85807504D01*
X88145958Y-85769985D01*
X88173559Y-85740758D01*
X88193353Y-85718627D01*
X88206403Y-85702395D01*
X88213774Y-85690866D01*
X88216531Y-85682843D01*
X88215736Y-85677130D01*
X88215381Y-85676407D01*
X88208523Y-85665549D01*
X88193262Y-85642577D01*
X88170826Y-85609304D01*
X88142447Y-85567541D01*
X88109352Y-85519102D01*
X88072773Y-85465798D01*
X88052455Y-85436284D01*
X88014726Y-85381171D01*
X87980118Y-85329912D01*
X87949817Y-85284321D01*
X87925010Y-85246211D01*
X87906883Y-85217394D01*
X87896623Y-85199683D01*
X87894776Y-85195397D01*
X87896888Y-85182969D01*
X87904691Y-85157435D01*
X87917209Y-85121254D01*
X87933464Y-85076884D01*
X87952478Y-85026784D01*
X87973275Y-84973413D01*
X87994877Y-84919229D01*
X88016308Y-84866692D01*
X88036588Y-84818259D01*
X88054743Y-84776391D01*
X88069793Y-84743545D01*
X88080762Y-84722180D01*
X88085613Y-84715262D01*
X88097673Y-84710484D01*
X88124857Y-84703237D01*
X88165594Y-84693863D01*
X88218309Y-84682700D01*
X88281430Y-84670092D01*
X88353383Y-84656377D01*
X88381980Y-84651081D01*
X88449078Y-84638651D01*
X88510931Y-84627004D01*
X88565550Y-84616530D01*
X88610945Y-84607618D01*
X88645127Y-84600657D01*
X88666107Y-84596036D01*
X88671963Y-84594352D01*
X88673945Y-84584840D01*
X88675701Y-84559842D01*
X88677196Y-84520804D01*
X88678395Y-84469171D01*
X88679260Y-84406390D01*
X88679757Y-84333905D01*
X88679867Y-84276519D01*
X88679867Y-84075346D01*
X88561334Y-84075346D01*
X88561334Y-84289515D01*
X88561333Y-84503684D01*
X88533817Y-84509253D01*
X88523411Y-84511321D01*
X88508772Y-84514157D01*
X88488303Y-84518059D01*
X88460411Y-84523328D01*
X88423500Y-84530263D01*
X88375974Y-84539164D01*
X88316239Y-84550331D01*
X88242700Y-84564064D01*
X88174530Y-84576788D01*
X88114940Y-84588755D01*
X88069518Y-84600146D01*
X88035575Y-84612023D01*
X88010427Y-84625447D01*
X87991385Y-84641481D01*
X87981587Y-84653042D01*
X87972066Y-84669457D01*
X87957683Y-84699233D01*
X87939454Y-84739850D01*
X87918391Y-84788787D01*
X87895507Y-84843523D01*
X87871816Y-84901538D01*
X87848331Y-84960312D01*
X87826066Y-85017322D01*
X87806033Y-85070050D01*
X87789246Y-85115974D01*
X87776719Y-85152573D01*
X87769464Y-85177327D01*
X87768199Y-85183854D01*
X87766920Y-85201522D01*
X87768171Y-85219064D01*
X87772850Y-85238190D01*
X87781855Y-85260615D01*
X87796086Y-85288051D01*
X87816441Y-85322212D01*
X87843818Y-85364809D01*
X87879116Y-85417556D01*
X87923233Y-85482166D01*
X87929369Y-85491099D01*
X87963961Y-85541630D01*
X87995182Y-85587619D01*
X88021802Y-85627222D01*
X88042592Y-85658598D01*
X88056321Y-85679902D01*
X88061759Y-85689293D01*
X88061800Y-85689495D01*
X88056027Y-85698063D01*
X88040030Y-85716047D01*
X88015790Y-85741519D01*
X87985290Y-85772551D01*
X87950511Y-85807215D01*
X87913436Y-85843583D01*
X87876047Y-85879727D01*
X87840325Y-85913720D01*
X87808252Y-85943633D01*
X87781811Y-85967538D01*
X87762983Y-85983508D01*
X87753751Y-85989614D01*
X87753321Y-85989562D01*
X87744202Y-85983485D01*
X87723046Y-85969095D01*
X87691756Y-85947696D01*
X87652233Y-85920591D01*
X87606380Y-85889082D01*
X87556098Y-85854473D01*
X87554332Y-85853256D01*
X87496195Y-85813773D01*
X87443370Y-85779003D01*
X87397689Y-85750091D01*
X87360984Y-85728178D01*
X87335085Y-85714409D01*
X87325732Y-85710602D01*
X87295147Y-85703872D01*
X87265545Y-85704021D01*
X87232786Y-85711853D01*
X87192731Y-85728169D01*
X87164456Y-85741872D01*
X87099880Y-85774340D01*
X86763406Y-84960468D01*
X86784926Y-84942684D01*
X86803269Y-84927962D01*
X86828906Y-84907907D01*
X86850834Y-84891034D01*
X86913177Y-84834750D01*
X86971628Y-84765329D01*
X87023927Y-84686488D01*
X87067811Y-84601943D01*
X87101019Y-84515413D01*
X87117197Y-84453240D01*
X87126258Y-84389767D01*
X87130253Y-84317814D01*
X87129250Y-84243681D01*
X87123319Y-84173667D01*
X87113514Y-84118079D01*
X87079461Y-84010717D01*
X87031004Y-83910131D01*
X86969410Y-83817880D01*
X86895951Y-83735523D01*
X86811896Y-83664620D01*
X86718515Y-83606730D01*
X86682992Y-83589436D01*
X86582429Y-83552783D01*
X86476125Y-83530536D01*
X86366892Y-83522653D01*
X86257541Y-83529090D01*
X86150885Y-83549804D01*
X86049735Y-83584752D01*
X86017470Y-83599684D01*
X85943364Y-83642847D01*
X85869846Y-83697419D01*
X85802729Y-83758711D01*
X85757689Y-83809257D01*
X85721748Y-83860008D01*
X85685852Y-83920654D01*
X85652999Y-83985373D01*
X85626180Y-84048341D01*
X85610634Y-84095167D01*
X85602994Y-84133345D01*
X85597038Y-84183337D01*
X85592972Y-84240084D01*
X85590999Y-84298531D01*
X85591325Y-84353622D01*
X85594154Y-84400300D01*
X85597338Y-84423238D01*
X85626626Y-84534494D01*
X85670744Y-84639488D01*
X85728676Y-84736523D01*
X85799402Y-84823904D01*
X85881905Y-84899934D01*
X85885064Y-84902424D01*
X85913599Y-84925286D01*
X85936351Y-84944456D01*
X85950494Y-84957494D01*
X85953759Y-84961690D01*
X85950651Y-84970363D01*
X85941667Y-84993194D01*
X85927411Y-85028701D01*
X85908486Y-85075399D01*
X85885498Y-85131802D01*
X85859050Y-85196427D01*
X85829745Y-85267788D01*
X85798189Y-85344402D01*
X85787252Y-85370904D01*
X85620586Y-85774574D01*
X85552143Y-85739797D01*
X85497085Y-85715912D01*
X85449832Y-85704949D01*
X85407570Y-85706642D01*
X85367486Y-85720725D01*
X85364891Y-85722061D01*
X85348909Y-85731584D01*
X85321285Y-85749280D01*
X85284276Y-85773653D01*
X85240138Y-85803203D01*
X85191127Y-85836432D01*
X85145180Y-85867927D01*
X84959061Y-85996169D01*
X84806847Y-85843955D01*
X84654632Y-85691741D01*
X84705224Y-85617354D01*
X84726656Y-85585868D01*
X84755001Y-85544266D01*
X84787620Y-85496415D01*
X84821878Y-85446185D01*
X84851365Y-85402969D01*
X84883120Y-85356774D01*
X84908819Y-85318618D01*
X84928488Y-85286211D01*
X84942153Y-85257267D01*
X84949842Y-85229498D01*
X84951580Y-85200617D01*
X84947393Y-85168334D01*
X84937310Y-85130363D01*
X84921355Y-85084417D01*
X84899555Y-85028206D01*
X84871938Y-84959443D01*
X84856928Y-84922070D01*
X84831725Y-84859923D01*
X84807596Y-84801949D01*
X84785475Y-84750275D01*
X84766296Y-84707029D01*
X84750992Y-84674340D01*
X84740496Y-84654335D01*
X84737585Y-84650031D01*
X84721841Y-84634080D01*
X84702509Y-84620798D01*
X84677011Y-84609244D01*
X84642766Y-84598473D01*
X84597196Y-84587544D01*
X84537722Y-84575512D01*
X84529488Y-84573941D01*
X84470993Y-84562852D01*
X84405337Y-84550425D01*
X84340239Y-84538120D01*
X84283417Y-84527397D01*
X84279317Y-84526625D01*
X84158667Y-84503889D01*
X84158667Y-84288945D01*
X84158789Y-84230620D01*
X84159131Y-84178308D01*
X84159661Y-84134259D01*
X84160345Y-84100721D01*
X84161147Y-84079946D01*
X84161902Y-84074000D01*
X84174893Y-84072380D01*
X84201892Y-84067853D01*
X84240351Y-84060920D01*
X84287723Y-84052081D01*
X84341459Y-84041836D01*
X84399013Y-84030687D01*
X84457837Y-84019134D01*
X84515382Y-84007677D01*
X84569102Y-83996816D01*
X84616448Y-83987053D01*
X84654873Y-83978887D01*
X84681829Y-83972819D01*
X84694769Y-83969350D01*
X84694921Y-83969289D01*
X84711939Y-83960624D01*
X84727848Y-83948487D01*
X84743632Y-83931231D01*
X84760276Y-83907207D01*
X84778764Y-83874765D01*
X84800079Y-83832257D01*
X84825207Y-83778035D01*
X84855131Y-83710449D01*
X84870320Y-83675478D01*
X84898677Y-83609669D01*
X84920916Y-83557249D01*
X84937771Y-83516124D01*
X84949975Y-83484199D01*
X84958261Y-83459379D01*
X84963365Y-83439568D01*
X84966019Y-83422673D01*
X84966958Y-83406597D01*
X84967017Y-83399400D01*
X84967120Y-83386836D01*
X84966944Y-83375996D01*
X84965693Y-83365522D01*
X84962571Y-83354058D01*
X84956780Y-83340243D01*
X84947524Y-83322720D01*
X84934007Y-83300131D01*
X84915431Y-83271118D01*
X84890999Y-83234323D01*
X84859916Y-83188387D01*
X84821384Y-83131952D01*
X84774607Y-83063660D01*
X84743031Y-83017566D01*
X84654460Y-82888232D01*
X84806761Y-82735930D01*
X84959063Y-82583629D01*
X85168697Y-82727627D01*
X85223112Y-82764812D01*
X85274538Y-82799587D01*
X85320898Y-82830579D01*
X85360118Y-82856412D01*
X85390121Y-82875711D01*
X85408833Y-82887099D01*
X85411628Y-82888613D01*
X85428182Y-82896651D01*
X85443720Y-82902510D01*
X85459894Y-82905765D01*
X85478357Y-82905990D01*
X85500761Y-82902759D01*
X85528756Y-82895645D01*
X85563995Y-82884224D01*
X85608130Y-82868068D01*
X85662813Y-82846751D01*
X85729695Y-82819849D01*
X85810428Y-82786935D01*
X85818134Y-82783784D01*
X85874005Y-82760646D01*
X85916488Y-82742217D01*
X85948032Y-82727218D01*
X85971086Y-82714371D01*
X85988103Y-82702398D01*
X86001531Y-82690020D01*
X86004986Y-82686303D01*
X86015089Y-82674822D01*
X86023611Y-82663629D01*
X86031046Y-82650902D01*
X86037890Y-82634817D01*
X86044638Y-82613551D01*
X86051785Y-82585283D01*
X86059825Y-82548187D01*
X86069253Y-82500442D01*
X86080564Y-82440224D01*
X86094254Y-82365710D01*
X86098864Y-82340485D01*
X86144100Y-82092869D01*
X86360249Y-82092835D01*
X86576399Y-82092800D01*
X86625227Y-82357383D01*
X86637742Y-82423580D01*
X86650030Y-82485579D01*
X86661595Y-82541098D01*
X86671940Y-82587852D01*
X86680568Y-82623557D01*
X86686985Y-82645930D01*
X86689073Y-82651149D01*
X86706005Y-82675843D01*
X86728577Y-82699461D01*
X86733129Y-82703253D01*
X86749191Y-82712852D01*
X86778454Y-82727370D01*
X86818287Y-82745718D01*
X86866060Y-82766808D01*
X86919142Y-82789551D01*
X86974902Y-82812858D01*
X87030709Y-82835640D01*
X87083934Y-82856809D01*
X87131944Y-82875275D01*
X87172111Y-82889949D01*
X87201802Y-82899744D01*
X87216714Y-82903402D01*
X87235086Y-82905208D01*
X87252726Y-82904734D01*
X87271351Y-82901097D01*
X87292680Y-82893414D01*
X87318430Y-82880801D01*
X87350319Y-82862374D01*
X87390066Y-82837248D01*
X87439388Y-82804541D01*
X87500004Y-82763369D01*
X87533368Y-82740510D01*
X87761233Y-82584135D01*
X87911517Y-82734196D01*
X87952611Y-82775443D01*
X87989421Y-82812799D01*
X88020333Y-82844593D01*
X88043737Y-82869158D01*
X88058022Y-82884824D01*
X88061800Y-82889840D01*
X88057191Y-82897955D01*
X88044140Y-82918275D01*
X88023808Y-82949058D01*
X87997358Y-82988562D01*
X87965951Y-83035046D01*
X87930751Y-83086769D01*
X87914824Y-83110061D01*
X87877584Y-83164996D01*
X87843114Y-83216893D01*
X87812707Y-83263722D01*
X87787655Y-83303456D01*
X87769253Y-83334066D01*
X87758792Y-83353524D01*
X87757247Y-83357319D01*
X87751323Y-83388889D01*
X87751598Y-83420795D01*
X87751827Y-83422334D01*
X87757107Y-83441564D01*
X87768315Y-83473126D01*
X87784379Y-83514566D01*
X87804229Y-83563428D01*
X87826793Y-83617258D01*
X87850999Y-83673602D01*
X87875776Y-83730005D01*
X87900052Y-83784011D01*
X87922757Y-83833168D01*
X87942818Y-83875019D01*
X87959164Y-83907110D01*
X87970723Y-83926987D01*
X87973924Y-83931136D01*
X87996787Y-83950838D01*
X88021466Y-83966506D01*
X88022793Y-83967150D01*
X88037882Y-83971937D01*
X88067201Y-83979161D01*
X88108308Y-83988301D01*
X88158763Y-83998833D01*
X88216123Y-84010233D01*
X88277947Y-84021977D01*
X88281933Y-84022716D01*
X88343725Y-84034171D01*
X88401036Y-84044825D01*
X88451470Y-84054230D01*
X88492628Y-84061939D01*
X88522112Y-84067503D01*
X88537524Y-84070475D01*
X88538050Y-84070581D01*
X88561334Y-84075346D01*
X88679867Y-84075346D01*
X88679867Y-83963570D01*
X88660817Y-83955818D01*
X88647949Y-83952408D01*
X88620619Y-83946458D01*
X88581032Y-83938404D01*
X88531395Y-83928682D01*
X88473916Y-83917729D01*
X88410800Y-83905982D01*
X88383534Y-83900987D01*
X88318033Y-83888953D01*
X88256628Y-83877494D01*
X88201653Y-83867061D01*
X88155446Y-83858102D01*
X88120341Y-83851067D01*
X88098675Y-83846407D01*
X88094440Y-83845348D01*
X88079832Y-83840303D01*
X88068504Y-83832496D01*
X88058064Y-83818738D01*
X88046121Y-83795837D01*
X88030282Y-83760603D01*
X88029382Y-83758544D01*
X87987130Y-83661445D01*
X87951531Y-83578713D01*
X87922657Y-83510526D01*
X87900583Y-83457066D01*
X87885385Y-83418510D01*
X87877136Y-83395039D01*
X87875533Y-83387821D01*
X87880183Y-83377837D01*
X87893402Y-83355625D01*
X87914102Y-83322863D01*
X87941192Y-83281230D01*
X87973580Y-83232405D01*
X88010176Y-83178066D01*
X88045378Y-83126460D01*
X88084959Y-83068620D01*
X88121542Y-83014868D01*
X88154003Y-82966877D01*
X88181219Y-82926322D01*
X88202064Y-82894876D01*
X88215415Y-82874215D01*
X88220077Y-82866269D01*
X88215946Y-82856747D01*
X88200193Y-82836548D01*
X88172666Y-82805502D01*
X88133209Y-82763441D01*
X88081667Y-82710196D01*
X88017886Y-82645600D01*
X88014250Y-82641945D01*
X87964693Y-82592351D01*
X87918403Y-82546401D01*
X87876853Y-82505528D01*
X87841519Y-82471168D01*
X87813874Y-82444755D01*
X87795392Y-82427725D01*
X87787963Y-82421684D01*
X87783168Y-82419538D01*
X87777534Y-82418919D01*
X87769775Y-82420625D01*
X87758607Y-82425454D01*
X87742744Y-82434202D01*
X87720902Y-82447667D01*
X87691795Y-82466648D01*
X87654139Y-82491940D01*
X87606649Y-82524341D01*
X87548040Y-82564650D01*
X87477026Y-82613663D01*
X87462947Y-82623389D01*
X87412164Y-82658303D01*
X87365101Y-82690344D01*
X87323801Y-82718145D01*
X87290310Y-82740337D01*
X87266672Y-82755556D01*
X87255055Y-82762377D01*
X87246806Y-82764382D01*
X87234790Y-82763587D01*
X87217091Y-82759356D01*
X87191794Y-82751051D01*
X87156984Y-82738035D01*
X87110744Y-82719669D01*
X87051160Y-82695317D01*
X87041108Y-82691173D01*
X86973637Y-82663322D01*
X86920150Y-82641160D01*
X86878985Y-82623906D01*
X86848479Y-82610778D01*
X86826968Y-82600994D01*
X86812789Y-82593773D01*
X86804278Y-82588334D01*
X86799774Y-82583893D01*
X86797612Y-82579670D01*
X86796544Y-82576232D01*
X86794109Y-82564929D01*
X86789040Y-82538998D01*
X86781720Y-82500475D01*
X86772528Y-82451395D01*
X86761848Y-82393793D01*
X86750060Y-82329703D01*
X86740807Y-82279067D01*
X86728310Y-82211160D01*
X86716445Y-82147965D01*
X86705624Y-82091570D01*
X86696256Y-82044061D01*
X86688750Y-82007528D01*
X86683518Y-81984057D01*
X86681374Y-81976384D01*
X86673630Y-81957334D01*
X86360681Y-81957334D01*
X86271481Y-81957564D01*
X86271481Y-81957564D01*
G37*
X86271481Y-81957564D02*
X86196009Y-81958244D01*
X86134872Y-81959358D01*
X86088677Y-81960890D01*
X86058032Y-81962823D01*
X86043544Y-81965141D01*
X86042476Y-81965839D01*
X86039753Y-81975880D01*
X86034362Y-82000629D01*
X86026689Y-82038135D01*
X86017121Y-82086450D01*
X86006044Y-82143625D01*
X85993845Y-82207711D01*
X85982443Y-82268522D01*
X85969558Y-82337445D01*
X85957487Y-82401495D01*
X85946616Y-82458664D01*
X85937330Y-82506944D01*
X85930015Y-82544328D01*
X85925057Y-82568808D01*
X85922965Y-82578033D01*
X85911841Y-82593439D01*
X85899949Y-82601169D01*
X85887281Y-82606437D01*
X85861289Y-82617151D01*
X85824323Y-82632344D01*
X85778731Y-82651052D01*
X85726863Y-82672309D01*
X85683196Y-82690188D01*
X85619046Y-82716203D01*
X85568712Y-82736003D01*
X85530497Y-82750164D01*
X85502705Y-82759259D01*
X85483640Y-82763866D01*
X85471604Y-82764559D01*
X85467242Y-82763424D01*
X85456257Y-82756835D01*
X85433117Y-82741797D01*
X85399590Y-82719496D01*
X85357444Y-82691123D01*
X85308446Y-82657865D01*
X85254365Y-82620910D01*
X85214826Y-82593751D01*
X85147173Y-82547184D01*
X85092089Y-82509348D01*
X85048173Y-82479396D01*
X85014030Y-82456483D01*
X84988262Y-82439763D01*
X84969470Y-82428389D01*
X84956257Y-82421516D01*
X84947225Y-82418297D01*
X84940977Y-82417887D01*
X84936115Y-82419440D01*
X84931250Y-82422104D01*
X84921937Y-82429875D01*
X84902213Y-82448241D01*
X84873568Y-82475751D01*
X84837492Y-82510952D01*
X84795473Y-82552395D01*
X84749003Y-82598626D01*
X84711117Y-82636582D01*
X84647331Y-82701162D01*
X84595708Y-82754504D01*
X84555997Y-82796884D01*
X84527943Y-82828578D01*
X84511295Y-82849863D01*
X84505800Y-82861015D01*
X84505800Y-82861017D01*
X84510456Y-82872029D01*
X84523692Y-82895223D01*
X84544415Y-82928882D01*
X84571529Y-82971291D01*
X84603940Y-83020734D01*
X84640553Y-83075495D01*
X84675133Y-83126365D01*
X84714490Y-83184246D01*
X84750608Y-83238176D01*
X84782395Y-83286462D01*
X84808759Y-83327409D01*
X84828609Y-83359325D01*
X84840852Y-83380517D01*
X84844467Y-83388949D01*
X84841156Y-83401665D01*
X84831945Y-83427136D01*
X84817916Y-83462856D01*
X84800153Y-83506323D01*
X84779738Y-83555033D01*
X84757754Y-83606480D01*
X84735283Y-83658162D01*
X84713408Y-83707574D01*
X84693212Y-83752212D01*
X84675778Y-83789573D01*
X84662187Y-83817152D01*
X84653524Y-83832445D01*
X84651836Y-83834448D01*
X84647847Y-83837456D01*
X84642940Y-83840209D01*
X84635498Y-83843048D01*
X84623902Y-83846309D01*
X84606537Y-83850332D01*
X84581783Y-83855456D01*
X84548024Y-83862019D01*
X84503642Y-83870361D01*
X84447020Y-83880819D01*
X84376540Y-83893733D01*
X84315300Y-83904925D01*
X84253196Y-83916416D01*
X84195821Y-83927304D01*
X84145499Y-83937127D01*
X84104552Y-83945423D01*
X84075302Y-83951730D01*
X84060071Y-83955585D01*
X84059183Y-83955905D01*
X84040133Y-83963570D01*
X84040133Y-84276519D01*
X84040346Y-84356955D01*
X84040963Y-84427881D01*
X84041950Y-84487979D01*
X84043274Y-84535936D01*
X84044902Y-84570433D01*
X84046801Y-84590157D01*
X84048142Y-84594417D01*
X84058117Y-84597072D01*
X84082750Y-84602333D01*
X84120035Y-84609808D01*
X84167963Y-84619107D01*
X84224528Y-84629839D01*
X84287722Y-84641612D01*
X84333892Y-84650093D01*
X84400974Y-84662465D01*
X84463242Y-84674178D01*
X84518603Y-84684821D01*
X84564962Y-84693982D01*
X84600227Y-84701251D01*
X84622303Y-84706214D01*
X84628640Y-84708031D01*
X84636316Y-84717670D01*
X84648830Y-84740797D01*
X84665201Y-84774998D01*
X84684452Y-84817857D01*
X84705600Y-84866960D01*
X84727668Y-84919891D01*
X84749674Y-84974237D01*
X84770641Y-85027582D01*
X84789586Y-85077511D01*
X84805532Y-85121611D01*
X84817498Y-85157466D01*
X84824505Y-85182661D01*
X84825810Y-85194000D01*
X84820267Y-85205320D01*
X84806207Y-85228732D01*
X84784798Y-85262440D01*
X84757209Y-85304648D01*
X84724611Y-85353557D01*
X84688171Y-85407373D01*
X84664010Y-85442637D01*
X84625941Y-85498408D01*
X84591164Y-85550241D01*
X84560816Y-85596371D01*
X84536034Y-85635034D01*
X84517955Y-85664467D01*
X84507715Y-85682906D01*
X84505800Y-85688109D01*
X84511645Y-85697847D01*
X84528070Y-85717615D01*
X84553413Y-85745745D01*
X84586013Y-85780571D01*
X84624208Y-85820427D01*
X84666335Y-85863646D01*
X84710733Y-85908562D01*
X84755740Y-85953508D01*
X84799692Y-85996819D01*
X84840930Y-86036827D01*
X84877789Y-86071867D01*
X84908609Y-86100271D01*
X84931728Y-86120374D01*
X84945482Y-86130509D01*
X84947926Y-86131400D01*
X84958234Y-86126750D01*
X84980677Y-86113555D01*
X85013497Y-86092952D01*
X85054935Y-86066074D01*
X85103234Y-86034058D01*
X85156634Y-85998038D01*
X85192237Y-85973708D01*
X85248136Y-85935697D01*
X85300239Y-85900980D01*
X85346754Y-85870699D01*
X85385889Y-85845992D01*
X85415850Y-85828000D01*
X85434846Y-85817860D01*
X85440348Y-85816017D01*
X85454318Y-85819911D01*
X85479757Y-85830589D01*
X85513369Y-85846541D01*
X85551862Y-85866258D01*
X85562808Y-85872108D01*
X85600986Y-85892420D01*
X85634007Y-85909454D01*
X85658944Y-85921740D01*
X85672874Y-85927810D01*
X85674507Y-85928200D01*
X85677095Y-85927776D01*
X85679997Y-85925773D01*
X85683693Y-85921096D01*
X85688660Y-85912651D01*
X85695377Y-85899341D01*
X85704321Y-85880073D01*
X85715970Y-85853750D01*
X85730803Y-85819278D01*
X85749296Y-85775562D01*
X85771930Y-85721506D01*
X85799180Y-85656016D01*
X85831526Y-85577996D01*
X85869445Y-85486352D01*
X85906524Y-85396662D01*
X85948102Y-85295636D01*
X85985408Y-85204102D01*
X86018122Y-85122879D01*
X86045926Y-85052783D01*
X86068500Y-84994632D01*
X86085524Y-84949243D01*
X86096679Y-84917433D01*
X86101646Y-84900020D01*
X86101788Y-84897129D01*
X86092537Y-84886082D01*
X86072490Y-84869493D01*
X86045445Y-84850410D01*
X86036235Y-84844467D01*
X85986208Y-84808588D01*
X85934130Y-84763819D01*
X85884106Y-84714263D01*
X85840242Y-84664023D01*
X85806643Y-84617200D01*
X85803275Y-84611634D01*
X85758149Y-84519297D01*
X85728592Y-84423205D01*
X85714288Y-84325131D01*
X85714923Y-84226847D01*
X85730180Y-84130129D01*
X85759744Y-84036748D01*
X85803300Y-83948479D01*
X85860531Y-83867094D01*
X85931124Y-83794368D01*
X85951749Y-83776998D01*
X86036768Y-83718877D01*
X86128499Y-83675425D01*
X86225014Y-83646861D01*
X86324382Y-83633406D01*
X86424672Y-83635281D01*
X86523954Y-83652706D01*
X86620299Y-83685901D01*
X86645822Y-83697725D01*
X86734157Y-83750058D01*
X86811407Y-83814108D01*
X86876896Y-83888238D01*
X86929944Y-83970806D01*
X86969876Y-84060174D01*
X86996011Y-84154701D01*
X87007674Y-84252747D01*
X87004185Y-84352673D01*
X86984868Y-84452838D01*
X86973385Y-84490184D01*
X86935043Y-84579294D01*
X86882665Y-84661591D01*
X86815500Y-84738021D01*
X86732799Y-84809528D01*
X86702245Y-84832012D01*
X86669942Y-84855501D01*
X86643012Y-84876197D01*
X86624360Y-84891791D01*
X86616956Y-84899776D01*
X86619590Y-84908626D01*
X86628051Y-84931515D01*
X86641685Y-84966837D01*
X86659838Y-85012984D01*
X86681855Y-85068352D01*
X86707082Y-85131335D01*
X86734864Y-85200326D01*
X86764549Y-85273720D01*
X86795480Y-85349912D01*
X86827005Y-85427294D01*
X86858468Y-85504262D01*
X86889216Y-85579210D01*
X86918595Y-85650531D01*
X86945949Y-85716620D01*
X86970626Y-85775871D01*
X86991969Y-85826679D01*
X87009327Y-85867436D01*
X87022043Y-85896539D01*
X87029464Y-85912379D01*
X87029656Y-85912741D01*
X87039652Y-85925361D01*
X87045574Y-85928200D01*
X87055435Y-85924374D01*
X87077221Y-85913873D01*
X87108010Y-85898167D01*
X87144879Y-85878723D01*
X87157193Y-85872108D01*
X87196462Y-85851622D01*
X87231771Y-85834489D01*
X87259819Y-85822219D01*
X87277305Y-85816321D01*
X87279810Y-85816017D01*
X87291135Y-85820677D01*
X87314575Y-85833911D01*
X87348358Y-85854598D01*
X87390715Y-85881614D01*
X87439877Y-85913841D01*
X87494074Y-85950155D01*
X87528666Y-85973708D01*
X87584451Y-86011636D01*
X87636212Y-86046285D01*
X87682197Y-86076525D01*
X87720653Y-86101224D01*
X87749828Y-86119251D01*
X87767967Y-86129475D01*
X87772974Y-86131400D01*
X87781993Y-86125586D01*
X87801459Y-86109037D01*
X87829947Y-86083096D01*
X87866033Y-86049104D01*
X87908292Y-86008403D01*
X87955301Y-85962334D01*
X88005635Y-85912239D01*
X88005667Y-85912206D01*
X88063077Y-85854512D01*
X88109485Y-85807504D01*
X88145958Y-85769985D01*
X88173559Y-85740758D01*
X88193353Y-85718627D01*
X88206403Y-85702395D01*
X88213774Y-85690866D01*
X88216531Y-85682843D01*
X88215736Y-85677130D01*
X88215381Y-85676407D01*
X88208523Y-85665549D01*
X88193262Y-85642577D01*
X88170826Y-85609304D01*
X88142447Y-85567541D01*
X88109352Y-85519102D01*
X88072773Y-85465798D01*
X88052455Y-85436284D01*
X88014726Y-85381171D01*
X87980118Y-85329912D01*
X87949817Y-85284321D01*
X87925010Y-85246211D01*
X87906883Y-85217394D01*
X87896623Y-85199683D01*
X87894776Y-85195397D01*
X87896888Y-85182969D01*
X87904691Y-85157435D01*
X87917209Y-85121254D01*
X87933464Y-85076884D01*
X87952478Y-85026784D01*
X87973275Y-84973413D01*
X87994877Y-84919229D01*
X88016308Y-84866692D01*
X88036588Y-84818259D01*
X88054743Y-84776391D01*
X88069793Y-84743545D01*
X88080762Y-84722180D01*
X88085613Y-84715262D01*
X88097673Y-84710484D01*
X88124857Y-84703237D01*
X88165594Y-84693863D01*
X88218309Y-84682700D01*
X88281430Y-84670092D01*
X88353383Y-84656377D01*
X88381980Y-84651081D01*
X88449078Y-84638651D01*
X88510931Y-84627004D01*
X88565550Y-84616530D01*
X88610945Y-84607618D01*
X88645127Y-84600657D01*
X88666107Y-84596036D01*
X88671963Y-84594352D01*
X88673945Y-84584840D01*
X88675701Y-84559842D01*
X88677196Y-84520804D01*
X88678395Y-84469171D01*
X88679260Y-84406390D01*
X88679757Y-84333905D01*
X88679867Y-84276519D01*
X88679867Y-84075346D01*
X88561334Y-84075346D01*
X88561334Y-84289515D01*
X88561333Y-84503684D01*
X88533817Y-84509253D01*
X88523411Y-84511321D01*
X88508772Y-84514157D01*
X88488303Y-84518059D01*
X88460411Y-84523328D01*
X88423500Y-84530263D01*
X88375974Y-84539164D01*
X88316239Y-84550331D01*
X88242700Y-84564064D01*
X88174530Y-84576788D01*
X88114940Y-84588755D01*
X88069518Y-84600146D01*
X88035575Y-84612023D01*
X88010427Y-84625447D01*
X87991385Y-84641481D01*
X87981587Y-84653042D01*
X87972066Y-84669457D01*
X87957683Y-84699233D01*
X87939454Y-84739850D01*
X87918391Y-84788787D01*
X87895507Y-84843523D01*
X87871816Y-84901538D01*
X87848331Y-84960312D01*
X87826066Y-85017322D01*
X87806033Y-85070050D01*
X87789246Y-85115974D01*
X87776719Y-85152573D01*
X87769464Y-85177327D01*
X87768199Y-85183854D01*
X87766920Y-85201522D01*
X87768171Y-85219064D01*
X87772850Y-85238190D01*
X87781855Y-85260615D01*
X87796086Y-85288051D01*
X87816441Y-85322212D01*
X87843818Y-85364809D01*
X87879116Y-85417556D01*
X87923233Y-85482166D01*
X87929369Y-85491099D01*
X87963961Y-85541630D01*
X87995182Y-85587619D01*
X88021802Y-85627222D01*
X88042592Y-85658598D01*
X88056321Y-85679902D01*
X88061759Y-85689293D01*
X88061800Y-85689495D01*
X88056027Y-85698063D01*
X88040030Y-85716047D01*
X88015790Y-85741519D01*
X87985290Y-85772551D01*
X87950511Y-85807215D01*
X87913436Y-85843583D01*
X87876047Y-85879727D01*
X87840325Y-85913720D01*
X87808252Y-85943633D01*
X87781811Y-85967538D01*
X87762983Y-85983508D01*
X87753751Y-85989614D01*
X87753321Y-85989562D01*
X87744202Y-85983485D01*
X87723046Y-85969095D01*
X87691756Y-85947696D01*
X87652233Y-85920591D01*
X87606380Y-85889082D01*
X87556098Y-85854473D01*
X87554332Y-85853256D01*
X87496195Y-85813773D01*
X87443370Y-85779003D01*
X87397689Y-85750091D01*
X87360984Y-85728178D01*
X87335085Y-85714409D01*
X87325732Y-85710602D01*
X87295147Y-85703872D01*
X87265545Y-85704021D01*
X87232786Y-85711853D01*
X87192731Y-85728169D01*
X87164456Y-85741872D01*
X87099880Y-85774340D01*
X86763406Y-84960468D01*
X86784926Y-84942684D01*
X86803269Y-84927962D01*
X86828906Y-84907907D01*
X86850834Y-84891034D01*
X86913177Y-84834750D01*
X86971628Y-84765329D01*
X87023927Y-84686488D01*
X87067811Y-84601943D01*
X87101019Y-84515413D01*
X87117197Y-84453240D01*
X87126258Y-84389767D01*
X87130253Y-84317814D01*
X87129250Y-84243681D01*
X87123319Y-84173667D01*
X87113514Y-84118079D01*
X87079461Y-84010717D01*
X87031004Y-83910131D01*
X86969410Y-83817880D01*
X86895951Y-83735523D01*
X86811896Y-83664620D01*
X86718515Y-83606730D01*
X86682992Y-83589436D01*
X86582429Y-83552783D01*
X86476125Y-83530536D01*
X86366892Y-83522653D01*
X86257541Y-83529090D01*
X86150885Y-83549804D01*
X86049735Y-83584752D01*
X86017470Y-83599684D01*
X85943364Y-83642847D01*
X85869846Y-83697419D01*
X85802729Y-83758711D01*
X85757689Y-83809257D01*
X85721748Y-83860008D01*
X85685852Y-83920654D01*
X85652999Y-83985373D01*
X85626180Y-84048341D01*
X85610634Y-84095167D01*
X85602994Y-84133345D01*
X85597038Y-84183337D01*
X85592972Y-84240084D01*
X85590999Y-84298531D01*
X85591325Y-84353622D01*
X85594154Y-84400300D01*
X85597338Y-84423238D01*
X85626626Y-84534494D01*
X85670744Y-84639488D01*
X85728676Y-84736523D01*
X85799402Y-84823904D01*
X85881905Y-84899934D01*
X85885064Y-84902424D01*
X85913599Y-84925286D01*
X85936351Y-84944456D01*
X85950494Y-84957494D01*
X85953759Y-84961690D01*
X85950651Y-84970363D01*
X85941667Y-84993194D01*
X85927411Y-85028701D01*
X85908486Y-85075399D01*
X85885498Y-85131802D01*
X85859050Y-85196427D01*
X85829745Y-85267788D01*
X85798189Y-85344402D01*
X85787252Y-85370904D01*
X85620586Y-85774574D01*
X85552143Y-85739797D01*
X85497085Y-85715912D01*
X85449832Y-85704949D01*
X85407570Y-85706642D01*
X85367486Y-85720725D01*
X85364891Y-85722061D01*
X85348909Y-85731584D01*
X85321285Y-85749280D01*
X85284276Y-85773653D01*
X85240138Y-85803203D01*
X85191127Y-85836432D01*
X85145180Y-85867927D01*
X84959061Y-85996169D01*
X84806847Y-85843955D01*
X84654632Y-85691741D01*
X84705224Y-85617354D01*
X84726656Y-85585868D01*
X84755001Y-85544266D01*
X84787620Y-85496415D01*
X84821878Y-85446185D01*
X84851365Y-85402969D01*
X84883120Y-85356774D01*
X84908819Y-85318618D01*
X84928488Y-85286211D01*
X84942153Y-85257267D01*
X84949842Y-85229498D01*
X84951580Y-85200617D01*
X84947393Y-85168334D01*
X84937310Y-85130363D01*
X84921355Y-85084417D01*
X84899555Y-85028206D01*
X84871938Y-84959443D01*
X84856928Y-84922070D01*
X84831725Y-84859923D01*
X84807596Y-84801949D01*
X84785475Y-84750275D01*
X84766296Y-84707029D01*
X84750992Y-84674340D01*
X84740496Y-84654335D01*
X84737585Y-84650031D01*
X84721841Y-84634080D01*
X84702509Y-84620798D01*
X84677011Y-84609244D01*
X84642766Y-84598473D01*
X84597196Y-84587544D01*
X84537722Y-84575512D01*
X84529488Y-84573941D01*
X84470993Y-84562852D01*
X84405337Y-84550425D01*
X84340239Y-84538120D01*
X84283417Y-84527397D01*
X84279317Y-84526625D01*
X84158667Y-84503889D01*
X84158667Y-84288945D01*
X84158789Y-84230620D01*
X84159131Y-84178308D01*
X84159661Y-84134259D01*
X84160345Y-84100721D01*
X84161147Y-84079946D01*
X84161902Y-84074000D01*
X84174893Y-84072380D01*
X84201892Y-84067853D01*
X84240351Y-84060920D01*
X84287723Y-84052081D01*
X84341459Y-84041836D01*
X84399013Y-84030687D01*
X84457837Y-84019134D01*
X84515382Y-84007677D01*
X84569102Y-83996816D01*
X84616448Y-83987053D01*
X84654873Y-83978887D01*
X84681829Y-83972819D01*
X84694769Y-83969350D01*
X84694921Y-83969289D01*
X84711939Y-83960624D01*
X84727848Y-83948487D01*
X84743632Y-83931231D01*
X84760276Y-83907207D01*
X84778764Y-83874765D01*
X84800079Y-83832257D01*
X84825207Y-83778035D01*
X84855131Y-83710449D01*
X84870320Y-83675478D01*
X84898677Y-83609669D01*
X84920916Y-83557249D01*
X84937771Y-83516124D01*
X84949975Y-83484199D01*
X84958261Y-83459379D01*
X84963365Y-83439568D01*
X84966019Y-83422673D01*
X84966958Y-83406597D01*
X84967017Y-83399400D01*
X84967120Y-83386836D01*
X84966944Y-83375996D01*
X84965693Y-83365522D01*
X84962571Y-83354058D01*
X84956780Y-83340243D01*
X84947524Y-83322720D01*
X84934007Y-83300131D01*
X84915431Y-83271118D01*
X84890999Y-83234323D01*
X84859916Y-83188387D01*
X84821384Y-83131952D01*
X84774607Y-83063660D01*
X84743031Y-83017566D01*
X84654460Y-82888232D01*
X84806761Y-82735930D01*
X84959063Y-82583629D01*
X85168697Y-82727627D01*
X85223112Y-82764812D01*
X85274538Y-82799587D01*
X85320898Y-82830579D01*
X85360118Y-82856412D01*
X85390121Y-82875711D01*
X85408833Y-82887099D01*
X85411628Y-82888613D01*
X85428182Y-82896651D01*
X85443720Y-82902510D01*
X85459894Y-82905765D01*
X85478357Y-82905990D01*
X85500761Y-82902759D01*
X85528756Y-82895645D01*
X85563995Y-82884224D01*
X85608130Y-82868068D01*
X85662813Y-82846751D01*
X85729695Y-82819849D01*
X85810428Y-82786935D01*
X85818134Y-82783784D01*
X85874005Y-82760646D01*
X85916488Y-82742217D01*
X85948032Y-82727218D01*
X85971086Y-82714371D01*
X85988103Y-82702398D01*
X86001531Y-82690020D01*
X86004986Y-82686303D01*
X86015089Y-82674822D01*
X86023611Y-82663629D01*
X86031046Y-82650902D01*
X86037890Y-82634817D01*
X86044638Y-82613551D01*
X86051785Y-82585283D01*
X86059825Y-82548187D01*
X86069253Y-82500442D01*
X86080564Y-82440224D01*
X86094254Y-82365710D01*
X86098864Y-82340485D01*
X86144100Y-82092869D01*
X86360249Y-82092835D01*
X86576399Y-82092800D01*
X86625227Y-82357383D01*
X86637742Y-82423580D01*
X86650030Y-82485579D01*
X86661595Y-82541098D01*
X86671940Y-82587852D01*
X86680568Y-82623557D01*
X86686985Y-82645930D01*
X86689073Y-82651149D01*
X86706005Y-82675843D01*
X86728577Y-82699461D01*
X86733129Y-82703253D01*
X86749191Y-82712852D01*
X86778454Y-82727370D01*
X86818287Y-82745718D01*
X86866060Y-82766808D01*
X86919142Y-82789551D01*
X86974902Y-82812858D01*
X87030709Y-82835640D01*
X87083934Y-82856809D01*
X87131944Y-82875275D01*
X87172111Y-82889949D01*
X87201802Y-82899744D01*
X87216714Y-82903402D01*
X87235086Y-82905208D01*
X87252726Y-82904734D01*
X87271351Y-82901097D01*
X87292680Y-82893414D01*
X87318430Y-82880801D01*
X87350319Y-82862374D01*
X87390066Y-82837248D01*
X87439388Y-82804541D01*
X87500004Y-82763369D01*
X87533368Y-82740510D01*
X87761233Y-82584135D01*
X87911517Y-82734196D01*
X87952611Y-82775443D01*
X87989421Y-82812799D01*
X88020333Y-82844593D01*
X88043737Y-82869158D01*
X88058022Y-82884824D01*
X88061800Y-82889840D01*
X88057191Y-82897955D01*
X88044140Y-82918275D01*
X88023808Y-82949058D01*
X87997358Y-82988562D01*
X87965951Y-83035046D01*
X87930751Y-83086769D01*
X87914824Y-83110061D01*
X87877584Y-83164996D01*
X87843114Y-83216893D01*
X87812707Y-83263722D01*
X87787655Y-83303456D01*
X87769253Y-83334066D01*
X87758792Y-83353524D01*
X87757247Y-83357319D01*
X87751323Y-83388889D01*
X87751598Y-83420795D01*
X87751827Y-83422334D01*
X87757107Y-83441564D01*
X87768315Y-83473126D01*
X87784379Y-83514566D01*
X87804229Y-83563428D01*
X87826793Y-83617258D01*
X87850999Y-83673602D01*
X87875776Y-83730005D01*
X87900052Y-83784011D01*
X87922757Y-83833168D01*
X87942818Y-83875019D01*
X87959164Y-83907110D01*
X87970723Y-83926987D01*
X87973924Y-83931136D01*
X87996787Y-83950838D01*
X88021466Y-83966506D01*
X88022793Y-83967150D01*
X88037882Y-83971937D01*
X88067201Y-83979161D01*
X88108308Y-83988301D01*
X88158763Y-83998833D01*
X88216123Y-84010233D01*
X88277947Y-84021977D01*
X88281933Y-84022716D01*
X88343725Y-84034171D01*
X88401036Y-84044825D01*
X88451470Y-84054230D01*
X88492628Y-84061939D01*
X88522112Y-84067503D01*
X88537524Y-84070475D01*
X88538050Y-84070581D01*
X88561334Y-84075346D01*
X88679867Y-84075346D01*
X88679867Y-83963570D01*
X88660817Y-83955818D01*
X88647949Y-83952408D01*
X88620619Y-83946458D01*
X88581032Y-83938404D01*
X88531395Y-83928682D01*
X88473916Y-83917729D01*
X88410800Y-83905982D01*
X88383534Y-83900987D01*
X88318033Y-83888953D01*
X88256628Y-83877494D01*
X88201653Y-83867061D01*
X88155446Y-83858102D01*
X88120341Y-83851067D01*
X88098675Y-83846407D01*
X88094440Y-83845348D01*
X88079832Y-83840303D01*
X88068504Y-83832496D01*
X88058064Y-83818738D01*
X88046121Y-83795837D01*
X88030282Y-83760603D01*
X88029382Y-83758544D01*
X87987130Y-83661445D01*
X87951531Y-83578713D01*
X87922657Y-83510526D01*
X87900583Y-83457066D01*
X87885385Y-83418510D01*
X87877136Y-83395039D01*
X87875533Y-83387821D01*
X87880183Y-83377837D01*
X87893402Y-83355625D01*
X87914102Y-83322863D01*
X87941192Y-83281230D01*
X87973580Y-83232405D01*
X88010176Y-83178066D01*
X88045378Y-83126460D01*
X88084959Y-83068620D01*
X88121542Y-83014868D01*
X88154003Y-82966877D01*
X88181219Y-82926322D01*
X88202064Y-82894876D01*
X88215415Y-82874215D01*
X88220077Y-82866269D01*
X88215946Y-82856747D01*
X88200193Y-82836548D01*
X88172666Y-82805502D01*
X88133209Y-82763441D01*
X88081667Y-82710196D01*
X88017886Y-82645600D01*
X88014250Y-82641945D01*
X87964693Y-82592351D01*
X87918403Y-82546401D01*
X87876853Y-82505528D01*
X87841519Y-82471168D01*
X87813874Y-82444755D01*
X87795392Y-82427725D01*
X87787963Y-82421684D01*
X87783168Y-82419538D01*
X87777534Y-82418919D01*
X87769775Y-82420625D01*
X87758607Y-82425454D01*
X87742744Y-82434202D01*
X87720902Y-82447667D01*
X87691795Y-82466648D01*
X87654139Y-82491940D01*
X87606649Y-82524341D01*
X87548040Y-82564650D01*
X87477026Y-82613663D01*
X87462947Y-82623389D01*
X87412164Y-82658303D01*
X87365101Y-82690344D01*
X87323801Y-82718145D01*
X87290310Y-82740337D01*
X87266672Y-82755556D01*
X87255055Y-82762377D01*
X87246806Y-82764382D01*
X87234790Y-82763587D01*
X87217091Y-82759356D01*
X87191794Y-82751051D01*
X87156984Y-82738035D01*
X87110744Y-82719669D01*
X87051160Y-82695317D01*
X87041108Y-82691173D01*
X86973637Y-82663322D01*
X86920150Y-82641160D01*
X86878985Y-82623906D01*
X86848479Y-82610778D01*
X86826968Y-82600994D01*
X86812789Y-82593773D01*
X86804278Y-82588334D01*
X86799774Y-82583893D01*
X86797612Y-82579670D01*
X86796544Y-82576232D01*
X86794109Y-82564929D01*
X86789040Y-82538998D01*
X86781720Y-82500475D01*
X86772528Y-82451395D01*
X86761848Y-82393793D01*
X86750060Y-82329703D01*
X86740807Y-82279067D01*
X86728310Y-82211160D01*
X86716445Y-82147965D01*
X86705624Y-82091570D01*
X86696256Y-82044061D01*
X86688750Y-82007528D01*
X86683518Y-81984057D01*
X86681374Y-81976384D01*
X86673630Y-81957334D01*
X86360681Y-81957334D01*
X86271481Y-81957564D01*
G36*
X97938115Y-85816943D02*
X97927769Y-85836630D01*
X97914104Y-85865515D01*
X97902130Y-85892468D01*
X97828801Y-86040755D01*
X97740861Y-86181301D01*
X97639537Y-86312260D01*
X97579149Y-86378905D01*
X97547697Y-86412684D01*
X97522675Y-86441444D01*
X97505726Y-86463163D01*
X97498492Y-86475817D01*
X97498716Y-86477915D01*
X97506758Y-86485102D01*
X97525875Y-86502075D01*
X97554454Y-86527406D01*
X97590880Y-86559667D01*
X97633542Y-86597428D01*
X97680827Y-86639260D01*
X97701383Y-86657440D01*
X97752251Y-86702427D01*
X97801082Y-86745615D01*
X97845860Y-86785223D01*
X97884569Y-86819466D01*
X97915195Y-86846562D01*
X97935721Y-86864728D01*
X97939415Y-86868000D01*
X97982432Y-86906100D01*
X97975697Y-86965367D01*
X97972739Y-87056802D01*
X97983253Y-87153086D01*
X98006466Y-87249912D01*
X98041607Y-87342975D01*
X98044573Y-87349408D01*
X98099575Y-87447735D01*
X98167215Y-87535351D01*
X98246316Y-87611339D01*
X98335701Y-87674783D01*
X98434196Y-87724766D01*
X98540622Y-87760370D01*
X98584495Y-87770253D01*
X98637822Y-87777499D01*
X98699960Y-87780955D01*
X98764497Y-87780645D01*
X98825017Y-87776590D01*
X98872960Y-87769285D01*
X98902062Y-87762838D01*
X98924664Y-87757585D01*
X98935245Y-87754841D01*
X98930927Y-87748848D01*
X98915196Y-87732897D01*
X98889361Y-87708204D01*
X98854733Y-87675985D01*
X98812622Y-87637456D01*
X98764338Y-87593831D01*
X98711191Y-87546328D01*
X98697010Y-87533734D01*
X98450750Y-87315301D01*
X98577503Y-87175808D01*
X98623543Y-87125099D01*
X98676731Y-87066447D01*
X98732870Y-87004485D01*
X98787766Y-86943843D01*
X98837223Y-86889152D01*
X98841382Y-86884549D01*
X98884889Y-86836622D01*
X98918632Y-86800112D01*
X98944016Y-86773708D01*
X98962446Y-86756097D01*
X98975326Y-86745967D01*
X98984060Y-86742007D01*
X98990053Y-86742904D01*
X98991737Y-86744101D01*
X99000950Y-86752177D01*
X99021314Y-86770151D01*
X99051318Y-86796685D01*
X99089447Y-86830438D01*
X99134187Y-86870071D01*
X99184026Y-86914243D01*
X99235832Y-86960181D01*
X99297385Y-87014607D01*
X99347539Y-87058522D01*
X99387410Y-87092822D01*
X99418117Y-87118400D01*
X99440777Y-87136152D01*
X99456507Y-87146972D01*
X99466425Y-87151754D01*
X99471648Y-87151392D01*
X99472752Y-87149821D01*
X99476473Y-87130526D01*
X99478476Y-87098375D01*
X99478891Y-87057346D01*
X99477848Y-87011415D01*
X99475474Y-86964561D01*
X99471899Y-86920760D01*
X99467251Y-86883989D01*
X99463520Y-86864928D01*
X99428786Y-86756349D01*
X99380640Y-86656472D01*
X99320288Y-86566214D01*
X99248937Y-86486492D01*
X99167794Y-86418225D01*
X99078066Y-86362329D01*
X98980959Y-86319722D01*
X98877679Y-86291321D01*
X98769435Y-86278044D01*
X98691700Y-86278221D01*
X98648093Y-86281476D01*
X98605608Y-86286257D01*
X98570225Y-86291814D01*
X98553996Y-86295453D01*
X98509424Y-86307731D01*
X98465096Y-86267412D01*
X98431874Y-86237392D01*
X98391762Y-86201462D01*
X98346330Y-86161003D01*
X98297151Y-86117393D01*
X98245795Y-86072013D01*
X98193834Y-86026240D01*
X98142841Y-85981456D01*
X98094386Y-85939038D01*
X98050042Y-85900366D01*
X98011379Y-85866821D01*
X97979970Y-85839780D01*
X97957386Y-85820623D01*
X97945199Y-85810730D01*
X97943536Y-85809667D01*
X97938115Y-85816943D01*
X97938115Y-85816943D01*
G37*
X97938115Y-85816943D02*
X97927769Y-85836630D01*
X97914104Y-85865515D01*
X97902130Y-85892468D01*
X97828801Y-86040755D01*
X97740861Y-86181301D01*
X97639537Y-86312260D01*
X97579149Y-86378905D01*
X97547697Y-86412684D01*
X97522675Y-86441444D01*
X97505726Y-86463163D01*
X97498492Y-86475817D01*
X97498716Y-86477915D01*
X97506758Y-86485102D01*
X97525875Y-86502075D01*
X97554454Y-86527406D01*
X97590880Y-86559667D01*
X97633542Y-86597428D01*
X97680827Y-86639260D01*
X97701383Y-86657440D01*
X97752251Y-86702427D01*
X97801082Y-86745615D01*
X97845860Y-86785223D01*
X97884569Y-86819466D01*
X97915195Y-86846562D01*
X97935721Y-86864728D01*
X97939415Y-86868000D01*
X97982432Y-86906100D01*
X97975697Y-86965367D01*
X97972739Y-87056802D01*
X97983253Y-87153086D01*
X98006466Y-87249912D01*
X98041607Y-87342975D01*
X98044573Y-87349408D01*
X98099575Y-87447735D01*
X98167215Y-87535351D01*
X98246316Y-87611339D01*
X98335701Y-87674783D01*
X98434196Y-87724766D01*
X98540622Y-87760370D01*
X98584495Y-87770253D01*
X98637822Y-87777499D01*
X98699960Y-87780955D01*
X98764497Y-87780645D01*
X98825017Y-87776590D01*
X98872960Y-87769285D01*
X98902062Y-87762838D01*
X98924664Y-87757585D01*
X98935245Y-87754841D01*
X98930927Y-87748848D01*
X98915196Y-87732897D01*
X98889361Y-87708204D01*
X98854733Y-87675985D01*
X98812622Y-87637456D01*
X98764338Y-87593831D01*
X98711191Y-87546328D01*
X98697010Y-87533734D01*
X98450750Y-87315301D01*
X98577503Y-87175808D01*
X98623543Y-87125099D01*
X98676731Y-87066447D01*
X98732870Y-87004485D01*
X98787766Y-86943843D01*
X98837223Y-86889152D01*
X98841382Y-86884549D01*
X98884889Y-86836622D01*
X98918632Y-86800112D01*
X98944016Y-86773708D01*
X98962446Y-86756097D01*
X98975326Y-86745967D01*
X98984060Y-86742007D01*
X98990053Y-86742904D01*
X98991737Y-86744101D01*
X99000950Y-86752177D01*
X99021314Y-86770151D01*
X99051318Y-86796685D01*
X99089447Y-86830438D01*
X99134187Y-86870071D01*
X99184026Y-86914243D01*
X99235832Y-86960181D01*
X99297385Y-87014607D01*
X99347539Y-87058522D01*
X99387410Y-87092822D01*
X99418117Y-87118400D01*
X99440777Y-87136152D01*
X99456507Y-87146972D01*
X99466425Y-87151754D01*
X99471648Y-87151392D01*
X99472752Y-87149821D01*
X99476473Y-87130526D01*
X99478476Y-87098375D01*
X99478891Y-87057346D01*
X99477848Y-87011415D01*
X99475474Y-86964561D01*
X99471899Y-86920760D01*
X99467251Y-86883989D01*
X99463520Y-86864928D01*
X99428786Y-86756349D01*
X99380640Y-86656472D01*
X99320288Y-86566214D01*
X99248937Y-86486492D01*
X99167794Y-86418225D01*
X99078066Y-86362329D01*
X98980959Y-86319722D01*
X98877679Y-86291321D01*
X98769435Y-86278044D01*
X98691700Y-86278221D01*
X98648093Y-86281476D01*
X98605608Y-86286257D01*
X98570225Y-86291814D01*
X98553996Y-86295453D01*
X98509424Y-86307731D01*
X98465096Y-86267412D01*
X98431874Y-86237392D01*
X98391762Y-86201462D01*
X98346330Y-86161003D01*
X98297151Y-86117393D01*
X98245795Y-86072013D01*
X98193834Y-86026240D01*
X98142841Y-85981456D01*
X98094386Y-85939038D01*
X98050042Y-85900366D01*
X98011379Y-85866821D01*
X97979970Y-85839780D01*
X97957386Y-85820623D01*
X97945199Y-85810730D01*
X97943536Y-85809667D01*
X97938115Y-85816943D01*
G36*
X95085467Y-85815898D02*
X95066284Y-85831586D01*
X95037142Y-85856288D01*
X94999363Y-85888859D01*
X94954271Y-85928153D01*
X94903190Y-85973025D01*
X94847442Y-86022330D01*
X94807108Y-86058191D01*
X94529317Y-86305705D01*
X94455742Y-86290081D01*
X94388627Y-86280500D01*
X94313122Y-86277425D01*
X94235732Y-86280653D01*
X94162964Y-86289981D01*
X94116036Y-86300658D01*
X94008177Y-86339741D01*
X93909423Y-86392436D01*
X93820759Y-86457693D01*
X93743171Y-86534459D01*
X93677643Y-86621685D01*
X93625160Y-86718319D01*
X93586708Y-86823310D01*
X93572648Y-86880550D01*
X93563820Y-86936682D01*
X93558704Y-86998134D01*
X93557525Y-87058691D01*
X93560508Y-87112139D01*
X93563505Y-87133566D01*
X93569367Y-87166298D01*
X93813890Y-86948829D01*
X93868271Y-86900779D01*
X93918768Y-86856761D01*
X93963984Y-86817949D01*
X94002522Y-86785516D01*
X94032983Y-86760635D01*
X94053971Y-86744480D01*
X94064086Y-86738224D01*
X94064719Y-86738297D01*
X94156283Y-86839168D01*
X94239996Y-86931660D01*
X94315459Y-87015326D01*
X94382278Y-87089721D01*
X94440055Y-87154399D01*
X94488393Y-87208915D01*
X94526896Y-87252822D01*
X94555167Y-87285675D01*
X94572810Y-87307029D01*
X94579429Y-87316437D01*
X94579455Y-87316770D01*
X94572757Y-87323763D01*
X94554776Y-87340706D01*
X94526914Y-87366326D01*
X94490570Y-87399352D01*
X94447145Y-87438513D01*
X94398038Y-87482536D01*
X94344650Y-87530151D01*
X94337084Y-87536880D01*
X94283499Y-87584695D01*
X94234271Y-87628958D01*
X94190755Y-87668424D01*
X94154307Y-87701851D01*
X94126281Y-87727995D01*
X94108032Y-87745611D01*
X94100914Y-87753456D01*
X94100894Y-87753716D01*
X94110360Y-87756907D01*
X94132210Y-87762119D01*
X94162168Y-87768351D01*
X94170004Y-87769871D01*
X94229149Y-87777715D01*
X94296618Y-87781086D01*
X94365700Y-87780018D01*
X94429686Y-87774548D01*
X94466833Y-87768336D01*
X94571144Y-87737656D01*
X94669764Y-87692197D01*
X94760987Y-87633404D01*
X94843106Y-87562720D01*
X94914415Y-87481591D01*
X94973207Y-87391459D01*
X95013165Y-87306025D01*
X95039397Y-87226954D01*
X95055438Y-87149146D01*
X95062300Y-87066425D01*
X95062284Y-87005882D01*
X95059500Y-86902464D01*
X95271167Y-86714862D01*
X95323252Y-86668686D01*
X95372572Y-86624938D01*
X95417359Y-86585188D01*
X95455845Y-86551005D01*
X95486261Y-86523961D01*
X95506840Y-86505626D01*
X95513767Y-86499424D01*
X95544700Y-86471587D01*
X95472800Y-86397218D01*
X95383488Y-86296382D01*
X95300184Y-86185737D01*
X95225724Y-86069543D01*
X95162939Y-85952061D01*
X95134304Y-85888183D01*
X95119827Y-85855292D01*
X95106853Y-85829299D01*
X95097137Y-85813543D01*
X95093367Y-85810370D01*
X95085467Y-85815898D01*
X95085467Y-85815898D01*
G37*
X95085467Y-85815898D02*
X95066284Y-85831586D01*
X95037142Y-85856288D01*
X94999363Y-85888859D01*
X94954271Y-85928153D01*
X94903190Y-85973025D01*
X94847442Y-86022330D01*
X94807108Y-86058191D01*
X94529317Y-86305705D01*
X94455742Y-86290081D01*
X94388627Y-86280500D01*
X94313122Y-86277425D01*
X94235732Y-86280653D01*
X94162964Y-86289981D01*
X94116036Y-86300658D01*
X94008177Y-86339741D01*
X93909423Y-86392436D01*
X93820759Y-86457693D01*
X93743171Y-86534459D01*
X93677643Y-86621685D01*
X93625160Y-86718319D01*
X93586708Y-86823310D01*
X93572648Y-86880550D01*
X93563820Y-86936682D01*
X93558704Y-86998134D01*
X93557525Y-87058691D01*
X93560508Y-87112139D01*
X93563505Y-87133566D01*
X93569367Y-87166298D01*
X93813890Y-86948829D01*
X93868271Y-86900779D01*
X93918768Y-86856761D01*
X93963984Y-86817949D01*
X94002522Y-86785516D01*
X94032983Y-86760635D01*
X94053971Y-86744480D01*
X94064086Y-86738224D01*
X94064719Y-86738297D01*
X94156283Y-86839168D01*
X94239996Y-86931660D01*
X94315459Y-87015326D01*
X94382278Y-87089721D01*
X94440055Y-87154399D01*
X94488393Y-87208915D01*
X94526896Y-87252822D01*
X94555167Y-87285675D01*
X94572810Y-87307029D01*
X94579429Y-87316437D01*
X94579455Y-87316770D01*
X94572757Y-87323763D01*
X94554776Y-87340706D01*
X94526914Y-87366326D01*
X94490570Y-87399352D01*
X94447145Y-87438513D01*
X94398038Y-87482536D01*
X94344650Y-87530151D01*
X94337084Y-87536880D01*
X94283499Y-87584695D01*
X94234271Y-87628958D01*
X94190755Y-87668424D01*
X94154307Y-87701851D01*
X94126281Y-87727995D01*
X94108032Y-87745611D01*
X94100914Y-87753456D01*
X94100894Y-87753716D01*
X94110360Y-87756907D01*
X94132210Y-87762119D01*
X94162168Y-87768351D01*
X94170004Y-87769871D01*
X94229149Y-87777715D01*
X94296618Y-87781086D01*
X94365700Y-87780018D01*
X94429686Y-87774548D01*
X94466833Y-87768336D01*
X94571144Y-87737656D01*
X94669764Y-87692197D01*
X94760987Y-87633404D01*
X94843106Y-87562720D01*
X94914415Y-87481591D01*
X94973207Y-87391459D01*
X95013165Y-87306025D01*
X95039397Y-87226954D01*
X95055438Y-87149146D01*
X95062300Y-87066425D01*
X95062284Y-87005882D01*
X95059500Y-86902464D01*
X95271167Y-86714862D01*
X95323252Y-86668686D01*
X95372572Y-86624938D01*
X95417359Y-86585188D01*
X95455845Y-86551005D01*
X95486261Y-86523961D01*
X95506840Y-86505626D01*
X95513767Y-86499424D01*
X95544700Y-86471587D01*
X95472800Y-86397218D01*
X95383488Y-86296382D01*
X95300184Y-86185737D01*
X95225724Y-86069543D01*
X95162939Y-85952061D01*
X95134304Y-85888183D01*
X95119827Y-85855292D01*
X95106853Y-85829299D01*
X95097137Y-85813543D01*
X95093367Y-85810370D01*
X95085467Y-85815898D01*
G36*
X96424750Y-83609271D02*
X96281026Y-83627301D01*
X96141337Y-83661333D01*
X96006559Y-83710731D01*
X95877570Y-83774861D01*
X95755246Y-83853088D01*
X95640465Y-83944778D01*
X95534104Y-84049295D01*
X95437040Y-84166004D01*
X95350149Y-84294272D01*
X95274309Y-84433462D01*
X95268041Y-84446533D01*
X95206198Y-84596105D01*
X95159743Y-84750432D01*
X95128513Y-84908136D01*
X95112345Y-85067837D01*
X95111075Y-85228159D01*
X95124541Y-85387722D01*
X95152578Y-85545149D01*
X95195023Y-85699060D01*
X95251714Y-85848077D01*
X95322486Y-85990822D01*
X95407177Y-86125916D01*
X95478105Y-86219409D01*
X95512489Y-86258827D01*
X95554941Y-86303813D01*
X95600977Y-86349896D01*
X95646108Y-86392609D01*
X95685850Y-86427483D01*
X95692188Y-86432665D01*
X95723742Y-86458097D01*
X95704888Y-86495832D01*
X95694711Y-86520221D01*
X95688890Y-86546491D01*
X95686431Y-86580459D01*
X95686152Y-86605534D01*
X95687037Y-86644378D01*
X95690349Y-86672480D01*
X95697305Y-86695986D01*
X95708967Y-86720744D01*
X95738349Y-86764092D01*
X95777457Y-86804148D01*
X95821151Y-86836284D01*
X95856086Y-86853225D01*
X95905075Y-86864541D01*
X95959893Y-86867517D01*
X96011513Y-86861824D01*
X96021968Y-86859258D01*
X96063622Y-86841541D01*
X96106517Y-86813027D01*
X96144548Y-86778174D01*
X96161730Y-86757153D01*
X96180623Y-86724150D01*
X96196597Y-86684408D01*
X96207979Y-86643581D01*
X96213095Y-86607321D01*
X96211987Y-86587353D01*
X96210274Y-86570350D01*
X96217683Y-86564040D01*
X96232345Y-86563200D01*
X96257533Y-86563200D01*
X96257533Y-86616881D01*
X96265431Y-86678576D01*
X96287829Y-86734457D01*
X96322789Y-86782766D01*
X96368371Y-86821744D01*
X96422635Y-86849630D01*
X96483642Y-86864667D01*
X96532700Y-86866451D01*
X96598438Y-86855251D01*
X96656681Y-86829853D01*
X96705749Y-86791923D01*
X96743964Y-86743125D01*
X96769644Y-86685122D01*
X96781068Y-86620350D01*
X96783572Y-86589332D01*
X96787305Y-86571801D01*
X96793360Y-86564314D01*
X96799180Y-86563200D01*
X96807893Y-86566412D01*
X96813544Y-86578364D01*
X96817442Y-86602526D01*
X96818669Y-86614895D01*
X96832517Y-86680812D01*
X96860505Y-86740440D01*
X96900874Y-86791397D01*
X96951864Y-86831304D01*
X96993754Y-86851702D01*
X97039097Y-86863149D01*
X97090491Y-86867144D01*
X97140400Y-86863542D01*
X97173943Y-86855184D01*
X97233967Y-86824359D01*
X97284448Y-86779882D01*
X97324413Y-86722704D01*
X97338130Y-86694434D01*
X97348767Y-86655847D01*
X97353293Y-86608181D01*
X97351717Y-86558143D01*
X97344050Y-86512442D01*
X97337853Y-86493109D01*
X97321849Y-86452651D01*
X97359074Y-86421241D01*
X97479102Y-86309174D01*
X97585500Y-86187092D01*
X97678143Y-86055197D01*
X97717340Y-85984773D01*
X96653525Y-85984773D01*
X96650974Y-86022546D01*
X96645257Y-86048792D01*
X96636927Y-86062319D01*
X96626539Y-86061934D01*
X96614650Y-86046446D01*
X96608014Y-86031917D01*
X96585145Y-85978599D01*
X96563845Y-85936237D01*
X96545054Y-85906472D01*
X96529712Y-85890947D01*
X96526550Y-85889492D01*
X96506352Y-85891419D01*
X96486625Y-85909662D01*
X96467831Y-85943602D01*
X96451248Y-85989875D01*
X96438527Y-86029780D01*
X96428295Y-86054702D01*
X96419477Y-86066216D01*
X96410997Y-86065893D01*
X96404137Y-86058727D01*
X96395005Y-86040084D01*
X96387913Y-86015497D01*
X96387703Y-86014409D01*
X96383554Y-85971336D01*
X96384940Y-85920409D01*
X96391124Y-85864522D01*
X96401368Y-85806569D01*
X96414935Y-85749444D01*
X96431088Y-85696042D01*
X96449090Y-85649257D01*
X96468202Y-85611982D01*
X96487688Y-85587113D01*
X96498460Y-85579697D01*
X96515330Y-85574543D01*
X96529268Y-85579460D01*
X96541401Y-85589753D01*
X96564081Y-85618854D01*
X96586298Y-85661565D01*
X96606994Y-85714572D01*
X96625107Y-85774561D01*
X96639579Y-85838220D01*
X96649350Y-85902234D01*
X96652352Y-85936667D01*
X96653525Y-85984773D01*
X97717340Y-85984773D01*
X97756904Y-85913691D01*
X97821659Y-85762776D01*
X97872281Y-85602654D01*
X97874753Y-85593196D01*
X97898827Y-85485456D01*
X97914837Y-85377667D01*
X97923451Y-85264209D01*
X97924770Y-85200067D01*
X97537503Y-85200067D01*
X97532372Y-85290617D01*
X97517085Y-85368618D01*
X97490925Y-85435580D01*
X97453174Y-85493011D01*
X97403116Y-85542422D01*
X97360266Y-85573110D01*
X97328423Y-85590845D01*
X97305287Y-85597108D01*
X97287604Y-85592410D01*
X97279528Y-85585851D01*
X97271950Y-85571110D01*
X97265150Y-85545827D01*
X97261747Y-85524468D01*
X97251861Y-85474429D01*
X97233405Y-85435722D01*
X97203607Y-85404335D01*
X97159694Y-85376256D01*
X97159127Y-85375953D01*
X97123531Y-85358236D01*
X97079618Y-85338191D01*
X97034995Y-85319245D01*
X97019533Y-85313085D01*
X96934831Y-85275656D01*
X96866629Y-85235658D01*
X96814653Y-85192825D01*
X96778628Y-85146890D01*
X96758279Y-85097587D01*
X96753183Y-85055963D01*
X96284232Y-85055963D01*
X96277760Y-85097935D01*
X96261090Y-85141910D01*
X96237446Y-85180531D01*
X96222388Y-85197055D01*
X96189283Y-85223004D01*
X96145850Y-85251083D01*
X96097791Y-85277957D01*
X96050807Y-85300294D01*
X96034874Y-85306727D01*
X95972271Y-85331756D01*
X95916850Y-85356375D01*
X95871242Y-85379309D01*
X95838072Y-85399287D01*
X95827974Y-85406915D01*
X95804990Y-85435002D01*
X95787029Y-85473607D01*
X95776579Y-85516503D01*
X95774934Y-85539637D01*
X95769965Y-85571798D01*
X95755537Y-85590340D01*
X95732366Y-85595178D01*
X95701170Y-85586227D01*
X95662665Y-85563402D01*
X95650468Y-85554356D01*
X95601259Y-85511370D01*
X95564165Y-85466248D01*
X95537036Y-85415178D01*
X95517724Y-85354345D01*
X95507054Y-85299887D01*
X95498583Y-85210926D01*
X95503618Y-85130823D01*
X95522850Y-85057370D01*
X95556968Y-84988357D01*
X95606665Y-84921575D01*
X95634801Y-84891145D01*
X95686354Y-84844296D01*
X95737602Y-84810975D01*
X95793449Y-84788599D01*
X95854780Y-84775194D01*
X95935842Y-84770758D01*
X96014093Y-84782524D01*
X96087696Y-84809929D01*
X96154812Y-84852409D01*
X96181544Y-84875474D01*
X96230732Y-84927955D01*
X96263795Y-84977617D01*
X96281162Y-85025212D01*
X96284232Y-85055963D01*
X96753183Y-85055963D01*
X96753100Y-85055289D01*
X96753831Y-85030392D01*
X96757667Y-85010334D01*
X96766591Y-84989901D01*
X96782586Y-84963882D01*
X96794716Y-84945887D01*
X96844967Y-84883424D01*
X96900199Y-84836424D01*
X96961675Y-84803833D01*
X96966599Y-84801930D01*
X97051039Y-84777931D01*
X97132432Y-84770484D01*
X97210165Y-84779381D01*
X97283625Y-84804417D01*
X97352198Y-84845385D01*
X97415272Y-84902079D01*
X97470323Y-84971467D01*
X97504049Y-85029387D01*
X97525335Y-85087655D01*
X97535777Y-85151705D01*
X97537503Y-85200067D01*
X97924770Y-85200067D01*
X97925467Y-85166200D01*
X97919948Y-85014257D01*
X97902898Y-84871412D01*
X97873574Y-84733717D01*
X97831237Y-84597219D01*
X97806497Y-84532017D01*
X97740273Y-84386873D01*
X97662005Y-84252834D01*
X97570367Y-84127896D01*
X97464035Y-84010056D01*
X97456020Y-84002034D01*
X97360855Y-83914477D01*
X97264068Y-83840296D01*
X97161106Y-83776190D01*
X97099967Y-83743916D01*
X96966558Y-83685417D01*
X96832860Y-83643232D01*
X96696787Y-83616945D01*
X96556253Y-83606139D01*
X96424750Y-83609271D01*
X96424750Y-83609271D01*
G37*
X96424750Y-83609271D02*
X96281026Y-83627301D01*
X96141337Y-83661333D01*
X96006559Y-83710731D01*
X95877570Y-83774861D01*
X95755246Y-83853088D01*
X95640465Y-83944778D01*
X95534104Y-84049295D01*
X95437040Y-84166004D01*
X95350149Y-84294272D01*
X95274309Y-84433462D01*
X95268041Y-84446533D01*
X95206198Y-84596105D01*
X95159743Y-84750432D01*
X95128513Y-84908136D01*
X95112345Y-85067837D01*
X95111075Y-85228159D01*
X95124541Y-85387722D01*
X95152578Y-85545149D01*
X95195023Y-85699060D01*
X95251714Y-85848077D01*
X95322486Y-85990822D01*
X95407177Y-86125916D01*
X95478105Y-86219409D01*
X95512489Y-86258827D01*
X95554941Y-86303813D01*
X95600977Y-86349896D01*
X95646108Y-86392609D01*
X95685850Y-86427483D01*
X95692188Y-86432665D01*
X95723742Y-86458097D01*
X95704888Y-86495832D01*
X95694711Y-86520221D01*
X95688890Y-86546491D01*
X95686431Y-86580459D01*
X95686152Y-86605534D01*
X95687037Y-86644378D01*
X95690349Y-86672480D01*
X95697305Y-86695986D01*
X95708967Y-86720744D01*
X95738349Y-86764092D01*
X95777457Y-86804148D01*
X95821151Y-86836284D01*
X95856086Y-86853225D01*
X95905075Y-86864541D01*
X95959893Y-86867517D01*
X96011513Y-86861824D01*
X96021968Y-86859258D01*
X96063622Y-86841541D01*
X96106517Y-86813027D01*
X96144548Y-86778174D01*
X96161730Y-86757153D01*
X96180623Y-86724150D01*
X96196597Y-86684408D01*
X96207979Y-86643581D01*
X96213095Y-86607321D01*
X96211987Y-86587353D01*
X96210274Y-86570350D01*
X96217683Y-86564040D01*
X96232345Y-86563200D01*
X96257533Y-86563200D01*
X96257533Y-86616881D01*
X96265431Y-86678576D01*
X96287829Y-86734457D01*
X96322789Y-86782766D01*
X96368371Y-86821744D01*
X96422635Y-86849630D01*
X96483642Y-86864667D01*
X96532700Y-86866451D01*
X96598438Y-86855251D01*
X96656681Y-86829853D01*
X96705749Y-86791923D01*
X96743964Y-86743125D01*
X96769644Y-86685122D01*
X96781068Y-86620350D01*
X96783572Y-86589332D01*
X96787305Y-86571801D01*
X96793360Y-86564314D01*
X96799180Y-86563200D01*
X96807893Y-86566412D01*
X96813544Y-86578364D01*
X96817442Y-86602526D01*
X96818669Y-86614895D01*
X96832517Y-86680812D01*
X96860505Y-86740440D01*
X96900874Y-86791397D01*
X96951864Y-86831304D01*
X96993754Y-86851702D01*
X97039097Y-86863149D01*
X97090491Y-86867144D01*
X97140400Y-86863542D01*
X97173943Y-86855184D01*
X97233967Y-86824359D01*
X97284448Y-86779882D01*
X97324413Y-86722704D01*
X97338130Y-86694434D01*
X97348767Y-86655847D01*
X97353293Y-86608181D01*
X97351717Y-86558143D01*
X97344050Y-86512442D01*
X97337853Y-86493109D01*
X97321849Y-86452651D01*
X97359074Y-86421241D01*
X97479102Y-86309174D01*
X97585500Y-86187092D01*
X97678143Y-86055197D01*
X97717340Y-85984773D01*
X96653525Y-85984773D01*
X96650974Y-86022546D01*
X96645257Y-86048792D01*
X96636927Y-86062319D01*
X96626539Y-86061934D01*
X96614650Y-86046446D01*
X96608014Y-86031917D01*
X96585145Y-85978599D01*
X96563845Y-85936237D01*
X96545054Y-85906472D01*
X96529712Y-85890947D01*
X96526550Y-85889492D01*
X96506352Y-85891419D01*
X96486625Y-85909662D01*
X96467831Y-85943602D01*
X96451248Y-85989875D01*
X96438527Y-86029780D01*
X96428295Y-86054702D01*
X96419477Y-86066216D01*
X96410997Y-86065893D01*
X96404137Y-86058727D01*
X96395005Y-86040084D01*
X96387913Y-86015497D01*
X96387703Y-86014409D01*
X96383554Y-85971336D01*
X96384940Y-85920409D01*
X96391124Y-85864522D01*
X96401368Y-85806569D01*
X96414935Y-85749444D01*
X96431088Y-85696042D01*
X96449090Y-85649257D01*
X96468202Y-85611982D01*
X96487688Y-85587113D01*
X96498460Y-85579697D01*
X96515330Y-85574543D01*
X96529268Y-85579460D01*
X96541401Y-85589753D01*
X96564081Y-85618854D01*
X96586298Y-85661565D01*
X96606994Y-85714572D01*
X96625107Y-85774561D01*
X96639579Y-85838220D01*
X96649350Y-85902234D01*
X96652352Y-85936667D01*
X96653525Y-85984773D01*
X97717340Y-85984773D01*
X97756904Y-85913691D01*
X97821659Y-85762776D01*
X97872281Y-85602654D01*
X97874753Y-85593196D01*
X97898827Y-85485456D01*
X97914837Y-85377667D01*
X97923451Y-85264209D01*
X97924770Y-85200067D01*
X97537503Y-85200067D01*
X97532372Y-85290617D01*
X97517085Y-85368618D01*
X97490925Y-85435580D01*
X97453174Y-85493011D01*
X97403116Y-85542422D01*
X97360266Y-85573110D01*
X97328423Y-85590845D01*
X97305287Y-85597108D01*
X97287604Y-85592410D01*
X97279528Y-85585851D01*
X97271950Y-85571110D01*
X97265150Y-85545827D01*
X97261747Y-85524468D01*
X97251861Y-85474429D01*
X97233405Y-85435722D01*
X97203607Y-85404335D01*
X97159694Y-85376256D01*
X97159127Y-85375953D01*
X97123531Y-85358236D01*
X97079618Y-85338191D01*
X97034995Y-85319245D01*
X97019533Y-85313085D01*
X96934831Y-85275656D01*
X96866629Y-85235658D01*
X96814653Y-85192825D01*
X96778628Y-85146890D01*
X96758279Y-85097587D01*
X96753183Y-85055963D01*
X96284232Y-85055963D01*
X96277760Y-85097935D01*
X96261090Y-85141910D01*
X96237446Y-85180531D01*
X96222388Y-85197055D01*
X96189283Y-85223004D01*
X96145850Y-85251083D01*
X96097791Y-85277957D01*
X96050807Y-85300294D01*
X96034874Y-85306727D01*
X95972271Y-85331756D01*
X95916850Y-85356375D01*
X95871242Y-85379309D01*
X95838072Y-85399287D01*
X95827974Y-85406915D01*
X95804990Y-85435002D01*
X95787029Y-85473607D01*
X95776579Y-85516503D01*
X95774934Y-85539637D01*
X95769965Y-85571798D01*
X95755537Y-85590340D01*
X95732366Y-85595178D01*
X95701170Y-85586227D01*
X95662665Y-85563402D01*
X95650468Y-85554356D01*
X95601259Y-85511370D01*
X95564165Y-85466248D01*
X95537036Y-85415178D01*
X95517724Y-85354345D01*
X95507054Y-85299887D01*
X95498583Y-85210926D01*
X95503618Y-85130823D01*
X95522850Y-85057370D01*
X95556968Y-84988357D01*
X95606665Y-84921575D01*
X95634801Y-84891145D01*
X95686354Y-84844296D01*
X95737602Y-84810975D01*
X95793449Y-84788599D01*
X95854780Y-84775194D01*
X95935842Y-84770758D01*
X96014093Y-84782524D01*
X96087696Y-84809929D01*
X96154812Y-84852409D01*
X96181544Y-84875474D01*
X96230732Y-84927955D01*
X96263795Y-84977617D01*
X96281162Y-85025212D01*
X96284232Y-85055963D01*
X96753183Y-85055963D01*
X96753100Y-85055289D01*
X96753831Y-85030392D01*
X96757667Y-85010334D01*
X96766591Y-84989901D01*
X96782586Y-84963882D01*
X96794716Y-84945887D01*
X96844967Y-84883424D01*
X96900199Y-84836424D01*
X96961675Y-84803833D01*
X96966599Y-84801930D01*
X97051039Y-84777931D01*
X97132432Y-84770484D01*
X97210165Y-84779381D01*
X97283625Y-84804417D01*
X97352198Y-84845385D01*
X97415272Y-84902079D01*
X97470323Y-84971467D01*
X97504049Y-85029387D01*
X97525335Y-85087655D01*
X97535777Y-85151705D01*
X97537503Y-85200067D01*
X97924770Y-85200067D01*
X97925467Y-85166200D01*
X97919948Y-85014257D01*
X97902898Y-84871412D01*
X97873574Y-84733717D01*
X97831237Y-84597219D01*
X97806497Y-84532017D01*
X97740273Y-84386873D01*
X97662005Y-84252834D01*
X97570367Y-84127896D01*
X97464035Y-84010056D01*
X97456020Y-84002034D01*
X97360855Y-83914477D01*
X97264068Y-83840296D01*
X97161106Y-83776190D01*
X97099967Y-83743916D01*
X96966558Y-83685417D01*
X96832860Y-83643232D01*
X96696787Y-83616945D01*
X96556253Y-83606139D01*
X96424750Y-83609271D01*
G36*
X98703136Y-82390638D02*
X98686330Y-82391210D01*
X98575926Y-82403284D01*
X98472957Y-82430114D01*
X98376338Y-82472174D01*
X98284980Y-82529937D01*
X98197797Y-82603875D01*
X98197771Y-82603900D01*
X98125394Y-82685066D01*
X98066604Y-82775911D01*
X98021774Y-82875526D01*
X97991278Y-82982999D01*
X97975487Y-83097422D01*
X97973270Y-83151672D01*
X97972033Y-83258043D01*
X97810837Y-83401438D01*
X97757041Y-83449233D01*
X97698364Y-83501259D01*
X97638862Y-83553928D01*
X97582592Y-83603650D01*
X97533610Y-83646837D01*
X97520174Y-83658657D01*
X97390709Y-83772480D01*
X97427371Y-83802259D01*
X97527185Y-83891758D01*
X97623403Y-83994302D01*
X97712876Y-84106008D01*
X97792456Y-84222994D01*
X97849462Y-84322710D01*
X97866038Y-84353736D01*
X97879866Y-84378096D01*
X97889065Y-84392557D01*
X97891600Y-84395137D01*
X97898590Y-84389609D01*
X97916978Y-84373922D01*
X97945512Y-84349171D01*
X97982941Y-84316454D01*
X98028012Y-84276868D01*
X98079475Y-84231510D01*
X98136078Y-84181476D01*
X98196321Y-84128083D01*
X98269130Y-84063640D01*
X98330370Y-84009840D01*
X98380981Y-83965908D01*
X98421899Y-83931071D01*
X98454065Y-83904555D01*
X98478414Y-83885586D01*
X98495887Y-83873389D01*
X98507421Y-83867192D01*
X98513821Y-83866181D01*
X98583646Y-83881397D01*
X98660907Y-83891097D01*
X98736736Y-83894329D01*
X98767900Y-83893427D01*
X98879616Y-83878968D01*
X98985873Y-83848955D01*
X99085390Y-83804246D01*
X99176882Y-83745697D01*
X99259066Y-83674165D01*
X99330658Y-83590507D01*
X99390377Y-83495580D01*
X99404054Y-83468634D01*
X99434432Y-83400171D01*
X99455691Y-83337194D01*
X99469145Y-83273906D01*
X99476108Y-83204506D01*
X99477875Y-83142667D01*
X99477511Y-83097725D01*
X99475983Y-83059035D01*
X99473502Y-83030016D01*
X99470279Y-83014090D01*
X99469850Y-83013216D01*
X99465992Y-83011015D01*
X99458477Y-83012912D01*
X99446455Y-83019617D01*
X99429076Y-83031841D01*
X99405489Y-83050293D01*
X99374845Y-83075682D01*
X99336294Y-83108718D01*
X99288984Y-83150111D01*
X99232067Y-83200571D01*
X99164692Y-83260807D01*
X99086008Y-83331529D01*
X99054170Y-83360215D01*
X98984840Y-83422714D01*
X98720828Y-83129812D01*
X98456815Y-82836909D01*
X98474267Y-82818338D01*
X98484645Y-82808415D01*
X98506107Y-82788755D01*
X98537032Y-82760817D01*
X98575796Y-82726055D01*
X98620776Y-82685927D01*
X98670352Y-82641888D01*
X98707199Y-82609267D01*
X98763646Y-82558956D01*
X98812556Y-82514539D01*
X98852946Y-82476955D01*
X98883831Y-82447141D01*
X98904227Y-82426035D01*
X98913152Y-82414575D01*
X98913209Y-82412841D01*
X98891071Y-82404586D01*
X98855521Y-82397907D01*
X98810032Y-82393136D01*
X98758079Y-82390602D01*
X98703136Y-82390638D01*
X98703136Y-82390638D01*
G37*
X98703136Y-82390638D02*
X98686330Y-82391210D01*
X98575926Y-82403284D01*
X98472957Y-82430114D01*
X98376338Y-82472174D01*
X98284980Y-82529937D01*
X98197797Y-82603875D01*
X98197771Y-82603900D01*
X98125394Y-82685066D01*
X98066604Y-82775911D01*
X98021774Y-82875526D01*
X97991278Y-82982999D01*
X97975487Y-83097422D01*
X97973270Y-83151672D01*
X97972033Y-83258043D01*
X97810837Y-83401438D01*
X97757041Y-83449233D01*
X97698364Y-83501259D01*
X97638862Y-83553928D01*
X97582592Y-83603650D01*
X97533610Y-83646837D01*
X97520174Y-83658657D01*
X97390709Y-83772480D01*
X97427371Y-83802259D01*
X97527185Y-83891758D01*
X97623403Y-83994302D01*
X97712876Y-84106008D01*
X97792456Y-84222994D01*
X97849462Y-84322710D01*
X97866038Y-84353736D01*
X97879866Y-84378096D01*
X97889065Y-84392557D01*
X97891600Y-84395137D01*
X97898590Y-84389609D01*
X97916978Y-84373922D01*
X97945512Y-84349171D01*
X97982941Y-84316454D01*
X98028012Y-84276868D01*
X98079475Y-84231510D01*
X98136078Y-84181476D01*
X98196321Y-84128083D01*
X98269130Y-84063640D01*
X98330370Y-84009840D01*
X98380981Y-83965908D01*
X98421899Y-83931071D01*
X98454065Y-83904555D01*
X98478414Y-83885586D01*
X98495887Y-83873389D01*
X98507421Y-83867192D01*
X98513821Y-83866181D01*
X98583646Y-83881397D01*
X98660907Y-83891097D01*
X98736736Y-83894329D01*
X98767900Y-83893427D01*
X98879616Y-83878968D01*
X98985873Y-83848955D01*
X99085390Y-83804246D01*
X99176882Y-83745697D01*
X99259066Y-83674165D01*
X99330658Y-83590507D01*
X99390377Y-83495580D01*
X99404054Y-83468634D01*
X99434432Y-83400171D01*
X99455691Y-83337194D01*
X99469145Y-83273906D01*
X99476108Y-83204506D01*
X99477875Y-83142667D01*
X99477511Y-83097725D01*
X99475983Y-83059035D01*
X99473502Y-83030016D01*
X99470279Y-83014090D01*
X99469850Y-83013216D01*
X99465992Y-83011015D01*
X99458477Y-83012912D01*
X99446455Y-83019617D01*
X99429076Y-83031841D01*
X99405489Y-83050293D01*
X99374845Y-83075682D01*
X99336294Y-83108718D01*
X99288984Y-83150111D01*
X99232067Y-83200571D01*
X99164692Y-83260807D01*
X99086008Y-83331529D01*
X99054170Y-83360215D01*
X98984840Y-83422714D01*
X98720828Y-83129812D01*
X98456815Y-82836909D01*
X98474267Y-82818338D01*
X98484645Y-82808415D01*
X98506107Y-82788755D01*
X98537032Y-82760817D01*
X98575796Y-82726055D01*
X98620776Y-82685927D01*
X98670352Y-82641888D01*
X98707199Y-82609267D01*
X98763646Y-82558956D01*
X98812556Y-82514539D01*
X98852946Y-82476955D01*
X98883831Y-82447141D01*
X98904227Y-82426035D01*
X98913152Y-82414575D01*
X98913209Y-82412841D01*
X98891071Y-82404586D01*
X98855521Y-82397907D01*
X98810032Y-82393136D01*
X98758079Y-82390602D01*
X98703136Y-82390638D01*
G36*
X94269571Y-82390313D02*
X94224194Y-82393536D01*
X94182879Y-82398327D01*
X94149346Y-82404212D01*
X94127314Y-82410717D01*
X94122059Y-82413791D01*
X94126767Y-82420412D01*
X94142843Y-82436926D01*
X94168929Y-82462060D01*
X94203660Y-82494542D01*
X94245678Y-82533098D01*
X94293619Y-82576457D01*
X94346123Y-82623346D01*
X94348364Y-82625335D01*
X94416254Y-82686000D01*
X94472418Y-82737107D01*
X94516602Y-82778417D01*
X94548554Y-82809685D01*
X94568021Y-82830670D01*
X94574749Y-82841131D01*
X94574605Y-82841849D01*
X94567809Y-82850088D01*
X94550812Y-82869567D01*
X94524780Y-82898981D01*
X94490883Y-82937020D01*
X94450288Y-82982377D01*
X94404162Y-83033744D01*
X94353673Y-83089814D01*
X94311139Y-83136939D01*
X94053844Y-83421721D01*
X93997872Y-83372034D01*
X93914372Y-83297940D01*
X93842608Y-83234346D01*
X93781675Y-83180485D01*
X93730670Y-83135589D01*
X93688688Y-83098889D01*
X93654827Y-83069618D01*
X93628181Y-83047008D01*
X93607847Y-83030290D01*
X93592922Y-83018696D01*
X93582501Y-83011460D01*
X93575681Y-83007811D01*
X93571556Y-83006984D01*
X93569428Y-83007990D01*
X93566169Y-83019638D01*
X93563693Y-83045709D01*
X93562144Y-83083703D01*
X93561669Y-83131120D01*
X93561711Y-83140978D01*
X93562652Y-83197504D01*
X93564940Y-83241668D01*
X93569028Y-83278015D01*
X93575371Y-83311094D01*
X93580839Y-83332710D01*
X93618131Y-83438434D01*
X93669686Y-83536324D01*
X93734240Y-83625117D01*
X93810526Y-83703551D01*
X93897278Y-83770366D01*
X93993230Y-83824299D01*
X94097116Y-83864089D01*
X94120768Y-83870782D01*
X94199177Y-83887139D01*
X94278394Y-83894134D01*
X94362012Y-83891729D01*
X94453626Y-83879885D01*
X94521867Y-83866519D01*
X94528184Y-83866636D01*
X94537059Y-83869934D01*
X94549584Y-83877306D01*
X94566851Y-83889641D01*
X94589955Y-83907830D01*
X94619988Y-83932765D01*
X94658043Y-83965335D01*
X94705213Y-84006432D01*
X94762590Y-84056946D01*
X94831269Y-84117768D01*
X94843600Y-84128711D01*
X94904087Y-84182325D01*
X94960692Y-84232345D01*
X95012162Y-84277674D01*
X95057245Y-84317219D01*
X95094689Y-84349882D01*
X95123242Y-84374568D01*
X95141650Y-84390181D01*
X95148660Y-84395625D01*
X95154164Y-84388621D01*
X95165017Y-84369822D01*
X95179256Y-84342709D01*
X95185560Y-84330117D01*
X95223626Y-84259895D01*
X95271009Y-84183471D01*
X95324421Y-84105950D01*
X95364359Y-84052833D01*
X95389173Y-84023034D01*
X95421460Y-83987089D01*
X95458573Y-83947662D01*
X95497865Y-83907412D01*
X95536690Y-83869004D01*
X95572401Y-83835097D01*
X95602352Y-83808355D01*
X95623896Y-83791438D01*
X95624995Y-83790708D01*
X95648622Y-83775268D01*
X95600363Y-83732017D01*
X95583042Y-83716577D01*
X95554774Y-83691477D01*
X95517307Y-83658265D01*
X95472387Y-83618489D01*
X95421762Y-83573695D01*
X95367179Y-83525432D01*
X95310387Y-83475246D01*
X95306436Y-83471755D01*
X95060769Y-83254744D01*
X95062800Y-83158489D01*
X95057413Y-83043641D01*
X95036348Y-82934793D01*
X94999704Y-82832306D01*
X94947580Y-82736537D01*
X94946255Y-82734501D01*
X94876746Y-82642625D01*
X94797338Y-82564066D01*
X94709002Y-82499358D01*
X94612712Y-82449032D01*
X94509438Y-82413619D01*
X94400152Y-82393653D01*
X94315292Y-82389134D01*
X94269571Y-82390313D01*
X94269571Y-82390313D01*
G37*
X94269571Y-82390313D02*
X94224194Y-82393536D01*
X94182879Y-82398327D01*
X94149346Y-82404212D01*
X94127314Y-82410717D01*
X94122059Y-82413791D01*
X94126767Y-82420412D01*
X94142843Y-82436926D01*
X94168929Y-82462060D01*
X94203660Y-82494542D01*
X94245678Y-82533098D01*
X94293619Y-82576457D01*
X94346123Y-82623346D01*
X94348364Y-82625335D01*
X94416254Y-82686000D01*
X94472418Y-82737107D01*
X94516602Y-82778417D01*
X94548554Y-82809685D01*
X94568021Y-82830670D01*
X94574749Y-82841131D01*
X94574605Y-82841849D01*
X94567809Y-82850088D01*
X94550812Y-82869567D01*
X94524780Y-82898981D01*
X94490883Y-82937020D01*
X94450288Y-82982377D01*
X94404162Y-83033744D01*
X94353673Y-83089814D01*
X94311139Y-83136939D01*
X94053844Y-83421721D01*
X93997872Y-83372034D01*
X93914372Y-83297940D01*
X93842608Y-83234346D01*
X93781675Y-83180485D01*
X93730670Y-83135589D01*
X93688688Y-83098889D01*
X93654827Y-83069618D01*
X93628181Y-83047008D01*
X93607847Y-83030290D01*
X93592922Y-83018696D01*
X93582501Y-83011460D01*
X93575681Y-83007811D01*
X93571556Y-83006984D01*
X93569428Y-83007990D01*
X93566169Y-83019638D01*
X93563693Y-83045709D01*
X93562144Y-83083703D01*
X93561669Y-83131120D01*
X93561711Y-83140978D01*
X93562652Y-83197504D01*
X93564940Y-83241668D01*
X93569028Y-83278015D01*
X93575371Y-83311094D01*
X93580839Y-83332710D01*
X93618131Y-83438434D01*
X93669686Y-83536324D01*
X93734240Y-83625117D01*
X93810526Y-83703551D01*
X93897278Y-83770366D01*
X93993230Y-83824299D01*
X94097116Y-83864089D01*
X94120768Y-83870782D01*
X94199177Y-83887139D01*
X94278394Y-83894134D01*
X94362012Y-83891729D01*
X94453626Y-83879885D01*
X94521867Y-83866519D01*
X94528184Y-83866636D01*
X94537059Y-83869934D01*
X94549584Y-83877306D01*
X94566851Y-83889641D01*
X94589955Y-83907830D01*
X94619988Y-83932765D01*
X94658043Y-83965335D01*
X94705213Y-84006432D01*
X94762590Y-84056946D01*
X94831269Y-84117768D01*
X94843600Y-84128711D01*
X94904087Y-84182325D01*
X94960692Y-84232345D01*
X95012162Y-84277674D01*
X95057245Y-84317219D01*
X95094689Y-84349882D01*
X95123242Y-84374568D01*
X95141650Y-84390181D01*
X95148660Y-84395625D01*
X95154164Y-84388621D01*
X95165017Y-84369822D01*
X95179256Y-84342709D01*
X95185560Y-84330117D01*
X95223626Y-84259895D01*
X95271009Y-84183471D01*
X95324421Y-84105950D01*
X95364359Y-84052833D01*
X95389173Y-84023034D01*
X95421460Y-83987089D01*
X95458573Y-83947662D01*
X95497865Y-83907412D01*
X95536690Y-83869004D01*
X95572401Y-83835097D01*
X95602352Y-83808355D01*
X95623896Y-83791438D01*
X95624995Y-83790708D01*
X95648622Y-83775268D01*
X95600363Y-83732017D01*
X95583042Y-83716577D01*
X95554774Y-83691477D01*
X95517307Y-83658265D01*
X95472387Y-83618489D01*
X95421762Y-83573695D01*
X95367179Y-83525432D01*
X95310387Y-83475246D01*
X95306436Y-83471755D01*
X95060769Y-83254744D01*
X95062800Y-83158489D01*
X95057413Y-83043641D01*
X95036348Y-82934793D01*
X94999704Y-82832306D01*
X94947580Y-82736537D01*
X94946255Y-82734501D01*
X94876746Y-82642625D01*
X94797338Y-82564066D01*
X94709002Y-82499358D01*
X94612712Y-82449032D01*
X94509438Y-82413619D01*
X94400152Y-82393653D01*
X94315292Y-82389134D01*
X94269571Y-82390313D01*
D14*
X96003724Y-80724067D02*
X96610867Y-80724067D01*
X96732295Y-80683591D01*
X96813248Y-80602639D01*
X96853724Y-80481210D01*
X96853724Y-80400258D01*
X96853724Y-81128829D02*
X96003724Y-81128829D01*
X96003724Y-81452638D01*
X96044200Y-81533591D01*
X96084676Y-81574067D01*
X96165629Y-81614543D01*
X96287057Y-81614543D01*
X96368010Y-81574067D01*
X96408486Y-81533591D01*
X96448962Y-81452638D01*
X96448962Y-81128829D01*
X96853724Y-82424067D02*
X96853724Y-81938353D01*
X96853724Y-82181210D02*
X96003724Y-82181210D01*
X96125152Y-82100258D01*
X96206105Y-82019305D01*
X96246581Y-81938353D01*
X94733724Y-80724067D02*
X95340867Y-80724067D01*
X95462295Y-80683591D01*
X95543248Y-80602639D01*
X95583724Y-80481210D01*
X95583724Y-80400258D01*
X95583724Y-81128829D02*
X94733724Y-81128829D01*
X94733724Y-81452638D01*
X94774200Y-81533591D01*
X94814676Y-81574067D01*
X94895629Y-81614543D01*
X95017057Y-81614543D01*
X95098010Y-81574067D01*
X95138486Y-81533591D01*
X95178962Y-81452638D01*
X95178962Y-81128829D01*
X94814676Y-81938353D02*
X94774200Y-81978829D01*
X94733724Y-82059781D01*
X94733724Y-82262162D01*
X94774200Y-82343115D01*
X94814676Y-82383591D01*
X94895629Y-82424067D01*
X94976581Y-82424067D01*
X95098010Y-82383591D01*
X95583724Y-81897877D01*
X95583724Y-82424067D01*
D12*
X94313724Y-77582333D02*
X93908962Y-77299000D01*
X94313724Y-77096619D02*
X93463724Y-77096619D01*
X93463724Y-77420428D01*
X93504200Y-77501381D01*
X93544676Y-77541857D01*
X93625629Y-77582333D01*
X93747057Y-77582333D01*
X93828010Y-77541857D01*
X93868486Y-77501381D01*
X93908962Y-77420428D01*
X93908962Y-77096619D01*
X93828010Y-78068048D02*
X93787533Y-77987095D01*
X93747057Y-77946619D01*
X93666105Y-77906143D01*
X93625629Y-77906143D01*
X93544676Y-77946619D01*
X93504200Y-77987095D01*
X93463724Y-78068048D01*
X93463724Y-78229952D01*
X93504200Y-78310905D01*
X93544676Y-78351381D01*
X93625629Y-78391857D01*
X93666105Y-78391857D01*
X93747057Y-78351381D01*
X93787533Y-78310905D01*
X93828010Y-78229952D01*
X93828010Y-78068048D01*
X93868486Y-77987095D01*
X93908962Y-77946619D01*
X93989914Y-77906143D01*
X94151819Y-77906143D01*
X94232771Y-77946619D01*
X94273248Y-77987095D01*
X94313724Y-78068048D01*
X94313724Y-78229952D01*
X94273248Y-78310905D01*
X94232771Y-78351381D01*
X94151819Y-78391857D01*
X93989914Y-78391857D01*
X93908962Y-78351381D01*
X93868486Y-78310905D01*
X93828010Y-78229952D01*
X98174524Y-77582333D02*
X97769762Y-77299000D01*
X98174524Y-77096619D02*
X97324524Y-77096619D01*
X97324524Y-77420428D01*
X97365000Y-77501381D01*
X97405476Y-77541857D01*
X97486429Y-77582333D01*
X97607857Y-77582333D01*
X97688810Y-77541857D01*
X97729286Y-77501381D01*
X97769762Y-77420428D01*
X97769762Y-77096619D01*
X97324524Y-77865667D02*
X97324524Y-78432333D01*
X98174524Y-78068048D01*
M02*
