M48
INCH,TZ
T1C0.013
T2C0.040
%
G90
G05
T1
X33050Y-25373
X33225Y-27725
X35670Y-31120
X35670Y-31780
X35817Y-29300
X35833Y-33250
X36330Y-31120
X36330Y-31780
X36450Y-29800
X37475Y-30450
X37475Y-31150
X37975Y-31150
X38475Y-32975
X38500Y-30141
X38500Y-31559
T2
X31750Y-29250
X31750Y-30250
X31750Y-31250
X31750Y-32250
X31750Y-33250
X31750Y-34250
X34000Y-25750
X34000Y-26750
X35000Y-25750
X35000Y-26750
X36000Y-25750
X36000Y-26750
X37000Y-25750
X37000Y-26750
X38000Y-25750
X38000Y-26750
X40250Y-29250
X40250Y-30250
X40250Y-31250
X40250Y-32250
X40250Y-33250
X40250Y-34250
T0
M30
