G04 #@! TF.FileFunction,Copper,L2,Bot,Signal*
%FSLAX46Y46*%
G04 Gerber Fmt 4.6, Leading zero omitted, Abs format (unit mm)*
G04 Created by KiCad (PCBNEW (2015-08-16 BZR 6097, Git b384c94)-product) date 08/12/2015 20:08:44*
%MOMM*%
G01*
G04 APERTURE LIST*
%ADD10C,0.100000*%
%ADD11R,0.762000X0.508000*%
%ADD12R,2.032000X1.727200*%
%ADD13O,2.032000X1.727200*%
%ADD14R,0.600000X0.400000*%
%ADD15R,1.675000X1.675000*%
%ADD16R,1.727200X1.727200*%
%ADD17O,1.727200X1.727200*%
%ADD18C,0.584200*%
%ADD19C,0.508000*%
%ADD20C,0.304800*%
%ADD21C,0.152400*%
G04 APERTURE END LIST*
D10*
D11*
X96456500Y-79146400D03*
X96456500Y-79857600D03*
X95186500Y-79146400D03*
X95186500Y-79857600D03*
D12*
X80645000Y-74295000D03*
D13*
X80645000Y-76835000D03*
X80645000Y-79375000D03*
X80645000Y-81915000D03*
X80645000Y-84455000D03*
X80645000Y-86995000D03*
D12*
X102235000Y-86995000D03*
D13*
X102235000Y-84455000D03*
X102235000Y-81915000D03*
X102235000Y-79375000D03*
X102235000Y-76835000D03*
X102235000Y-74295000D03*
D14*
X95186500Y-77274000D03*
X95186500Y-78174000D03*
X96456500Y-77274000D03*
X96456500Y-78174000D03*
D15*
X92277500Y-80720500D03*
X92277500Y-79045500D03*
X90602500Y-80720500D03*
X90602500Y-79045500D03*
D16*
X86360000Y-67945000D03*
D17*
X86360000Y-65405000D03*
X88900000Y-67945000D03*
X88900000Y-65405000D03*
X91440000Y-67945000D03*
X91440000Y-65405000D03*
X93980000Y-67945000D03*
X93980000Y-65405000D03*
X96520000Y-67945000D03*
X96520000Y-65405000D03*
D18*
X91017000Y-84455000D03*
X97726500Y-83756500D03*
X95186500Y-77343000D03*
X92277500Y-79045500D03*
X92277500Y-80720500D03*
X90602500Y-80720500D03*
X90602500Y-79045500D03*
X97790000Y-80159860D03*
X92583000Y-75692000D03*
X83947000Y-64447000D03*
X84391500Y-70421500D03*
X90974000Y-74422000D03*
X97790000Y-76558140D03*
D19*
X96456500Y-79121000D03*
X95186500Y-79121000D03*
D20*
X93916500Y-78232000D02*
X93916500Y-84455000D01*
X94869000Y-77279500D02*
X93916500Y-78232000D01*
X95181000Y-77279500D02*
X94869000Y-77279500D01*
X93853000Y-84391500D02*
X93789500Y-84455000D01*
X93853000Y-84455000D02*
X93853000Y-84391500D01*
X93916500Y-84455000D02*
X93853000Y-84455000D01*
X95186500Y-77274000D02*
X95181000Y-77279500D01*
X93091000Y-84455000D02*
X91017000Y-84455000D01*
X93091000Y-84455000D02*
X93789500Y-84455000D01*
X93789500Y-84455000D02*
X97028000Y-84455000D01*
X97028000Y-84455000D02*
X97726500Y-83756500D01*
X95186500Y-77343000D02*
X95186500Y-77274000D01*
X95186500Y-77274000D02*
X96456500Y-77274000D01*
X92277500Y-79045500D02*
X92278200Y-79044800D01*
X92277500Y-80720500D02*
X92278200Y-80721200D01*
X90602500Y-80720500D02*
X90601800Y-80721200D01*
X90602500Y-79045500D02*
X90601800Y-79044800D01*
X95186500Y-79857600D02*
X96456500Y-79857600D01*
X101114860Y-76835000D02*
X102235000Y-76835000D01*
X97790000Y-80159860D02*
X101114860Y-76835000D01*
X91440000Y-67945000D02*
X91440000Y-67818000D01*
X91440000Y-67818000D02*
X92583000Y-66675000D01*
X100901500Y-75501500D02*
X102235000Y-76835000D01*
X100901500Y-73660000D02*
X100901500Y-75501500D01*
X102806500Y-71755000D02*
X100901500Y-73660000D01*
X102806500Y-66675000D02*
X102806500Y-71755000D01*
X101536500Y-65405000D02*
X102806500Y-66675000D01*
X100203000Y-65405000D02*
X101536500Y-65405000D01*
X98933000Y-66675000D02*
X100203000Y-65405000D01*
X92583000Y-66675000D02*
X98933000Y-66675000D01*
X92583000Y-75692000D02*
X92583000Y-74777600D01*
X91617800Y-73812400D02*
X91617800Y-68122800D01*
X92583000Y-74777600D02*
X91617800Y-73812400D01*
X91617800Y-68122800D02*
X91440000Y-67945000D01*
X83947000Y-64447000D02*
X83947000Y-64452500D01*
X90974000Y-74422000D02*
X90995500Y-74422000D01*
X97790000Y-76558140D02*
X97790000Y-76581000D01*
D21*
X96456500Y-79146400D02*
X96456500Y-78174000D01*
X96456500Y-79121000D02*
X96456500Y-79146400D01*
X95186500Y-79146400D02*
X95186500Y-78174000D01*
X95186500Y-79121000D02*
X95186500Y-79146400D01*
G36*
X103734800Y-78028800D02*
X102413774Y-78028800D01*
X102870621Y-77937927D01*
X103257918Y-77679144D01*
X103516701Y-77291847D01*
X103607574Y-76835000D01*
X103516701Y-76378153D01*
X103257918Y-75990856D01*
X102870621Y-75732073D01*
X102413774Y-75641200D01*
X102056226Y-75641200D01*
X101778870Y-75696370D01*
X101434960Y-75352460D01*
X101463872Y-75377592D01*
X101925260Y-75531961D01*
X102120700Y-75446095D01*
X102120700Y-74409300D01*
X102349300Y-74409300D01*
X102349300Y-75446095D01*
X102544740Y-75531961D01*
X103006128Y-75377592D01*
X103373320Y-75058408D01*
X103590415Y-74623002D01*
X103593601Y-74601768D01*
X103531052Y-74409300D01*
X102349300Y-74409300D01*
X102120700Y-74409300D01*
X102100700Y-74409300D01*
X102100700Y-74180700D01*
X102120700Y-74180700D01*
X102120700Y-73143905D01*
X102349300Y-73143905D01*
X102349300Y-74180700D01*
X103531052Y-74180700D01*
X103593601Y-73988232D01*
X103590415Y-73966998D01*
X103373320Y-73531592D01*
X103006128Y-73212408D01*
X102544740Y-73058039D01*
X102349300Y-73143905D01*
X102120700Y-73143905D01*
X102106384Y-73137616D01*
X103147750Y-72096250D01*
X103252364Y-71939683D01*
X103289100Y-71755000D01*
X103289100Y-66675000D01*
X103252364Y-66490317D01*
X103147750Y-66333750D01*
X101877750Y-65063750D01*
X101721183Y-64959136D01*
X101536500Y-64922400D01*
X100203000Y-64922400D01*
X100018317Y-64959136D01*
X99861750Y-65063750D01*
X98733100Y-66192400D01*
X97469895Y-66192400D01*
X97516999Y-66150016D01*
X97726212Y-65711770D01*
X97664101Y-65519300D01*
X96634300Y-65519300D01*
X96634300Y-65539300D01*
X96405700Y-65539300D01*
X96405700Y-65519300D01*
X95375899Y-65519300D01*
X95313788Y-65711770D01*
X95523001Y-66150016D01*
X95570105Y-66192400D01*
X94929895Y-66192400D01*
X94976999Y-66150016D01*
X95186212Y-65711770D01*
X95124101Y-65519300D01*
X94094300Y-65519300D01*
X94094300Y-65539300D01*
X93865700Y-65539300D01*
X93865700Y-65519300D01*
X92835899Y-65519300D01*
X92773788Y-65711770D01*
X92983001Y-66150016D01*
X93030105Y-66192400D01*
X92583000Y-66192400D01*
X92398317Y-66229136D01*
X92241750Y-66333750D01*
X91780048Y-66795452D01*
X91440000Y-66727812D01*
X90983153Y-66818685D01*
X90595856Y-67077468D01*
X90337073Y-67464765D01*
X90246200Y-67921612D01*
X90246200Y-67968388D01*
X90337073Y-68425235D01*
X90595856Y-68812532D01*
X90983153Y-69071315D01*
X91135200Y-69101559D01*
X91135200Y-73812400D01*
X91171936Y-73997083D01*
X91276550Y-74153650D01*
X92100400Y-74977500D01*
X92100400Y-75294460D01*
X92055747Y-75339035D01*
X91960808Y-75567674D01*
X91960592Y-75815240D01*
X92055132Y-76044044D01*
X92230035Y-76219253D01*
X92458674Y-76314192D01*
X92706240Y-76314408D01*
X92935044Y-76219868D01*
X93110253Y-76044965D01*
X93205192Y-75816326D01*
X93205408Y-75568760D01*
X93110868Y-75339956D01*
X93065600Y-75294609D01*
X93065600Y-74777600D01*
X93028864Y-74592917D01*
X92924250Y-74436350D01*
X92100400Y-73612500D01*
X92100400Y-68935306D01*
X92284144Y-68812532D01*
X92542927Y-68425235D01*
X92633800Y-67968388D01*
X92633800Y-67921612D01*
X92542927Y-67464765D01*
X92516014Y-67424486D01*
X92782900Y-67157600D01*
X93082314Y-67157600D01*
X92877073Y-67464765D01*
X92786200Y-67921612D01*
X92786200Y-67968388D01*
X92877073Y-68425235D01*
X93135856Y-68812532D01*
X93523153Y-69071315D01*
X93980000Y-69162188D01*
X94436847Y-69071315D01*
X94824144Y-68812532D01*
X95082927Y-68425235D01*
X95173800Y-67968388D01*
X95173800Y-67921612D01*
X95082927Y-67464765D01*
X94877686Y-67157600D01*
X95622314Y-67157600D01*
X95417073Y-67464765D01*
X95326200Y-67921612D01*
X95326200Y-67968388D01*
X95417073Y-68425235D01*
X95675856Y-68812532D01*
X96063153Y-69071315D01*
X96520000Y-69162188D01*
X96976847Y-69071315D01*
X97364144Y-68812532D01*
X97622927Y-68425235D01*
X97713800Y-67968388D01*
X97713800Y-67921612D01*
X97622927Y-67464765D01*
X97417686Y-67157600D01*
X98933000Y-67157600D01*
X99117683Y-67120864D01*
X99274250Y-67016250D01*
X100402900Y-65887600D01*
X101336600Y-65887600D01*
X102323900Y-66874900D01*
X102323900Y-71555100D01*
X100560250Y-73318750D01*
X100455636Y-73475317D01*
X100418900Y-73660000D01*
X100418900Y-75501500D01*
X100455636Y-75686183D01*
X100560250Y-75842750D01*
X101010318Y-76292818D01*
X100953299Y-76378153D01*
X100951977Y-76384800D01*
X100930177Y-76389136D01*
X100773610Y-76493750D01*
X97729853Y-79537507D01*
X97666760Y-79537452D01*
X97437956Y-79631992D01*
X97262747Y-79806895D01*
X97174169Y-80020215D01*
X97174169Y-79603600D01*
X97154350Y-79498271D01*
X97174169Y-79400400D01*
X97174169Y-78892400D01*
X97151144Y-78770035D01*
X97078827Y-78657651D01*
X96999408Y-78603386D01*
X97066644Y-78504983D01*
X97093169Y-78374000D01*
X97093169Y-77974000D01*
X97070144Y-77851635D01*
X96997827Y-77739251D01*
X96977200Y-77725157D01*
X96977200Y-77724367D01*
X96991249Y-77715327D01*
X97066644Y-77604983D01*
X97093169Y-77474000D01*
X97093169Y-77074000D01*
X97070144Y-76951635D01*
X96997827Y-76839251D01*
X96977200Y-76825157D01*
X96977200Y-76708000D01*
X96971197Y-76678354D01*
X96954132Y-76653379D01*
X96928695Y-76637011D01*
X96901000Y-76631800D01*
X94107000Y-76631800D01*
X94077354Y-76637803D01*
X94052379Y-76654868D01*
X94036011Y-76680305D01*
X94030800Y-76708000D01*
X94030800Y-77435200D01*
X93691200Y-77774800D01*
X84740564Y-77774800D01*
X82626200Y-75660436D01*
X82626200Y-72263000D01*
X82620197Y-72233354D01*
X82603132Y-72208379D01*
X82577695Y-72192011D01*
X82550000Y-72186800D01*
X79145200Y-72186800D01*
X79145200Y-67081400D01*
X85159731Y-67081400D01*
X85159731Y-68808600D01*
X85182756Y-68930965D01*
X85255073Y-69043349D01*
X85365417Y-69118744D01*
X85496400Y-69145269D01*
X87223600Y-69145269D01*
X87345965Y-69122244D01*
X87458349Y-69049927D01*
X87533744Y-68939583D01*
X87560269Y-68808600D01*
X87560269Y-67921612D01*
X87706200Y-67921612D01*
X87706200Y-67968388D01*
X87797073Y-68425235D01*
X88055856Y-68812532D01*
X88443153Y-69071315D01*
X88900000Y-69162188D01*
X89356847Y-69071315D01*
X89744144Y-68812532D01*
X90002927Y-68425235D01*
X90093800Y-67968388D01*
X90093800Y-67921612D01*
X90002927Y-67464765D01*
X89744144Y-67077468D01*
X89356847Y-66818685D01*
X88900000Y-66727812D01*
X88443153Y-66818685D01*
X88055856Y-67077468D01*
X87797073Y-67464765D01*
X87706200Y-67921612D01*
X87560269Y-67921612D01*
X87560269Y-67081400D01*
X87537244Y-66959035D01*
X87464927Y-66846651D01*
X87354583Y-66771256D01*
X87223600Y-66744731D01*
X85496400Y-66744731D01*
X85374035Y-66767756D01*
X85261651Y-66840073D01*
X85186256Y-66950417D01*
X85159731Y-67081400D01*
X79145200Y-67081400D01*
X79145200Y-65711770D01*
X85153788Y-65711770D01*
X85363001Y-66150016D01*
X85723998Y-66474840D01*
X86053232Y-66611201D01*
X86245700Y-66548652D01*
X86245700Y-65519300D01*
X86474300Y-65519300D01*
X86474300Y-66548652D01*
X86666768Y-66611201D01*
X86996002Y-66474840D01*
X87356999Y-66150016D01*
X87566212Y-65711770D01*
X87693788Y-65711770D01*
X87903001Y-66150016D01*
X88263998Y-66474840D01*
X88593232Y-66611201D01*
X88785700Y-66548652D01*
X88785700Y-65519300D01*
X89014300Y-65519300D01*
X89014300Y-66548652D01*
X89206768Y-66611201D01*
X89536002Y-66474840D01*
X89896999Y-66150016D01*
X90106212Y-65711770D01*
X90233788Y-65711770D01*
X90443001Y-66150016D01*
X90803998Y-66474840D01*
X91133232Y-66611201D01*
X91325700Y-66548652D01*
X91325700Y-65519300D01*
X91554300Y-65519300D01*
X91554300Y-66548652D01*
X91746768Y-66611201D01*
X92076002Y-66474840D01*
X92436999Y-66150016D01*
X92646212Y-65711770D01*
X92584101Y-65519300D01*
X91554300Y-65519300D01*
X91325700Y-65519300D01*
X90295899Y-65519300D01*
X90233788Y-65711770D01*
X90106212Y-65711770D01*
X90044101Y-65519300D01*
X89014300Y-65519300D01*
X88785700Y-65519300D01*
X87755899Y-65519300D01*
X87693788Y-65711770D01*
X87566212Y-65711770D01*
X87504101Y-65519300D01*
X86474300Y-65519300D01*
X86245700Y-65519300D01*
X85215899Y-65519300D01*
X85153788Y-65711770D01*
X79145200Y-65711770D01*
X79145200Y-65098230D01*
X85153788Y-65098230D01*
X85215899Y-65290700D01*
X86245700Y-65290700D01*
X86245700Y-64261348D01*
X86474300Y-64261348D01*
X86474300Y-65290700D01*
X87504101Y-65290700D01*
X87566212Y-65098230D01*
X87693788Y-65098230D01*
X87755899Y-65290700D01*
X88785700Y-65290700D01*
X88785700Y-64261348D01*
X89014300Y-64261348D01*
X89014300Y-65290700D01*
X90044101Y-65290700D01*
X90106212Y-65098230D01*
X90233788Y-65098230D01*
X90295899Y-65290700D01*
X91325700Y-65290700D01*
X91325700Y-64261348D01*
X91554300Y-64261348D01*
X91554300Y-65290700D01*
X92584101Y-65290700D01*
X92646212Y-65098230D01*
X92773788Y-65098230D01*
X92835899Y-65290700D01*
X93865700Y-65290700D01*
X93865700Y-64261348D01*
X94094300Y-64261348D01*
X94094300Y-65290700D01*
X95124101Y-65290700D01*
X95186212Y-65098230D01*
X95313788Y-65098230D01*
X95375899Y-65290700D01*
X96405700Y-65290700D01*
X96405700Y-64261348D01*
X96634300Y-64261348D01*
X96634300Y-65290700D01*
X97664101Y-65290700D01*
X97726212Y-65098230D01*
X97516999Y-64659984D01*
X97156002Y-64335160D01*
X96826768Y-64198799D01*
X96634300Y-64261348D01*
X96405700Y-64261348D01*
X96213232Y-64198799D01*
X95883998Y-64335160D01*
X95523001Y-64659984D01*
X95313788Y-65098230D01*
X95186212Y-65098230D01*
X94976999Y-64659984D01*
X94616002Y-64335160D01*
X94286768Y-64198799D01*
X94094300Y-64261348D01*
X93865700Y-64261348D01*
X93673232Y-64198799D01*
X93343998Y-64335160D01*
X92983001Y-64659984D01*
X92773788Y-65098230D01*
X92646212Y-65098230D01*
X92436999Y-64659984D01*
X92076002Y-64335160D01*
X91746768Y-64198799D01*
X91554300Y-64261348D01*
X91325700Y-64261348D01*
X91133232Y-64198799D01*
X90803998Y-64335160D01*
X90443001Y-64659984D01*
X90233788Y-65098230D01*
X90106212Y-65098230D01*
X89896999Y-64659984D01*
X89536002Y-64335160D01*
X89206768Y-64198799D01*
X89014300Y-64261348D01*
X88785700Y-64261348D01*
X88593232Y-64198799D01*
X88263998Y-64335160D01*
X87903001Y-64659984D01*
X87693788Y-65098230D01*
X87566212Y-65098230D01*
X87356999Y-64659984D01*
X86996002Y-64335160D01*
X86666768Y-64198799D01*
X86474300Y-64261348D01*
X86245700Y-64261348D01*
X86053232Y-64198799D01*
X85723998Y-64335160D01*
X85363001Y-64659984D01*
X85153788Y-65098230D01*
X79145200Y-65098230D01*
X79145200Y-63905200D01*
X103734800Y-63905200D01*
X103734800Y-78028800D01*
X103734800Y-78028800D01*
G37*
X103734800Y-78028800D02*
X102413774Y-78028800D01*
X102870621Y-77937927D01*
X103257918Y-77679144D01*
X103516701Y-77291847D01*
X103607574Y-76835000D01*
X103516701Y-76378153D01*
X103257918Y-75990856D01*
X102870621Y-75732073D01*
X102413774Y-75641200D01*
X102056226Y-75641200D01*
X101778870Y-75696370D01*
X101434960Y-75352460D01*
X101463872Y-75377592D01*
X101925260Y-75531961D01*
X102120700Y-75446095D01*
X102120700Y-74409300D01*
X102349300Y-74409300D01*
X102349300Y-75446095D01*
X102544740Y-75531961D01*
X103006128Y-75377592D01*
X103373320Y-75058408D01*
X103590415Y-74623002D01*
X103593601Y-74601768D01*
X103531052Y-74409300D01*
X102349300Y-74409300D01*
X102120700Y-74409300D01*
X102100700Y-74409300D01*
X102100700Y-74180700D01*
X102120700Y-74180700D01*
X102120700Y-73143905D01*
X102349300Y-73143905D01*
X102349300Y-74180700D01*
X103531052Y-74180700D01*
X103593601Y-73988232D01*
X103590415Y-73966998D01*
X103373320Y-73531592D01*
X103006128Y-73212408D01*
X102544740Y-73058039D01*
X102349300Y-73143905D01*
X102120700Y-73143905D01*
X102106384Y-73137616D01*
X103147750Y-72096250D01*
X103252364Y-71939683D01*
X103289100Y-71755000D01*
X103289100Y-66675000D01*
X103252364Y-66490317D01*
X103147750Y-66333750D01*
X101877750Y-65063750D01*
X101721183Y-64959136D01*
X101536500Y-64922400D01*
X100203000Y-64922400D01*
X100018317Y-64959136D01*
X99861750Y-65063750D01*
X98733100Y-66192400D01*
X97469895Y-66192400D01*
X97516999Y-66150016D01*
X97726212Y-65711770D01*
X97664101Y-65519300D01*
X96634300Y-65519300D01*
X96634300Y-65539300D01*
X96405700Y-65539300D01*
X96405700Y-65519300D01*
X95375899Y-65519300D01*
X95313788Y-65711770D01*
X95523001Y-66150016D01*
X95570105Y-66192400D01*
X94929895Y-66192400D01*
X94976999Y-66150016D01*
X95186212Y-65711770D01*
X95124101Y-65519300D01*
X94094300Y-65519300D01*
X94094300Y-65539300D01*
X93865700Y-65539300D01*
X93865700Y-65519300D01*
X92835899Y-65519300D01*
X92773788Y-65711770D01*
X92983001Y-66150016D01*
X93030105Y-66192400D01*
X92583000Y-66192400D01*
X92398317Y-66229136D01*
X92241750Y-66333750D01*
X91780048Y-66795452D01*
X91440000Y-66727812D01*
X90983153Y-66818685D01*
X90595856Y-67077468D01*
X90337073Y-67464765D01*
X90246200Y-67921612D01*
X90246200Y-67968388D01*
X90337073Y-68425235D01*
X90595856Y-68812532D01*
X90983153Y-69071315D01*
X91135200Y-69101559D01*
X91135200Y-73812400D01*
X91171936Y-73997083D01*
X91276550Y-74153650D01*
X92100400Y-74977500D01*
X92100400Y-75294460D01*
X92055747Y-75339035D01*
X91960808Y-75567674D01*
X91960592Y-75815240D01*
X92055132Y-76044044D01*
X92230035Y-76219253D01*
X92458674Y-76314192D01*
X92706240Y-76314408D01*
X92935044Y-76219868D01*
X93110253Y-76044965D01*
X93205192Y-75816326D01*
X93205408Y-75568760D01*
X93110868Y-75339956D01*
X93065600Y-75294609D01*
X93065600Y-74777600D01*
X93028864Y-74592917D01*
X92924250Y-74436350D01*
X92100400Y-73612500D01*
X92100400Y-68935306D01*
X92284144Y-68812532D01*
X92542927Y-68425235D01*
X92633800Y-67968388D01*
X92633800Y-67921612D01*
X92542927Y-67464765D01*
X92516014Y-67424486D01*
X92782900Y-67157600D01*
X93082314Y-67157600D01*
X92877073Y-67464765D01*
X92786200Y-67921612D01*
X92786200Y-67968388D01*
X92877073Y-68425235D01*
X93135856Y-68812532D01*
X93523153Y-69071315D01*
X93980000Y-69162188D01*
X94436847Y-69071315D01*
X94824144Y-68812532D01*
X95082927Y-68425235D01*
X95173800Y-67968388D01*
X95173800Y-67921612D01*
X95082927Y-67464765D01*
X94877686Y-67157600D01*
X95622314Y-67157600D01*
X95417073Y-67464765D01*
X95326200Y-67921612D01*
X95326200Y-67968388D01*
X95417073Y-68425235D01*
X95675856Y-68812532D01*
X96063153Y-69071315D01*
X96520000Y-69162188D01*
X96976847Y-69071315D01*
X97364144Y-68812532D01*
X97622927Y-68425235D01*
X97713800Y-67968388D01*
X97713800Y-67921612D01*
X97622927Y-67464765D01*
X97417686Y-67157600D01*
X98933000Y-67157600D01*
X99117683Y-67120864D01*
X99274250Y-67016250D01*
X100402900Y-65887600D01*
X101336600Y-65887600D01*
X102323900Y-66874900D01*
X102323900Y-71555100D01*
X100560250Y-73318750D01*
X100455636Y-73475317D01*
X100418900Y-73660000D01*
X100418900Y-75501500D01*
X100455636Y-75686183D01*
X100560250Y-75842750D01*
X101010318Y-76292818D01*
X100953299Y-76378153D01*
X100951977Y-76384800D01*
X100930177Y-76389136D01*
X100773610Y-76493750D01*
X97729853Y-79537507D01*
X97666760Y-79537452D01*
X97437956Y-79631992D01*
X97262747Y-79806895D01*
X97174169Y-80020215D01*
X97174169Y-79603600D01*
X97154350Y-79498271D01*
X97174169Y-79400400D01*
X97174169Y-78892400D01*
X97151144Y-78770035D01*
X97078827Y-78657651D01*
X96999408Y-78603386D01*
X97066644Y-78504983D01*
X97093169Y-78374000D01*
X97093169Y-77974000D01*
X97070144Y-77851635D01*
X96997827Y-77739251D01*
X96977200Y-77725157D01*
X96977200Y-77724367D01*
X96991249Y-77715327D01*
X97066644Y-77604983D01*
X97093169Y-77474000D01*
X97093169Y-77074000D01*
X97070144Y-76951635D01*
X96997827Y-76839251D01*
X96977200Y-76825157D01*
X96977200Y-76708000D01*
X96971197Y-76678354D01*
X96954132Y-76653379D01*
X96928695Y-76637011D01*
X96901000Y-76631800D01*
X94107000Y-76631800D01*
X94077354Y-76637803D01*
X94052379Y-76654868D01*
X94036011Y-76680305D01*
X94030800Y-76708000D01*
X94030800Y-77435200D01*
X93691200Y-77774800D01*
X84740564Y-77774800D01*
X82626200Y-75660436D01*
X82626200Y-72263000D01*
X82620197Y-72233354D01*
X82603132Y-72208379D01*
X82577695Y-72192011D01*
X82550000Y-72186800D01*
X79145200Y-72186800D01*
X79145200Y-67081400D01*
X85159731Y-67081400D01*
X85159731Y-68808600D01*
X85182756Y-68930965D01*
X85255073Y-69043349D01*
X85365417Y-69118744D01*
X85496400Y-69145269D01*
X87223600Y-69145269D01*
X87345965Y-69122244D01*
X87458349Y-69049927D01*
X87533744Y-68939583D01*
X87560269Y-68808600D01*
X87560269Y-67921612D01*
X87706200Y-67921612D01*
X87706200Y-67968388D01*
X87797073Y-68425235D01*
X88055856Y-68812532D01*
X88443153Y-69071315D01*
X88900000Y-69162188D01*
X89356847Y-69071315D01*
X89744144Y-68812532D01*
X90002927Y-68425235D01*
X90093800Y-67968388D01*
X90093800Y-67921612D01*
X90002927Y-67464765D01*
X89744144Y-67077468D01*
X89356847Y-66818685D01*
X88900000Y-66727812D01*
X88443153Y-66818685D01*
X88055856Y-67077468D01*
X87797073Y-67464765D01*
X87706200Y-67921612D01*
X87560269Y-67921612D01*
X87560269Y-67081400D01*
X87537244Y-66959035D01*
X87464927Y-66846651D01*
X87354583Y-66771256D01*
X87223600Y-66744731D01*
X85496400Y-66744731D01*
X85374035Y-66767756D01*
X85261651Y-66840073D01*
X85186256Y-66950417D01*
X85159731Y-67081400D01*
X79145200Y-67081400D01*
X79145200Y-65711770D01*
X85153788Y-65711770D01*
X85363001Y-66150016D01*
X85723998Y-66474840D01*
X86053232Y-66611201D01*
X86245700Y-66548652D01*
X86245700Y-65519300D01*
X86474300Y-65519300D01*
X86474300Y-66548652D01*
X86666768Y-66611201D01*
X86996002Y-66474840D01*
X87356999Y-66150016D01*
X87566212Y-65711770D01*
X87693788Y-65711770D01*
X87903001Y-66150016D01*
X88263998Y-66474840D01*
X88593232Y-66611201D01*
X88785700Y-66548652D01*
X88785700Y-65519300D01*
X89014300Y-65519300D01*
X89014300Y-66548652D01*
X89206768Y-66611201D01*
X89536002Y-66474840D01*
X89896999Y-66150016D01*
X90106212Y-65711770D01*
X90233788Y-65711770D01*
X90443001Y-66150016D01*
X90803998Y-66474840D01*
X91133232Y-66611201D01*
X91325700Y-66548652D01*
X91325700Y-65519300D01*
X91554300Y-65519300D01*
X91554300Y-66548652D01*
X91746768Y-66611201D01*
X92076002Y-66474840D01*
X92436999Y-66150016D01*
X92646212Y-65711770D01*
X92584101Y-65519300D01*
X91554300Y-65519300D01*
X91325700Y-65519300D01*
X90295899Y-65519300D01*
X90233788Y-65711770D01*
X90106212Y-65711770D01*
X90044101Y-65519300D01*
X89014300Y-65519300D01*
X88785700Y-65519300D01*
X87755899Y-65519300D01*
X87693788Y-65711770D01*
X87566212Y-65711770D01*
X87504101Y-65519300D01*
X86474300Y-65519300D01*
X86245700Y-65519300D01*
X85215899Y-65519300D01*
X85153788Y-65711770D01*
X79145200Y-65711770D01*
X79145200Y-65098230D01*
X85153788Y-65098230D01*
X85215899Y-65290700D01*
X86245700Y-65290700D01*
X86245700Y-64261348D01*
X86474300Y-64261348D01*
X86474300Y-65290700D01*
X87504101Y-65290700D01*
X87566212Y-65098230D01*
X87693788Y-65098230D01*
X87755899Y-65290700D01*
X88785700Y-65290700D01*
X88785700Y-64261348D01*
X89014300Y-64261348D01*
X89014300Y-65290700D01*
X90044101Y-65290700D01*
X90106212Y-65098230D01*
X90233788Y-65098230D01*
X90295899Y-65290700D01*
X91325700Y-65290700D01*
X91325700Y-64261348D01*
X91554300Y-64261348D01*
X91554300Y-65290700D01*
X92584101Y-65290700D01*
X92646212Y-65098230D01*
X92773788Y-65098230D01*
X92835899Y-65290700D01*
X93865700Y-65290700D01*
X93865700Y-64261348D01*
X94094300Y-64261348D01*
X94094300Y-65290700D01*
X95124101Y-65290700D01*
X95186212Y-65098230D01*
X95313788Y-65098230D01*
X95375899Y-65290700D01*
X96405700Y-65290700D01*
X96405700Y-64261348D01*
X96634300Y-64261348D01*
X96634300Y-65290700D01*
X97664101Y-65290700D01*
X97726212Y-65098230D01*
X97516999Y-64659984D01*
X97156002Y-64335160D01*
X96826768Y-64198799D01*
X96634300Y-64261348D01*
X96405700Y-64261348D01*
X96213232Y-64198799D01*
X95883998Y-64335160D01*
X95523001Y-64659984D01*
X95313788Y-65098230D01*
X95186212Y-65098230D01*
X94976999Y-64659984D01*
X94616002Y-64335160D01*
X94286768Y-64198799D01*
X94094300Y-64261348D01*
X93865700Y-64261348D01*
X93673232Y-64198799D01*
X93343998Y-64335160D01*
X92983001Y-64659984D01*
X92773788Y-65098230D01*
X92646212Y-65098230D01*
X92436999Y-64659984D01*
X92076002Y-64335160D01*
X91746768Y-64198799D01*
X91554300Y-64261348D01*
X91325700Y-64261348D01*
X91133232Y-64198799D01*
X90803998Y-64335160D01*
X90443001Y-64659984D01*
X90233788Y-65098230D01*
X90106212Y-65098230D01*
X89896999Y-64659984D01*
X89536002Y-64335160D01*
X89206768Y-64198799D01*
X89014300Y-64261348D01*
X88785700Y-64261348D01*
X88593232Y-64198799D01*
X88263998Y-64335160D01*
X87903001Y-64659984D01*
X87693788Y-65098230D01*
X87566212Y-65098230D01*
X87356999Y-64659984D01*
X86996002Y-64335160D01*
X86666768Y-64198799D01*
X86474300Y-64261348D01*
X86245700Y-64261348D01*
X86053232Y-64198799D01*
X85723998Y-64335160D01*
X85363001Y-64659984D01*
X85153788Y-65098230D01*
X79145200Y-65098230D01*
X79145200Y-63905200D01*
X103734800Y-63905200D01*
X103734800Y-78028800D01*
G36*
X82219800Y-75819000D02*
X82225803Y-75848646D01*
X82242118Y-75872882D01*
X84528118Y-78158882D01*
X84553327Y-78175599D01*
X84582000Y-78181200D01*
X89384000Y-78181200D01*
X89384000Y-78835950D01*
X89479250Y-78931200D01*
X89535000Y-78931200D01*
X89535000Y-79159800D01*
X89479250Y-79159800D01*
X89384000Y-79255050D01*
X89384000Y-80510950D01*
X89479250Y-80606200D01*
X89535000Y-80606200D01*
X89535000Y-80834800D01*
X89479250Y-80834800D01*
X89384000Y-80930050D01*
X89384000Y-81633785D01*
X89442004Y-81773819D01*
X89549180Y-81880996D01*
X89689214Y-81939000D01*
X90392950Y-81939000D01*
X90488200Y-81843750D01*
X90488200Y-81788000D01*
X90716800Y-81788000D01*
X90716800Y-81843750D01*
X90812050Y-81939000D01*
X92067950Y-81939000D01*
X92163200Y-81843750D01*
X92163200Y-81788000D01*
X92391800Y-81788000D01*
X92391800Y-81843750D01*
X92487050Y-81939000D01*
X93190786Y-81939000D01*
X93330820Y-81880996D01*
X93433900Y-81777915D01*
X93433900Y-83972400D01*
X91414540Y-83972400D01*
X91369965Y-83927747D01*
X91141326Y-83832808D01*
X90893760Y-83832592D01*
X90664956Y-83927132D01*
X90489747Y-84102035D01*
X90394808Y-84330674D01*
X90394592Y-84578240D01*
X90489132Y-84807044D01*
X90664035Y-84982253D01*
X90892674Y-85077192D01*
X91140240Y-85077408D01*
X91369044Y-84982868D01*
X91414391Y-84937600D01*
X97028000Y-84937600D01*
X97212683Y-84900864D01*
X97369250Y-84796250D01*
X97710500Y-84455000D01*
X100862426Y-84455000D01*
X100953299Y-84911847D01*
X101212082Y-85299144D01*
X101599379Y-85557927D01*
X102056226Y-85648800D01*
X102413774Y-85648800D01*
X102870621Y-85557927D01*
X103257918Y-85299144D01*
X103516701Y-84911847D01*
X103607574Y-84455000D01*
X103516701Y-83998153D01*
X103257918Y-83610856D01*
X102870621Y-83352073D01*
X102413774Y-83261200D01*
X102056226Y-83261200D01*
X101599379Y-83352073D01*
X101212082Y-83610856D01*
X100953299Y-83998153D01*
X100862426Y-84455000D01*
X97710500Y-84455000D01*
X97786647Y-84378853D01*
X97849740Y-84378908D01*
X98078544Y-84284368D01*
X98253753Y-84109465D01*
X98348692Y-83880826D01*
X98348908Y-83633260D01*
X98254368Y-83404456D01*
X98079465Y-83229247D01*
X97850826Y-83134308D01*
X97603260Y-83134092D01*
X97374456Y-83228632D01*
X97199247Y-83403535D01*
X97104308Y-83632174D01*
X97104252Y-83696248D01*
X96828100Y-83972400D01*
X94399100Y-83972400D01*
X94399100Y-81915000D01*
X100862426Y-81915000D01*
X100953299Y-82371847D01*
X101212082Y-82759144D01*
X101599379Y-83017927D01*
X102056226Y-83108800D01*
X102413774Y-83108800D01*
X102870621Y-83017927D01*
X103257918Y-82759144D01*
X103516701Y-82371847D01*
X103607574Y-81915000D01*
X103516701Y-81458153D01*
X103257918Y-81070856D01*
X102870621Y-80812073D01*
X102413774Y-80721200D01*
X102056226Y-80721200D01*
X101599379Y-80812073D01*
X101212082Y-81070856D01*
X100953299Y-81458153D01*
X100862426Y-81915000D01*
X94399100Y-81915000D01*
X94399100Y-80067150D01*
X94424500Y-80067150D01*
X94424500Y-80187386D01*
X94482504Y-80327420D01*
X94589681Y-80434596D01*
X94729715Y-80492600D01*
X94976950Y-80492600D01*
X95072200Y-80397350D01*
X95072200Y-79971900D01*
X95300800Y-79971900D01*
X95300800Y-80397350D01*
X95396050Y-80492600D01*
X95643285Y-80492600D01*
X95783319Y-80434596D01*
X95821500Y-80396415D01*
X95859681Y-80434596D01*
X95999715Y-80492600D01*
X96246950Y-80492600D01*
X96342200Y-80397350D01*
X96342200Y-79971900D01*
X95300800Y-79971900D01*
X95072200Y-79971900D01*
X94519750Y-79971900D01*
X94424500Y-80067150D01*
X94399100Y-80067150D01*
X94399100Y-78431900D01*
X94549831Y-78281169D01*
X94549831Y-78374000D01*
X94572856Y-78496365D01*
X94642641Y-78604813D01*
X94570751Y-78651073D01*
X94495356Y-78761417D01*
X94468831Y-78892400D01*
X94468831Y-79400400D01*
X94471469Y-79414420D01*
X94424500Y-79527814D01*
X94424500Y-79648050D01*
X94519750Y-79743300D01*
X95072200Y-79743300D01*
X95072200Y-79737069D01*
X95300800Y-79737069D01*
X95300800Y-79743300D01*
X96342200Y-79743300D01*
X96342200Y-79737069D01*
X96570800Y-79737069D01*
X96570800Y-81788000D01*
X96576803Y-81817646D01*
X96593868Y-81842621D01*
X96619305Y-81858989D01*
X96647000Y-81864200D01*
X98933000Y-81864200D01*
X98962646Y-81858197D01*
X98987621Y-81841132D01*
X99003989Y-81815695D01*
X99009200Y-81788000D01*
X99009200Y-79787564D01*
X100361564Y-78435200D01*
X101355242Y-78435200D01*
X101212082Y-78530856D01*
X100953299Y-78918153D01*
X100862426Y-79375000D01*
X100953299Y-79831847D01*
X101212082Y-80219144D01*
X101599379Y-80477927D01*
X102056226Y-80568800D01*
X102413774Y-80568800D01*
X102870621Y-80477927D01*
X103257918Y-80219144D01*
X103516701Y-79831847D01*
X103607574Y-79375000D01*
X103516701Y-78918153D01*
X103257918Y-78530856D01*
X103114758Y-78435200D01*
X103734800Y-78435200D01*
X103734800Y-88494800D01*
X79145200Y-88494800D01*
X79145200Y-86995000D01*
X79272426Y-86995000D01*
X79363299Y-87451847D01*
X79622082Y-87839144D01*
X80009379Y-88097927D01*
X80466226Y-88188800D01*
X80823774Y-88188800D01*
X81280621Y-88097927D01*
X81667918Y-87839144D01*
X81926701Y-87451847D01*
X81975891Y-87204550D01*
X100838000Y-87204550D01*
X100838000Y-87934385D01*
X100896004Y-88074419D01*
X101003180Y-88181596D01*
X101143214Y-88239600D01*
X102025450Y-88239600D01*
X102120700Y-88144350D01*
X102120700Y-87109300D01*
X102349300Y-87109300D01*
X102349300Y-88144350D01*
X102444550Y-88239600D01*
X103326786Y-88239600D01*
X103466820Y-88181596D01*
X103573996Y-88074419D01*
X103632000Y-87934385D01*
X103632000Y-87204550D01*
X103536750Y-87109300D01*
X102349300Y-87109300D01*
X102120700Y-87109300D01*
X100933250Y-87109300D01*
X100838000Y-87204550D01*
X81975891Y-87204550D01*
X82017574Y-86995000D01*
X81926701Y-86538153D01*
X81667918Y-86150856D01*
X81525380Y-86055615D01*
X100838000Y-86055615D01*
X100838000Y-86785450D01*
X100933250Y-86880700D01*
X102120700Y-86880700D01*
X102120700Y-85845650D01*
X102349300Y-85845650D01*
X102349300Y-86880700D01*
X103536750Y-86880700D01*
X103632000Y-86785450D01*
X103632000Y-86055615D01*
X103573996Y-85915581D01*
X103466820Y-85808404D01*
X103326786Y-85750400D01*
X102444550Y-85750400D01*
X102349300Y-85845650D01*
X102120700Y-85845650D01*
X102025450Y-85750400D01*
X101143214Y-85750400D01*
X101003180Y-85808404D01*
X100896004Y-85915581D01*
X100838000Y-86055615D01*
X81525380Y-86055615D01*
X81280621Y-85892073D01*
X80823774Y-85801200D01*
X80466226Y-85801200D01*
X80009379Y-85892073D01*
X79622082Y-86150856D01*
X79363299Y-86538153D01*
X79272426Y-86995000D01*
X79145200Y-86995000D01*
X79145200Y-84455000D01*
X79272426Y-84455000D01*
X79363299Y-84911847D01*
X79622082Y-85299144D01*
X80009379Y-85557927D01*
X80466226Y-85648800D01*
X80823774Y-85648800D01*
X81280621Y-85557927D01*
X81667918Y-85299144D01*
X81926701Y-84911847D01*
X82017574Y-84455000D01*
X81926701Y-83998153D01*
X81667918Y-83610856D01*
X81280621Y-83352073D01*
X80823774Y-83261200D01*
X80466226Y-83261200D01*
X80009379Y-83352073D01*
X79622082Y-83610856D01*
X79363299Y-83998153D01*
X79272426Y-84455000D01*
X79145200Y-84455000D01*
X79145200Y-81915000D01*
X79272426Y-81915000D01*
X79363299Y-82371847D01*
X79622082Y-82759144D01*
X80009379Y-83017927D01*
X80466226Y-83108800D01*
X80823774Y-83108800D01*
X81280621Y-83017927D01*
X81667918Y-82759144D01*
X81926701Y-82371847D01*
X82017574Y-81915000D01*
X81926701Y-81458153D01*
X81667918Y-81070856D01*
X81280621Y-80812073D01*
X80823774Y-80721200D01*
X80466226Y-80721200D01*
X80009379Y-80812073D01*
X79622082Y-81070856D01*
X79363299Y-81458153D01*
X79272426Y-81915000D01*
X79145200Y-81915000D01*
X79145200Y-79375000D01*
X79272426Y-79375000D01*
X79363299Y-79831847D01*
X79622082Y-80219144D01*
X80009379Y-80477927D01*
X80466226Y-80568800D01*
X80823774Y-80568800D01*
X81280621Y-80477927D01*
X81667918Y-80219144D01*
X81926701Y-79831847D01*
X82017574Y-79375000D01*
X81926701Y-78918153D01*
X81667918Y-78530856D01*
X81280621Y-78272073D01*
X80823774Y-78181200D01*
X80466226Y-78181200D01*
X80009379Y-78272073D01*
X79622082Y-78530856D01*
X79363299Y-78918153D01*
X79272426Y-79375000D01*
X79145200Y-79375000D01*
X79145200Y-76835000D01*
X79272426Y-76835000D01*
X79363299Y-77291847D01*
X79622082Y-77679144D01*
X80009379Y-77937927D01*
X80466226Y-78028800D01*
X80823774Y-78028800D01*
X81280621Y-77937927D01*
X81667918Y-77679144D01*
X81926701Y-77291847D01*
X82017574Y-76835000D01*
X81926701Y-76378153D01*
X81667918Y-75990856D01*
X81280621Y-75732073D01*
X80823774Y-75641200D01*
X80466226Y-75641200D01*
X80009379Y-75732073D01*
X79622082Y-75990856D01*
X79363299Y-76378153D01*
X79272426Y-76835000D01*
X79145200Y-76835000D01*
X79145200Y-73431400D01*
X79292331Y-73431400D01*
X79292331Y-75158600D01*
X79315356Y-75280965D01*
X79387673Y-75393349D01*
X79498017Y-75468744D01*
X79629000Y-75495269D01*
X81661000Y-75495269D01*
X81783365Y-75472244D01*
X81895749Y-75399927D01*
X81971144Y-75289583D01*
X81997669Y-75158600D01*
X81997669Y-73431400D01*
X81974644Y-73309035D01*
X81902327Y-73196651D01*
X81791983Y-73121256D01*
X81661000Y-73094731D01*
X79629000Y-73094731D01*
X79506635Y-73117756D01*
X79394251Y-73190073D01*
X79318856Y-73300417D01*
X79292331Y-73431400D01*
X79145200Y-73431400D01*
X79145200Y-72593200D01*
X82219800Y-72593200D01*
X82219800Y-75819000D01*
X82219800Y-75819000D01*
G37*
X82219800Y-75819000D02*
X82225803Y-75848646D01*
X82242118Y-75872882D01*
X84528118Y-78158882D01*
X84553327Y-78175599D01*
X84582000Y-78181200D01*
X89384000Y-78181200D01*
X89384000Y-78835950D01*
X89479250Y-78931200D01*
X89535000Y-78931200D01*
X89535000Y-79159800D01*
X89479250Y-79159800D01*
X89384000Y-79255050D01*
X89384000Y-80510950D01*
X89479250Y-80606200D01*
X89535000Y-80606200D01*
X89535000Y-80834800D01*
X89479250Y-80834800D01*
X89384000Y-80930050D01*
X89384000Y-81633785D01*
X89442004Y-81773819D01*
X89549180Y-81880996D01*
X89689214Y-81939000D01*
X90392950Y-81939000D01*
X90488200Y-81843750D01*
X90488200Y-81788000D01*
X90716800Y-81788000D01*
X90716800Y-81843750D01*
X90812050Y-81939000D01*
X92067950Y-81939000D01*
X92163200Y-81843750D01*
X92163200Y-81788000D01*
X92391800Y-81788000D01*
X92391800Y-81843750D01*
X92487050Y-81939000D01*
X93190786Y-81939000D01*
X93330820Y-81880996D01*
X93433900Y-81777915D01*
X93433900Y-83972400D01*
X91414540Y-83972400D01*
X91369965Y-83927747D01*
X91141326Y-83832808D01*
X90893760Y-83832592D01*
X90664956Y-83927132D01*
X90489747Y-84102035D01*
X90394808Y-84330674D01*
X90394592Y-84578240D01*
X90489132Y-84807044D01*
X90664035Y-84982253D01*
X90892674Y-85077192D01*
X91140240Y-85077408D01*
X91369044Y-84982868D01*
X91414391Y-84937600D01*
X97028000Y-84937600D01*
X97212683Y-84900864D01*
X97369250Y-84796250D01*
X97710500Y-84455000D01*
X100862426Y-84455000D01*
X100953299Y-84911847D01*
X101212082Y-85299144D01*
X101599379Y-85557927D01*
X102056226Y-85648800D01*
X102413774Y-85648800D01*
X102870621Y-85557927D01*
X103257918Y-85299144D01*
X103516701Y-84911847D01*
X103607574Y-84455000D01*
X103516701Y-83998153D01*
X103257918Y-83610856D01*
X102870621Y-83352073D01*
X102413774Y-83261200D01*
X102056226Y-83261200D01*
X101599379Y-83352073D01*
X101212082Y-83610856D01*
X100953299Y-83998153D01*
X100862426Y-84455000D01*
X97710500Y-84455000D01*
X97786647Y-84378853D01*
X97849740Y-84378908D01*
X98078544Y-84284368D01*
X98253753Y-84109465D01*
X98348692Y-83880826D01*
X98348908Y-83633260D01*
X98254368Y-83404456D01*
X98079465Y-83229247D01*
X97850826Y-83134308D01*
X97603260Y-83134092D01*
X97374456Y-83228632D01*
X97199247Y-83403535D01*
X97104308Y-83632174D01*
X97104252Y-83696248D01*
X96828100Y-83972400D01*
X94399100Y-83972400D01*
X94399100Y-81915000D01*
X100862426Y-81915000D01*
X100953299Y-82371847D01*
X101212082Y-82759144D01*
X101599379Y-83017927D01*
X102056226Y-83108800D01*
X102413774Y-83108800D01*
X102870621Y-83017927D01*
X103257918Y-82759144D01*
X103516701Y-82371847D01*
X103607574Y-81915000D01*
X103516701Y-81458153D01*
X103257918Y-81070856D01*
X102870621Y-80812073D01*
X102413774Y-80721200D01*
X102056226Y-80721200D01*
X101599379Y-80812073D01*
X101212082Y-81070856D01*
X100953299Y-81458153D01*
X100862426Y-81915000D01*
X94399100Y-81915000D01*
X94399100Y-80067150D01*
X94424500Y-80067150D01*
X94424500Y-80187386D01*
X94482504Y-80327420D01*
X94589681Y-80434596D01*
X94729715Y-80492600D01*
X94976950Y-80492600D01*
X95072200Y-80397350D01*
X95072200Y-79971900D01*
X95300800Y-79971900D01*
X95300800Y-80397350D01*
X95396050Y-80492600D01*
X95643285Y-80492600D01*
X95783319Y-80434596D01*
X95821500Y-80396415D01*
X95859681Y-80434596D01*
X95999715Y-80492600D01*
X96246950Y-80492600D01*
X96342200Y-80397350D01*
X96342200Y-79971900D01*
X95300800Y-79971900D01*
X95072200Y-79971900D01*
X94519750Y-79971900D01*
X94424500Y-80067150D01*
X94399100Y-80067150D01*
X94399100Y-78431900D01*
X94549831Y-78281169D01*
X94549831Y-78374000D01*
X94572856Y-78496365D01*
X94642641Y-78604813D01*
X94570751Y-78651073D01*
X94495356Y-78761417D01*
X94468831Y-78892400D01*
X94468831Y-79400400D01*
X94471469Y-79414420D01*
X94424500Y-79527814D01*
X94424500Y-79648050D01*
X94519750Y-79743300D01*
X95072200Y-79743300D01*
X95072200Y-79737069D01*
X95300800Y-79737069D01*
X95300800Y-79743300D01*
X96342200Y-79743300D01*
X96342200Y-79737069D01*
X96570800Y-79737069D01*
X96570800Y-81788000D01*
X96576803Y-81817646D01*
X96593868Y-81842621D01*
X96619305Y-81858989D01*
X96647000Y-81864200D01*
X98933000Y-81864200D01*
X98962646Y-81858197D01*
X98987621Y-81841132D01*
X99003989Y-81815695D01*
X99009200Y-81788000D01*
X99009200Y-79787564D01*
X100361564Y-78435200D01*
X101355242Y-78435200D01*
X101212082Y-78530856D01*
X100953299Y-78918153D01*
X100862426Y-79375000D01*
X100953299Y-79831847D01*
X101212082Y-80219144D01*
X101599379Y-80477927D01*
X102056226Y-80568800D01*
X102413774Y-80568800D01*
X102870621Y-80477927D01*
X103257918Y-80219144D01*
X103516701Y-79831847D01*
X103607574Y-79375000D01*
X103516701Y-78918153D01*
X103257918Y-78530856D01*
X103114758Y-78435200D01*
X103734800Y-78435200D01*
X103734800Y-88494800D01*
X79145200Y-88494800D01*
X79145200Y-86995000D01*
X79272426Y-86995000D01*
X79363299Y-87451847D01*
X79622082Y-87839144D01*
X80009379Y-88097927D01*
X80466226Y-88188800D01*
X80823774Y-88188800D01*
X81280621Y-88097927D01*
X81667918Y-87839144D01*
X81926701Y-87451847D01*
X81975891Y-87204550D01*
X100838000Y-87204550D01*
X100838000Y-87934385D01*
X100896004Y-88074419D01*
X101003180Y-88181596D01*
X101143214Y-88239600D01*
X102025450Y-88239600D01*
X102120700Y-88144350D01*
X102120700Y-87109300D01*
X102349300Y-87109300D01*
X102349300Y-88144350D01*
X102444550Y-88239600D01*
X103326786Y-88239600D01*
X103466820Y-88181596D01*
X103573996Y-88074419D01*
X103632000Y-87934385D01*
X103632000Y-87204550D01*
X103536750Y-87109300D01*
X102349300Y-87109300D01*
X102120700Y-87109300D01*
X100933250Y-87109300D01*
X100838000Y-87204550D01*
X81975891Y-87204550D01*
X82017574Y-86995000D01*
X81926701Y-86538153D01*
X81667918Y-86150856D01*
X81525380Y-86055615D01*
X100838000Y-86055615D01*
X100838000Y-86785450D01*
X100933250Y-86880700D01*
X102120700Y-86880700D01*
X102120700Y-85845650D01*
X102349300Y-85845650D01*
X102349300Y-86880700D01*
X103536750Y-86880700D01*
X103632000Y-86785450D01*
X103632000Y-86055615D01*
X103573996Y-85915581D01*
X103466820Y-85808404D01*
X103326786Y-85750400D01*
X102444550Y-85750400D01*
X102349300Y-85845650D01*
X102120700Y-85845650D01*
X102025450Y-85750400D01*
X101143214Y-85750400D01*
X101003180Y-85808404D01*
X100896004Y-85915581D01*
X100838000Y-86055615D01*
X81525380Y-86055615D01*
X81280621Y-85892073D01*
X80823774Y-85801200D01*
X80466226Y-85801200D01*
X80009379Y-85892073D01*
X79622082Y-86150856D01*
X79363299Y-86538153D01*
X79272426Y-86995000D01*
X79145200Y-86995000D01*
X79145200Y-84455000D01*
X79272426Y-84455000D01*
X79363299Y-84911847D01*
X79622082Y-85299144D01*
X80009379Y-85557927D01*
X80466226Y-85648800D01*
X80823774Y-85648800D01*
X81280621Y-85557927D01*
X81667918Y-85299144D01*
X81926701Y-84911847D01*
X82017574Y-84455000D01*
X81926701Y-83998153D01*
X81667918Y-83610856D01*
X81280621Y-83352073D01*
X80823774Y-83261200D01*
X80466226Y-83261200D01*
X80009379Y-83352073D01*
X79622082Y-83610856D01*
X79363299Y-83998153D01*
X79272426Y-84455000D01*
X79145200Y-84455000D01*
X79145200Y-81915000D01*
X79272426Y-81915000D01*
X79363299Y-82371847D01*
X79622082Y-82759144D01*
X80009379Y-83017927D01*
X80466226Y-83108800D01*
X80823774Y-83108800D01*
X81280621Y-83017927D01*
X81667918Y-82759144D01*
X81926701Y-82371847D01*
X82017574Y-81915000D01*
X81926701Y-81458153D01*
X81667918Y-81070856D01*
X81280621Y-80812073D01*
X80823774Y-80721200D01*
X80466226Y-80721200D01*
X80009379Y-80812073D01*
X79622082Y-81070856D01*
X79363299Y-81458153D01*
X79272426Y-81915000D01*
X79145200Y-81915000D01*
X79145200Y-79375000D01*
X79272426Y-79375000D01*
X79363299Y-79831847D01*
X79622082Y-80219144D01*
X80009379Y-80477927D01*
X80466226Y-80568800D01*
X80823774Y-80568800D01*
X81280621Y-80477927D01*
X81667918Y-80219144D01*
X81926701Y-79831847D01*
X82017574Y-79375000D01*
X81926701Y-78918153D01*
X81667918Y-78530856D01*
X81280621Y-78272073D01*
X80823774Y-78181200D01*
X80466226Y-78181200D01*
X80009379Y-78272073D01*
X79622082Y-78530856D01*
X79363299Y-78918153D01*
X79272426Y-79375000D01*
X79145200Y-79375000D01*
X79145200Y-76835000D01*
X79272426Y-76835000D01*
X79363299Y-77291847D01*
X79622082Y-77679144D01*
X80009379Y-77937927D01*
X80466226Y-78028800D01*
X80823774Y-78028800D01*
X81280621Y-77937927D01*
X81667918Y-77679144D01*
X81926701Y-77291847D01*
X82017574Y-76835000D01*
X81926701Y-76378153D01*
X81667918Y-75990856D01*
X81280621Y-75732073D01*
X80823774Y-75641200D01*
X80466226Y-75641200D01*
X80009379Y-75732073D01*
X79622082Y-75990856D01*
X79363299Y-76378153D01*
X79272426Y-76835000D01*
X79145200Y-76835000D01*
X79145200Y-73431400D01*
X79292331Y-73431400D01*
X79292331Y-75158600D01*
X79315356Y-75280965D01*
X79387673Y-75393349D01*
X79498017Y-75468744D01*
X79629000Y-75495269D01*
X81661000Y-75495269D01*
X81783365Y-75472244D01*
X81895749Y-75399927D01*
X81971144Y-75289583D01*
X81997669Y-75158600D01*
X81997669Y-73431400D01*
X81974644Y-73309035D01*
X81902327Y-73196651D01*
X81791983Y-73121256D01*
X81661000Y-73094731D01*
X79629000Y-73094731D01*
X79506635Y-73117756D01*
X79394251Y-73190073D01*
X79318856Y-73300417D01*
X79292331Y-73431400D01*
X79145200Y-73431400D01*
X79145200Y-72593200D01*
X82219800Y-72593200D01*
X82219800Y-75819000D01*
M02*
